<svg width="23" height="23" viewBox="0 0 23 23" fill="none" xmlns="http://www.w3.org/2000/svg">
<path d="M0 11.5C0 5.14873 5.14873 0 11.5 0C17.8513 0 23 5.14873 23 11.5C23 17.8513 17.8513 23 11.5 23C5.14873 23 0 17.8513 0 11.5Z" fill="#212121"/>
<path d="M14.9797 8.065C15.3811 7.68592 16.0145 7.70378 16.3937 8.10504C16.7727 8.50654 16.7541 9.13896 16.3527 9.51813L9.55973 15.9351C9.19851 16.2763 8.64605 16.2979 8.2609 15.9996L8.18571 15.9351L5.64664 13.5367C5.24535 13.1574 5.22746 12.5241 5.6066 12.1226C5.98577 11.7218 6.61835 11.7039 7.01969 12.0826L8.87223 13.8316L14.9797 8.065Z" fill="white"/>
</svg>
