<svg width="200" height="53" viewBox="0 0 200 53" fill="none" xmlns="http://www.w3.org/2000/svg">
<g clip-path="url(#clip0_2054_6337)">
<path d="M9.73798 46.9457C9.73798 44.3882 10.6502 43.2402 12.3795 43.2402C13.022 43.2478 13.6566 43.3842 14.2455 43.6415L14.1078 44.2787C13.5737 44.0701 13.0096 43.9487 12.437 43.919C11.2333 43.919 10.571 44.4855 10.571 46.822V47.0014C10.571 49.4069 11.2634 50.0979 12.437 50.0979C13.0275 50.0773 13.6028 49.9054 14.1078 49.5985L14.3153 50.1933C13.73 50.5451 13.0622 50.736 12.3795 50.7465C10.6785 50.7475 9.73798 49.5306 9.73798 46.9457Z" fill="#383E47"/>
<path d="M17.3634 43.5037C17.6895 43.339 18.0482 43.249 18.4134 43.2403C18.7355 43.2331 19.0554 43.2943 19.3521 43.4197L19.188 44.1664C18.8741 44.0295 18.534 43.9635 18.1917 43.9729C17.6247 44.0047 17.0912 44.2518 16.7002 44.664V50.5531H15.9134V43.3781H16.2993L16.6766 44.2495L17.3634 43.5037Z" fill="#383E47"/>
<path d="M23.0804 50.0981C23.7188 50.0775 24.3433 49.9064 24.9031 49.5986L25.0823 50.2076C24.4481 50.5451 23.7438 50.7297 23.0257 50.7466C21.2012 50.7466 20.2332 49.5193 20.2332 46.9704C20.2332 44.3156 21.3531 43.2366 22.9417 43.2366C24.5729 43.2366 25.371 44.5224 25.371 46.5125V47.1894H21.0625C21.0823 49.3636 21.7436 50.0981 23.0804 50.0981ZM24.5597 46.5446V46.3652C24.5597 44.5554 24.005 43.8918 22.9427 43.8918C21.8804 43.8918 21.1342 44.3638 21.0644 46.5446H24.5597Z" fill="#383E47"/>
<path d="M30.6134 45.5636C30.6134 44.6195 30.3795 43.9313 29.288 43.9313C28.5875 43.9606 27.8967 44.1058 27.2436 44.3608L27.12 43.7255C27.7969 43.4168 28.5301 43.2516 29.2738 43.2402C30.7653 43.2402 31.388 44.0569 31.388 45.8393V49.5306C31.388 49.9582 31.5398 50.0838 31.8993 50.0838H32.1351L32.1616 50.5672C31.9842 50.6493 31.791 50.6915 31.5955 50.6908C31.4199 50.6938 31.2454 50.6617 31.0823 50.5964L30.6408 49.8355L29.9804 50.5549C29.6315 50.6857 29.2615 50.7513 28.8889 50.7484C28.6047 50.7884 28.3151 50.7626 28.0424 50.6732C27.7697 50.5838 27.521 50.433 27.3155 50.2325C27.1101 50.032 26.9532 49.787 26.857 49.5164C26.7608 49.2458 26.7278 48.9568 26.7606 48.6715C26.7606 47.261 27.5766 46.6521 29.2615 46.5143L30.6153 46.4048L30.6134 45.5636ZM30.6134 46.9457L29.3144 47.0694C28.088 47.1808 27.5615 47.5669 27.5615 48.645V48.7394C27.5615 49.708 27.9908 50.0961 28.9851 50.0961C29.2987 50.1059 29.6102 50.0407 29.8935 49.9059C30.1769 49.7711 30.424 49.5706 30.6144 49.321L30.6134 46.9457Z" fill="#383E47"/>
<path d="M33.8484 49.2398V44.0578H32.9644V43.379H33.8889L34.2483 41.4456H34.6351V43.379H36.2389V44.0578H34.6351V49.3653C34.6351 49.8629 34.7587 50.0262 35.2304 50.0262H36.3502L36.3908 50.4274C35.9481 50.5908 35.4814 50.6792 35.0097 50.6889C34.1785 50.6918 33.8484 50.2622 33.8484 49.2398Z" fill="#383E47"/>
<path d="M37.7728 41.2087C37.776 41.0865 37.8151 40.9679 37.8853 40.8678C37.9555 40.7678 38.0536 40.6907 38.1674 40.6462C38.2812 40.6016 38.4055 40.5917 38.5249 40.6176C38.6443 40.6435 38.7534 40.7041 38.8386 40.7918C38.9237 40.8794 38.9811 40.9903 39.0036 41.1105C39.026 41.2306 39.0126 41.3548 38.9649 41.4673C38.9172 41.5798 38.8373 41.6758 38.7354 41.7432C38.6334 41.8105 38.5139 41.8462 38.3917 41.8459C38.2253 41.8432 38.0668 41.7746 37.9508 41.6552C37.8348 41.5357 37.7708 41.3752 37.7728 41.2087ZM37.9927 43.38H38.7813V50.5549H37.9927V43.38Z" fill="#383E47"/>
<path d="M42.4842 43.5735C42.9194 43.348 43.4035 43.2336 43.8936 43.2403C45.0257 43.2403 45.8257 43.8218 45.8257 45.4654V50.553H45.0389V45.304C45.0389 44.2249 44.5134 43.9077 43.7814 43.9077C43.0841 43.9072 42.4108 44.1624 41.8889 44.6252V50.5558H41.1021V43.3809H41.4889L41.8663 44.2655L42.4842 43.5735Z" fill="#383E47"/>
<path d="M53.2455 43.1997V44.1664H51.6144L52.4162 44.748C52.4918 44.9796 52.5294 45.2219 52.5276 45.4655C52.5488 45.7875 52.4985 46.1103 52.3801 46.4105C52.2618 46.7107 52.0785 46.981 51.8433 47.2018C51.6081 47.4226 51.3269 47.5885 51.02 47.6876C50.713 47.7866 50.3879 47.8164 50.0681 47.7747C49.6405 47.7828 49.2162 47.6978 48.8247 47.5254C48.697 47.6112 48.5915 47.7263 48.5172 47.8611C48.4429 47.9959 48.4018 48.1466 48.3974 48.3005C48.3974 48.8396 48.7285 49.102 49.4059 49.102H50.9653C52.3068 49.102 53.0408 49.7393 53.0408 50.79C53.0408 52.1844 51.7974 53.001 49.9729 53.001C48.2483 53.001 47.3313 52.2543 47.3313 51.1894C47.3234 50.7888 47.4731 50.4012 47.7483 50.1103L48.5889 49.6826C48.3201 49.6161 48.0836 49.4562 47.9217 49.2314C47.7598 49.0066 47.6829 48.7316 47.7049 48.4553C47.6974 48.144 47.8007 47.8402 47.9964 47.5981L48.6728 47.2809L47.8861 46.7975C47.6841 46.3988 47.5796 45.9578 47.5813 45.5108C47.5798 45.1935 47.6449 44.8795 47.7723 44.589C47.8998 44.2985 48.0867 44.038 48.3212 43.8244C48.5556 43.6108 48.8322 43.4489 49.1332 43.3491C49.4341 43.2493 49.7526 43.2138 50.0681 43.245C50.668 43.2306 51.2556 43.4159 51.7389 43.7718L53.2455 43.1997ZM48.0653 51.1299C48.0653 51.9588 48.7257 52.3326 49.9719 52.3326C51.521 52.3326 52.2653 51.6416 52.2653 50.8542V50.7985C52.2653 50.2453 52.0021 49.7893 51.0634 49.7893H48.9361C48.6824 49.9125 48.4674 50.1028 48.3142 50.3396C48.161 50.5764 48.0756 50.8507 48.0672 51.1327L48.0653 51.1299ZM51.7125 45.5467V45.4626C51.6917 45.038 51.509 44.6375 51.202 44.3436C50.8949 44.0498 50.4869 43.885 50.0621 43.8832C49.6373 43.8814 49.2279 44.0427 48.9184 44.3339C48.6088 44.6251 48.4227 45.024 48.3983 45.4485V45.5325C48.3983 46.6512 48.8955 47.1506 50.0691 47.1506C51.2427 47.1506 51.7125 46.654 51.7125 45.5485V45.5467Z" fill="#383E47"/>
<path d="M57.7559 41.2087C57.759 41.0865 57.7981 40.9679 57.8683 40.8678C57.9385 40.7678 58.0366 40.6907 58.1504 40.6462C58.2642 40.6016 58.3886 40.5917 58.508 40.6176C58.6273 40.6435 58.7364 40.7041 58.8216 40.7918C58.9067 40.8794 58.9641 40.9903 58.9866 41.1105C59.0091 41.2306 58.9956 41.3548 58.9479 41.4673C58.9002 41.5798 58.8203 41.6758 58.7184 41.7432C58.6164 41.8105 58.4969 41.8462 58.3747 41.8459C58.2084 41.8432 58.0498 41.7746 57.9338 41.6552C57.8178 41.5357 57.7539 41.3752 57.7559 41.2087ZM57.9757 43.38H58.7644V50.5549H57.9757V43.38Z" fill="#383E47"/>
<path d="M66.1644 43.5735C66.5806 43.3487 67.0472 43.234 67.5201 43.2402C68.638 43.2402 69.3842 43.8218 69.3842 45.4654V50.553H68.5955V45.304C68.5955 44.2249 68.1398 43.9077 67.4078 43.9077C66.7413 43.909 66.1018 44.1716 65.6266 44.6393V50.5558H64.838V45.304C64.838 44.2249 64.3408 43.9077 63.6503 43.9077C62.9915 43.9122 62.3571 44.158 61.8672 44.5987V50.5558H61.0804V43.3809H61.4672L61.8267 44.24L62.4059 43.5791C62.8208 43.3529 63.2872 43.2381 63.7597 43.2459C64.207 43.23 64.6492 43.3459 65.0314 43.5791L65.5031 44.3108L66.1644 43.5735Z" fill="#383E47"/>
<path d="M74.9814 45.5636C74.9814 44.6195 74.7455 43.9313 73.654 43.9313C72.9536 43.961 72.2629 44.1061 71.6097 44.3608L71.4861 43.7255C72.163 43.4171 72.8962 43.2519 73.6399 43.2402C75.1333 43.2402 75.754 44.0569 75.754 45.8393V49.5306C75.754 49.9582 75.9059 50.0838 76.2653 50.0838H76.5012L76.5295 50.5672C76.352 50.649 76.1588 50.6912 75.9634 50.6908C75.7878 50.6937 75.6134 50.6616 75.4502 50.5964L75.0106 49.8355L74.3502 50.5549C74.0012 50.6855 73.6313 50.7511 73.2587 50.7484C72.9745 50.7885 72.6848 50.7629 72.412 50.6736C72.1392 50.5842 71.8905 50.4335 71.685 50.2329C71.4794 50.0323 71.3226 49.7873 71.2265 49.5166C71.1303 49.246 71.0975 48.9568 71.1304 48.6715C71.1304 47.261 71.9465 46.6521 73.6314 46.5143L74.9851 46.4048L74.9814 45.5636ZM74.9814 46.9457L73.6823 47.0694C72.4559 47.1808 71.9295 47.5669 71.9295 48.645V48.7394C71.9295 49.708 72.3568 50.0961 73.3512 50.0961C73.6651 50.1059 73.9767 50.0407 74.2604 49.9059C74.5441 49.7711 74.7916 49.5706 74.9823 49.321L74.9814 46.9457Z" fill="#383E47"/>
<path d="M83.4493 43.1997V44.1664H81.82L82.6219 44.748C82.697 44.9797 82.7343 45.2219 82.7323 45.4655C82.7536 45.7875 82.7032 46.1103 82.5849 46.4105C82.4666 46.7107 82.2832 46.981 82.048 47.2018C81.8128 47.4226 81.5316 47.5885 81.2247 47.6876C80.9177 47.7866 80.5927 47.8164 80.2729 47.7747C79.8453 47.7828 79.421 47.6978 79.0295 47.5254C78.9016 47.6112 78.7962 47.7262 78.7218 47.8611C78.6475 47.9959 78.6064 48.1466 78.6021 48.3005C78.6021 48.8396 78.9351 49.102 79.6106 49.102H81.1719C82.5115 49.102 83.2474 49.7393 83.2474 50.79C83.2474 52.1844 82.004 53.001 80.1795 53.001C78.455 53.001 77.538 52.2543 77.538 51.1894C77.5296 50.7891 77.6787 50.4016 77.9531 50.1103L78.7936 49.6826C78.5249 49.6161 78.2885 49.4561 78.1268 49.2313C77.965 49.0065 77.8884 48.7315 77.9106 48.4553C77.9022 48.1439 78.0057 47.8398 78.2021 47.5981L78.8766 47.2809L78.0898 46.7975C77.8883 46.3986 77.7836 45.9578 77.7842 45.5108C77.7827 45.1935 77.8477 44.8795 77.9752 44.589C78.1026 44.2985 78.2896 44.038 78.524 43.8244C78.7585 43.6108 79.0351 43.4489 79.336 43.3491C79.637 43.2493 79.9555 43.2138 80.271 43.245C80.8708 43.2306 81.4585 43.4159 81.9417 43.7718L83.4493 43.1997ZM78.271 51.1299C78.271 51.9588 78.9313 52.3326 80.1757 52.3326C81.7247 52.3326 82.471 51.6416 82.471 50.8542V50.7985C82.471 50.2453 82.2059 49.7893 81.2672 49.7893H79.1408C78.8866 49.912 78.671 50.1021 78.5175 50.339C78.3639 50.5759 78.2783 50.8505 78.27 51.1327L78.271 51.1299ZM81.9163 45.5467V45.4626C81.8955 45.038 81.7128 44.6375 81.4057 44.3436C81.0987 44.0498 80.6907 43.885 80.2659 43.8832C79.841 43.8814 79.4317 44.0427 79.1222 44.3339C78.8126 44.6251 78.6265 45.024 78.6021 45.4485V45.5325C78.6021 46.6512 79.0993 47.1506 80.2729 47.1506C81.4465 47.1506 81.9163 46.654 81.9163 45.5485V45.5467Z" fill="#383E47"/>
<path d="M87.2493 50.0981C87.8877 50.0777 88.5122 49.9066 89.0719 49.5986L89.253 50.2076C88.6181 50.545 87.9133 50.7296 87.1945 50.7466C85.37 50.7466 84.4021 49.5193 84.4021 46.9704C84.4021 44.3156 85.5219 43.2366 87.1106 43.2366C88.7417 43.2366 89.5417 44.5224 89.5417 46.5125V47.1894H85.2323C85.2474 49.3636 85.9097 50.0981 87.2493 50.0981ZM88.7285 46.5446V46.3652C88.7285 44.5554 88.1738 43.8918 87.1115 43.8918C86.0493 43.8918 85.3031 44.3638 85.2332 46.5446H88.7285Z" fill="#383E47"/>
<path d="M90.8861 50.2898L91.0238 49.6686C91.5982 49.9454 92.2252 50.096 92.8625 50.1104C93.7465 50.1104 94.3257 49.7507 94.3257 48.7424C94.3257 47.8173 94.0625 47.5822 92.6691 47.1819C91.6191 46.876 90.9002 46.4484 90.9002 45.2041C90.8842 44.9275 90.9296 44.6508 91.0333 44.394C91.137 44.1371 91.2963 43.9065 91.4998 43.7187C91.7032 43.5308 91.9458 43.3905 92.21 43.3078C92.4742 43.2251 92.7534 43.2021 93.0276 43.2404C93.6624 43.2269 94.2913 43.3644 94.8625 43.6416L94.7248 44.2364C94.1836 44.008 93.6007 43.8952 93.0134 43.905C92.1568 43.905 91.6578 44.1665 91.6578 45.1758C91.6578 46.0887 92.0729 46.2406 93.1512 46.5579C94.4493 46.9449 95.0974 47.4151 95.0974 48.7292C95.1069 49.0148 95.0542 49.299 94.943 49.5622C94.8318 49.8253 94.6647 50.0611 94.4534 50.2532C94.242 50.4453 93.9915 50.5892 93.719 50.6747C93.4466 50.7602 93.1588 50.7854 92.8757 50.7486C92.1845 50.7656 91.5002 50.6078 90.8861 50.2898Z" fill="#383E47"/>
<path d="M99.7408 46.1169H106.799V46.7939H99.7408V46.1169Z" fill="#383E47"/>
<path d="M112.094 49.2398V44.0578H111.21V43.379H112.136L112.496 41.4456H112.881V43.379H114.485V44.0578H112.881V49.3653C112.881 49.8629 113.007 50.0262 113.476 50.0262H114.595L114.636 50.4274C114.193 50.5908 113.727 50.6792 113.255 50.6889C112.425 50.6918 112.094 50.2622 112.094 49.2398Z" fill="#383E47"/>
<path d="M115.756 46.9872C115.756 44.5119 116.903 43.2402 118.505 43.2402C120.107 43.2402 121.228 44.5128 121.228 46.9457C121.228 49.4333 120.147 50.7475 118.505 50.7475C116.862 50.7475 115.756 49.4333 115.756 46.9872ZM120.397 47.0967V46.9174C120.397 44.6101 119.664 43.9049 118.505 43.9049C117.346 43.9049 116.584 44.6223 116.584 46.8475V47.0269C116.584 49.2804 117.385 50.1093 118.505 50.1093C119.625 50.1093 120.397 49.2813 120.397 47.0977V47.0967Z" fill="#383E47"/>
<path d="M128.396 43.1997V44.1664H126.764L127.566 44.748C127.642 44.9796 127.679 45.2219 127.678 45.4655C127.699 45.7875 127.648 46.1101 127.53 46.4103C127.411 46.7104 127.228 46.9806 126.993 47.2014C126.758 47.4222 126.477 47.5881 126.17 47.6872C125.863 47.7863 125.538 47.8162 125.218 47.7747C124.791 47.783 124.366 47.6979 123.975 47.5254C123.847 47.6112 123.741 47.7262 123.667 47.8611C123.593 47.9959 123.552 48.1466 123.547 48.3005C123.547 48.8396 123.879 49.102 124.556 49.102H126.115C127.457 49.102 128.191 49.7393 128.191 50.79C128.191 52.1844 126.947 53.001 125.123 53.001C123.397 53.001 122.481 52.2543 122.481 51.1894C122.473 50.7888 122.623 50.4012 122.898 50.1103L123.739 49.6826C123.47 49.6165 123.233 49.4566 123.071 49.2318C122.909 49.0069 122.833 48.7316 122.855 48.4553C122.847 48.1439 122.95 47.8398 123.146 47.5981L123.823 47.2809L123.036 46.7975C122.834 46.3989 122.729 45.9579 122.73 45.5108C122.729 45.1935 122.794 44.8795 122.921 44.589C123.049 44.2985 123.236 44.038 123.47 43.8244C123.705 43.6108 123.981 43.4489 124.282 43.3491C124.583 43.2493 124.902 43.2138 125.217 43.245C125.817 43.2308 126.405 43.4161 126.888 43.7718L128.396 43.1997ZM123.215 51.1299C123.215 51.9588 123.876 52.3326 125.122 52.3326C126.671 52.3326 127.415 51.6416 127.415 50.8542V50.7985C127.415 50.2453 127.152 49.7893 126.213 49.7893H124.086C123.832 49.9123 123.617 50.1025 123.463 50.3394C123.31 50.5762 123.224 50.8506 123.215 51.1327V51.1299ZM126.862 45.5467V45.4626C126.842 45.038 126.659 44.6375 126.352 44.3436C126.045 44.0498 125.637 43.885 125.212 43.8832C124.787 43.8814 124.378 44.0427 124.068 44.3339C123.759 44.6251 123.573 45.024 123.548 45.4485V45.5325C123.548 46.6512 124.046 47.1506 125.219 47.1506C126.393 47.1506 126.862 46.654 126.862 45.5485V45.5467Z" fill="#383E47"/>
<path d="M132.197 50.0981C132.836 50.0775 133.46 49.9064 134.02 49.5986L134.199 50.2076C133.564 50.5454 132.86 50.73 132.141 50.7466C130.316 50.7466 129.35 49.5193 129.35 46.9704C129.35 44.3156 130.468 43.2366 132.059 43.2366C133.688 43.2366 134.488 44.5224 134.488 46.5125V47.1894H130.179C130.194 49.3636 130.857 50.0981 132.197 50.0981ZM133.675 46.5446V46.3652C133.675 44.5554 133.122 43.8918 132.06 43.8918C130.997 43.8918 130.249 44.3638 130.179 46.5446H133.675Z" fill="#383E47"/>
<path d="M136.453 49.2398V44.0578H135.569V43.379H136.494L136.855 41.4456H137.241V43.379H138.845V44.0578H137.241V49.3653C137.241 49.8629 137.364 50.0262 137.836 50.0262H138.954L138.995 50.4274C138.552 50.5908 138.085 50.6792 137.613 50.6889C136.784 50.6918 136.453 50.2622 136.453 49.2398Z" fill="#383E47"/>
<path d="M141.345 50.5529H140.558V40.6289H141.345V44.2371L141.939 43.5763C142.373 43.3506 142.857 43.2361 143.346 43.243C144.479 43.243 145.28 43.8246 145.28 45.4682V50.5558H144.492V45.3039C144.492 44.2258 143.968 43.9077 143.236 43.9077C142.539 43.9068 141.865 44.1621 141.344 44.6251L141.345 50.5529Z" fill="#383E47"/>
<path d="M149.896 50.0981C150.534 50.0777 151.158 49.9066 151.718 49.5986L151.899 50.2076C151.264 50.545 150.56 50.7296 149.841 50.7466C148.016 50.7466 147.048 49.5193 147.048 46.9704C147.048 44.3156 148.168 43.2366 149.757 43.2366C151.388 43.2366 152.188 44.5224 152.188 46.5125V47.1894H147.879C147.894 49.3636 148.557 50.0981 149.896 50.0981ZM151.375 46.5446V46.3652C151.375 44.5554 150.82 43.8918 149.758 43.8918C148.696 43.8918 147.949 44.3638 147.879 46.5446H151.375Z" fill="#383E47"/>
<path d="M155.491 43.5037C155.818 43.3389 156.177 43.2489 156.543 43.2403C156.865 43.2333 157.185 43.2944 157.481 43.4197L157.315 44.1664C157.002 44.0295 156.663 43.9634 156.321 43.9729C155.753 44.0042 155.219 44.2514 154.828 44.6639V50.553H154.039V43.3781H154.426L154.803 44.2495L155.491 43.5037Z" fill="#383E47"/>
<path d="M118.778 6.15145H110.61L106.528 29.3349H99.4104L103.534 6.19109H95.3264L96.3368 0.486084H119.788L118.778 6.15145Z" fill="#060B13"/>
<path d="M143.438 6.23171H129.449L128.397 11.8961H140.203L139.192 17.6427H127.427L126.336 23.5488H140.445L139.435 29.3359H118.249L123.343 0.487061H144.448L143.438 6.23171Z" fill="#060B13"/>
<path d="M170.243 10.8H163.573C163.679 10.321 163.746 9.83417 163.774 9.34429C163.774 6.9558 161.753 5.78517 159.609 5.78517C158.215 5.70322 156.839 6.14172 155.749 7.01587C154.658 7.89003 153.93 9.13774 153.706 10.5178L152.129 19.258C152.083 19.5932 152.056 19.9308 152.048 20.269C152.048 22.9002 154.11 24.0321 156.456 24.0321C157.849 24.0336 159.195 23.5239 160.238 22.5993C161.281 21.6748 161.949 20.3997 162.116 19.0153H168.788C168.707 19.3373 168.585 20.068 168.545 20.3899C167.333 26.7425 161.427 29.8174 155.405 29.8174C150.109 29.8174 144.811 27.512 144.811 21.4841C144.819 20.8044 144.886 20.1267 145.013 19.459L146.591 10.598C147.803 3.76013 153.828 -0.00292969 160.459 -0.00292969C165.309 -0.00292969 170.606 2.18354 170.606 7.72617C170.567 8.7589 170.446 9.78683 170.243 10.8Z" fill="#060B13"/>
<path d="M194.906 29.3349H187.79L189.852 17.8031H180.31L178.289 29.3349H171.173L176.267 0.486084H183.383L181.362 11.6129H190.904L192.885 0.486084H200.001L194.906 29.3349Z" fill="#060B13"/>
<path d="M47.8623 0.486084L42.7679 29.3359H49.883L54.9774 0.486084H47.8623Z" fill="#383E47"/>
<path d="M69.1689 5.58411C70.2945 5.59184 71.4042 5.84997 72.4178 6.33981C73.4314 6.82965 74.3234 7.53894 75.0293 8.41631L79.5576 4.81469C77.0104 1.09317 72.967 0.0405273 68.8434 0.0405273C62.6566 0.0405273 57.4406 3.1975 57.4406 9.67004C57.4406 15.0512 62.6557 16.6703 66.7 18.1667C68.7217 18.8964 70.5 19.7451 70.5 21.486C70.5 23.7518 67.6698 24.2766 65.8491 24.2766C64.4393 24.296 63.0456 23.9751 61.786 23.3411C60.5265 22.7071 59.4381 21.7787 58.6132 20.6344L53.8019 24.6401C56.7132 28.6458 61.2415 29.8193 65.7698 29.8193C71.7529 29.8193 78.0613 27.0286 78.0613 19.866C78.0613 15.0918 74.1396 13.5549 70.2585 12.0576C67.9529 11.1673 64.6368 10.3583 64.6368 8.33607C64.6387 6.1515 67.1868 5.58411 69.1689 5.58411Z" fill="#383E47"/>
<path d="M85.6236 0.486084L80.5293 29.3359H87.6444L92.7387 0.486084H85.6236Z" fill="#383E47"/>
<path d="M37.9566 0.48617L28.5765 20.8781H28.4151H22.0944L21.301 15.2231H27.8321L26.3123 0.488994H19.2368L21.2981 15.2165H-0.000915527L22.0906 20.8733L23.2802 29.3699H30.518L44.9114 0.481445L37.9566 0.48617Z" fill="#383E47"/>
</g>
<defs>
<clipPath id="clip0_2054_6337">
<rect width="200" height="53" fill="white"/>
</clipPath>
</defs>
</svg>
