<svg width="178" height="57" viewBox="0 0 178 57" fill="none" xmlns="http://www.w3.org/2000/svg">
<rect width="56.173" height="56.173" rx="28.0865" fill="white"/>
<path d="M26.4923 42.1292H24.1518V14.0427H26.4923C28.0371 14.0427 28.0371 11.7021 26.4923 11.7021H19.4707C17.926 11.7021 17.926 14.0427 19.4707 14.0427H21.8113V42.1292H19.4707C17.926 42.1292 17.926 44.4697 19.4707 44.4697H26.4923C28.0371 44.4697 28.0371 42.1292 26.4923 42.1292Z" fill="black"/>
<path d="M19.4707 36.278H17.1302C15.1992 36.278 13.6194 34.6981 13.6194 32.7672V23.4051C13.6194 21.4741 15.1992 19.8943 17.1302 19.8943H19.4707V17.5537H17.1302C13.9002 17.5537 11.2788 20.1751 11.2788 23.4051V32.7672C11.2788 35.9972 13.9002 38.6186 17.1302 38.6186H19.4707V36.278Z" fill="black"/>
<path d="M38.1952 17.5537H26.4925V19.8943H38.1952C40.1261 19.8943 41.706 21.4741 41.706 23.4051V32.7672C41.706 34.6981 40.1261 36.278 38.1952 36.278H26.4925V38.6186H38.1952C41.4251 38.6186 44.0465 35.9972 44.0465 32.7672V23.4051C44.0465 20.1751 41.4251 17.5537 38.1952 17.5537Z" fill="black"/>
<path d="M66.7305 17.9703V37.5869H63.7683V17.9703H66.7305ZM71.9973 28.8582V37.5869H69.1535V22.8678H71.9183V25.2903H72.1158C72.4493 24.4916 72.9715 23.8596 73.6825 23.3945C74.3934 22.9205 75.3062 22.6835 76.4209 22.6835C77.4215 22.6835 78.2948 22.8942 79.0408 23.3155C79.7957 23.728 80.3793 24.3468 80.7919 25.1718C81.2132 25.9969 81.4238 27.0194 81.4238 28.2394V37.5869H78.5801V28.5817C78.5801 27.5197 78.2992 26.6858 77.7375 26.0802C77.1757 25.4658 76.4121 25.1586 75.4467 25.1586C74.7884 25.1586 74.1959 25.3079 73.6693 25.6063C73.1515 25.8959 72.7433 26.3128 72.4449 26.857C72.1465 27.4012 71.9973 28.0682 71.9973 28.8582ZM90.4691 22.8678V25.1718H82.4381V22.8678H90.4691ZM84.5841 19.3658H87.441V33.2686C87.441 33.9444 87.5814 34.4404 87.8623 34.7563C88.1431 35.0635 88.5952 35.2171 89.2183 35.2171C89.3675 35.2171 89.5255 35.2083 89.6923 35.1908C89.8678 35.1732 90.0434 35.1469 90.2189 35.1118L90.7587 37.4816C90.4691 37.5781 90.1531 37.6527 89.8108 37.7054C89.4685 37.7581 89.1262 37.7844 88.7839 37.7844C87.5112 37.7844 86.4931 37.4289 85.7295 36.718C84.9659 35.9983 84.5841 35.0416 84.5841 33.8479V19.3658ZM98.1583 37.8897C96.7188 37.8897 95.4725 37.5781 94.4192 36.955C93.366 36.3318 92.5541 35.4541 91.9836 34.3219C91.4219 33.1808 91.141 31.8511 91.141 30.3327C91.141 28.8231 91.4175 27.4933 91.9705 26.3435C92.5322 25.1938 93.3177 24.2985 94.3271 23.6578C95.3452 23.0083 96.5389 22.6835 97.9081 22.6835C98.7419 22.6835 99.5494 22.8196 100.331 23.0917C101.112 23.3637 101.814 23.7938 102.437 24.3819C103.06 24.9699 103.552 25.7335 103.912 26.6727C104.28 27.6118 104.465 28.7441 104.465 30.0694V31.0963H92.7604V28.9503H102.99L101.66 29.6613C101.66 28.7572 101.52 27.9585 101.239 27.2651C100.958 26.5717 100.537 26.032 99.9751 25.6458C99.4221 25.2508 98.7332 25.0533 97.9081 25.0533C97.0831 25.0533 96.3765 25.2508 95.7885 25.6458C95.2092 26.0407 94.7659 26.563 94.4587 27.2125C94.1515 27.862 93.9979 28.5729 93.9979 29.3453V30.8067C93.9979 31.816 94.1735 32.6718 94.5246 33.3739C94.8757 34.0761 95.3628 34.6115 95.9859 34.9801C96.6179 35.3488 97.3508 35.5331 98.1846 35.5331C98.7288 35.5331 99.2203 35.4541 99.6591 35.2961C100.107 35.1381 100.493 34.9011 100.818 34.5852C101.142 34.2692 101.388 33.8786 101.555 33.4134L104.267 33.9269C104.048 34.7168 103.661 35.4102 103.109 36.007C102.556 36.6039 101.858 37.0691 101.015 37.4026C100.181 37.7273 99.2291 37.8897 98.1583 37.8897ZM105.926 37.5869V22.8678H108.678V25.2245H108.836C109.108 24.4345 109.582 23.8114 110.258 23.355C110.943 22.8898 111.715 22.6572 112.575 22.6572C112.751 22.6572 112.957 22.666 113.194 22.6835C113.44 22.6923 113.637 22.7055 113.786 22.723V25.4615C113.672 25.4263 113.466 25.3912 113.167 25.3561C112.878 25.321 112.584 25.3035 112.285 25.3035C111.61 25.3035 111.004 25.4483 110.469 25.7379C109.942 26.0188 109.525 26.4094 109.218 26.9097C108.919 27.4012 108.77 27.9717 108.77 28.6212V37.5869H105.926ZM114.629 43.0901V22.8678H117.394V25.264H117.631C117.807 24.9568 118.048 24.6013 118.355 24.1976C118.671 23.7938 119.11 23.4427 119.672 23.1443C120.234 22.8371 120.966 22.6835 121.87 22.6835C123.055 22.6835 124.109 22.9819 125.03 23.5788C125.961 24.1756 126.693 25.0402 127.229 26.1724C127.764 27.3046 128.032 28.6695 128.032 30.2669C128.032 31.8467 127.769 33.2072 127.242 34.3482C126.715 35.4804 125.987 36.3537 125.057 36.9681C124.135 37.5737 123.077 37.8766 121.884 37.8766C120.997 37.8766 120.269 37.7273 119.698 37.4289C119.136 37.1217 118.693 36.7663 118.368 36.3625C118.052 35.9588 117.807 35.6033 117.631 35.2961H117.473V43.0901H114.629ZM121.265 35.4409C122.116 35.4409 122.827 35.2127 123.398 34.7563C123.968 34.2999 124.398 33.6811 124.688 32.9C124.986 32.1101 125.135 31.2236 125.135 30.2405C125.135 29.2663 124.991 28.393 124.701 27.6206C124.411 26.8482 123.981 26.2382 123.411 25.7906C122.84 25.343 122.125 25.1192 121.265 25.1192C120.431 25.1192 119.729 25.3342 119.158 25.7643C118.588 26.1856 118.153 26.7824 117.855 27.5548C117.565 28.3184 117.42 29.2136 117.42 30.2405C117.42 31.2675 117.57 32.1715 117.868 32.9526C118.167 33.7338 118.601 34.3438 119.172 34.7827C119.751 35.2215 120.449 35.4409 121.265 35.4409ZM129.573 37.5869V22.8678H132.324V25.2245H132.482C132.754 24.4345 133.228 23.8114 133.904 23.355C134.589 22.8898 135.361 22.6572 136.221 22.6572C136.397 22.6572 136.603 22.666 136.84 22.6835C137.086 22.6923 137.283 22.7055 137.433 22.723V25.4615C137.319 25.4263 137.112 25.3912 136.814 25.3561C136.524 25.321 136.23 25.3035 135.932 25.3035C135.256 25.3035 134.65 25.4483 134.115 25.7379C133.588 26.0188 133.171 26.4094 132.864 26.9097C132.566 27.4012 132.417 27.9717 132.417 28.6212V37.5869H129.573ZM144.082 37.8897C142.642 37.8897 141.396 37.5781 140.343 36.955C139.29 36.3318 138.478 35.4541 137.907 34.3219C137.345 33.1808 137.065 31.8511 137.065 30.3327C137.065 28.8231 137.341 27.4933 137.894 26.3435C138.456 25.1938 139.241 24.2985 140.251 23.6578C141.269 23.0083 142.462 22.6835 143.832 22.6835C144.665 22.6835 145.473 22.8196 146.254 23.0917C147.035 23.3637 147.737 23.7938 148.361 24.3819C148.984 24.9699 149.475 25.7335 149.835 26.6727C150.204 27.6118 150.388 28.7441 150.388 30.0694V31.0963H138.684V28.9503H148.914L147.584 29.6613C147.584 28.7572 147.443 27.9585 147.162 27.2651C146.882 26.5717 146.46 26.032 145.899 25.6458C145.346 25.2508 144.657 25.0533 143.832 25.0533C143.007 25.0533 142.3 25.2508 141.712 25.6458C141.133 26.0407 140.689 26.563 140.382 27.2125C140.075 27.862 139.921 28.5729 139.921 29.3453V30.8067C139.921 31.816 140.097 32.6718 140.448 33.3739C140.799 34.0761 141.286 34.6115 141.909 34.9801C142.541 35.3488 143.274 35.5331 144.108 35.5331C144.652 35.5331 145.144 35.4541 145.583 35.2961C146.03 35.1381 146.416 34.9011 146.741 34.5852C147.066 34.2692 147.312 33.8786 147.478 33.4134L150.191 33.9269C149.971 34.7168 149.585 35.4102 149.032 36.007C148.479 36.6039 147.781 37.0691 146.939 37.4026C146.105 37.7273 145.153 37.8897 144.082 37.8897ZM162.856 26.4752L160.263 26.9228C160.096 26.4313 159.784 25.9793 159.328 25.5668C158.88 25.1543 158.209 24.948 157.314 24.948C156.506 24.948 155.83 25.1323 155.286 25.501C154.751 25.8608 154.483 26.3216 154.483 26.8833C154.483 27.3748 154.663 27.7742 155.023 28.0814C155.391 28.3886 155.975 28.6343 156.774 28.8187L159.13 29.3453C160.473 29.6525 161.478 30.1352 162.145 30.7935C162.812 31.4518 163.146 32.2944 163.146 33.3213C163.146 34.2078 162.891 34.9977 162.382 35.6911C161.873 36.3757 161.167 36.9155 160.263 37.3104C159.359 37.6966 158.314 37.8897 157.129 37.8897C155.479 37.8897 154.136 37.5343 153.101 36.8233C152.065 36.1124 151.429 35.1118 151.192 33.8216L153.943 33.4003C154.119 34.12 154.474 34.6642 155.01 35.0328C155.554 35.4014 156.256 35.5858 157.116 35.5858C158.047 35.5858 158.793 35.3883 159.354 34.9933C159.925 34.5983 160.21 34.12 160.21 33.5583C160.21 32.6279 159.517 32.0003 158.13 31.6756L155.642 31.1226C154.264 30.8067 153.245 30.3108 152.587 29.6349C151.938 28.9503 151.613 28.0902 151.613 27.0545C151.613 26.1856 151.854 25.422 152.337 24.7637C152.829 24.1054 153.5 23.5963 154.351 23.2365C155.212 22.8678 156.19 22.6835 157.287 22.6835C158.885 22.6835 160.135 23.0302 161.039 23.7236C161.952 24.417 162.558 25.3342 162.856 26.4752ZM175.614 26.4752L173.021 26.9228C172.854 26.4313 172.542 25.9793 172.086 25.5668C171.638 25.1543 170.967 24.948 170.072 24.948C169.264 24.948 168.588 25.1323 168.044 25.501C167.509 25.8608 167.241 26.3216 167.241 26.8833C167.241 27.3748 167.421 27.7742 167.781 28.0814C168.149 28.3886 168.733 28.6343 169.532 28.8187L171.888 29.3453C173.231 29.6525 174.236 30.1352 174.903 30.7935C175.57 31.4518 175.904 32.2944 175.904 33.3213C175.904 34.2078 175.649 34.9977 175.14 35.6911C174.631 36.3757 173.925 36.9155 173.021 37.3104C172.117 37.6966 171.072 37.8897 169.887 37.8897C168.237 37.8897 166.894 37.5343 165.859 36.8233C164.823 36.1124 164.187 35.1118 163.95 33.8216L166.701 33.4003C166.877 34.12 167.232 34.6642 167.768 35.0328C168.312 35.4014 169.014 35.5858 169.874 35.5858C170.804 35.5858 171.551 35.3883 172.112 34.9933C172.683 34.5983 172.968 34.12 172.968 33.5583C172.968 32.6279 172.275 32.0003 170.888 31.6756L168.4 31.1226C167.022 30.8067 166.003 30.3108 165.345 29.6349C164.696 28.9503 164.371 28.0902 164.371 27.0545C164.371 26.1856 164.612 25.422 165.095 24.7637C165.587 24.1054 166.258 23.5963 167.109 23.2365C167.969 22.8678 168.948 22.6835 170.045 22.6835C171.643 22.6835 172.893 23.0302 173.797 23.7236C174.71 24.417 175.316 25.3342 175.614 26.4752Z" fill="white"/>
</svg>
