<svg width="328" height="98" viewBox="0 0 328 98" fill="none" xmlns="http://www.w3.org/2000/svg">
<rect x="0.520569" width="97.8524" height="97.8524" rx="48.9262" fill="white"/>
<path d="M46.6701 73.3893H42.5929V24.463H46.6701C49.3611 24.463 49.3611 20.3859 46.6701 20.3859H34.4386C31.7476 20.3859 31.7476 24.463 34.4386 24.463H38.5157V73.3893H34.4386C31.7476 73.3893 31.7476 77.4664 34.4386 77.4664H46.6701C49.3611 77.4664 49.3611 73.3893 46.6701 73.3893Z" fill="black"/>
<path d="M34.4385 63.1963H30.3614C26.9977 63.1963 24.2456 60.4442 24.2456 57.0806V40.7718C24.2456 37.4082 26.9977 34.656 30.3614 34.656H34.4385V30.5789H30.3614C24.7348 30.5789 20.1684 35.1453 20.1684 40.7718V57.0806C20.1684 62.7071 24.7348 67.2735 30.3614 67.2735H34.4385V63.1963Z" fill="black"/>
<path d="M67.056 30.5789H46.6701V34.656H67.056C70.4197 34.656 73.1718 37.4082 73.1718 40.7718V57.0806C73.1718 60.4442 70.4197 63.1963 67.056 63.1963H46.6701V67.2735H67.056C72.6825 67.2735 77.249 62.7071 77.249 57.0806V40.7718C77.249 35.1453 72.6825 30.5789 67.056 30.5789Z" fill="black"/>
<path d="M112.375 64.9263V61.4506H117.964V35.6175H112.375V32.0479H127.687V35.6175H122.097V61.3566H127.687V64.9263H112.375ZM133.632 64.9263V41.4417H137.578V45.8568C137.734 45.2932 138.094 44.6199 138.658 43.8371C139.221 43.0543 140.051 42.3654 141.147 41.7705C142.243 41.1755 143.668 40.8781 145.421 40.8781C147.707 40.8781 149.586 41.6139 151.058 43.0856C152.561 44.5573 153.312 46.7022 153.312 49.5204V64.9263H149.367V50.084C149.367 48.0487 148.881 46.6083 147.911 45.7628C146.94 44.8861 145.672 44.4477 144.106 44.4477C141.946 44.4477 140.317 45.1836 139.221 46.6553C138.126 48.127 137.578 49.9901 137.578 52.2446V64.9263H133.632ZM167.952 65.4899C165.384 65.4899 163.568 64.9106 162.503 63.752C161.438 62.5935 160.906 60.9182 160.906 58.7263V45.0583H156.679V41.4417H157.759C159.043 41.4417 159.889 41.2382 160.296 40.8311C160.703 40.3927 160.906 39.5003 160.906 38.1538V35.4766H164.852V41.4887H170.911V45.0583H164.852V58.7263C164.852 59.9789 165.149 60.8556 165.744 61.3566C166.339 61.8576 167.216 62.1081 168.374 62.1081C168.687 62.1081 169.032 62.0925 169.408 62.0612C169.783 62.0298 170.159 61.9829 170.535 61.9202V65.1141C169.689 65.3646 168.828 65.4899 167.952 65.4899ZM184.448 65.5369C182.475 65.5369 180.643 65.0515 178.952 64.0808C177.261 63.0788 175.899 61.6541 174.866 59.8066C173.833 57.9592 173.316 55.7829 173.316 53.2779C173.316 50.7103 173.833 48.5027 174.866 46.6553C175.899 44.8078 177.261 43.3831 178.952 42.3811C180.643 41.3791 182.475 40.8781 184.448 40.8781C186.452 40.8781 188.252 41.3008 189.849 42.1462C191.477 42.9604 192.761 44.2442 193.701 45.9977C194.671 47.7199 195.157 49.9431 195.157 52.6673V54.1234H177.214C177.34 56.3779 177.997 58.2566 179.187 59.7597C180.377 61.2314 182.099 61.9672 184.354 61.9672C185.763 61.9672 187.047 61.6384 188.205 60.9809C189.364 60.3233 190.272 59.3996 190.929 58.2097L194.405 59.6188C192.464 63.5642 189.145 65.5369 184.448 65.5369ZM184.354 44.4477C182.444 44.4477 180.909 45.0427 179.751 46.2325C178.623 47.3911 177.872 48.8628 177.496 50.6476H191.211C191.211 49.7709 190.945 48.8628 190.413 47.9234C189.912 46.9527 189.16 46.1386 188.158 45.481C187.156 44.7922 185.888 44.4477 184.354 44.4477ZM199.963 64.9263V41.4417H203.909V46.0916C204.222 45.2462 204.66 44.4321 205.224 43.6492C205.819 42.8351 206.617 42.1775 207.619 41.6765C208.653 41.1442 209.968 40.8781 211.565 40.8781C211.815 40.8781 212.16 40.9094 212.598 40.972C213.036 41.0033 213.365 41.0346 213.584 41.0659V44.7295C213.115 44.573 212.52 44.4634 211.799 44.4007C211.079 44.3068 210.422 44.3225 209.827 44.4477C207.917 44.8235 206.445 45.6533 205.412 46.9371C204.41 48.2209 203.909 49.9901 203.909 52.2446V64.9263H199.963ZM216.982 75.7292V41.4417H220.787V46.0447C221.131 45.1679 221.632 44.3381 222.29 43.5553C222.947 42.7725 223.777 42.1306 224.779 41.6296C225.781 41.1286 226.971 40.8781 228.349 40.8781C230.415 40.8781 232.247 41.3634 233.844 42.3341C235.441 43.2735 236.694 44.6512 237.602 46.4674C238.51 48.2835 238.964 50.5224 238.964 53.184C238.964 55.7516 238.525 57.9592 237.649 59.8066C236.772 61.6228 235.551 63.0318 233.985 64.0339C232.451 65.0046 230.65 65.4899 228.584 65.4899C227.519 65.4899 226.454 65.302 225.39 64.9263C224.325 64.5192 223.401 63.9399 222.619 63.1884C221.836 62.4056 221.272 61.4819 220.928 60.4172V75.7292H216.982ZM228.02 61.9202C229.617 61.9202 230.932 61.5288 231.965 60.746C232.999 59.9632 233.766 58.8986 234.267 57.5521C234.768 56.2057 235.018 54.7183 235.018 53.09C235.018 51.4618 234.768 49.9901 234.267 48.6749C233.766 47.3598 232.999 46.3265 231.965 45.575C230.963 44.7922 229.695 44.4007 228.161 44.4007C225.844 44.4007 224.059 45.2149 222.806 46.8431C221.585 48.4714 220.975 50.585 220.975 53.184C220.975 54.7809 221.241 56.237 221.773 57.5521C222.337 58.8672 223.135 59.9162 224.169 60.699C225.233 61.4819 226.517 61.8889 228.02 61.9202ZM243.955 64.9263V41.4417H247.9V46.0916C248.213 45.2462 248.652 44.4321 249.215 43.6492C249.81 42.8351 250.609 42.1775 251.611 41.6765C252.644 41.1442 253.959 40.8781 255.556 40.8781C255.807 40.8781 256.151 40.9094 256.589 40.972C257.028 41.0033 257.357 41.0346 257.576 41.0659V44.7295C257.106 44.573 256.511 44.4634 255.791 44.4007C255.071 44.3068 254.413 44.3225 253.818 44.4477C251.908 44.8235 250.436 45.6533 249.403 46.9371C248.401 48.2209 247.9 49.9901 247.9 52.2446V64.9263H243.955ZM270.32 65.5369C268.348 65.5369 266.516 65.0515 264.825 64.0808C263.134 63.0788 261.772 61.6541 260.739 59.8066C259.705 57.9592 259.189 55.7829 259.189 53.2779C259.189 50.7103 259.705 48.5027 260.739 46.6553C261.772 44.8078 263.134 43.3831 264.825 42.3811C266.516 41.3791 268.348 40.8781 270.32 40.8781C272.325 40.8781 274.125 41.3008 275.722 42.1462C277.35 42.9604 278.634 44.2442 279.573 45.9977C280.544 47.7199 281.029 49.9431 281.029 52.6673V54.1234H263.087C263.212 56.3779 263.87 58.2566 265.06 59.7597C266.25 61.2314 267.972 61.9672 270.227 61.9672C271.636 61.9672 272.919 61.6384 274.078 60.9809C275.237 60.3233 276.145 59.3996 276.802 58.2097L280.278 59.6188C278.337 63.5642 275.017 65.5369 270.32 65.5369ZM270.227 44.4477C268.316 44.4477 266.782 45.0427 265.624 46.2325C264.496 47.3911 263.745 48.8628 263.369 50.6476H277.084C277.084 49.7709 276.818 48.8628 276.286 47.9234C275.785 46.9527 275.033 46.1386 274.031 45.481C273.029 44.7922 271.761 44.4477 270.227 44.4477ZM293.069 65.4899C291.504 65.4899 290.016 65.1611 288.607 64.5035C287.198 63.8147 286.055 62.8753 285.179 61.6854C284.302 60.4955 283.863 59.1334 283.863 57.5991H288.091C288.091 58.5698 288.372 59.3839 288.936 60.0415C289.5 60.6677 290.189 61.1374 291.003 61.4506C291.817 61.7637 292.615 61.9202 293.398 61.9202C294.964 61.9202 296.216 61.6384 297.156 61.0748C298.095 60.5112 298.565 59.6501 298.565 58.4915C298.565 57.4582 298.22 56.691 297.531 56.19C296.843 55.6577 295.966 55.2663 294.901 55.0158C293.837 54.734 292.694 54.4835 291.472 54.2643C290.251 54.0451 289.108 53.732 288.044 53.3249C286.979 52.9178 286.102 52.2916 285.413 51.4461C284.724 50.6007 284.38 49.4264 284.38 47.9234C284.38 46.7649 284.693 45.6533 285.319 44.5886C285.946 43.524 286.885 42.6472 288.138 41.9583C289.421 41.2382 291.018 40.8781 292.928 40.8781C295.214 40.8781 297.015 41.2538 298.33 42.0053C299.676 42.7255 300.631 43.6179 301.195 44.6826C301.79 45.7159 302.087 46.7179 302.087 47.6886H298.048C298.048 46.9058 297.61 46.1699 296.733 45.481C295.856 44.7922 294.572 44.4477 292.881 44.4477C291.347 44.4477 290.204 44.7608 289.453 45.3871C288.701 45.982 288.325 46.7805 288.325 47.7825C288.325 48.6593 288.67 49.3325 289.359 49.8022C290.048 50.2719 290.924 50.6476 291.989 50.9295C293.085 51.18 294.228 51.4461 295.418 51.7279C296.639 51.9784 297.782 52.3542 298.847 52.8552C299.942 53.3249 300.835 54.0138 301.524 54.9218C302.213 55.7986 302.557 56.9885 302.557 58.4915C302.557 59.744 302.213 60.9026 301.524 61.9672C300.866 63.0318 299.833 63.8929 298.424 64.5505C297.046 65.1768 295.261 65.4899 293.069 65.4899ZM314.813 65.4899C313.247 65.4899 311.76 65.1611 310.351 64.5035C308.942 63.8147 307.799 62.8753 306.922 61.6854C306.045 60.4955 305.607 59.1334 305.607 57.5991H309.834C309.834 58.5698 310.116 59.3839 310.679 60.0415C311.243 60.6677 311.932 61.1374 312.746 61.4506C313.56 61.7637 314.359 61.9202 315.142 61.9202C316.707 61.9202 317.96 61.6384 318.899 61.0748C319.838 60.5112 320.308 59.6501 320.308 58.4915C320.308 57.4582 319.964 56.691 319.275 56.19C318.586 55.6577 317.709 55.2663 316.645 55.0158C315.58 54.734 314.437 54.4835 313.216 54.2643C311.995 54.0451 310.852 53.732 309.787 53.3249C308.722 52.9178 307.846 52.2916 307.157 51.4461C306.468 50.6007 306.123 49.4264 306.123 47.9234C306.123 46.7649 306.437 45.6533 307.063 44.5886C307.689 43.524 308.628 42.6472 309.881 41.9583C311.165 41.2382 312.762 40.8781 314.672 40.8781C316.958 40.8781 318.758 41.2538 320.073 42.0053C321.42 42.7255 322.375 43.6179 322.938 44.6826C323.533 45.7159 323.831 46.7179 323.831 47.6886H319.791C319.791 46.9058 319.353 46.1699 318.476 45.481C317.6 44.7922 316.316 44.4477 314.625 44.4477C313.091 44.4477 311.948 44.7608 311.196 45.3871C310.445 45.982 310.069 46.7805 310.069 47.7825C310.069 48.6593 310.413 49.3325 311.102 49.8022C311.791 50.2719 312.668 50.6476 313.732 50.9295C314.828 51.18 315.971 51.4461 317.161 51.7279C318.382 51.9784 319.525 52.3542 320.59 52.8552C321.686 53.3249 322.578 54.0138 323.267 54.9218C323.956 55.7986 324.301 56.9885 324.301 58.4915C324.301 59.744 323.956 60.9026 323.267 61.9672C322.61 63.0318 321.576 63.8929 320.167 64.5505C318.789 65.1768 317.005 65.4899 314.813 65.4899Z" fill="white"/>
</svg>
