<svg width="132" height="40" viewBox="0 0 132 40" fill="none" xmlns="http://www.w3.org/2000/svg">
<rect y="0.480736" width="39.0385" height="39.0385" rx="19.5193" fill="black"/>
<path d="M18.4112 29.7596H16.7846V10.2404H18.4112C19.4848 10.2404 19.4848 8.61377 18.4112 8.61377H13.5314C12.4578 8.61377 12.4578 10.2404 13.5314 10.2404H15.158V29.7596H13.5314C12.4578 29.7596 12.4578 31.3862 13.5314 31.3862H18.4112C19.4848 31.3862 19.4848 29.7596 18.4112 29.7596Z" fill="white"/>
<path d="M13.5316 25.6931H11.905C10.5631 25.6931 9.46512 24.5952 9.46512 23.2532V16.7468C9.46512 15.4049 10.5631 14.3069 11.905 14.3069H13.5316V12.6803H11.905C9.66031 12.6803 7.83851 14.5021 7.83851 16.7468V23.2532C7.83851 25.4979 9.66031 27.3197 11.905 27.3197H13.5316V25.6931Z" fill="white"/>
<path d="M26.5442 12.6803H18.4112V14.3069H26.5442C27.8862 14.3069 28.9841 15.4049 28.9841 16.7468V23.2532C28.9841 24.5952 27.8862 25.6931 26.5442 25.6931H18.4112V27.3197H26.5442C28.7889 27.3197 30.6107 25.4979 30.6107 23.2532V16.7468C30.6107 14.5021 28.7889 12.6803 26.5442 12.6803Z" fill="white"/>
<path d="M48.2516 12.867V26.5H46.1929V12.867H48.2516ZM52.2866 20.4338V26.5H50.3102V16.2707H52.2317V17.9542H52.3689C52.6007 17.3991 52.9636 16.96 53.4577 16.6367C53.9518 16.3073 54.5862 16.1426 55.3609 16.1426C56.0562 16.1426 56.6632 16.289 57.1816 16.5818C57.7062 16.8685 58.1119 17.2985 58.3985 17.8719C58.6913 18.4453 58.8377 19.1559 58.8377 20.0037V26.5H56.8614V20.2416C56.8614 19.5036 56.6662 18.9241 56.2758 18.5032C55.8854 18.0762 55.3548 17.8627 54.6838 17.8627C54.2263 17.8627 53.8146 17.9664 53.4486 18.1738C53.0887 18.3751 52.8051 18.6648 52.5977 19.043C52.3903 19.4212 52.2866 19.8848 52.2866 20.4338ZM65.4987 16.2707V17.8719H59.9174V16.2707H65.4987ZM61.4088 13.8369H63.3943V23.4989C63.3943 23.9686 63.4918 24.3132 63.687 24.5328C63.8822 24.7463 64.1964 24.8531 64.6295 24.8531C64.7332 24.8531 64.8429 24.847 64.9588 24.8348C65.0808 24.8226 65.2028 24.8043 65.3248 24.7799L65.7 26.4268C65.4987 26.4939 65.2791 26.5457 65.0412 26.5823C64.8033 26.6189 64.5654 26.6372 64.3275 26.6372C63.4431 26.6372 62.7355 26.3902 62.2048 25.8961C61.6741 25.3959 61.4088 24.7311 61.4088 23.9015V13.8369ZM71.2172 26.7104C70.2168 26.7104 69.3507 26.4939 68.6187 26.0608C67.8867 25.6277 67.3225 25.0178 66.926 24.2309C66.5356 23.4379 66.3404 22.5138 66.3404 21.4585C66.3404 20.4094 66.5326 19.4853 66.9169 18.6862C67.3073 17.8871 67.8532 17.2649 68.5547 16.8197C69.2622 16.3683 70.0918 16.1426 71.0434 16.1426C71.6228 16.1426 72.184 16.2371 72.7269 16.4262C73.2698 16.6153 73.7578 16.9142 74.1908 17.3229C74.6239 17.7316 74.9655 18.2623 75.2156 18.9149C75.4718 19.5676 75.5999 20.3545 75.5999 21.2755V21.9892H67.4658V20.4978H74.5751L73.651 20.9919C73.651 20.3636 73.5534 19.8086 73.3582 19.3267C73.163 18.8448 72.8702 18.4697 72.4799 18.2013C72.0956 17.9268 71.6167 17.7895 71.0434 17.7895C70.47 17.7895 69.979 17.9268 69.5703 18.2013C69.1677 18.4758 68.8596 18.8387 68.6462 19.2901C68.4327 19.7415 68.3259 20.2355 68.3259 20.7723V21.7879C68.3259 22.4894 68.4479 23.0841 68.6919 23.5721C68.9359 24.0601 69.2744 24.4322 69.7075 24.6884C70.1467 24.9446 70.656 25.0727 71.2355 25.0727C71.6137 25.0727 71.9553 25.0178 72.2603 24.908C72.5714 24.7982 72.8397 24.6335 73.0654 24.4139C73.2911 24.1943 73.4619 23.9228 73.5778 23.5996L75.4626 23.9564C75.3102 24.5054 75.0418 24.9873 74.6575 25.402C74.2732 25.8168 73.7883 26.1401 73.2027 26.3719C72.6232 26.5976 71.9614 26.7104 71.2172 26.7104ZM76.9906 26.5V16.2707H78.9029V17.9085H79.0127C79.2018 17.3595 79.5312 16.9264 80.0009 16.6092C80.4767 16.2859 81.0134 16.1243 81.6112 16.1243C81.7332 16.1243 81.8766 16.1304 82.0412 16.1426C82.212 16.1487 82.3493 16.1578 82.453 16.17V18.0732C82.3737 18.0488 82.2303 18.0244 82.023 18C81.8217 17.9756 81.6173 17.9634 81.4099 17.9634C80.9402 17.9634 80.5194 18.064 80.1473 18.2653C79.7813 18.4605 79.4915 18.7319 79.2781 19.0796C79.0707 19.4212 78.967 19.8177 78.967 20.2691V26.5H76.9906ZM83.4137 30.3246V16.2707H85.3351V17.9359H85.4998C85.6218 17.7224 85.7896 17.4754 86.0031 17.1948C86.2226 16.9142 86.5276 16.6702 86.918 16.4628C87.3084 16.2493 87.8177 16.1426 88.446 16.1426C89.2695 16.1426 90.0015 16.35 90.6419 16.7648C91.2885 17.1796 91.7978 17.7804 92.1699 18.5672C92.542 19.3541 92.728 20.3026 92.728 21.4128C92.728 22.5108 92.5451 23.4562 92.1791 24.2492C91.8131 25.0361 91.3068 25.643 90.6602 26.07C90.0198 26.4909 89.2847 26.7013 88.4552 26.7013C87.8391 26.7013 87.3328 26.5976 86.9363 26.3902C86.5459 26.1767 86.2379 25.9297 86.0122 25.6491C85.7926 25.3685 85.6218 25.1215 85.4998 24.908H85.39V30.3246H83.4137ZM88.0251 25.0086C88.6168 25.0086 89.1109 24.85 89.5074 24.5328C89.9039 24.2156 90.2027 23.7856 90.404 23.2427C90.6114 22.6937 90.7151 22.0777 90.7151 21.3945C90.7151 20.7174 90.6145 20.1105 90.4132 19.5737C90.2119 19.0369 89.913 18.613 89.5165 18.3019C89.12 17.9908 88.6229 17.8353 88.0251 17.8353C87.4456 17.8353 86.9577 17.9847 86.5612 18.2836C86.1647 18.5764 85.8628 18.9912 85.6554 19.528C85.4541 20.0586 85.3534 20.6808 85.3534 21.3945C85.3534 22.1082 85.4571 22.7364 85.6645 23.2793C85.8719 23.8222 86.1738 24.2461 86.5703 24.5511C86.9729 24.8561 87.4578 25.0086 88.0251 25.0086ZM94.1737 26.5V16.2707H96.086V17.9085H96.1958C96.3849 17.3595 96.7142 16.9264 97.1839 16.6092C97.6597 16.2859 98.1965 16.1243 98.7943 16.1243C98.9163 16.1243 99.0596 16.1304 99.2243 16.1426C99.3951 16.1487 99.5323 16.1578 99.636 16.17V18.0732C99.5567 18.0488 99.4134 18.0244 99.206 18C99.0047 17.9756 98.8004 17.9634 98.593 17.9634C98.1233 17.9634 97.7024 18.064 97.3303 18.2653C96.9643 18.4605 96.6746 18.7319 96.4611 19.0796C96.2537 19.4212 96.15 19.8177 96.15 20.2691V26.5H94.1737ZM104.632 26.7104C103.631 26.7104 102.765 26.4939 102.033 26.0608C101.301 25.6277 100.737 25.0178 100.341 24.2309C99.9502 23.4379 99.755 22.5138 99.755 21.4585C99.755 20.4094 99.9471 19.4853 100.331 18.6862C100.722 17.8871 101.268 17.2649 101.969 16.8197C102.677 16.3683 103.506 16.1426 104.458 16.1426C105.037 16.1426 105.599 16.2371 106.141 16.4262C106.684 16.6153 107.172 16.9142 107.605 17.3229C108.038 17.7316 108.38 18.2623 108.63 18.9149C108.886 19.5676 109.014 20.3545 109.014 21.2755V21.9892H100.88V20.4978H107.99L107.066 20.9919C107.066 20.3636 106.968 19.8086 106.773 19.3267C106.578 18.8448 106.285 18.4697 105.894 18.2013C105.51 17.9268 105.031 17.7895 104.458 17.7895C103.885 17.7895 103.393 17.9268 102.985 18.2013C102.582 18.4758 102.274 18.8387 102.061 19.2901C101.847 19.7415 101.74 20.2355 101.74 20.7723V21.7879C101.74 22.4894 101.862 23.0841 102.106 23.5721C102.35 24.0601 102.689 24.4322 103.122 24.6884C103.561 24.9446 104.071 25.0727 104.65 25.0727C105.028 25.0727 105.37 25.0178 105.675 24.908C105.986 24.7982 106.254 24.6335 106.48 24.4139C106.706 24.1943 106.876 23.9228 106.992 23.5996L108.877 23.9564C108.725 24.5054 108.456 24.9873 108.072 25.402C107.688 25.8168 107.203 26.1401 106.617 26.3719C106.038 26.5976 105.376 26.7104 104.632 26.7104ZM118.054 18.7777L116.252 19.0888C116.136 18.7472 115.919 18.4331 115.602 18.1464C115.291 17.8597 114.824 17.7163 114.202 17.7163C113.641 17.7163 113.171 17.8444 112.793 18.1006C112.421 18.3507 112.235 18.6709 112.235 19.0613C112.235 19.4029 112.36 19.6805 112.61 19.8939C112.866 20.1074 113.272 20.2782 113.827 20.4063L115.465 20.7723C116.398 20.9858 117.097 21.3213 117.56 21.7788C118.024 22.2363 118.256 22.8218 118.256 23.5355C118.256 24.1516 118.079 24.7006 117.725 25.1824C117.371 25.6582 116.88 26.0334 116.252 26.3079C115.624 26.5762 114.898 26.7104 114.074 26.7104C112.927 26.7104 111.994 26.4634 111.274 25.9693C110.555 25.4752 110.112 24.7799 109.948 23.8832L111.86 23.5904C111.982 24.0906 112.229 24.4688 112.601 24.725C112.979 24.9812 113.467 25.1093 114.065 25.1093C114.712 25.1093 115.23 24.972 115.62 24.6975C116.017 24.423 116.215 24.0906 116.215 23.7002C116.215 23.0536 115.733 22.6175 114.77 22.3918L113.04 22.0075C112.083 21.7879 111.375 21.4433 110.918 20.9736C110.466 20.4978 110.24 19.9 110.24 19.1803C110.24 18.5764 110.408 18.0457 110.744 17.5882C111.085 17.1308 111.552 16.777 112.144 16.5269C112.741 16.2707 113.422 16.1426 114.184 16.1426C115.294 16.1426 116.163 16.3835 116.792 16.8654C117.426 17.3473 117.847 17.9847 118.054 18.7777ZM127.295 18.7777L125.493 19.0888C125.377 18.7472 125.161 18.4331 124.843 18.1464C124.532 17.8597 124.066 17.7163 123.443 17.7163C122.882 17.7163 122.413 17.8444 122.034 18.1006C121.662 18.3507 121.476 18.6709 121.476 19.0613C121.476 19.4029 121.601 19.6805 121.851 19.8939C122.108 20.1074 122.513 20.2782 123.068 20.4063L124.706 20.7723C125.639 20.9858 126.338 21.3213 126.801 21.7788C127.265 22.2363 127.497 22.8218 127.497 23.5355C127.497 24.1516 127.32 24.7006 126.966 25.1824C126.612 25.6582 126.121 26.0334 125.493 26.3079C124.865 26.5762 124.139 26.7104 123.315 26.7104C122.169 26.7104 121.235 26.4634 120.516 25.9693C119.796 25.4752 119.354 24.7799 119.189 23.8832L121.101 23.5904C121.223 24.0906 121.47 24.4688 121.842 24.725C122.22 24.9812 122.708 25.1093 123.306 25.1093C123.953 25.1093 124.471 24.972 124.862 24.6975C125.258 24.423 125.456 24.0906 125.456 23.7002C125.456 23.0536 124.974 22.6175 124.011 22.3918L122.281 22.0075C121.324 21.7879 120.616 21.4433 120.159 20.9736C119.707 20.4978 119.482 19.9 119.482 19.1803C119.482 18.5764 119.649 18.0457 119.985 17.5882C120.326 17.1308 120.793 16.777 121.385 16.5269C121.983 16.2707 122.663 16.1426 123.425 16.1426C124.535 16.1426 125.405 16.3835 126.033 16.8654C126.667 17.3473 127.088 17.9847 127.295 18.7777Z" fill="black"/>
</svg>
