<svg width="98" height="98" viewBox="0 0 98 98" fill="none" xmlns="http://www.w3.org/2000/svg">
<path d="M45.4998 90.9997H38.4998V6.99997H45.4998C50.1198 6.99997 50.1198 0 45.4998 0H24.4999C19.8799 0 19.8799 6.99997 24.4999 6.99997H31.4999V90.9997H24.4999C19.8799 90.9997 19.8799 97.9996 24.4999 97.9996H45.4998C50.1198 97.9996 50.1198 90.9997 45.4998 90.9997Z" fill="white"/>
<path d="M24.4999 73.4998H17.4999C11.725 73.4998 6.99997 68.7748 6.99997 62.9998V34.9999C6.99997 29.225 11.725 24.5 17.4999 24.5H24.4999V17.5H17.4999C7.83997 17.5 0 25.34 0 34.9999V62.9998C0 72.6598 7.83997 80.4998 17.4999 80.4998H24.4999V73.4998Z" fill="white"/>
<path d="M80.4996 17.5H45.4997V24.5H80.4996C86.2745 24.5 90.9995 29.225 90.9995 34.9999V62.9998C90.9995 68.7748 86.2745 73.4998 80.4996 73.4998H45.4997V80.4998H80.4996C90.1595 80.4998 97.9995 72.6598 97.9995 62.9998V34.9999C97.9995 25.34 90.1595 17.5 80.4996 17.5Z" fill="white"/>
</svg>
