<svg width="404" height="165" viewBox="0 0 404 165" fill="none" xmlns="http://www.w3.org/2000/svg">
<g clip-path="url(#clip0_357_1933)">
<g clip-path="url(#clip1_357_1933)">
<path d="M39 25C39 11.7452 49.7452 1 63 1H404V156H63C49.7452 156 39 145.255 39 132V25Z" fill="white"/>
<mask id="path-3-inside-1_357_1933" fill="white">
<path d="M39 25C39 11.7452 49.7452 1 63 1H551C564.255 1 575 11.7452 575 25V56H39V25Z"/>
</mask>
<path d="M39 25C39 11.7452 49.7452 1 63 1H551C564.255 1 575 11.7452 575 25V56H39V25Z" fill="#F6F6F6"/>
<path d="M39 1H575H39ZM575 57H39V55H575V57ZM39 56V1V56ZM575 1V56V1Z" fill="#CCCCCC" mask="url(#path-3-inside-1_357_1933)"/>
<rect x="57" y="14.375" width="30.4619" height="30.4619" rx="15.2309" fill="black"/>
<path d="M71.3677 37.2214H70.0984V21.9904H71.3677C72.2054 21.9904 72.2054 20.7212 71.3677 20.7212H67.5599C66.7222 20.7212 66.7222 21.9904 67.5599 21.9904H68.8292V37.2214H67.5599C66.7222 37.2214 66.7222 38.4906 67.5599 38.4906H71.3677C72.2054 38.4906 72.2054 37.2214 71.3677 37.2214Z" fill="white"/>
<path d="M67.5595 34.0485H66.2903C65.2432 34.0485 64.3864 33.1917 64.3864 32.1446V27.0676C64.3864 26.0205 65.2432 25.1638 66.2903 25.1638H67.5595V23.8945H66.2903C64.5387 23.8945 63.1172 25.3161 63.1172 27.0676V32.1446C63.1172 33.8962 64.5387 35.3177 66.2903 35.3177H67.5595V34.0485Z" fill="white"/>
<path d="M77.7134 23.8945H71.3672V25.1638H77.7134C78.7605 25.1638 79.6173 26.0205 79.6173 27.0676V32.1446C79.6173 33.1917 78.7605 34.0485 77.7134 34.0485H71.3672V35.3177H77.7134C79.465 35.3177 80.8865 33.8962 80.8865 32.1446V27.0676C80.8865 25.3161 79.465 23.8945 77.7134 23.8945Z" fill="white"/>
<path d="M94.6506 23.9681V34.606H93.0442V23.9681H94.6506ZM97.7992 29.8725V34.606H96.257V26.624H97.7563V27.9377H97.8634C98.0443 27.5045 98.3275 27.1618 98.713 26.9096C99.0985 26.6525 99.5935 26.524 100.198 26.524C100.741 26.524 101.214 26.6383 101.619 26.8667C102.028 27.0904 102.345 27.426 102.568 27.8734C102.797 28.3208 102.911 28.8753 102.911 29.5369V34.606H101.369V29.7225C101.369 29.1466 101.217 28.6944 100.912 28.366C100.607 28.0329 100.193 27.8663 99.6697 27.8663C99.3127 27.8663 98.9914 27.9472 98.7059 28.109C98.425 28.2661 98.2037 28.4922 98.0419 28.7873C97.8801 29.0824 97.7992 29.4441 97.7992 29.8725ZM108.109 26.624V27.8734H103.753V26.624H108.109ZM104.917 24.7249H106.467V32.2642C106.467 32.6307 106.543 32.8996 106.695 33.071C106.847 33.2376 107.092 33.3208 107.43 33.3208C107.511 33.3208 107.597 33.3161 107.687 33.3066C107.783 33.297 107.878 33.2828 107.973 33.2637L108.266 34.5488C108.109 34.6012 107.937 34.6417 107.752 34.6702C107.566 34.6988 107.38 34.713 107.195 34.713C106.505 34.713 105.952 34.5203 105.538 34.1347C105.124 33.7445 104.917 33.2257 104.917 32.5783V24.7249ZM112.571 34.7702C111.79 34.7702 111.114 34.6012 110.543 34.2633C109.972 33.9253 109.532 33.4494 109.222 32.8354C108.918 32.2166 108.765 31.4955 108.765 30.6721C108.765 29.8534 108.915 29.1323 109.215 28.5088C109.52 27.8853 109.946 27.3998 110.493 27.0524C111.045 26.7001 111.693 26.524 112.435 26.524C112.887 26.524 113.325 26.5978 113.749 26.7454C114.172 26.8929 114.553 27.1261 114.891 27.445C115.229 27.7639 115.496 28.178 115.691 28.6873C115.891 29.1966 115.991 29.8106 115.991 30.5293V31.0862H109.644V29.9224H115.191L114.47 30.308C114.47 29.8177 114.394 29.3846 114.241 29.0086C114.089 28.6326 113.861 28.3399 113.556 28.1304C113.256 27.9162 112.883 27.8091 112.435 27.8091C111.988 27.8091 111.605 27.9162 111.286 28.1304C110.972 28.3446 110.731 28.6278 110.565 28.98C110.398 29.3322 110.315 29.7178 110.315 30.1366V30.9291C110.315 31.4765 110.41 31.9405 110.6 32.3213C110.791 32.7021 111.055 32.9924 111.393 33.1923C111.735 33.3922 112.133 33.4922 112.585 33.4922C112.88 33.4922 113.147 33.4494 113.385 33.3637C113.627 33.278 113.837 33.1495 114.013 32.9782C114.189 32.8068 114.322 32.595 114.413 32.3427L115.884 32.6212C115.765 33.0495 115.555 33.4256 115.255 33.7492C114.955 34.0729 114.577 34.3251 114.12 34.506C113.668 34.6821 113.151 34.7702 112.571 34.7702ZM117.076 34.606V26.624H118.568V27.902H118.654C118.801 27.4736 119.058 27.1357 119.425 26.8882C119.796 26.6359 120.215 26.5098 120.681 26.5098C120.776 26.5098 120.888 26.5145 121.017 26.524C121.15 26.5288 121.257 26.5359 121.338 26.5455V28.0305C121.276 28.0114 121.164 27.9924 121.003 27.9734C120.845 27.9543 120.686 27.9448 120.524 27.9448C120.158 27.9448 119.829 28.0233 119.539 28.1804C119.253 28.3327 119.027 28.5445 118.861 28.8158C118.699 29.0824 118.618 29.3917 118.618 29.744V34.606H117.076ZM122.088 37.5903V26.624H123.587V27.9234H123.716C123.811 27.7568 123.942 27.564 124.108 27.3451C124.28 27.1261 124.518 26.9357 124.822 26.7739C125.127 26.6073 125.524 26.524 126.014 26.524C126.657 26.524 127.228 26.6859 127.728 27.0095C128.232 27.3332 128.63 27.802 128.92 28.416C129.211 29.03 129.356 29.7701 129.356 30.6364C129.356 31.4931 129.213 32.2309 128.927 32.8496C128.642 33.4636 128.247 33.9372 127.742 34.2704C127.242 34.5988 126.669 34.763 126.022 34.763C125.541 34.763 125.146 34.6821 124.836 34.5203C124.532 34.3537 124.291 34.1609 124.115 33.942C123.944 33.723 123.811 33.5303 123.716 33.3637H123.63V37.5903H122.088ZM125.686 33.4422C126.148 33.4422 126.533 33.3185 126.843 33.071C127.152 32.8235 127.385 32.4879 127.542 32.0643C127.704 31.6359 127.785 31.1552 127.785 30.6221C127.785 30.0938 127.707 29.6202 127.549 29.2014C127.392 28.7825 127.159 28.4517 126.85 28.209C126.54 27.9662 126.153 27.8448 125.686 27.8448C125.234 27.8448 124.853 27.9615 124.544 28.1947C124.234 28.4231 123.999 28.7468 123.837 29.1657C123.68 29.5797 123.601 30.0652 123.601 30.6221C123.601 31.179 123.682 31.6692 123.844 32.0929C124.006 32.5165 124.241 32.8473 124.551 33.0852C124.865 33.3232 125.243 33.4422 125.686 33.4422ZM130.484 34.606V26.624H131.976V27.902H132.062C132.209 27.4736 132.466 27.1357 132.833 26.8882C133.204 26.6359 133.623 26.5098 134.089 26.5098C134.184 26.5098 134.296 26.5145 134.425 26.524C134.558 26.5288 134.665 26.5359 134.746 26.5455V28.0305C134.684 28.0114 134.572 27.9924 134.411 27.9734C134.253 27.9543 134.094 27.9448 133.932 27.9448C133.566 27.9448 133.237 28.0233 132.947 28.1804C132.661 28.3327 132.435 28.5445 132.269 28.8158C132.107 29.0824 132.026 29.3917 132.026 29.744V34.606H130.484ZM138.644 34.7702C137.864 34.7702 137.188 34.6012 136.617 34.2633C136.045 33.9253 135.605 33.4494 135.296 32.8354C134.991 32.2166 134.839 31.4955 134.839 30.6721C134.839 29.8534 134.989 29.1323 135.289 28.5088C135.593 27.8853 136.019 27.3998 136.567 27.0524C137.119 26.7001 137.766 26.524 138.509 26.524C138.961 26.524 139.399 26.5978 139.822 26.7454C140.246 26.8929 140.627 27.1261 140.965 27.445C141.303 27.7639 141.569 28.178 141.764 28.6873C141.964 29.1966 142.064 29.8106 142.064 30.5293V31.0862H135.717V29.9224H141.264L140.543 30.308C140.543 29.8177 140.467 29.3846 140.315 29.0086C140.163 28.6326 139.934 28.3399 139.63 28.1304C139.33 27.9162 138.956 27.8091 138.509 27.8091C138.061 27.8091 137.678 27.9162 137.359 28.1304C137.045 28.3446 136.805 28.6278 136.638 28.98C136.471 29.3322 136.388 29.7178 136.388 30.1366V30.9291C136.388 31.4765 136.483 31.9405 136.674 32.3213C136.864 32.7021 137.128 32.9924 137.466 33.1923C137.809 33.3922 138.206 33.4922 138.659 33.4922C138.954 33.4922 139.22 33.4494 139.458 33.3637C139.701 33.278 139.91 33.1495 140.086 32.9782C140.263 32.8068 140.396 32.595 140.486 32.3427L141.957 32.6212C141.838 33.0495 141.629 33.4256 141.329 33.7492C141.029 34.0729 140.65 34.3251 140.194 34.506C139.741 34.6821 139.225 34.7702 138.644 34.7702ZM149.118 28.5802L147.711 28.823C147.621 28.5564 147.452 28.3113 147.205 28.0876C146.962 27.8639 146.598 27.752 146.112 27.752C145.674 27.752 145.308 27.852 145.013 28.0519C144.722 28.247 144.577 28.4969 144.577 28.8015C144.577 29.0681 144.675 29.2846 144.87 29.4512C145.07 29.6178 145.386 29.7511 145.819 29.851L147.097 30.1366C147.826 30.3032 148.371 30.565 148.732 30.922C149.094 31.2789 149.275 31.7359 149.275 32.2928C149.275 32.7735 149.137 33.2019 148.861 33.5779C148.585 33.9491 148.202 34.2418 147.711 34.456C147.221 34.6655 146.655 34.7702 146.012 34.7702C145.117 34.7702 144.389 34.5774 143.828 34.1919C143.266 33.8063 142.921 33.2637 142.792 32.5641L144.284 32.3356C144.38 32.7259 144.572 33.021 144.863 33.2209C145.158 33.4208 145.539 33.5208 146.005 33.5208C146.51 33.5208 146.914 33.4137 147.219 33.1995C147.528 32.9853 147.683 32.7259 147.683 32.4213C147.683 31.9167 147.307 31.5764 146.555 31.4003L145.205 31.1005C144.458 30.9291 143.906 30.6602 143.549 30.2937C143.197 29.9224 143.021 29.456 143.021 28.8944C143.021 28.4231 143.152 28.0091 143.413 27.6521C143.68 27.2951 144.044 27.019 144.506 26.8239C144.972 26.624 145.503 26.524 146.098 26.524C146.964 26.524 147.642 26.712 148.133 27.0881C148.628 27.4641 148.956 27.9615 149.118 28.5802ZM156.329 28.5802L154.922 28.823C154.832 28.5564 154.663 28.3113 154.415 28.0876C154.173 27.8639 153.809 27.752 153.323 27.752C152.885 27.752 152.519 27.852 152.224 28.0519C151.933 28.247 151.788 28.4969 151.788 28.8015C151.788 29.0681 151.886 29.2846 152.081 29.4512C152.281 29.6178 152.597 29.7511 153.03 29.851L154.308 30.1366C155.037 30.3032 155.582 30.565 155.943 30.922C156.305 31.2789 156.486 31.7359 156.486 32.2928C156.486 32.7735 156.348 33.2019 156.072 33.5779C155.796 33.9491 155.413 34.2418 154.922 34.456C154.432 34.6655 153.866 34.7702 153.223 34.7702C152.328 34.7702 151.6 34.5774 151.038 34.1919C150.477 33.8063 150.132 33.2637 150.003 32.5641L151.495 32.3356C151.591 32.7259 151.783 33.021 152.074 33.2209C152.369 33.4208 152.75 33.5208 153.216 33.5208C153.721 33.5208 154.125 33.4137 154.43 33.1995C154.739 32.9853 154.894 32.7259 154.894 32.4213C154.894 31.9167 154.518 31.5764 153.766 31.4003L152.416 31.1005C151.669 30.9291 151.117 30.6602 150.76 30.2937C150.408 29.9224 150.232 29.456 150.232 28.8944C150.232 28.4231 150.363 28.0091 150.624 27.6521C150.891 27.2951 151.255 27.019 151.717 26.8239C152.183 26.624 152.714 26.524 153.309 26.524C154.175 26.524 154.853 26.712 155.344 27.0881C155.839 27.4641 156.167 27.9615 156.329 28.5802Z" fill="black"/>
</g>
<path d="M63 1.5H403.5V155.5H63C50.0213 155.5 39.5 144.979 39.5 132V25C39.5 12.0213 50.0213 1.5 63 1.5Z" stroke="#CCCCCC"/>
<g filter="url(#filter0_d_357_1933)">
<path d="M19 78C19 71.3726 24.3726 66 31 66H404V125H31C24.3726 125 19 119.627 19 113V78Z" fill="white"/>
<path d="M31 66.5H403.5V124.5H31C24.6487 124.5 19.5 119.351 19.5 113V78C19.5 71.6487 24.6487 66.5 31 66.5Z" stroke="#E6E6E6"/>
<path fill-rule="evenodd" clip-rule="evenodd" d="M46 85.5C41.0294 85.5 37 89.5294 37 94.5C37 99.4706 41.0294 103.5 46 103.5C48.125 103.5 50.078 102.764 51.6177 101.532L55.2929 105.207C55.6834 105.598 56.3166 105.598 56.7071 105.207C57.0976 104.817 57.0976 104.183 56.7071 103.793L53.0319 100.118C54.2635 98.578 55 96.625 55 94.5C55 89.5294 50.9706 85.5 46 85.5ZM39 94.5C39 90.634 42.134 87.5 46 87.5C49.866 87.5 53 90.634 53 94.5C53 98.366 49.866 101.5 46 101.5C42.134 101.5 39 98.366 39 94.5Z" fill="#D0D5DD"/>
<path d="M85.4277 102H83.3271L88.0381 88.9043H90.3232L95.0254 102H92.9336L89.2246 91.2861H89.1191L85.4277 102ZM85.7793 96.876H92.5732V98.5283H85.7793V96.876ZM103.278 94.582L101.547 94.8809C101.436 94.5527 101.228 94.251 100.923 93.9756C100.624 93.7002 100.176 93.5625 99.5781 93.5625C99.0391 93.5625 98.5879 93.6855 98.2246 93.9316C97.8672 94.1719 97.6885 94.4795 97.6885 94.8545C97.6885 95.1826 97.8086 95.4492 98.0488 95.6543C98.2949 95.8594 98.6846 96.0234 99.2178 96.1465L100.791 96.498C101.688 96.7031 102.358 97.0254 102.804 97.4648C103.249 97.9043 103.472 98.4668 103.472 99.1523C103.472 99.7441 103.302 100.271 102.962 100.734C102.622 101.191 102.15 101.552 101.547 101.815C100.943 102.073 100.246 102.202 99.4551 102.202C98.3535 102.202 97.457 101.965 96.7656 101.49C96.0742 101.016 95.6494 100.348 95.4912 99.4863L97.3281 99.2051C97.4453 99.6855 97.6826 100.049 98.04 100.295C98.4033 100.541 98.8721 100.664 99.4463 100.664C100.067 100.664 100.565 100.532 100.94 100.269C101.321 100.005 101.512 99.6855 101.512 99.3105C101.512 98.6895 101.049 98.2705 100.123 98.0537L98.4619 97.6846C97.542 97.4736 96.8623 97.1426 96.4229 96.6914C95.9893 96.2344 95.7725 95.6602 95.7725 94.9688C95.7725 94.3887 95.9336 93.8789 96.2559 93.4395C96.584 93 97.0322 92.6602 97.6006 92.4199C98.1748 92.1738 98.8281 92.0508 99.5605 92.0508C100.627 92.0508 101.462 92.2822 102.065 92.7451C102.675 93.208 103.079 93.8203 103.278 94.582ZM106.565 98.6689L106.539 96.3398H106.882L110.793 92.1738H113.078L108.622 96.9199H108.306L106.565 98.6689ZM104.808 102V88.9043H106.706V102H104.808ZM110.995 102L107.479 97.3418L108.798 95.9971L113.351 102H110.995ZM120.197 88.9043V102H118.22V88.9043H120.197ZM124.073 96.1729V102H122.175V92.1738H124.021V93.791H124.152C124.375 93.2578 124.724 92.8359 125.198 92.5254C125.673 92.209 126.282 92.0508 127.026 92.0508C127.694 92.0508 128.277 92.1914 128.775 92.4727C129.279 92.748 129.669 93.1611 129.944 93.7119C130.226 94.2627 130.366 94.9453 130.366 95.7598V102H128.468V95.9883C128.468 95.2793 128.28 94.7227 127.905 94.3184C127.53 93.9082 127.021 93.7031 126.376 93.7031C125.937 93.7031 125.541 93.8027 125.189 94.002C124.844 94.1953 124.571 94.4736 124.372 94.8369C124.173 95.2002 124.073 95.6455 124.073 96.1729ZM136.765 92.1738V93.7119H131.403V92.1738H136.765ZM132.836 89.8359H134.743V99.1172C134.743 99.5684 134.837 99.8994 135.024 100.11C135.212 100.315 135.514 100.418 135.93 100.418C136.029 100.418 136.135 100.412 136.246 100.4C136.363 100.389 136.48 100.371 136.598 100.348L136.958 101.93C136.765 101.994 136.554 102.044 136.325 102.079C136.097 102.114 135.868 102.132 135.64 102.132C134.79 102.132 134.11 101.895 133.601 101.42C133.091 100.939 132.836 100.301 132.836 99.5039V89.8359ZM142.258 102.202C141.297 102.202 140.465 101.994 139.762 101.578C139.059 101.162 138.517 100.576 138.136 99.8203C137.761 99.0586 137.573 98.1709 137.573 97.1572C137.573 96.1494 137.758 95.2617 138.127 94.4941C138.502 93.7266 139.026 93.1289 139.7 92.7012C140.38 92.2676 141.177 92.0508 142.091 92.0508C142.647 92.0508 143.187 92.1416 143.708 92.3232C144.229 92.5049 144.698 92.792 145.114 93.1846C145.53 93.5771 145.858 94.0869 146.099 94.7139C146.345 95.3408 146.468 96.0967 146.468 96.9814V97.667H138.654V96.2344H145.483L144.596 96.709C144.596 96.1055 144.502 95.5723 144.314 95.1094C144.127 94.6465 143.846 94.2861 143.471 94.0283C143.102 93.7646 142.642 93.6328 142.091 93.6328C141.54 93.6328 141.068 93.7646 140.676 94.0283C140.289 94.292 139.993 94.6406 139.788 95.0742C139.583 95.5078 139.48 95.9824 139.48 96.498V97.4736C139.48 98.1475 139.598 98.7188 139.832 99.1875C140.066 99.6562 140.392 100.014 140.808 100.26C141.229 100.506 141.719 100.629 142.275 100.629C142.639 100.629 142.967 100.576 143.26 100.471C143.559 100.365 143.816 100.207 144.033 99.9961C144.25 99.7852 144.414 99.5244 144.525 99.2139L146.336 99.5566C146.189 100.084 145.932 100.547 145.562 100.945C145.193 101.344 144.728 101.654 144.165 101.877C143.608 102.094 142.973 102.202 142.258 102.202ZM147.804 102V92.1738H149.641V93.7471H149.746C149.928 93.2197 150.244 92.8037 150.695 92.499C151.152 92.1885 151.668 92.0332 152.242 92.0332C152.359 92.0332 152.497 92.0391 152.655 92.0508C152.819 92.0566 152.951 92.0654 153.051 92.0771V93.9053C152.975 93.8818 152.837 93.8584 152.638 93.835C152.444 93.8115 152.248 93.7998 152.049 93.7998C151.598 93.7998 151.193 93.8965 150.836 94.0898C150.484 94.2773 150.206 94.5381 150.001 94.8721C149.802 95.2002 149.702 95.5811 149.702 96.0146V102H147.804ZM153.974 105.674V92.1738H155.819V93.7734H155.978C156.095 93.5684 156.256 93.3311 156.461 93.0615C156.672 92.792 156.965 92.5576 157.34 92.3584C157.715 92.1533 158.204 92.0508 158.808 92.0508C159.599 92.0508 160.302 92.25 160.917 92.6484C161.538 93.0469 162.027 93.624 162.385 94.3799C162.742 95.1357 162.921 96.0469 162.921 97.1133C162.921 98.168 162.745 99.0762 162.394 99.8379C162.042 100.594 161.556 101.177 160.935 101.587C160.319 101.991 159.613 102.193 158.816 102.193C158.225 102.193 157.738 102.094 157.357 101.895C156.982 101.689 156.687 101.452 156.47 101.183C156.259 100.913 156.095 100.676 155.978 100.471H155.872V105.674H153.974ZM158.403 100.567C158.972 100.567 159.446 100.415 159.827 100.11C160.208 99.8057 160.495 99.3926 160.688 98.8711C160.888 98.3438 160.987 97.752 160.987 97.0957C160.987 96.4453 160.891 95.8623 160.697 95.3467C160.504 94.8311 160.217 94.4238 159.836 94.125C159.455 93.8262 158.978 93.6768 158.403 93.6768C157.847 93.6768 157.378 93.8203 156.997 94.1074C156.616 94.3887 156.326 94.7871 156.127 95.3027C155.934 95.8125 155.837 96.4102 155.837 97.0957C155.837 97.7812 155.937 98.3848 156.136 98.9062C156.335 99.4277 156.625 99.835 157.006 100.128C157.393 100.421 157.858 100.567 158.403 100.567ZM164.31 102V92.1738H166.146V93.7471H166.252C166.434 93.2197 166.75 92.8037 167.201 92.499C167.658 92.1885 168.174 92.0332 168.748 92.0332C168.865 92.0332 169.003 92.0391 169.161 92.0508C169.325 92.0566 169.457 92.0654 169.557 92.0771V93.9053C169.48 93.8818 169.343 93.8584 169.144 93.835C168.95 93.8115 168.754 93.7998 168.555 93.7998C168.104 93.7998 167.699 93.8965 167.342 94.0898C166.99 94.2773 166.712 94.5381 166.507 94.8721C166.308 95.2002 166.208 95.5811 166.208 96.0146V102H164.31ZM174.355 102.202C173.395 102.202 172.562 101.994 171.859 101.578C171.156 101.162 170.614 100.576 170.233 99.8203C169.858 99.0586 169.671 98.1709 169.671 97.1572C169.671 96.1494 169.855 95.2617 170.225 94.4941C170.6 93.7266 171.124 93.1289 171.798 92.7012C172.478 92.2676 173.274 92.0508 174.188 92.0508C174.745 92.0508 175.284 92.1416 175.806 92.3232C176.327 92.5049 176.796 92.792 177.212 93.1846C177.628 93.5771 177.956 94.0869 178.196 94.7139C178.442 95.3408 178.565 96.0967 178.565 96.9814V97.667H170.752V96.2344H177.581L176.693 96.709C176.693 96.1055 176.6 95.5723 176.412 95.1094C176.225 94.6465 175.943 94.2861 175.568 94.0283C175.199 93.7646 174.739 93.6328 174.188 93.6328C173.638 93.6328 173.166 93.7646 172.773 94.0283C172.387 94.292 172.091 94.6406 171.886 95.0742C171.681 95.5078 171.578 95.9824 171.578 96.498V97.4736C171.578 98.1475 171.695 98.7188 171.93 99.1875C172.164 99.6562 172.489 100.014 172.905 100.26C173.327 100.506 173.816 100.629 174.373 100.629C174.736 100.629 175.064 100.576 175.357 100.471C175.656 100.365 175.914 100.207 176.131 99.9961C176.348 99.7852 176.512 99.5244 176.623 99.2139L178.434 99.5566C178.287 100.084 178.029 100.547 177.66 100.945C177.291 101.344 176.825 101.654 176.263 101.877C175.706 102.094 175.07 102.202 174.355 102.202ZM187.249 94.582L185.518 94.8809C185.406 94.5527 185.198 94.251 184.894 93.9756C184.595 93.7002 184.146 93.5625 183.549 93.5625C183.01 93.5625 182.559 93.6855 182.195 93.9316C181.838 94.1719 181.659 94.4795 181.659 94.8545C181.659 95.1826 181.779 95.4492 182.02 95.6543C182.266 95.8594 182.655 96.0234 183.188 96.1465L184.762 96.498C185.658 96.7031 186.329 97.0254 186.774 97.4648C187.22 97.9043 187.442 98.4668 187.442 99.1523C187.442 99.7441 187.272 100.271 186.933 100.734C186.593 101.191 186.121 101.552 185.518 101.815C184.914 102.073 184.217 102.202 183.426 102.202C182.324 102.202 181.428 101.965 180.736 101.49C180.045 101.016 179.62 100.348 179.462 99.4863L181.299 99.2051C181.416 99.6855 181.653 100.049 182.011 100.295C182.374 100.541 182.843 100.664 183.417 100.664C184.038 100.664 184.536 100.532 184.911 100.269C185.292 100.005 185.482 99.6855 185.482 99.3105C185.482 98.6895 185.02 98.2705 184.094 98.0537L182.433 97.6846C181.513 97.4736 180.833 97.1426 180.394 96.6914C179.96 96.2344 179.743 95.6602 179.743 94.9688C179.743 94.3887 179.904 93.8789 180.227 93.4395C180.555 93 181.003 92.6602 181.571 92.4199C182.146 92.1738 182.799 92.0508 183.531 92.0508C184.598 92.0508 185.433 92.2822 186.036 92.7451C186.646 93.208 187.05 93.8203 187.249 94.582ZM196.126 94.582L194.395 94.8809C194.283 94.5527 194.075 94.251 193.771 93.9756C193.472 93.7002 193.023 93.5625 192.426 93.5625C191.887 93.5625 191.436 93.6855 191.072 93.9316C190.715 94.1719 190.536 94.4795 190.536 94.8545C190.536 95.1826 190.656 95.4492 190.896 95.6543C191.143 95.8594 191.532 96.0234 192.065 96.1465L193.639 96.498C194.535 96.7031 195.206 97.0254 195.651 97.4648C196.097 97.9043 196.319 98.4668 196.319 99.1523C196.319 99.7441 196.149 100.271 195.81 100.734C195.47 101.191 194.998 101.552 194.395 101.815C193.791 102.073 193.094 102.202 192.303 102.202C191.201 102.202 190.305 101.965 189.613 101.49C188.922 101.016 188.497 100.348 188.339 99.4863L190.176 99.2051C190.293 99.6855 190.53 100.049 190.888 100.295C191.251 100.541 191.72 100.664 192.294 100.664C192.915 100.664 193.413 100.532 193.788 100.269C194.169 100.005 194.359 99.6855 194.359 99.3105C194.359 98.6895 193.896 98.2705 192.971 98.0537L191.31 97.6846C190.39 97.4736 189.71 97.1426 189.271 96.6914C188.837 96.2344 188.62 95.6602 188.62 94.9688C188.62 94.3887 188.781 93.8789 189.104 93.4395C189.432 93 189.88 92.6602 190.448 92.4199C191.022 92.1738 191.676 92.0508 192.408 92.0508C193.475 92.0508 194.31 92.2822 194.913 92.7451C195.522 93.208 195.927 93.8203 196.126 94.582ZM204.511 102.211C203.89 102.211 203.327 102.097 202.823 101.868C202.319 101.634 201.921 101.294 201.628 100.849C201.335 100.403 201.188 99.8613 201.188 99.2227C201.188 98.666 201.294 98.2119 201.505 97.8604C201.722 97.5029 202.012 97.2188 202.375 97.0078C202.738 96.7969 203.143 96.6387 203.588 96.5332C204.033 96.4277 204.49 96.3457 204.959 96.2871C205.551 96.2227 206.028 96.167 206.392 96.1201C206.755 96.0732 207.019 96 207.183 95.9004C207.353 95.7949 207.438 95.6279 207.438 95.3994V95.3555C207.438 94.7988 207.279 94.3682 206.963 94.0635C206.652 93.7588 206.189 93.6064 205.574 93.6064C204.936 93.6064 204.429 93.7471 204.054 94.0283C203.685 94.3037 203.43 94.6172 203.289 94.9688L201.487 94.5557C201.704 93.958 202.018 93.4775 202.428 93.1143C202.844 92.7451 203.318 92.4756 203.852 92.3057C204.391 92.1357 204.953 92.0508 205.539 92.0508C205.932 92.0508 206.348 92.0977 206.787 92.1914C207.227 92.2793 207.64 92.4463 208.026 92.6924C208.419 92.9326 208.738 93.2783 208.984 93.7295C209.23 94.1807 209.354 94.7637 209.354 95.4785V102H207.481V100.655H207.411C207.294 100.896 207.109 101.136 206.857 101.376C206.611 101.616 206.295 101.815 205.908 101.974C205.521 102.132 205.056 102.211 204.511 102.211ZM204.924 100.682C205.457 100.682 205.911 100.579 206.286 100.374C206.661 100.163 206.948 99.8877 207.147 99.5479C207.347 99.208 207.446 98.8477 207.446 98.4668V97.1924C207.376 97.2568 207.244 97.3184 207.051 97.377C206.857 97.4355 206.638 97.4854 206.392 97.5264C206.146 97.5674 205.905 97.6055 205.671 97.6406C205.437 97.6699 205.24 97.6934 205.082 97.7109C204.713 97.7637 204.376 97.8457 204.071 97.957C203.767 98.0625 203.521 98.2207 203.333 98.4316C203.151 98.6367 203.061 98.9092 203.061 99.249C203.061 99.7236 203.236 100.081 203.588 100.321C203.939 100.562 204.385 100.682 204.924 100.682ZM213.089 96.1729V102H211.19V92.1738H213.036V93.791H213.168C213.391 93.2578 213.739 92.8359 214.214 92.5254C214.688 92.209 215.298 92.0508 216.042 92.0508C216.71 92.0508 217.293 92.1914 217.791 92.4727C218.295 92.748 218.685 93.1611 218.96 93.7119C219.241 94.2627 219.382 94.9453 219.382 95.7598V102H217.483V95.9883C217.483 95.2793 217.296 94.7227 216.921 94.3184C216.546 93.9082 216.036 93.7031 215.392 93.7031C214.952 93.7031 214.557 93.8027 214.205 94.002C213.859 94.1953 213.587 94.4736 213.388 94.8369C213.188 95.2002 213.089 95.6455 213.089 96.1729ZM222.054 105.674C221.767 105.68 221.506 105.659 221.271 105.612C221.043 105.571 220.867 105.521 220.744 105.463L221.21 103.907L221.342 103.942C221.828 104.065 222.238 104.057 222.572 103.916C222.912 103.781 223.196 103.403 223.425 102.782L223.662 102.132L220.076 92.1738H222.124L224.603 99.8027H224.708L227.195 92.1738H229.243L225.2 103.301C225.013 103.816 224.775 104.25 224.488 104.602C224.201 104.959 223.855 105.226 223.451 105.401C223.053 105.583 222.587 105.674 222.054 105.674ZM234.868 92.1738V93.7119H229.507V92.1738H234.868ZM230.939 89.8359H232.847V99.1172C232.847 99.5684 232.94 99.8994 233.128 100.11C233.315 100.315 233.617 100.418 234.033 100.418C234.133 100.418 234.238 100.412 234.35 100.4C234.467 100.389 234.584 100.371 234.701 100.348L235.062 101.93C234.868 101.994 234.657 102.044 234.429 102.079C234.2 102.114 233.972 102.132 233.743 102.132C232.894 102.132 232.214 101.895 231.704 101.42C231.194 100.939 230.939 100.301 230.939 99.5039V89.8359ZM238.349 96.1729V102H236.45V88.9043H238.322V93.791H238.454C238.683 93.2578 239.031 92.8359 239.5 92.5254C239.975 92.209 240.593 92.0508 241.354 92.0508C242.028 92.0508 242.617 92.1885 243.121 92.4639C243.625 92.7393 244.018 93.1523 244.299 93.7031C244.586 94.2539 244.729 94.9395 244.729 95.7598V102H242.813V95.9883C242.813 95.2617 242.626 94.6992 242.251 94.3008C241.882 93.9023 241.366 93.7031 240.704 93.7031C240.247 93.7031 239.843 93.8027 239.491 94.002C239.14 94.1953 238.861 94.4736 238.656 94.8369C238.451 95.2002 238.349 95.6455 238.349 96.1729ZM246.558 102V92.1738H248.456V102H246.558ZM247.516 90.6621C247.182 90.6621 246.897 90.5508 246.663 90.3281C246.429 90.1055 246.312 89.8389 246.312 89.5283C246.312 89.2119 246.429 88.9424 246.663 88.7197C246.897 88.4971 247.182 88.3857 247.516 88.3857C247.844 88.3857 248.125 88.4971 248.359 88.7197C248.6 88.9424 248.72 89.2119 248.72 89.5283C248.72 89.8389 248.6 90.1055 248.359 90.3281C248.125 90.5508 247.844 90.6621 247.516 90.6621ZM252.183 96.1729V102H250.284V92.1738H252.13V93.791H252.262C252.484 93.2578 252.833 92.8359 253.308 92.5254C253.782 92.209 254.392 92.0508 255.136 92.0508C255.804 92.0508 256.387 92.1914 256.885 92.4727C257.389 92.748 257.778 93.1611 258.054 93.7119C258.335 94.2627 258.476 94.9453 258.476 95.7598V102H256.577V95.9883C256.577 95.2793 256.39 94.7227 256.015 94.3184C255.64 93.9082 255.13 93.7031 254.485 93.7031C254.046 93.7031 253.65 93.8027 253.299 94.002C252.953 94.1953 252.681 94.4736 252.481 94.8369C252.282 95.2002 252.183 95.6455 252.183 96.1729ZM264.399 105.885C263.228 105.885 262.305 105.665 261.631 105.226C260.957 104.786 260.491 104.265 260.233 103.661L261.868 102.984C261.985 103.172 262.141 103.371 262.334 103.582C262.533 103.793 262.8 103.972 263.134 104.118C263.468 104.265 263.898 104.338 264.426 104.338C265.146 104.338 265.744 104.162 266.219 103.811C266.693 103.465 266.931 102.908 266.931 102.141V100.216H266.799C266.693 100.421 266.532 100.652 266.315 100.91C266.099 101.162 265.803 101.382 265.428 101.569C265.053 101.757 264.563 101.851 263.96 101.851C263.187 101.851 262.489 101.669 261.868 101.306C261.253 100.937 260.761 100.397 260.392 99.6885C260.028 98.9736 259.847 98.0947 259.847 97.0518C259.847 96.0088 260.025 95.1152 260.383 94.3711C260.746 93.6211 261.238 93.0469 261.859 92.6484C262.48 92.25 263.187 92.0508 263.978 92.0508C264.587 92.0508 265.079 92.1533 265.454 92.3584C265.835 92.5576 266.131 92.792 266.342 93.0615C266.553 93.3311 266.717 93.5684 266.834 93.7734H266.975V92.1738H268.829V102.22C268.829 103.063 268.633 103.755 268.24 104.294C267.854 104.833 267.326 105.231 266.658 105.489C265.99 105.753 265.237 105.885 264.399 105.885ZM264.382 100.26C265.208 100.26 265.841 99.9756 266.28 99.4072C266.726 98.833 266.948 98.0391 266.948 97.0254C266.948 96.3633 266.852 95.7832 266.658 95.2852C266.465 94.7812 266.178 94.3887 265.797 94.1074C265.416 93.8203 264.944 93.6768 264.382 93.6768C263.808 93.6768 263.327 93.8262 262.94 94.125C262.56 94.418 262.272 94.8193 262.079 95.3291C261.886 95.833 261.789 96.3984 261.789 97.0254C261.789 97.6641 261.886 98.2295 262.079 98.7217C262.272 99.208 262.562 99.5859 262.949 99.8555C263.342 100.125 263.819 100.26 264.382 100.26Z" fill="#475367"/>
</g>
</g>
<defs>
<filter id="filter0_d_357_1933" x="-3" y="54" width="449" height="123" filterUnits="userSpaceOnUse" color-interpolation-filters="sRGB">
<feFlood flood-opacity="0" result="BackgroundImageFix"/>
<feColorMatrix in="SourceAlpha" type="matrix" values="0 0 0 0 0 0 0 0 0 0 0 0 0 0 0 0 0 0 127 0" result="hardAlpha"/>
<feOffset dx="10" dy="20"/>
<feGaussianBlur stdDeviation="16"/>
<feComposite in2="hardAlpha" operator="out"/>
<feColorMatrix type="matrix" values="0 0 0 0 0 0 0 0 0 0 0 0 0 0 0 0 0 0 0.05 0"/>
<feBlend mode="normal" in2="BackgroundImageFix" result="effect1_dropShadow_357_1933"/>
<feBlend mode="normal" in="SourceGraphic" in2="effect1_dropShadow_357_1933" result="shape"/>
</filter>
<clipPath id="clip0_357_1933">
<rect width="404" height="165" fill="white"/>
</clipPath>
<clipPath id="clip1_357_1933">
<path d="M39 25C39 11.7452 49.7452 1 63 1H404V156H63C49.7452 156 39 145.255 39 132V25Z" fill="white"/>
</clipPath>
</defs>
</svg>
