<svg width="404" height="165" viewBox="0 0 404 165" fill="none" xmlns="http://www.w3.org/2000/svg">
<g clip-path="url(#clip0_357_1933)">
<g opacity="0.2">
<g clip-path="url(#clip1_357_1933)">
<mask id="mask0_357_1933" style="mask-type:luminance" maskUnits="userSpaceOnUse" x="14" y="30" width="52" height="40">
<path d="M14.666 30.9321H65.5135V69.0677H14.666V30.9321Z" fill="white"/>
</mask>
<g mask="url(#mask0_357_1933)">
<path fill-rule="evenodd" clip-rule="evenodd" d="M11.4883 30.9321H68.6917V69.0677H11.4883V30.9321Z" fill="white"/>
<path d="M40.0943 61.8557C46.6412 61.8557 51.9485 56.5484 51.9485 50.0016C51.9485 43.4547 46.6412 38.1475 40.0943 38.1475C33.5475 38.1475 28.2402 43.4547 28.2402 50.0016C28.2402 56.5484 33.5475 61.8557 40.0943 61.8557Z" fill="#BC002D"/>
</g>
</g>
<g clip-path="url(#clip2_357_1933)">
<path d="M79.4961 30.9321H130.344V43.644H79.4961V30.9321Z" fill="white"/>
<path d="M79.4961 43.644H130.344V56.3559H79.4961V43.644Z" fill="#00966E"/>
<path d="M79.4961 56.356H130.344V69.0678H79.4961V56.356Z" fill="#D62612"/>
</g>
<g clip-path="url(#clip3_357_1933)">
<path d="M144.326 30.9321H195.174V49.9999H144.326V30.9321Z" fill="#0038A8"/>
<path d="M144.326 50H195.174V69.0678H144.326V50Z" fill="#CE1126"/>
<path d="M177.353 49.9999L144.326 69.0677V30.9321" fill="white"/>
<path d="M146.447 34.3008L147.583 35.3018L148.901 34.5709L148.314 35.9613L149.426 36.9941L147.916 36.867L147.273 38.2335L146.931 36.7637L145.438 36.573L146.733 35.7785L146.447 34.3008ZM172.172 47.9899L172.204 49.4994L173.634 49.9999L172.204 50.4925L172.172 52.0021L171.258 50.8024L169.812 51.2393L170.671 49.9999L169.812 48.7605L171.258 49.1975L172.172 47.9899ZM147.281 61.7664L147.916 63.1329L149.426 63.0058L148.322 64.0386L148.909 65.429L147.591 64.706L146.447 65.6911L146.733 64.2054L145.438 63.4268L146.939 63.2362L147.281 61.7664ZM156.354 41.9835L155.861 42.4761L156.108 46.2102L155.869 46.234L155.416 42.8257L155.011 43.2229L155.615 46.2738C155.127 46.3709 154.663 46.5625 154.248 46.8379L152.524 44.2637H151.952L154.05 46.9888L153.859 47.1477L151.388 44.3273H150.689V45.0264L153.502 47.4893L153.343 47.688L150.618 45.5985V46.1625L153.2 47.8866C152.924 48.2997 152.736 48.7552 152.636 49.2531L149.593 48.6493L149.187 49.0465L152.596 49.4994C152.58 49.5841 152.572 49.6662 152.572 49.7457L148.838 49.5073L148.345 49.9999L148.838 50.4925L152.572 50.2462L152.596 50.4925L149.187 50.9454L149.585 51.3426L152.636 50.7388C152.733 51.2268 152.924 51.691 153.2 52.1053L150.618 53.8294V54.4014L153.343 52.3119L153.502 52.5026L150.689 54.9655V55.6647H151.396L153.859 52.8522L154.058 53.0111L151.952 55.7362H152.524L154.248 53.1541C154.662 53.4295 155.117 53.6175 155.615 53.7182L155.011 56.769L155.408 57.1662L155.861 53.7579C155.941 53.7738 156.023 53.7817 156.108 53.7817L155.869 57.5158L156.354 58.0084L156.854 57.5158L156.608 53.7817L156.846 53.7579L157.299 57.1742L157.704 56.769L157.101 53.7182C157.589 53.6211 158.053 53.4294 158.467 53.1541L160.191 55.7362H160.763L158.666 53.0111L158.856 52.8522L161.327 55.6647H162.026V54.9655L159.214 52.5026L159.373 52.3119L162.098 54.4014V53.8294L159.516 52.1053C159.791 51.6922 159.979 51.2367 160.08 50.7388L163.123 51.3426L163.528 50.9454L160.12 50.4925C160.136 50.4131 160.144 50.331 160.144 50.2462L163.878 50.4846L164.37 49.9999L163.878 49.5073L160.144 49.7457L160.12 49.5073L163.528 49.0545L163.131 48.6572L160.08 49.2531C159.983 48.7652 159.791 48.3009 159.516 47.8866L162.098 46.1625V45.5985L159.373 47.688L159.214 47.4973L162.026 45.0344V44.3273H161.327L158.864 47.1477L158.666 46.9888L160.763 44.2637H160.191L158.467 46.8379C158.054 46.5624 157.599 46.3744 157.101 46.2738L157.704 43.2309L157.307 42.8336L156.854 46.234L156.608 46.2102L156.846 42.4761L156.354 41.9835Z" fill="#FCD116"/>
</g>
<g clip-path="url(#clip4_357_1933)">
<path d="M209.158 30.9321H260.006V43.644H209.158V30.9321Z" fill="#FF9933"/>
<path d="M209.158 43.644H260.006V56.3559H209.158V43.644Z" fill="white"/>
<path d="M209.158 56.356H260.006V69.0678H209.158V56.356Z" fill="#128807"/>
<path d="M234.585 55.0845C237.393 55.0845 239.669 52.808 239.669 49.9998C239.669 47.1916 237.393 44.915 234.585 44.915C231.777 44.915 229.5 47.1916 229.5 49.9998C229.5 52.808 231.777 55.0845 234.585 55.0845Z" fill="#000088"/>
<path d="M234.586 54.4486C237.043 54.4486 239.035 52.4566 239.035 49.9994C239.035 47.5422 237.043 45.5503 234.586 45.5503C232.129 45.5503 230.137 47.5422 230.137 49.9994C230.137 52.4566 232.129 54.4486 234.586 54.4486Z" fill="white"/>
<path d="M234.585 50.8895C235.077 50.8895 235.475 50.4911 235.475 49.9997C235.475 49.5083 235.077 49.1099 234.585 49.1099C234.094 49.1099 233.695 49.5083 233.695 49.9997C233.695 50.4911 234.094 50.8895 234.585 50.8895Z" fill="#000088"/>
<path d="M238.964 50.8088C239.089 50.8253 239.204 50.7371 239.221 50.6118C239.237 50.4865 239.149 50.3716 239.024 50.3551C238.898 50.3386 238.784 50.4268 238.767 50.5521C238.751 50.6773 238.839 50.7923 238.964 50.8088Z" fill="#000088"/>
<path d="M234.584 54.449L234.737 51.7795L234.584 50.5083L234.432 51.7795L234.584 54.449Z" fill="#000088"/>
<path d="M238.607 51.9156C238.723 51.964 238.857 51.9085 238.906 51.7918C238.954 51.675 238.898 51.5412 238.782 51.4928C238.665 51.4445 238.531 51.4999 238.483 51.6167C238.434 51.7334 238.49 51.8673 238.607 51.9156Z" fill="#000088"/>
<path d="M233.432 54.2975L234.27 51.7585L234.452 50.4911L233.976 51.6795L233.432 54.2975Z" fill="#000088"/>
<path d="M237.975 52.8915C238.075 52.9684 238.219 52.9495 238.296 52.8493C238.373 52.749 238.354 52.6054 238.254 52.5285C238.154 52.4515 238.01 52.4704 237.933 52.5707C237.856 52.6709 237.875 52.8146 237.975 52.8915Z" fill="#000088"/>
<path d="M232.361 53.8528L233.828 51.6172L234.331 50.44L233.564 51.4646L232.361 53.8528Z" fill="#000088"/>
<path d="M237.112 53.6701C237.189 53.7703 237.333 53.7892 237.433 53.7123C237.533 53.6354 237.552 53.4917 237.475 53.3915C237.398 53.2912 237.255 53.2723 237.154 53.3493C237.054 53.4262 237.035 53.5698 237.112 53.6701Z" fill="#000088"/>
<path d="M231.441 53.1463L233.436 51.3665L234.227 50.3598L233.22 51.1508L231.441 53.1463Z" fill="#000088"/>
<path d="M236.077 54.1985C236.125 54.3153 236.259 54.3707 236.376 54.3224C236.493 54.274 236.548 54.1402 236.5 54.0234C236.451 53.9067 236.317 53.8512 236.201 53.8996C236.084 53.9479 236.029 54.0818 236.077 54.1985Z" fill="#000088"/>
<path d="M230.732 52.2245L233.12 51.0219L234.145 50.2542L232.967 50.7577L230.732 52.2245Z" fill="#000088"/>
<path d="M234.941 54.4414C234.958 54.5667 235.073 54.6549 235.198 54.6384C235.323 54.6219 235.412 54.5069 235.395 54.3816C235.379 54.2564 235.264 54.1682 235.138 54.1847C235.013 54.2011 234.925 54.3161 234.941 54.4414Z" fill="#000088"/>
<path d="M230.29 51.1516L232.908 50.6081L234.096 50.1317L232.829 50.3134L230.29 51.1516Z" fill="#000088"/>
<path d="M233.776 54.381C233.76 54.5063 233.848 54.6212 233.973 54.6377C234.098 54.6542 234.213 54.566 234.23 54.4407C234.246 54.3154 234.158 54.2005 234.033 54.184C233.908 54.1675 233.793 54.2557 233.776 54.381Z" fill="#000088"/>
<path d="M230.137 49.9997L232.807 50.1523L234.078 49.9997L232.807 49.8472L230.137 49.9997Z" fill="#000088"/>
<path d="M232.667 54.0221C232.619 54.1389 232.674 54.2727 232.791 54.3211C232.908 54.3694 233.042 54.314 233.09 54.1972C233.139 54.0805 233.083 53.9466 232.966 53.8983C232.85 53.8499 232.716 53.9054 232.667 54.0221Z" fill="#000088"/>
<path d="M230.287 48.8481L232.826 49.6864L234.093 49.868L232.905 49.3917L230.287 48.8481Z" fill="#000088"/>
<path d="M231.695 53.3898C231.618 53.49 231.637 53.6337 231.737 53.7106C231.837 53.7875 231.981 53.7686 232.058 53.6683C232.135 53.5681 232.116 53.4245 232.016 53.3475C231.915 53.2706 231.772 53.2895 231.695 53.3898Z" fill="#000088"/>
<path d="M230.732 47.775L232.967 49.2419L234.144 49.7454L233.12 48.9777L230.732 47.775Z" fill="#000088"/>
<path d="M230.915 52.5257C230.815 52.6027 230.796 52.7463 230.873 52.8466C230.95 52.9468 231.093 52.9657 231.193 52.8888C231.294 52.8119 231.313 52.6682 231.236 52.568C231.159 52.4677 231.015 52.4488 230.915 52.5257Z" fill="#000088"/>
<path d="M231.44 46.8541L233.219 48.8496L234.226 49.6406L233.435 48.6339L231.44 46.8541Z" fill="#000088"/>
<path d="M230.385 51.489C230.268 51.5373 230.213 51.6712 230.261 51.7879C230.309 51.9047 230.443 51.9601 230.56 51.9118C230.677 51.8634 230.732 51.7296 230.684 51.6128C230.636 51.4961 230.502 51.4406 230.385 51.489Z" fill="#000088"/>
<path d="M232.358 46.146L233.561 48.5341L234.329 49.5587L233.825 48.3815L232.358 46.146Z" fill="#000088"/>
<path d="M230.145 50.3511C230.02 50.3676 229.932 50.4825 229.948 50.6078C229.965 50.7331 230.079 50.8213 230.205 50.8048C230.33 50.7883 230.418 50.6733 230.402 50.548C230.385 50.4228 230.27 50.3346 230.145 50.3511Z" fill="#000088"/>
<path d="M233.434 45.7013L233.978 48.3194L234.454 49.5077L234.273 48.2404L233.434 45.7013Z" fill="#000088"/>
<path d="M230.21 49.1917C230.085 49.1752 229.97 49.2634 229.953 49.3887C229.937 49.514 230.025 49.6289 230.15 49.6454C230.275 49.6619 230.39 49.5737 230.407 49.4484C230.423 49.3231 230.335 49.2082 230.21 49.1917Z" fill="#000088"/>
<path d="M234.59 45.552L234.437 48.2215L234.59 49.4927L234.742 48.2215L234.59 45.552Z" fill="#000088"/>
<path d="M230.563 48.0853C230.447 48.037 230.313 48.0924 230.264 48.2092C230.216 48.3259 230.271 48.4598 230.388 48.5081C230.505 48.5565 230.639 48.5011 230.687 48.3843C230.736 48.2676 230.68 48.1337 230.563 48.0853Z" fill="#000088"/>
<path d="M235.738 45.7034L234.9 48.2425L234.718 49.5098L235.194 48.3214L235.738 45.7034Z" fill="#000088"/>
<path d="M231.197 47.1095C231.096 47.0325 230.953 47.0514 230.876 47.1517C230.799 47.252 230.818 47.3956 230.918 47.4725C231.018 47.5495 231.162 47.5305 231.239 47.4303C231.316 47.33 231.297 47.1864 231.197 47.1095Z" fill="#000088"/>
<path d="M236.811 46.1482L235.344 48.3838L234.841 49.5609L235.608 48.5363L236.811 46.1482Z" fill="#000088"/>
<path d="M232.06 46.3309C231.983 46.2306 231.839 46.2117 231.739 46.2887C231.639 46.3656 231.62 46.5092 231.697 46.6095C231.774 46.7097 231.917 46.7287 232.017 46.6517C232.118 46.5748 232.137 46.4312 232.06 46.3309Z" fill="#000088"/>
<path d="M237.731 46.8547L235.736 48.6344L234.945 49.6412L235.952 48.8502L237.731 46.8547Z" fill="#000088"/>
<path d="M233.093 45.8005C233.045 45.6837 232.911 45.6283 232.794 45.6767C232.677 45.725 232.622 45.8589 232.67 45.9756C232.719 46.0924 232.852 46.1478 232.969 46.0994C233.086 46.0511 233.141 45.9172 233.093 45.8005Z" fill="#000088"/>
<path d="M238.436 47.7745L236.048 48.9771L235.023 49.7448L236.2 49.2414L238.436 47.7745Z" fill="#000088"/>
<path d="M234.23 45.5576C234.214 45.4324 234.099 45.3442 233.974 45.3607C233.848 45.3772 233.76 45.4921 233.777 45.6174C233.793 45.7427 233.908 45.8309 234.033 45.8144C234.159 45.7979 234.247 45.6829 234.23 45.5576Z" fill="#000088"/>
<path d="M238.882 48.8474L236.264 49.391L235.076 49.8673L236.343 49.6856L238.882 48.8474Z" fill="#000088"/>
<path d="M235.394 45.6175C235.41 45.4923 235.322 45.3773 235.197 45.3608C235.071 45.3443 234.957 45.4325 234.94 45.5578C234.924 45.6831 235.012 45.798 235.137 45.8145C235.262 45.831 235.377 45.7428 235.394 45.6175Z" fill="#000088"/>
<path d="M239.032 49.9988L236.363 49.8463L235.092 49.9988L236.363 50.1514L239.032 49.9988Z" fill="#000088"/>
<path d="M236.501 45.9769C236.549 45.8602 236.494 45.7263 236.377 45.678C236.26 45.6296 236.126 45.685 236.078 45.8018C236.029 45.9185 236.085 46.0524 236.202 46.1007C236.318 46.1491 236.452 46.0937 236.501 45.9769Z" fill="#000088"/>
<path d="M238.881 51.1509L236.342 50.3126L235.075 50.131L236.263 50.6073L238.881 51.1509Z" fill="#000088"/>
<path d="M237.473 46.6098C237.55 46.5095 237.531 46.3659 237.431 46.2889C237.331 46.212 237.187 46.2309 237.11 46.3312C237.033 46.4314 237.052 46.5751 237.152 46.652C237.252 46.7289 237.396 46.71 237.473 46.6098Z" fill="#000088"/>
<path d="M238.434 52.224L236.199 50.7571L235.022 50.2536L236.046 51.0213L238.434 52.224Z" fill="#000088"/>
<path d="M238.253 47.4738C238.353 47.3968 238.372 47.2532 238.295 47.1529C238.218 47.0527 238.075 47.0338 237.974 47.1107C237.874 47.1876 237.855 47.3313 237.932 47.4315C238.009 47.5318 238.153 47.5507 238.253 47.4738Z" fill="#000088"/>
<path d="M237.728 53.1454L235.949 51.1499L234.942 50.3589L235.733 51.3657L237.728 53.1454Z" fill="#000088"/>
<path d="M238.781 48.51C238.898 48.4617 238.953 48.3278 238.905 48.2111C238.857 48.0943 238.723 48.0389 238.606 48.0872C238.489 48.1356 238.434 48.2694 238.482 48.3862C238.53 48.503 238.664 48.5584 238.781 48.51Z" fill="#000088"/>
<path d="M236.806 53.8526L235.603 51.4645L234.835 50.4398L235.339 51.617L236.806 53.8526Z" fill="#000088"/>
<path d="M239.021 49.647C239.146 49.6305 239.234 49.5156 239.218 49.3903C239.201 49.265 239.087 49.1768 238.961 49.1933C238.836 49.2098 238.748 49.3247 238.764 49.45C238.781 49.5753 238.896 49.6635 239.021 49.647Z" fill="#000088"/>
<path d="M235.732 54.2972L235.188 51.6792L234.712 50.4908L234.893 51.7581L235.732 54.2972Z" fill="#000088"/>
</g>
<g clip-path="url(#clip5_357_1933)">
<path d="M273.988 56.356H324.836V69.0678H273.988V56.356Z" fill="#FFCC00"/>
<path d="M273.988 30.9321H324.836V43.644H273.988V30.9321Z" fill="#000001"/>
<path d="M273.988 43.644H324.836V56.3559H273.988V43.644Z" fill="#FF0000"/>
</g>
<g clip-path="url(#clip6_357_1933)">
<path d="M338.818 30.9321H389.666V69.0677H338.818V30.9321Z" fill="white"/>
<path d="M338.818 30.9321H355.765V69.0677H338.818V30.9321Z" fill="#000091"/>
<path d="M372.719 30.9321H389.665V69.0677H372.719V30.9321Z" fill="#E1000F"/>
</g>
</g>
<path d="M-322.334 91.5H619.666C626.017 91.5 631.166 96.6487 631.166 103V163C631.166 169.351 626.017 174.5 619.666 174.5H-322.334C-328.685 174.5 -333.834 169.351 -333.834 163V103L-333.819 102.408C-333.511 96.3319 -328.487 91.5 -322.334 91.5Z" fill="#F9FAFB"/>
<path d="M-322.334 91.5H619.666C626.017 91.5 631.166 96.6487 631.166 103V163C631.166 169.351 626.017 174.5 619.666 174.5H-322.334C-328.685 174.5 -333.834 169.351 -333.834 163V103L-333.819 102.408C-333.511 96.3319 -328.487 91.5 -322.334 91.5Z" stroke="#EAECF0"/>
<g filter="url(#filter0_d_357_1933)">
<path d="M22.166 113.5H46.166C50.3082 113.5 53.666 116.858 53.666 121V145C53.666 149.142 50.3082 152.5 46.166 152.5H22.166C18.0239 152.5 14.666 149.142 14.666 145V121C14.666 116.858 18.0239 113.5 22.166 113.5Z" stroke="#EAECF0" shape-rendering="crispEdges"/>
<path d="M27.5 137.167H40.8333M40.8333 137.167L37.5 133.833M40.8333 137.167L37.5 140.5M40.8333 128.833H27.5M27.5 128.833L30.8333 125.5M27.5 128.833L30.8333 132.167" stroke="#344054" stroke-width="1.66667" stroke-linecap="round" stroke-linejoin="round"/>
</g>
<g filter="url(#filter1_dd_357_1933)">
<path d="M78.166 119C78.166 114.582 81.7477 111 86.166 111H374.666C379.084 111 382.666 114.582 382.666 119V147C382.666 151.418 379.084 155 374.666 155H86.166C81.7477 155 78.166 151.418 78.166 147V119Z" fill="white"/>
<path d="M86.166 111.5H374.666C378.808 111.5 382.166 114.858 382.166 119V147C382.166 151.142 378.808 154.5 374.666 154.5H86.166C82.0239 154.5 78.666 151.142 78.666 147V119C78.666 114.858 82.0239 111.5 86.166 111.5Z" stroke="#D6BBFB"/>
<path d="M109.666 140.5L106.749 137.583M108.833 132.583C108.833 136.495 105.661 139.667 101.749 139.667C97.8373 139.667 94.666 136.495 94.666 132.583C94.666 128.671 97.8373 125.5 101.749 125.5C105.661 125.5 108.833 128.671 108.833 132.583Z" stroke="#667085" stroke-width="1.66667" stroke-linecap="round" stroke-linejoin="round"/>
<path d="M126.166 121.5H189.166C192.204 121.5 194.666 123.962 194.666 127V139C194.666 142.038 192.204 144.5 189.166 144.5H126.166C123.128 144.5 120.666 142.038 120.666 139V127C120.666 123.962 123.128 121.5 126.166 121.5Z" fill="white"/>
<path d="M126.166 121.5H189.166C192.204 121.5 194.666 123.962 194.666 127V139C194.666 142.038 192.204 144.5 189.166 144.5H126.166C123.128 144.5 120.666 142.038 120.666 139V127C120.666 123.962 123.128 121.5 126.166 121.5Z" stroke="#D0D5DD"/>
<path d="M138.873 127.818V138H137.461L132.285 130.533H132.191V138H130.655V127.818H132.077L137.257 135.295H137.351V127.818H138.873ZM144.286 138.154C143.533 138.154 142.885 137.993 142.342 137.672C141.801 137.347 141.384 136.891 141.089 136.305C140.797 135.715 140.651 135.024 140.651 134.232C140.651 133.449 140.797 132.76 141.089 132.163C141.384 131.567 141.795 131.101 142.322 130.766C142.852 130.432 143.472 130.264 144.181 130.264C144.612 130.264 145.03 130.335 145.434 130.478C145.838 130.621 146.201 130.844 146.523 131.149C146.844 131.454 147.098 131.85 147.283 132.337C147.469 132.821 147.562 133.41 147.562 134.102V134.629H141.492V133.516H146.105C146.105 133.125 146.026 132.778 145.867 132.477C145.707 132.172 145.484 131.931 145.195 131.756C144.91 131.58 144.576 131.492 144.191 131.492C143.774 131.492 143.409 131.595 143.097 131.8C142.789 132.003 142.551 132.268 142.381 132.596C142.216 132.921 142.133 133.274 142.133 133.655V134.525C142.133 135.035 142.222 135.469 142.401 135.827C142.584 136.185 142.837 136.459 143.162 136.648C143.487 136.833 143.866 136.926 144.301 136.926C144.582 136.926 144.839 136.886 145.071 136.807C145.303 136.724 145.504 136.601 145.673 136.439C145.842 136.277 145.971 136.076 146.06 135.837L147.467 136.091C147.355 136.505 147.153 136.868 146.861 137.18C146.573 137.488 146.21 137.728 145.772 137.901C145.338 138.07 144.842 138.154 144.286 138.154ZM149.211 140.864V130.364H150.663V131.602H150.787C150.873 131.442 150.998 131.259 151.16 131.05C151.322 130.841 151.548 130.659 151.836 130.503C152.125 130.344 152.506 130.264 152.98 130.264C153.596 130.264 154.146 130.42 154.63 130.732C155.114 131.043 155.494 131.492 155.769 132.079C156.047 132.665 156.186 133.371 156.186 134.197C156.186 135.022 156.049 135.73 155.774 136.32C155.499 136.906 155.121 137.359 154.64 137.677C154.16 137.992 153.611 138.149 152.995 138.149C152.531 138.149 152.151 138.071 151.856 137.915C151.564 137.76 151.336 137.577 151.17 137.369C151.004 137.16 150.877 136.974 150.787 136.812H150.698V140.864H149.211ZM150.668 134.182C150.668 134.719 150.746 135.189 150.902 135.594C151.057 135.998 151.283 136.315 151.578 136.543C151.873 136.769 152.234 136.881 152.661 136.881C153.106 136.881 153.477 136.764 153.775 136.528C154.073 136.29 154.299 135.967 154.451 135.559C154.607 135.151 154.685 134.692 154.685 134.182C154.685 133.678 154.609 133.226 154.456 132.825C154.307 132.424 154.082 132.107 153.78 131.875C153.482 131.643 153.109 131.527 152.661 131.527C152.231 131.527 151.866 131.638 151.568 131.86C151.273 132.082 151.049 132.392 150.897 132.79C150.744 133.187 150.668 133.652 150.668 134.182ZM160.074 138.169C159.59 138.169 159.153 138.08 158.762 137.901C158.371 137.718 158.061 137.455 157.832 137.11C157.607 136.765 157.494 136.343 157.494 135.842C157.494 135.411 157.577 135.057 157.742 134.778C157.908 134.5 158.132 134.28 158.414 134.117C158.695 133.955 159.01 133.832 159.358 133.749C159.706 133.666 160.061 133.603 160.422 133.56C160.88 133.507 161.251 133.464 161.536 133.431C161.821 133.395 162.028 133.337 162.157 133.257C162.286 133.178 162.351 133.048 162.351 132.869V132.835C162.351 132.4 162.228 132.064 161.983 131.825C161.741 131.587 161.38 131.467 160.899 131.467C160.399 131.467 160.005 131.578 159.716 131.8C159.431 132.019 159.234 132.263 159.125 132.531L157.728 132.213C157.893 131.749 158.135 131.375 158.453 131.089C158.775 130.801 159.144 130.592 159.562 130.463C159.98 130.33 160.419 130.264 160.88 130.264C161.184 130.264 161.508 130.301 161.849 130.374C162.194 130.443 162.515 130.572 162.813 130.761C163.115 130.95 163.362 131.22 163.554 131.572C163.746 131.92 163.843 132.372 163.843 132.929V138H162.391V136.956H162.331C162.235 137.148 162.091 137.337 161.899 137.523C161.706 137.708 161.46 137.862 161.158 137.985C160.856 138.108 160.495 138.169 160.074 138.169ZM160.397 136.976C160.808 136.976 161.16 136.895 161.451 136.732C161.746 136.57 161.97 136.358 162.122 136.096C162.278 135.831 162.356 135.547 162.356 135.246V134.261C162.303 134.314 162.2 134.364 162.048 134.411C161.899 134.454 161.728 134.492 161.536 134.525C161.344 134.555 161.156 134.583 160.974 134.609C160.792 134.633 160.639 134.652 160.517 134.669C160.228 134.705 159.965 134.767 159.726 134.853C159.491 134.939 159.302 135.063 159.159 135.226C159.02 135.385 158.951 135.597 158.951 135.862C158.951 136.23 159.086 136.509 159.358 136.697C159.63 136.883 159.976 136.976 160.397 136.976ZM167.309 127.818V138H165.823V127.818H167.309ZM169.309 138V130.364H170.795V138H169.309ZM170.06 129.185C169.801 129.185 169.579 129.099 169.393 128.927C169.211 128.751 169.12 128.542 169.12 128.3C169.12 128.055 169.211 127.846 169.393 127.674C169.579 127.498 169.801 127.411 170.06 127.411C170.318 127.411 170.539 127.498 170.721 127.674C170.906 127.846 170.999 128.055 170.999 128.3C170.999 128.542 170.906 128.751 170.721 128.927C170.539 129.099 170.318 129.185 170.06 129.185Z" fill="#344054"/>
<path d="M186.166 130L180.166 136M180.166 130L186.166 136" stroke="#98A2B3" stroke-width="1.5" stroke-linecap="round" stroke-linejoin="round"/>
<path d="M207.166 121.5H262.166C265.204 121.5 267.666 123.962 267.666 127V139C267.666 142.038 265.204 144.5 262.166 144.5H207.166C204.128 144.5 201.666 142.038 201.666 139V127C201.666 123.962 204.128 121.5 207.166 121.5Z" fill="white"/>
<path d="M207.166 121.5H262.166C265.204 121.5 267.666 123.962 267.666 127V139C267.666 142.038 265.204 144.5 262.166 144.5H207.166C204.128 144.5 201.666 142.038 201.666 139V127C201.666 123.962 204.128 121.5 207.166 121.5Z" stroke="#D0D5DD"/>
<path d="M211.538 138V127.818H213.074V132.243H218.15V127.818H219.691V138H218.15V133.56H213.074V138H211.538ZM221.809 138V130.364H223.295V138H221.809ZM222.56 129.185C222.301 129.185 222.079 129.099 221.893 128.927C221.711 128.751 221.62 128.542 221.62 128.3C221.62 128.055 221.711 127.846 221.893 127.674C222.079 127.498 222.301 127.411 222.56 127.411C222.818 127.411 223.039 127.498 223.221 127.674C223.406 127.846 223.499 128.055 223.499 128.3C223.499 128.542 223.406 128.751 223.221 128.927C223.039 129.099 222.818 129.185 222.56 129.185ZM226.782 133.466V138H225.295V130.364H226.722V131.607H226.816C226.992 131.202 227.267 130.877 227.642 130.632C228.02 130.387 228.495 130.264 229.069 130.264C229.589 130.264 230.045 130.374 230.436 130.592C230.827 130.808 231.13 131.129 231.346 131.557C231.561 131.984 231.669 132.513 231.669 133.143V138H230.182V133.322C230.182 132.768 230.038 132.336 229.75 132.024C229.461 131.709 229.065 131.552 228.562 131.552C228.217 131.552 227.91 131.626 227.642 131.776C227.377 131.925 227.166 132.143 227.01 132.432C226.858 132.717 226.782 133.062 226.782 133.466ZM236.521 138.149C235.905 138.149 235.354 137.992 234.87 137.677C234.39 137.359 234.012 136.906 233.737 136.32C233.465 135.73 233.329 135.022 233.329 134.197C233.329 133.371 233.467 132.665 233.742 132.079C234.02 131.492 234.401 131.043 234.885 130.732C235.369 130.42 235.918 130.264 236.531 130.264C237.005 130.264 237.386 130.344 237.674 130.503C237.966 130.659 238.191 130.841 238.351 131.05C238.513 131.259 238.639 131.442 238.728 131.602H238.818V127.818H240.304V138H238.853V136.812H238.728C238.639 136.974 238.51 137.16 238.341 137.369C238.175 137.577 237.946 137.76 237.655 137.915C237.363 138.071 236.985 138.149 236.521 138.149ZM236.849 136.881C237.277 136.881 237.638 136.769 237.933 136.543C238.231 136.315 238.457 135.998 238.609 135.594C238.765 135.189 238.843 134.719 238.843 134.182C238.843 133.652 238.767 133.187 238.614 132.79C238.462 132.392 238.238 132.082 237.943 131.86C237.648 131.638 237.283 131.527 236.849 131.527C236.402 131.527 236.029 131.643 235.731 131.875C235.432 132.107 235.207 132.424 235.054 132.825C234.905 133.226 234.831 133.678 234.831 134.182C234.831 134.692 234.907 135.151 235.059 135.559C235.212 135.967 235.437 136.29 235.736 136.528C236.037 136.764 236.408 136.881 236.849 136.881ZM242.426 138V130.364H243.913V138H242.426ZM243.177 129.185C242.918 129.185 242.696 129.099 242.511 128.927C242.328 128.751 242.237 128.542 242.237 128.3C242.237 128.055 242.328 127.846 242.511 127.674C242.696 127.498 242.918 127.411 243.177 127.411C243.435 127.411 243.656 127.498 243.838 127.674C244.024 127.846 244.116 128.055 244.116 128.3C244.116 128.542 244.024 128.751 243.838 128.927C243.656 129.099 243.435 129.185 243.177 129.185Z" fill="#344054"/>
<path d="M259.166 130L253.166 136M253.166 130L259.166 136" stroke="#98A2B3" stroke-width="1.5" stroke-linecap="round" stroke-linejoin="round"/>
</g>
</g>
<defs>
<filter id="filter0_d_357_1933" x="12.166" y="112" width="44" height="44" filterUnits="userSpaceOnUse" color-interpolation-filters="sRGB">
<feFlood flood-opacity="0" result="BackgroundImageFix"/>
<feColorMatrix in="SourceAlpha" type="matrix" values="0 0 0 0 0 0 0 0 0 0 0 0 0 0 0 0 0 0 127 0" result="hardAlpha"/>
<feOffset dy="1"/>
<feGaussianBlur stdDeviation="1"/>
<feComposite in2="hardAlpha" operator="out"/>
<feColorMatrix type="matrix" values="0 0 0 0 0.0627451 0 0 0 0 0.0941176 0 0 0 0 0.156863 0 0 0 0.05 0"/>
<feBlend mode="normal" in2="BackgroundImageFix" result="effect1_dropShadow_357_1933"/>
<feBlend mode="normal" in="SourceGraphic" in2="effect1_dropShadow_357_1933" result="shape"/>
</filter>
<filter id="filter1_dd_357_1933" x="74.166" y="107" width="312.5" height="52" filterUnits="userSpaceOnUse" color-interpolation-filters="sRGB">
<feFlood flood-opacity="0" result="BackgroundImageFix"/>
<feColorMatrix in="SourceAlpha" type="matrix" values="0 0 0 0 0 0 0 0 0 0 0 0 0 0 0 0 0 0 127 0" result="hardAlpha"/>
<feMorphology radius="4" operator="dilate" in="SourceAlpha" result="effect1_dropShadow_357_1933"/>
<feOffset/>
<feComposite in2="hardAlpha" operator="out"/>
<feColorMatrix type="matrix" values="0 0 0 0 0.619608 0 0 0 0 0.466667 0 0 0 0 0.929412 0 0 0 0.24 0"/>
<feBlend mode="normal" in2="BackgroundImageFix" result="effect1_dropShadow_357_1933"/>
<feColorMatrix in="SourceAlpha" type="matrix" values="0 0 0 0 0 0 0 0 0 0 0 0 0 0 0 0 0 0 127 0" result="hardAlpha"/>
<feOffset dy="1"/>
<feGaussianBlur stdDeviation="1"/>
<feComposite in2="hardAlpha" operator="out"/>
<feColorMatrix type="matrix" values="0 0 0 0 0.0627451 0 0 0 0 0.0941176 0 0 0 0 0.156863 0 0 0 0.05 0"/>
<feBlend mode="normal" in2="effect1_dropShadow_357_1933" result="effect2_dropShadow_357_1933"/>
<feBlend mode="normal" in="SourceGraphic" in2="effect2_dropShadow_357_1933" result="shape"/>
</filter>
<clipPath id="clip0_357_1933">
<rect width="404" height="165" fill="white"/>
</clipPath>
<clipPath id="clip1_357_1933">
<rect width="50.8475" height="38.1356" fill="white" transform="translate(14.666 30.9321)"/>
</clipPath>
<clipPath id="clip2_357_1933">
<rect width="50.8475" height="38.1356" fill="white" transform="translate(79.4961 30.9321)"/>
</clipPath>
<clipPath id="clip3_357_1933">
<rect width="50.8475" height="38.1356" fill="white" transform="translate(144.326 30.9321)"/>
</clipPath>
<clipPath id="clip4_357_1933">
<rect width="50.8475" height="38.1356" fill="white" transform="translate(209.158 30.9321)"/>
</clipPath>
<clipPath id="clip5_357_1933">
<rect width="50.8475" height="38.1356" fill="white" transform="translate(273.988 30.9321)"/>
</clipPath>
<clipPath id="clip6_357_1933">
<rect width="50.8475" height="38.1356" fill="white" transform="translate(338.818 30.9321)"/>
</clipPath>
</defs>
</svg>
