<svg width="404" height="165" viewBox="0 0 404 165" fill="none" xmlns="http://www.w3.org/2000/svg">
<g clip-path="url(#clip0_357_1933)">
<g clip-path="url(#clip1_357_1933)">
<rect x="35.668" y="19" width="201.123" height="143" rx="22.1419" fill="white"/>
<mask id="path-3-inside-1_357_1933" fill="white">
<path d="M35.668 41.1419C35.668 28.9133 45.5813 19 57.8099 19H306.907C319.135 19 329.049 28.9133 329.049 41.1419V69.7419H35.668V41.1419Z"/>
</mask>
<path d="M35.668 41.1419C35.668 28.9133 45.5813 19 57.8099 19H306.907C319.135 19 329.049 28.9133 329.049 41.1419V69.7419H35.668V41.1419Z" fill="#F6F6F6"/>
<path d="M35.668 19H329.049H35.668ZM329.049 70.6645H35.668V68.8194H329.049V70.6645ZM35.668 69.7419V19V69.7419ZM329.049 19V69.7419V19Z" fill="#CCCCCC" mask="url(#path-3-inside-1_357_1933)"/>
<path d="M52.457 33.7611C52.457 31.723 54.1092 30.0708 56.1474 30.0708H67.2183L76.0751 38.9276V55.9031C76.0751 57.9412 74.4229 59.5934 72.3848 59.5934H56.1474C54.1092 59.5934 52.457 57.9412 52.457 55.9031V33.7611Z" fill="#D92D20"/>
<path opacity="0.3" d="M67.2188 30.0708L76.0755 38.9276H70.9091C68.871 38.9276 67.2188 37.2754 67.2188 35.2373V30.0708Z" fill="white"/>
<path d="M56.6539 55.0464V49.0077H59.0364C59.4944 49.0077 59.8846 49.0952 60.207 49.2701C60.5293 49.4431 60.7751 49.6839 60.9441 49.9925C61.1151 50.2992 61.2006 50.653 61.2006 51.054C61.2006 51.455 61.1141 51.8088 60.9412 52.1155C60.7682 52.4221 60.5175 52.661 60.1893 52.832C59.863 53.003 59.4678 53.0885 59.0039 53.0885H57.4854V52.0654H58.7975C59.0433 52.0654 59.2457 52.0231 59.4049 51.9386C59.5661 51.8521 59.686 51.7332 59.7647 51.5818C59.8453 51.4285 59.8856 51.2525 59.8856 51.054C59.8856 50.8535 59.8453 50.6785 59.7647 50.5291C59.686 50.3778 59.5661 50.2608 59.4049 50.1783C59.2438 50.0937 59.0393 50.0515 58.7916 50.0515H57.9307V55.0464H56.6539ZM64.1706 55.0464H62.0299V49.0077H64.1883C64.7957 49.0077 65.3186 49.1286 65.7569 49.3704C66.1953 49.6102 66.5324 49.9552 66.7683 50.4053C67.0062 50.8555 67.1251 51.3941 67.1251 52.0211C67.1251 52.6502 67.0062 53.1907 66.7683 53.6429C66.5324 54.095 66.1933 54.4419 65.751 54.6837C65.3107 54.9255 64.7839 55.0464 64.1706 55.0464ZM63.3067 53.9525H64.1175C64.4949 53.9525 64.8124 53.8856 65.0699 53.752C65.3294 53.6163 65.524 53.407 65.6537 53.1239C65.7854 52.8389 65.8513 52.4713 65.8513 52.0211C65.8513 51.5749 65.7854 51.2103 65.6537 50.9272C65.524 50.6441 65.3304 50.4358 65.0729 50.3021C64.8154 50.1684 64.4979 50.1016 64.1205 50.1016H63.3067V53.9525ZM68.0708 55.0464V49.0077H72.0691V50.0603H69.3476V51.4992H71.8038V52.5519H69.3476V55.0464H68.0708Z" fill="white"/>
<path d="M93.4874 34.3773C93.4384 33.9431 93.2366 33.6068 92.8819 33.3682C92.5272 33.1267 92.0808 33.0059 91.5426 33.0059C91.1573 33.0059 90.824 33.067 90.5427 33.1894C90.2614 33.3086 90.0428 33.4737 89.8868 33.6847C89.7339 33.8927 89.6575 34.1296 89.6575 34.3957C89.6575 34.6189 89.7095 34.8115 89.8134 34.9736C89.9205 35.1356 90.0596 35.2717 90.2308 35.3818C90.4051 35.4888 90.5916 35.579 90.7904 35.6524C90.9892 35.7227 91.1803 35.7808 91.3637 35.8267L92.2811 36.0652C92.5807 36.1386 92.888 36.238 93.203 36.3634C93.518 36.4887 93.81 36.6538 94.0791 36.8587C94.3481 37.0636 94.5652 37.3174 94.7304 37.6201C94.8985 37.9228 94.9826 38.2852 94.9826 38.7072C94.9826 39.2392 94.845 39.7116 94.5698 40.1244C94.2977 40.5372 93.9017 40.8629 93.3819 41.1014C92.8651 41.3399 92.2398 41.4592 91.5059 41.4592C90.8026 41.4592 90.1941 41.3476 89.6804 41.1243C89.1667 40.9011 88.7646 40.5846 88.4741 40.1749C88.1836 39.7621 88.0231 39.2728 87.9925 38.7072H89.4144C89.4419 39.0466 89.552 39.3294 89.7446 39.5557C89.9403 39.7789 90.1895 39.9456 90.4923 40.0556C90.798 40.1627 91.1329 40.2162 91.4967 40.2162C91.8973 40.2162 92.2536 40.1535 92.5654 40.0281C92.8804 39.8997 93.1281 39.7223 93.3085 39.4961C93.4889 39.2667 93.5791 38.9992 93.5791 38.6934C93.5791 38.4151 93.4996 38.1873 93.3406 38.01C93.1847 37.8326 92.9721 37.6859 92.703 37.5697C92.437 37.4535 92.1358 37.351 91.7995 37.2623L90.6895 36.9596C89.9373 36.7548 89.341 36.4536 88.9007 36.056C88.4634 35.6585 88.2448 35.1326 88.2448 34.4782C88.2448 33.937 88.3916 33.4646 88.6851 33.0609C88.9787 32.6573 89.3762 32.3439 89.8776 32.1207C90.3791 31.8944 90.9448 31.7812 91.5747 31.7812C92.2107 31.7812 92.7718 31.8929 93.258 32.1161C93.7473 32.3393 94.1326 32.6466 94.4139 33.038C94.6952 33.4263 94.842 33.8728 94.8542 34.3773H93.4874ZM98.6164 41.4592C98.17 41.4592 97.7664 41.3766 97.4056 41.2115C97.0447 41.0433 96.7588 40.8002 96.5478 40.4822C96.3399 40.1642 96.236 39.7743 96.236 39.3126C96.236 38.9151 96.3124 38.5879 96.4653 38.331C96.6182 38.0742 96.8246 37.8708 97.0845 37.721C97.3444 37.5712 97.6349 37.458 97.956 37.3816C98.277 37.3052 98.6042 37.2471 98.9375 37.2073C99.3595 37.1584 99.702 37.1186 99.9649 37.0881C100.228 37.0544 100.419 37.0009 100.538 36.9275C100.658 36.8541 100.717 36.7349 100.717 36.5698V36.5376C100.717 36.1371 100.604 35.8267 100.378 35.6065C100.155 35.3864 99.8212 35.2763 99.3778 35.2763C98.9161 35.2763 98.5522 35.3787 98.2862 35.5836C98.0232 35.7854 97.8413 36.0102 97.7404 36.2579L96.4515 35.9643C96.6044 35.5362 96.8276 35.1907 97.1212 34.9277C97.4178 34.6617 97.7587 34.469 98.144 34.3498C98.5293 34.2275 98.9345 34.1663 99.3595 34.1663C99.6408 34.1663 99.9389 34.2 100.254 34.2672C100.572 34.3314 100.869 34.4507 101.144 34.625C101.422 34.7993 101.65 35.0485 101.827 35.3726C102.004 35.6937 102.093 36.1111 102.093 36.6248V41.3032H100.754V40.34H100.699C100.61 40.5174 100.477 40.6917 100.3 40.8629C100.122 41.0341 99.8946 41.1763 99.6163 41.2895C99.3381 41.4026 99.0048 41.4592 98.6164 41.4592ZM98.9146 40.3584C99.2937 40.3584 99.6179 40.2834 99.887 40.1336C100.159 39.9838 100.366 39.7881 100.506 39.5465C100.65 39.3019 100.722 39.0405 100.722 38.7622V37.854C100.673 37.903 100.578 37.9488 100.437 37.9916C100.3 38.0314 100.142 38.0665 99.9649 38.0971C99.7876 38.1246 99.6148 38.1506 99.4466 38.1751C99.2785 38.1965 99.1378 38.2148 99.0247 38.2301C98.7586 38.2638 98.5155 38.3203 98.2954 38.3998C98.0783 38.4793 97.904 38.594 97.7725 38.7438C97.6441 38.8906 97.5799 39.0863 97.5799 39.3309C97.5799 39.6704 97.7052 39.9272 97.956 40.1015C98.2067 40.2727 98.5262 40.3584 98.9146 40.3584ZM107.273 34.2581V35.3589H103.291V34.2581H107.273ZM104.383 41.3032V33.4416C104.383 33.0013 104.479 32.6359 104.672 32.3454C104.865 32.0519 105.12 31.8332 105.438 31.6895C105.756 31.5427 106.102 31.4694 106.475 31.4694C106.75 31.4694 106.985 31.4923 107.181 31.5382C107.377 31.581 107.522 31.6207 107.617 31.6574L107.296 32.7674C107.231 32.749 107.149 32.7276 107.048 32.7032C106.947 32.6757 106.825 32.6619 106.681 32.6619C106.348 32.6619 106.109 32.7445 105.965 32.9096C105.825 33.0747 105.754 33.3132 105.754 33.6251V41.3032H104.383ZM111.447 41.4454C110.752 41.4454 110.155 41.2971 109.653 41.0005C109.155 40.7008 108.769 40.2804 108.497 39.7392C108.228 39.1949 108.094 38.5573 108.094 37.8265C108.094 37.1049 108.228 36.4688 108.497 35.9184C108.769 35.368 109.149 34.9384 109.635 34.6296C110.124 34.3207 110.696 34.1663 111.35 34.1663C111.748 34.1663 112.133 34.2321 112.506 34.3636C112.879 34.495 113.214 34.7014 113.511 34.9828C113.807 35.2641 114.041 35.6295 114.212 36.079C114.384 36.5254 114.469 37.0682 114.469 37.7073V38.1934H108.869V37.166H113.125C113.125 36.8052 113.052 36.4857 112.905 36.2074C112.758 35.9261 112.552 35.7044 112.286 35.5423C112.023 35.3803 111.714 35.2992 111.359 35.2992C110.974 35.2992 110.638 35.394 110.35 35.5836C110.066 35.7701 109.846 36.0148 109.69 36.3175C109.537 36.6172 109.461 36.9428 109.461 37.2945V38.0971C109.461 38.568 109.543 38.9686 109.708 39.2988C109.876 39.6291 110.11 39.8813 110.41 40.0556C110.71 40.2269 111.06 40.3125 111.46 40.3125C111.72 40.3125 111.957 40.2758 112.171 40.2024C112.385 40.126 112.57 40.0128 112.726 39.863C112.882 39.7132 113.001 39.5282 113.084 39.308L114.382 39.5419C114.278 39.9242 114.092 40.259 113.822 40.5464C113.556 40.8308 113.222 41.0525 112.818 41.2115C112.417 41.3674 111.96 41.4454 111.447 41.4454ZM119.279 34.2581V35.3589H115.431V34.2581H119.279ZM116.463 32.5702H117.835V39.2346C117.835 39.5007 117.874 39.7009 117.954 39.8355C118.033 39.967 118.136 40.0572 118.261 40.1061C118.39 40.152 118.529 40.1749 118.679 40.1749C118.789 40.1749 118.885 40.1673 118.968 40.152C119.05 40.1367 119.114 40.1244 119.16 40.1153L119.408 41.2482C119.328 41.2788 119.215 41.3093 119.069 41.3399C118.922 41.3736 118.738 41.3919 118.518 41.395C118.157 41.4011 117.821 41.3369 117.509 41.2023C117.197 41.0678 116.945 40.8598 116.752 40.5785C116.56 40.2972 116.463 39.944 116.463 39.519V32.5702ZM121.663 43.9452C121.459 43.9452 121.272 43.9283 121.104 43.8947C120.936 43.8641 120.81 43.8305 120.728 43.7938L121.058 42.6701C121.309 42.7373 121.532 42.7664 121.728 42.7572C121.923 42.748 122.096 42.6746 122.246 42.537C122.399 42.3994 122.533 42.1747 122.65 41.8628L122.819 41.395L120.242 34.2581H121.709L123.494 39.7254H123.567L125.351 34.2581H126.823L123.92 42.2435C123.786 42.6104 123.614 42.9208 123.406 43.1746C123.198 43.4314 122.951 43.6241 122.663 43.7525C122.376 43.8809 122.043 43.9452 121.663 43.9452ZM131.531 41.3032V34.2581H132.847V35.4047H132.934C133.081 35.0164 133.321 34.7137 133.654 34.4966C133.987 34.2764 134.387 34.1663 134.851 34.1663C135.322 34.1663 135.717 34.2764 136.035 34.4966C136.356 34.7167 136.593 35.0195 136.746 35.4047H136.819C136.987 35.0286 137.255 34.729 137.622 34.5057C137.989 34.2795 138.426 34.1663 138.933 34.1663C139.573 34.1663 140.094 34.3666 140.498 34.7672C140.904 35.1678 141.108 35.7717 141.108 36.5789V41.3032H139.736V36.7074C139.736 36.2303 139.606 35.8848 139.346 35.6708C139.086 35.4567 138.776 35.3497 138.415 35.3497C137.969 35.3497 137.622 35.4873 137.374 35.7625C137.126 36.0346 137.002 36.3848 137.002 36.8128V41.3032H135.636V36.6202C135.636 36.238 135.516 35.9307 135.278 35.6983C135.039 35.4659 134.729 35.3497 134.347 35.3497C134.087 35.3497 133.847 35.4185 133.627 35.5561C133.41 35.6906 133.234 35.8787 133.099 36.1203C132.968 36.3618 132.902 36.6416 132.902 36.9596V41.3032H131.531ZM144.996 41.4592C144.55 41.4592 144.146 41.3766 143.785 41.2115C143.424 41.0433 143.138 40.8002 142.927 40.4822C142.719 40.1642 142.615 39.7743 142.615 39.3126C142.615 38.9151 142.692 38.5879 142.845 38.331C142.998 38.0742 143.204 37.8708 143.464 37.721C143.724 37.5712 144.014 37.458 144.335 37.3816C144.657 37.3052 144.984 37.2471 145.317 37.2073C145.739 37.1584 146.081 37.1186 146.344 37.0881C146.607 37.0544 146.799 37.0009 146.918 36.9275C147.037 36.8541 147.097 36.7349 147.097 36.5698V36.5376C147.097 36.1371 146.984 35.8267 146.757 35.6065C146.534 35.3864 146.201 35.2763 145.757 35.2763C145.296 35.2763 144.932 35.3787 144.666 35.5836C144.403 35.7854 144.221 36.0102 144.12 36.2579L142.831 35.9643C142.984 35.5362 143.207 35.1907 143.501 34.9277C143.797 34.6617 144.138 34.469 144.524 34.3498C144.909 34.2275 145.314 34.1663 145.739 34.1663C146.02 34.1663 146.318 34.2 146.633 34.2672C146.951 34.3314 147.248 34.4507 147.523 34.625C147.801 34.7993 148.029 35.0485 148.207 35.3726C148.384 35.6937 148.473 36.1111 148.473 36.6248V41.3032H147.133V40.34H147.078C146.99 40.5174 146.857 40.6917 146.679 40.8629C146.502 41.0341 146.274 41.1763 145.996 41.2895C145.718 41.4026 145.384 41.4592 144.996 41.4592ZM145.294 40.3584C145.673 40.3584 145.997 40.2834 146.266 40.1336C146.539 39.9838 146.745 39.7881 146.886 39.5465C147.029 39.3019 147.101 39.0405 147.101 38.7622V37.854C147.052 37.903 146.958 37.9488 146.817 37.9916C146.679 38.0314 146.522 38.0665 146.344 38.0971C146.167 38.1246 145.994 38.1506 145.826 38.1751C145.658 38.1965 145.517 38.2148 145.404 38.2301C145.138 38.2638 144.895 38.3203 144.675 38.3998C144.458 38.4793 144.283 38.594 144.152 38.7438C144.024 38.8906 143.959 39.0863 143.959 39.3309C143.959 39.6704 144.085 39.9272 144.335 40.1015C144.586 40.2727 144.906 40.3584 145.294 40.3584ZM151.671 37.1202V41.3032H150.299V34.2581H151.616V35.4047H151.703C151.865 35.0317 152.119 34.732 152.464 34.5057C152.813 34.2795 153.252 34.1663 153.781 34.1663C154.261 34.1663 154.681 34.2672 155.042 34.469C155.403 34.6678 155.683 34.9644 155.881 35.3589C156.08 35.7533 156.179 36.241 156.179 36.822V41.3032H154.808V36.9871C154.808 36.4765 154.675 36.0774 154.409 35.79C154.143 35.4995 153.778 35.3543 153.313 35.3543C152.995 35.3543 152.712 35.4231 152.464 35.5607C152.22 35.6983 152.025 35.9001 151.882 36.1661C151.741 36.4291 151.671 36.7471 151.671 37.1202ZM162.482 38.3815V34.2581H163.858V41.3032H162.509V40.0832H162.436C162.274 40.4593 162.014 40.7727 161.656 41.0234C161.301 41.2711 160.859 41.395 160.33 41.395C159.878 41.395 159.477 41.2956 159.129 41.0968C158.783 40.895 158.511 40.5969 158.312 40.2024C158.117 39.808 158.019 39.3202 158.019 38.7393V34.2581H159.39V38.5741C159.39 39.0542 159.523 39.4364 159.789 39.7208C160.055 40.0052 160.401 40.1474 160.826 40.1474C161.083 40.1474 161.338 40.0832 161.592 39.9547C161.849 39.8263 162.061 39.6321 162.229 39.3722C162.401 39.1123 162.485 38.7821 162.482 38.3815ZM167.751 41.4592C167.304 41.4592 166.9 41.3766 166.54 41.2115C166.179 41.0433 165.893 40.8002 165.682 40.4822C165.474 40.1642 165.37 39.7743 165.37 39.3126C165.37 38.9151 165.446 38.5879 165.599 38.331C165.752 38.0742 165.959 37.8708 166.219 37.721C166.478 37.5712 166.769 37.458 167.09 37.3816C167.411 37.3052 167.738 37.2471 168.072 37.2073C168.494 37.1584 168.836 37.1186 169.099 37.0881C169.362 37.0544 169.553 37.0009 169.672 36.9275C169.792 36.8541 169.851 36.7349 169.851 36.5698V36.5376C169.851 36.1371 169.738 35.8267 169.512 35.6065C169.289 35.3864 168.955 35.2763 168.512 35.2763C168.05 35.2763 167.686 35.3787 167.42 35.5836C167.157 35.7854 166.975 36.0102 166.874 36.2579L165.586 35.9643C165.738 35.5362 165.962 35.1907 166.255 34.9277C166.552 34.6617 166.893 34.469 167.278 34.3498C167.663 34.2275 168.069 34.1663 168.494 34.1663C168.775 34.1663 169.073 34.2 169.388 34.2672C169.706 34.3314 170.003 34.4507 170.278 34.625C170.556 34.7993 170.784 35.0485 170.961 35.3726C171.139 35.6937 171.227 36.1111 171.227 36.6248V41.3032H169.888V40.34H169.833C169.744 40.5174 169.611 40.6917 169.434 40.8629C169.256 41.0341 169.029 41.1763 168.75 41.2895C168.472 41.4026 168.139 41.4592 167.751 41.4592ZM168.049 40.3584C168.428 40.3584 168.752 40.2834 169.021 40.1336C169.293 39.9838 169.5 39.7881 169.64 39.5465C169.784 39.3019 169.856 39.0405 169.856 38.7622V37.854C169.807 37.903 169.712 37.9488 169.571 37.9916C169.434 38.0314 169.276 38.0665 169.099 38.0971C168.922 38.1246 168.749 38.1506 168.581 38.1751C168.413 38.1965 168.272 38.2148 168.159 38.2301C167.893 38.2638 167.65 38.3203 167.429 38.3998C167.212 38.4793 167.038 38.594 166.907 38.7438C166.778 38.8906 166.714 39.0863 166.714 39.3309C166.714 39.6704 166.839 39.9272 167.09 40.1015C167.341 40.2727 167.66 40.3584 168.049 40.3584ZM174.425 31.9097V41.3032H173.054V31.9097H174.425ZM177.174 41.3904C176.923 41.3904 176.708 41.3017 176.527 41.1243C176.347 40.9439 176.257 40.7268 176.257 40.473C176.257 40.2223 176.347 40.0082 176.527 39.8309C176.708 39.6505 176.923 39.5603 177.174 39.5603C177.425 39.5603 177.64 39.6505 177.821 39.8309C178.001 40.0082 178.091 40.2223 178.091 40.473C178.091 40.6412 178.048 40.7956 177.963 40.9363C177.88 41.0739 177.77 41.184 177.633 41.2665C177.495 41.3491 177.342 41.3904 177.174 41.3904ZM179.928 43.9452V34.2581H181.268V35.4001H181.382C181.462 35.2534 181.576 35.0837 181.726 34.891C181.876 34.6984 182.084 34.5302 182.35 34.3865C182.616 34.2397 182.968 34.1663 183.405 34.1663C183.974 34.1663 184.481 34.31 184.928 34.5975C185.374 34.8849 185.724 35.2992 185.978 35.8405C186.235 36.3817 186.363 37.033 186.363 37.7944C186.363 38.5558 186.236 39.2086 185.983 39.7529C185.729 40.2942 185.38 40.7115 184.937 41.0051C184.493 41.2956 183.987 41.4408 183.419 41.4408C182.991 41.4408 182.64 41.369 182.368 41.2252C182.099 41.0815 181.888 40.9134 181.735 40.7207C181.582 40.5281 181.465 40.3568 181.382 40.207H181.3V43.9452H179.928ZM181.272 37.7806C181.272 38.276 181.344 38.7102 181.488 39.0833C181.631 39.4563 181.839 39.7483 182.111 39.9593C182.384 40.1673 182.717 40.2712 183.111 40.2712C183.521 40.2712 183.864 40.1627 184.139 39.9456C184.414 39.7254 184.622 39.4273 184.763 39.0512C184.906 38.675 184.978 38.2515 184.978 37.7806C184.978 37.3159 184.908 36.8985 184.767 36.5285C184.63 36.1585 184.422 35.8665 184.143 35.6524C183.868 35.4384 183.524 35.3313 183.111 35.3313C182.714 35.3313 182.377 35.4338 182.102 35.6387C181.83 35.8435 181.624 36.1294 181.483 36.4964C181.342 36.8633 181.272 37.2914 181.272 37.7806ZM190.537 41.4408C189.968 41.4408 189.461 41.2956 189.014 41.0051C188.571 40.7115 188.222 40.2942 187.969 39.7529C187.718 39.2086 187.593 38.5558 187.593 37.7944C187.593 37.033 187.719 36.3817 187.973 35.8405C188.23 35.2992 188.582 34.8849 189.028 34.5975C189.475 34.31 189.981 34.1663 190.546 34.1663C190.984 34.1663 191.335 34.2397 191.601 34.3865C191.87 34.5302 192.078 34.6984 192.225 34.891C192.375 35.0837 192.491 35.2534 192.574 35.4001H192.656V31.9097H194.028V41.3032H192.688V40.207H192.574C192.491 40.3568 192.372 40.5281 192.216 40.7207C192.063 40.9134 191.852 41.0815 191.583 41.2252C191.314 41.369 190.965 41.4408 190.537 41.4408ZM190.84 40.2712C191.234 40.2712 191.568 40.1673 191.84 39.9593C192.115 39.7483 192.323 39.4563 192.464 39.0833C192.607 38.7102 192.679 38.276 192.679 37.7806C192.679 37.2914 192.609 36.8633 192.468 36.4964C192.328 36.1294 192.121 35.8435 191.849 35.6387C191.577 35.4338 191.241 35.3313 190.84 35.3313C190.427 35.3313 190.083 35.4384 189.808 35.6524C189.533 35.8665 189.325 36.1585 189.184 36.5285C189.047 36.8985 188.978 37.3159 188.978 37.7806C188.978 38.2515 189.048 38.675 189.189 39.0512C189.329 39.4273 189.537 39.7254 189.813 39.9456C190.091 40.1627 190.433 40.2712 190.84 40.2712ZM199.338 34.2581V35.3589H195.357V34.2581H199.338ZM196.448 41.3032V33.4416C196.448 33.0013 196.545 32.6359 196.737 32.3454C196.93 32.0519 197.185 31.8332 197.503 31.6895C197.821 31.5427 198.167 31.4694 198.54 31.4694C198.815 31.4694 199.051 31.4923 199.246 31.5382C199.442 31.581 199.587 31.6207 199.682 31.6574L199.361 32.7674C199.297 32.749 199.214 32.7276 199.113 32.7032C199.012 32.6757 198.89 32.6619 198.746 32.6619C198.413 32.6619 198.174 32.7445 198.031 32.9096C197.89 33.0747 197.82 33.3132 197.82 33.6251V41.3032H196.448Z" fill="#344054"/>
<path d="M88.3044 60.3032V59.4776L91.405 56.0835C91.7689 55.686 92.0686 55.3404 92.304 55.0469C92.5395 54.7503 92.7138 54.472 92.8269 54.2121C92.9431 53.9491 93.0012 53.6739 93.0012 53.3865C93.0012 53.0562 92.9217 52.7703 92.7627 52.5288C92.6067 52.2872 92.3927 52.1007 92.1205 51.9692C91.8484 51.8377 91.5426 51.772 91.2032 51.772C90.8424 51.772 90.5274 51.8469 90.2583 51.9967C89.9923 52.1435 89.7859 52.3499 89.6391 52.6159C89.4954 52.882 89.4236 53.1938 89.4236 53.5516H88.3411C88.3411 53.0012 88.468 52.5181 88.7218 52.1022C88.9756 51.6864 89.3211 51.3622 89.7584 51.1298C90.1987 50.8974 90.6925 50.7812 91.2399 50.7812C91.7903 50.7812 92.278 50.8974 92.703 51.1298C93.1281 51.3622 93.4614 51.6757 93.7029 52.0701C93.9445 52.4646 94.0653 52.9034 94.0653 53.3865C94.0653 53.732 94.0026 54.0699 93.8772 54.4001C93.7549 54.7273 93.5409 55.0927 93.2351 55.4964C92.9324 55.8969 92.5119 56.3862 91.9738 56.9641L89.8639 59.2208V59.2942H94.2304V60.3032H88.3044ZM99.1886 60.4317C98.4976 60.4317 97.9089 60.2436 97.4228 59.8675C96.9366 59.4883 96.565 58.9394 96.3082 58.2209C96.0513 57.4992 95.9229 56.6278 95.9229 55.6064C95.9229 54.5913 96.0513 53.7244 96.3082 53.0058C96.5681 52.2842 96.9412 51.7337 97.4273 51.3546C97.9166 50.9724 98.5037 50.7812 99.1886 50.7812C99.8736 50.7812 100.459 50.9724 100.945 51.3546C101.435 51.7337 101.808 52.2842 102.064 53.0058C102.324 53.7244 102.454 54.5913 102.454 55.6064C102.454 56.6278 102.326 57.4992 102.069 58.2209C101.812 58.9394 101.441 59.4883 100.955 59.8675C100.468 60.2436 99.8797 60.4317 99.1886 60.4317ZM99.1886 59.4226C99.8736 59.4226 100.406 59.0923 100.785 58.4319C101.164 57.7714 101.354 56.8296 101.354 55.6064C101.354 54.7931 101.266 54.1005 101.092 53.5287C100.921 52.9569 100.673 52.5211 100.349 52.2215C100.028 51.9218 99.6412 51.772 99.1886 51.772C98.5098 51.772 97.9793 52.1068 97.5971 52.7765C97.2148 53.4431 97.0237 54.3864 97.0237 55.6064C97.0237 56.4198 97.1093 57.1109 97.2806 57.6796C97.4518 58.2484 97.698 58.6811 98.019 58.9777C98.3432 59.2743 98.733 59.4226 99.1886 59.4226ZM107.261 60.4317C106.57 60.4317 105.982 60.2436 105.495 59.8675C105.009 59.4883 104.638 58.9394 104.381 58.2209C104.124 57.4992 103.995 56.6278 103.995 55.6064C103.995 54.5913 104.124 53.7244 104.381 53.0058C104.641 52.2842 105.014 51.7337 105.5 51.3546C105.989 50.9724 106.576 50.7812 107.261 50.7812C107.946 50.7812 108.532 50.9724 109.018 51.3546C109.507 51.7337 109.88 52.2842 110.137 53.0058C110.397 53.7244 110.527 54.5913 110.527 55.6064C110.527 56.6278 110.399 57.4992 110.142 58.2209C109.885 58.9394 109.513 59.4883 109.027 59.8675C108.541 60.2436 107.952 60.4317 107.261 60.4317ZM107.261 59.4226C107.946 59.4226 108.478 59.0923 108.857 58.4319C109.237 57.7714 109.426 56.8296 109.426 55.6064C109.426 54.7931 109.339 54.1005 109.165 53.5287C108.993 52.9569 108.746 52.5211 108.422 52.2215C108.101 51.9218 107.714 51.772 107.261 51.772C106.582 51.772 106.052 52.1068 105.67 52.7765C105.287 53.4431 105.096 54.3864 105.096 55.6064C105.096 56.4198 105.182 57.1109 105.353 57.6796C105.524 58.2484 105.771 58.6811 106.092 58.9777C106.416 59.2743 106.806 59.4226 107.261 59.4226ZM116.068 60.3032V50.9097H117.205V55.5698H117.315L121.535 50.9097H123.021L119.077 55.1478L123.021 60.3032H121.645L118.379 55.9367L117.205 57.2577V60.3032H116.068ZM124.493 60.3032V50.9097H127.777C128.432 50.9097 128.972 51.0228 129.397 51.2491C129.822 51.4723 130.138 51.7735 130.346 52.1527C130.554 52.5288 130.658 52.9462 130.658 53.4048C130.658 53.8085 130.586 54.1418 130.442 54.4047C130.302 54.6677 130.115 54.8756 129.883 55.0285C129.653 55.1814 129.404 55.2946 129.135 55.3679V55.4597C129.423 55.478 129.712 55.5789 130.002 55.7624C130.293 55.9459 130.536 56.2088 130.731 56.5513C130.927 56.8938 131.025 57.3127 131.025 57.8081C131.025 58.279 130.918 58.7025 130.704 59.0786C130.49 59.4547 130.152 59.7528 129.69 59.973C129.228 60.1931 128.628 60.3032 127.888 60.3032H124.493ZM125.631 59.2942H127.888C128.631 59.2942 129.158 59.1504 129.47 58.863C129.785 58.5725 129.942 58.2209 129.942 57.8081C129.942 57.4901 129.861 57.1965 129.699 56.9274C129.537 56.6553 129.306 56.4382 129.007 56.2761C128.707 56.111 128.352 56.0284 127.943 56.0284H125.631V59.2942ZM125.631 55.0377H127.741C128.083 55.0377 128.392 54.9704 128.667 54.8359C128.946 54.7013 129.166 54.5118 129.328 54.2671C129.493 54.0225 129.575 53.7351 129.575 53.4048C129.575 52.992 129.432 52.6419 129.144 52.3545C128.857 52.064 128.401 51.9187 127.777 51.9187H125.631V55.0377Z" fill="#475467"/>
<rect x="54.1191" y="89.1162" width="155.916" height="8.30323" rx="3.69032" fill="#EAEAEB"/>
<rect x="54.1191" y="106.645" width="106.097" height="8.30323" rx="3.69032" fill="#EAEAEB"/>
<rect x="54.1191" y="124.174" width="127.316" height="8.30323" rx="3.69032" fill="#EAEAEB"/>
<rect x="54.1191" y="141.703" width="106.097" height="8.30323" rx="3.69032" fill="#EAEAEB"/>
</g>
<rect x="36.1293" y="19.4613" width="200.2" height="142.077" rx="21.6806" stroke="#CCCCCC" stroke-width="0.922581"/>
<g opacity="0.4">
<g clip-path="url(#clip2_357_1933)">
<rect x="255.242" y="19" width="201.123" height="143" rx="22.1419" fill="white"/>
<mask id="path-16-inside-2_357_1933" fill="white">
<path d="M255.242 41.1419C255.242 28.9133 265.155 19 277.384 19H526.481C538.71 19 548.623 28.9133 548.623 41.1419V69.7419H255.242V41.1419Z"/>
</mask>
<path d="M255.242 41.1419C255.242 28.9133 265.155 19 277.384 19H526.481C538.71 19 548.623 28.9133 548.623 41.1419V69.7419H255.242V41.1419Z" fill="#F6F6F6"/>
<path d="M255.242 19H548.623H255.242ZM548.623 70.6645H255.242V68.8194H548.623V70.6645ZM255.242 69.7419V19V69.7419ZM548.623 19V69.7419V19Z" fill="#CCCCCC" mask="url(#path-16-inside-2_357_1933)"/>
<path d="M272.031 33.7611C272.031 31.723 273.683 30.0708 275.722 30.0708H286.793L295.649 38.9276V55.9031C295.649 57.9412 293.997 59.5934 291.959 59.5934H275.722C273.683 59.5934 272.031 57.9412 272.031 55.9031V33.7611Z" fill="#D92D20"/>
<path opacity="0.3" d="M286.793 30.0708L295.65 38.9276H290.483C288.445 38.9276 286.793 37.2754 286.793 35.2373V30.0708Z" fill="white"/>
<path d="M276.228 55.0464V49.0077H278.611C279.069 49.0077 279.459 49.0952 279.781 49.2701C280.104 49.4431 280.349 49.6839 280.518 49.9925C280.689 50.2992 280.775 50.653 280.775 51.054C280.775 51.455 280.688 51.8088 280.515 52.1155C280.342 52.4221 280.092 52.661 279.763 52.832C279.437 53.003 279.042 53.0885 278.578 53.0885H277.06V52.0654H278.372C278.617 52.0654 278.82 52.0231 278.979 51.9386C279.14 51.8521 279.26 51.7332 279.339 51.5818C279.419 51.4285 279.46 51.2525 279.46 51.054C279.46 50.8535 279.419 50.6785 279.339 50.5291C279.26 50.3778 279.14 50.2608 278.979 50.1783C278.818 50.0937 278.614 50.0515 278.366 50.0515H277.505V55.0464H276.228ZM283.745 55.0464H281.604V49.0077H283.763C284.37 49.0077 284.893 49.1286 285.331 49.3704C285.77 49.6102 286.107 49.9552 286.343 50.4053C286.58 50.8555 286.699 51.3941 286.699 52.0211C286.699 52.6502 286.58 53.1907 286.343 53.6429C286.107 54.095 285.768 54.4419 285.325 54.6837C284.885 54.9255 284.358 55.0464 283.745 55.0464ZM282.881 53.9525H283.692C284.069 53.9525 284.387 53.8856 284.644 53.752C284.904 53.6163 285.098 53.407 285.228 53.1239C285.36 52.8389 285.426 52.4713 285.426 52.0211C285.426 51.5749 285.36 51.2103 285.228 50.9272C285.098 50.6441 284.905 50.4358 284.647 50.3021C284.39 50.1684 284.072 50.1016 283.695 50.1016H282.881V53.9525ZM287.645 55.0464V49.0077H291.643V50.0603H288.922V51.4992H291.378V52.5519H288.922V55.0464H287.645Z" fill="white"/>
<path d="M313.062 34.3773C313.013 33.9431 312.811 33.6068 312.456 33.3682C312.101 33.1267 311.655 33.0059 311.117 33.0059C310.732 33.0059 310.398 33.067 310.117 33.1894C309.836 33.3086 309.617 33.4737 309.461 33.6847C309.308 33.8927 309.232 34.1296 309.232 34.3957C309.232 34.6189 309.284 34.8115 309.388 34.9736C309.495 35.1356 309.634 35.2717 309.805 35.3818C309.979 35.4888 310.166 35.579 310.365 35.6524C310.563 35.7227 310.754 35.7808 310.938 35.8267L311.855 36.0652C312.155 36.1386 312.462 36.238 312.777 36.3634C313.092 36.4887 313.384 36.6538 313.653 36.8587C313.922 37.0636 314.139 37.3174 314.305 37.6201C314.473 37.9228 314.557 38.2852 314.557 38.7072C314.557 39.2392 314.419 39.7116 314.144 40.1244C313.872 40.5372 313.476 40.8629 312.956 41.1014C312.439 41.3399 311.814 41.4592 311.08 41.4592C310.377 41.4592 309.768 41.3476 309.255 41.1243C308.741 40.9011 308.339 40.5846 308.048 40.1749C307.758 39.7621 307.597 39.2728 307.567 38.7072H308.989C309.016 39.0466 309.126 39.3294 309.319 39.5557C309.515 39.7789 309.764 39.9456 310.066 40.0556C310.372 40.1627 310.707 40.2162 311.071 40.2162C311.472 40.2162 311.828 40.1535 312.14 40.0281C312.455 39.8997 312.702 39.7223 312.883 39.4961C313.063 39.2667 313.153 38.9992 313.153 38.6934C313.153 38.4151 313.074 38.1873 312.915 38.01C312.759 37.8326 312.546 37.6859 312.277 37.5697C312.011 37.4535 311.71 37.351 311.374 37.2623L310.264 36.9596C309.511 36.7548 308.915 36.4536 308.475 36.056C308.038 35.6585 307.819 35.1326 307.819 34.4782C307.819 33.937 307.966 33.4646 308.259 33.0609C308.553 32.6573 308.95 32.3439 309.452 32.1207C309.953 31.8944 310.519 31.7812 311.149 31.7812C311.785 31.7812 312.346 31.8929 312.832 32.1161C313.322 32.3393 313.707 32.6466 313.988 33.038C314.269 33.4263 314.416 33.8728 314.428 34.3773H313.062ZM318.191 41.4592C317.744 41.4592 317.341 41.3766 316.98 41.2115C316.619 41.0433 316.333 40.8002 316.122 40.4822C315.914 40.1642 315.81 39.7743 315.81 39.3126C315.81 38.9151 315.887 38.5879 316.04 38.331C316.192 38.0742 316.399 37.8708 316.659 37.721C316.919 37.5712 317.209 37.458 317.53 37.3816C317.851 37.3052 318.178 37.2471 318.512 37.2073C318.934 37.1584 319.276 37.1186 319.539 37.0881C319.802 37.0544 319.993 37.0009 320.112 36.9275C320.232 36.8541 320.291 36.7349 320.291 36.5698V36.5376C320.291 36.1371 320.178 35.8267 319.952 35.6065C319.729 35.3864 319.395 35.2763 318.952 35.2763C318.49 35.2763 318.126 35.3787 317.86 35.5836C317.597 35.7854 317.416 36.0102 317.315 36.2579L316.026 35.9643C316.179 35.5362 316.402 35.1907 316.695 34.9277C316.992 34.6617 317.333 34.469 317.718 34.3498C318.104 34.2275 318.509 34.1663 318.934 34.1663C319.215 34.1663 319.513 34.2 319.828 34.2672C320.146 34.3314 320.443 34.4507 320.718 34.625C320.996 34.7993 321.224 35.0485 321.401 35.3726C321.579 35.6937 321.667 36.1111 321.667 36.6248V41.3032H320.328V40.34H320.273C320.184 40.5174 320.051 40.6917 319.874 40.8629C319.697 41.0341 319.469 41.1763 319.191 41.2895C318.912 41.4026 318.579 41.4592 318.191 41.4592ZM318.489 40.3584C318.868 40.3584 319.192 40.2834 319.461 40.1336C319.733 39.9838 319.94 39.7881 320.08 39.5465C320.224 39.3019 320.296 39.0405 320.296 38.7622V37.854C320.247 37.903 320.152 37.9488 320.012 37.9916C319.874 38.0314 319.717 38.0665 319.539 38.0971C319.362 38.1246 319.189 38.1506 319.021 38.1751C318.853 38.1965 318.712 38.2148 318.599 38.2301C318.333 38.2638 318.09 38.3203 317.87 38.3998C317.652 38.4793 317.478 38.594 317.347 38.7438C317.218 38.8906 317.154 39.0863 317.154 39.3309C317.154 39.6704 317.279 39.9272 317.53 40.1015C317.781 40.2727 318.1 40.3584 318.489 40.3584ZM326.847 34.2581V35.3589H322.866V34.2581H326.847ZM323.957 41.3032V33.4416C323.957 33.0013 324.054 32.6359 324.246 32.3454C324.439 32.0519 324.694 31.8332 325.012 31.6895C325.33 31.5427 325.676 31.4694 326.049 31.4694C326.324 31.4694 326.559 31.4923 326.755 31.5382C326.951 31.581 327.096 31.6207 327.191 31.6574L326.87 32.7674C326.806 32.749 326.723 32.7276 326.622 32.7032C326.521 32.6757 326.399 32.6619 326.255 32.6619C325.922 32.6619 325.683 32.7445 325.54 32.9096C325.399 33.0747 325.329 33.3132 325.329 33.6251V41.3032H323.957ZM331.021 41.4454C330.327 41.4454 329.729 41.2971 329.227 41.0005C328.729 40.7008 328.344 40.2804 328.072 39.7392C327.802 39.1949 327.668 38.5573 327.668 37.8265C327.668 37.1049 327.802 36.4688 328.072 35.9184C328.344 35.368 328.723 34.9384 329.209 34.6296C329.698 34.3207 330.27 34.1663 330.924 34.1663C331.322 34.1663 331.707 34.2321 332.08 34.3636C332.453 34.495 332.788 34.7014 333.085 34.9828C333.381 35.2641 333.615 35.6295 333.787 36.079C333.958 36.5254 334.043 37.0682 334.043 37.7073V38.1934H328.443V37.166H332.7C332.7 36.8052 332.626 36.4857 332.479 36.2074C332.333 35.9261 332.126 35.7044 331.86 35.5423C331.597 35.3803 331.288 35.2992 330.934 35.2992C330.548 35.2992 330.212 35.394 329.925 35.5836C329.64 35.7701 329.42 36.0148 329.264 36.3175C329.111 36.6172 329.035 36.9428 329.035 37.2945V38.0971C329.035 38.568 329.117 38.9686 329.282 39.2988C329.451 39.6291 329.685 39.8813 329.984 40.0556C330.284 40.2269 330.634 40.3125 331.035 40.3125C331.294 40.3125 331.531 40.2758 331.745 40.2024C331.96 40.126 332.145 40.0128 332.3 39.863C332.456 39.7132 332.576 39.5282 332.658 39.308L333.956 39.5419C333.852 39.9242 333.666 40.259 333.397 40.5464C333.131 40.8308 332.796 41.0525 332.392 41.2115C331.992 41.3674 331.535 41.4454 331.021 41.4454ZM338.854 34.2581V35.3589H335.005V34.2581H338.854ZM336.037 32.5702H337.409V39.2346C337.409 39.5007 337.449 39.7009 337.528 39.8355C337.608 39.967 337.71 40.0572 337.835 40.1061C337.964 40.152 338.103 40.1749 338.253 40.1749C338.363 40.1749 338.459 40.1673 338.542 40.152C338.624 40.1367 338.689 40.1244 338.734 40.1153L338.982 41.2482C338.903 41.2788 338.79 41.3093 338.643 41.3399C338.496 41.3736 338.312 41.3919 338.092 41.395C337.732 41.4011 337.395 41.3369 337.083 41.2023C336.771 41.0678 336.519 40.8598 336.326 40.5785C336.134 40.2972 336.037 39.944 336.037 39.519V32.5702ZM341.238 43.9452C341.033 43.9452 340.846 43.9283 340.678 43.8947C340.51 43.8641 340.385 43.8305 340.302 43.7938L340.632 42.6701C340.883 42.7373 341.106 42.7664 341.302 42.7572C341.498 42.748 341.67 42.6746 341.82 42.537C341.973 42.3994 342.108 42.1747 342.224 41.8628L342.393 41.395L339.816 34.2581H341.284L343.068 39.7254H343.141L344.925 34.2581H346.398L343.494 42.2435C343.36 42.6104 343.189 42.9208 342.981 43.1746C342.773 43.4314 342.525 43.6241 342.238 43.7525C341.95 43.8809 341.617 43.9452 341.238 43.9452ZM351.105 41.3032V34.2581H352.421V35.4047H352.508C352.655 35.0164 352.895 34.7137 353.228 34.4966C353.562 34.2764 353.961 34.1663 354.426 34.1663C354.896 34.1663 355.291 34.2764 355.609 34.4966C355.93 34.7167 356.167 35.0195 356.32 35.4047H356.393C356.561 35.0286 356.829 34.729 357.196 34.5057C357.563 34.2795 358 34.1663 358.508 34.1663C359.147 34.1663 359.668 34.3666 360.072 34.7672C360.478 35.1678 360.682 35.7717 360.682 36.5789V41.3032H359.31V36.7074C359.31 36.2303 359.18 35.8848 358.921 35.6708C358.661 35.4567 358.35 35.3497 357.989 35.3497C357.543 35.3497 357.196 35.4873 356.948 35.7625C356.701 36.0346 356.577 36.3848 356.577 36.8128V41.3032H355.21V36.6202C355.21 36.238 355.091 35.9307 354.852 35.6983C354.614 35.4659 354.303 35.3497 353.921 35.3497C353.661 35.3497 353.421 35.4185 353.201 35.5561C352.984 35.6906 352.808 35.8787 352.673 36.1203C352.542 36.3618 352.476 36.6416 352.476 36.9596V41.3032H351.105ZM364.57 41.4592C364.124 41.4592 363.72 41.3766 363.359 41.2115C362.998 41.0433 362.713 40.8002 362.502 40.4822C362.294 40.1642 362.19 39.7743 362.19 39.3126C362.19 38.9151 362.266 38.5879 362.419 38.331C362.572 38.0742 362.778 37.8708 363.038 37.721C363.298 37.5712 363.589 37.458 363.91 37.3816C364.231 37.3052 364.558 37.2471 364.891 37.2073C365.313 37.1584 365.656 37.1186 365.919 37.0881C366.182 37.0544 366.373 37.0009 366.492 36.9275C366.611 36.8541 366.671 36.7349 366.671 36.5698V36.5376C366.671 36.1371 366.558 35.8267 366.331 35.6065C366.108 35.3864 365.775 35.2763 365.332 35.2763C364.87 35.2763 364.506 35.3787 364.24 35.5836C363.977 35.7854 363.795 36.0102 363.694 36.2579L362.405 35.9643C362.558 35.5362 362.781 35.1907 363.075 34.9277C363.372 34.6617 363.712 34.469 364.098 34.3498C364.483 34.2275 364.888 34.1663 365.313 34.1663C365.595 34.1663 365.893 34.2 366.208 34.2672C366.526 34.3314 366.822 34.4507 367.097 34.625C367.376 34.7993 367.603 35.0485 367.781 35.3726C367.958 35.6937 368.047 36.1111 368.047 36.6248V41.3032H366.708V40.34H366.653C366.564 40.5174 366.431 40.6917 366.253 40.8629C366.076 41.0341 365.848 41.1763 365.57 41.2895C365.292 41.4026 364.959 41.4592 364.57 41.4592ZM364.868 40.3584C365.247 40.3584 365.572 40.2834 365.841 40.1336C366.113 39.9838 366.319 39.7881 366.46 39.5465C366.604 39.3019 366.675 39.0405 366.675 38.7622V37.854C366.627 37.903 366.532 37.9488 366.391 37.9916C366.253 38.0314 366.096 38.0665 365.919 38.0971C365.741 38.1246 365.569 38.1506 365.4 38.1751C365.232 38.1965 365.092 38.2148 364.978 38.2301C364.712 38.2638 364.469 38.3203 364.249 38.3998C364.032 38.4793 363.858 38.594 363.726 38.7438C363.598 38.8906 363.534 39.0863 363.534 39.3309C363.534 39.6704 363.659 39.9272 363.91 40.1015C364.16 40.2727 364.48 40.3584 364.868 40.3584ZM371.245 37.1202V41.3032H369.874V34.2581H371.19V35.4047H371.277C371.439 35.0317 371.693 34.732 372.038 34.5057C372.387 34.2795 372.826 34.1663 373.355 34.1663C373.835 34.1663 374.255 34.2672 374.616 34.469C374.977 34.6678 375.257 34.9644 375.456 35.3589C375.654 35.7533 375.754 36.241 375.754 36.822V41.3032H374.382V36.9871C374.382 36.4765 374.249 36.0774 373.983 35.79C373.717 35.4995 373.352 35.3543 372.887 35.3543C372.569 35.3543 372.286 35.4231 372.038 35.5607C371.794 35.6983 371.6 35.9001 371.456 36.1661C371.315 36.4291 371.245 36.7471 371.245 37.1202ZM382.056 38.3815V34.2581H383.432V41.3032H382.083V40.0832H382.01C381.848 40.4593 381.588 40.7727 381.23 41.0234C380.875 41.2711 380.434 41.395 379.905 41.395C379.452 41.395 379.051 41.2956 378.703 41.0968C378.357 40.895 378.085 40.5969 377.886 40.2024C377.691 39.808 377.593 39.3202 377.593 38.7393V34.2581H378.964V38.5741C378.964 39.0542 379.097 39.4364 379.363 39.7208C379.629 40.0052 379.975 40.1474 380.4 40.1474C380.657 40.1474 380.912 40.0832 381.166 39.9547C381.423 39.8263 381.635 39.6321 381.804 39.3722C381.975 39.1123 382.059 38.7821 382.056 38.3815ZM387.325 41.4592C386.878 41.4592 386.475 41.3766 386.114 41.2115C385.753 41.0433 385.467 40.8002 385.256 40.4822C385.048 40.1642 384.944 39.7743 384.944 39.3126C384.944 38.9151 385.021 38.5879 385.174 38.331C385.326 38.0742 385.533 37.8708 385.793 37.721C386.053 37.5712 386.343 37.458 386.664 37.3816C386.985 37.3052 387.313 37.2471 387.646 37.2073C388.068 37.1584 388.41 37.1186 388.673 37.0881C388.936 37.0544 389.127 37.0009 389.247 36.9275C389.366 36.8541 389.425 36.7349 389.425 36.5698V36.5376C389.425 36.1371 389.312 35.8267 389.086 35.6065C388.863 35.3864 388.53 35.2763 388.086 35.2763C387.624 35.2763 387.261 35.3787 386.995 35.5836C386.732 35.7854 386.55 36.0102 386.449 36.2579L385.16 35.9643C385.313 35.5362 385.536 35.1907 385.829 34.9277C386.126 34.6617 386.467 34.469 386.852 34.3498C387.238 34.2275 387.643 34.1663 388.068 34.1663C388.349 34.1663 388.647 34.2 388.962 34.2672C389.28 34.3314 389.577 34.4507 389.852 34.625C390.13 34.7993 390.358 35.0485 390.535 35.3726C390.713 35.6937 390.801 36.1111 390.801 36.6248V41.3032H389.462V40.34H389.407C389.318 40.5174 389.185 40.6917 389.008 40.8629C388.831 41.0341 388.603 41.1763 388.325 41.2895C388.046 41.4026 387.713 41.4592 387.325 41.4592ZM387.623 40.3584C388.002 40.3584 388.326 40.2834 388.595 40.1336C388.867 39.9838 389.074 39.7881 389.214 39.5465C389.358 39.3019 389.43 39.0405 389.43 38.7622V37.854C389.381 37.903 389.286 37.9488 389.146 37.9916C389.008 38.0314 388.851 38.0665 388.673 38.0971C388.496 38.1246 388.323 38.1506 388.155 38.1751C387.987 38.1965 387.846 38.2148 387.733 38.2301C387.467 38.2638 387.224 38.3203 387.004 38.3998C386.787 38.4793 386.612 38.594 386.481 38.7438C386.352 38.8906 386.288 39.0863 386.288 39.3309C386.288 39.6704 386.414 39.9272 386.664 40.1015C386.915 40.2727 387.235 40.3584 387.623 40.3584ZM394 31.9097V41.3032H392.628V31.9097H394ZM396.748 41.3904C396.497 41.3904 396.282 41.3017 396.101 41.1243C395.921 40.9439 395.831 40.7268 395.831 40.473C395.831 40.2223 395.921 40.0082 396.101 39.8309C396.282 39.6505 396.497 39.5603 396.748 39.5603C396.999 39.5603 397.214 39.6505 397.395 39.8309C397.575 40.0082 397.665 40.2223 397.665 40.473C397.665 40.6412 397.623 40.7956 397.537 40.9363C397.454 41.0739 397.344 41.184 397.207 41.2665C397.069 41.3491 396.916 41.3904 396.748 41.3904ZM399.502 43.9452V34.2581H400.842V35.4001H400.956C401.036 35.2534 401.151 35.0837 401.3 34.891C401.45 34.6984 401.658 34.5302 401.924 34.3865C402.19 34.2397 402.542 34.1663 402.979 34.1663C403.548 34.1663 404.055 34.31 404.502 34.5975C404.948 34.8849 405.298 35.2992 405.552 35.8405C405.809 36.3817 405.938 37.033 405.938 37.7944C405.938 38.5558 405.811 39.2086 405.557 39.7529C405.303 40.2942 404.954 40.7115 404.511 41.0051C404.068 41.2956 403.562 41.4408 402.993 41.4408C402.565 41.4408 402.215 41.369 401.943 41.2252C401.673 41.0815 401.462 40.9134 401.31 40.7207C401.157 40.5281 401.039 40.3568 400.956 40.207H400.874V43.9452H399.502ZM400.846 37.7806C400.846 38.276 400.918 38.7102 401.062 39.0833C401.206 39.4563 401.414 39.7483 401.686 39.9593C401.958 40.1673 402.291 40.2712 402.686 40.2712C403.095 40.2712 403.438 40.1627 403.713 39.9456C403.988 39.7254 404.196 39.4273 404.337 39.0512C404.481 38.675 404.552 38.2515 404.552 37.7806C404.552 37.3159 404.482 36.8985 404.341 36.5285C404.204 36.1585 403.996 35.8665 403.718 35.6524C403.442 35.4384 403.098 35.3313 402.686 35.3313C402.288 35.3313 401.952 35.4338 401.677 35.6387C401.404 35.8435 401.198 36.1294 401.057 36.4964C400.917 36.8633 400.846 37.2914 400.846 37.7806ZM410.111 41.4408C409.543 41.4408 409.035 41.2956 408.589 41.0051C408.145 40.7115 407.797 40.2942 407.543 39.7529C407.292 39.2086 407.167 38.5558 407.167 37.7944C407.167 37.033 407.294 36.3817 407.547 35.8405C407.804 35.2992 408.156 34.8849 408.602 34.5975C409.049 34.31 409.555 34.1663 410.121 34.1663C410.558 34.1663 410.91 34.2397 411.176 34.3865C411.445 34.5302 411.653 34.6984 411.799 34.891C411.949 35.0837 412.065 35.2534 412.148 35.4001H412.23V31.9097H413.602V41.3032H412.263V40.207H412.148C412.065 40.3568 411.946 40.5281 411.79 40.7207C411.637 40.9134 411.426 41.0815 411.157 41.2252C410.888 41.369 410.54 41.4408 410.111 41.4408ZM410.414 40.2712C410.809 40.2712 411.142 40.1673 411.414 39.9593C411.689 39.7483 411.897 39.4563 412.038 39.0833C412.182 38.7102 412.253 38.276 412.253 37.7806C412.253 37.2914 412.183 36.8633 412.042 36.4964C411.902 36.1294 411.695 35.8435 411.423 35.6387C411.151 35.4338 410.815 35.3313 410.414 35.3313C410.001 35.3313 409.657 35.4384 409.382 35.6524C409.107 35.8665 408.899 36.1585 408.758 36.5285C408.621 36.8985 408.552 37.3159 408.552 37.7806C408.552 38.2515 408.622 38.675 408.763 39.0512C408.904 39.4273 409.112 39.7254 409.387 39.9456C409.665 40.1627 410.007 40.2712 410.414 40.2712ZM418.912 34.2581V35.3589H414.931V34.2581H418.912ZM416.023 41.3032V33.4416C416.023 33.0013 416.119 32.6359 416.312 32.3454C416.504 32.0519 416.759 31.8332 417.077 31.6895C417.395 31.5427 417.741 31.4694 418.114 31.4694C418.389 31.4694 418.625 31.4923 418.82 31.5382C419.016 31.581 419.161 31.6207 419.256 31.6574L418.935 32.7674C418.871 32.749 418.788 32.7276 418.687 32.7032C418.587 32.6757 418.464 32.6619 418.32 32.6619C417.987 32.6619 417.749 32.7445 417.605 32.9096C417.464 33.0747 417.394 33.3132 417.394 33.6251V41.3032H416.023Z" fill="#344054"/>
<path d="M307.879 60.3032V59.4776L310.979 56.0835C311.343 55.686 311.643 55.3404 311.878 55.0469C312.114 54.7503 312.288 54.472 312.401 54.2121C312.517 53.9491 312.575 53.6739 312.575 53.3865C312.575 53.0562 312.496 52.7703 312.337 52.5288C312.181 52.2872 311.967 52.1007 311.695 51.9692C311.423 51.8377 311.117 51.772 310.777 51.772C310.417 51.772 310.102 51.8469 309.833 51.9967C309.567 52.1435 309.36 52.3499 309.213 52.6159C309.07 52.882 308.998 53.1938 308.998 53.5516H307.915C307.915 53.0012 308.042 52.5181 308.296 52.1022C308.55 51.6864 308.895 51.3622 309.333 51.1298C309.773 50.8974 310.267 50.7812 310.814 50.7812C311.365 50.7812 311.852 50.8974 312.277 51.1298C312.702 51.3622 313.036 51.6757 313.277 52.0701C313.519 52.4646 313.64 52.9034 313.64 53.3865C313.64 53.732 313.577 54.0699 313.451 54.4001C313.329 54.7273 313.115 55.0927 312.809 55.4964C312.507 55.8969 312.086 56.3862 311.548 56.9641L309.438 59.2208V59.2942H313.805V60.3032H307.879ZM318.763 60.4317C318.072 60.4317 317.483 60.2436 316.997 59.8675C316.511 59.4883 316.139 58.9394 315.882 58.2209C315.626 57.4992 315.497 56.6278 315.497 55.6064C315.497 54.5913 315.626 53.7244 315.882 53.0058C316.142 52.2842 316.515 51.7337 317.002 51.3546C317.491 50.9724 318.078 50.7812 318.763 50.7812C319.448 50.7812 320.033 50.9724 320.52 51.3546C321.009 51.7337 321.382 52.2842 321.639 53.0058C321.899 53.7244 322.029 54.5913 322.029 55.6064C322.029 56.6278 321.9 57.4992 321.643 58.2209C321.386 58.9394 321.015 59.4883 320.529 59.8675C320.043 60.2436 319.454 60.4317 318.763 60.4317ZM318.763 59.4226C319.448 59.4226 319.98 59.0923 320.359 58.4319C320.738 57.7714 320.928 56.8296 320.928 55.6064C320.928 54.7931 320.841 54.1005 320.666 53.5287C320.495 52.9569 320.247 52.5211 319.923 52.2215C319.602 51.9218 319.215 51.772 318.763 51.772C318.084 51.772 317.553 52.1068 317.171 52.7765C316.789 53.4431 316.598 54.3864 316.598 55.6064C316.598 56.4198 316.684 57.1109 316.855 57.6796C317.026 58.2484 317.272 58.6811 317.593 58.9777C317.917 59.2743 318.307 59.4226 318.763 59.4226ZM326.835 60.4317C326.144 60.4317 325.556 60.2436 325.07 59.8675C324.583 59.4883 324.212 58.9394 323.955 58.2209C323.698 57.4992 323.57 56.6278 323.57 55.6064C323.57 54.5913 323.698 53.7244 323.955 53.0058C324.215 52.2842 324.588 51.7337 325.074 51.3546C325.563 50.9724 326.15 50.7812 326.835 50.7812C327.52 50.7812 328.106 50.9724 328.592 51.3546C329.081 51.7337 329.454 52.2842 329.711 53.0058C329.971 53.7244 330.101 54.5913 330.101 55.6064C330.101 56.6278 329.973 57.4992 329.716 58.2209C329.459 58.9394 329.087 59.4883 328.601 59.8675C328.115 60.2436 327.526 60.4317 326.835 60.4317ZM326.835 59.4226C327.52 59.4226 328.052 59.0923 328.432 58.4319C328.811 57.7714 329 56.8296 329 55.6064C329 54.7931 328.913 54.1005 328.739 53.5287C328.568 52.9569 328.32 52.5211 327.996 52.2215C327.675 51.9218 327.288 51.772 326.835 51.772C326.157 51.772 325.626 52.1068 325.244 52.7765C324.862 53.4431 324.671 54.3864 324.671 55.6064C324.671 56.4198 324.756 57.1109 324.927 57.6796C325.099 58.2484 325.345 58.6811 325.666 58.9777C325.99 59.2743 326.38 59.4226 326.835 59.4226ZM335.642 60.3032V50.9097H336.779V55.5698H336.889L341.109 50.9097H342.595L338.651 55.1478L342.595 60.3032H341.219L337.954 55.9367L336.779 57.2577V60.3032H335.642ZM344.068 60.3032V50.9097H347.352C348.006 50.9097 348.546 51.0228 348.971 51.2491C349.396 51.4723 349.712 51.7735 349.92 52.1527C350.128 52.5288 350.232 52.9462 350.232 53.4048C350.232 53.8085 350.16 54.1418 350.017 54.4047C349.876 54.6677 349.689 54.8756 349.457 55.0285C349.228 55.1814 348.978 55.2946 348.709 55.3679V55.4597C348.997 55.478 349.286 55.5789 349.576 55.7624C349.867 55.9459 350.11 56.2088 350.306 56.5513C350.501 56.8938 350.599 57.3127 350.599 57.8081C350.599 58.279 350.492 58.7025 350.278 59.0786C350.064 59.4547 349.726 59.7528 349.264 59.973C348.803 60.1931 348.202 60.3032 347.462 60.3032H344.068ZM345.205 59.2942H347.462C348.205 59.2942 348.732 59.1504 349.044 58.863C349.359 58.5725 349.517 58.2209 349.517 57.8081C349.517 57.4901 349.436 57.1965 349.274 56.9274C349.111 56.6553 348.881 56.4382 348.581 56.2761C348.281 56.111 347.927 56.0284 347.517 56.0284H345.205V59.2942ZM345.205 55.0377H347.315C347.657 55.0377 347.966 54.9704 348.242 54.8359C348.52 54.7013 348.74 54.5118 348.902 54.2671C349.067 54.0225 349.15 53.7351 349.15 53.4048C349.15 52.992 349.006 52.6419 348.719 52.3545C348.431 52.064 347.976 51.9187 347.352 51.9187H345.205V55.0377Z" fill="#475467"/>
<rect x="273.693" y="89.1162" width="155.916" height="8.30323" rx="3.69032" fill="#EAEAEB"/>
<rect x="273.693" y="106.645" width="106.097" height="8.30323" rx="3.69032" fill="#EAEAEB"/>
<rect x="273.693" y="124.174" width="127.316" height="8.30323" rx="3.69032" fill="#EAEAEB"/>
<rect x="273.693" y="141.703" width="106.097" height="8.30323" rx="3.69032" fill="#EAEAEB"/>
</g>
<rect x="255.703" y="19.4613" width="200.2" height="142.077" rx="21.6806" stroke="#CCCCCC" stroke-width="0.922581"/>
</g>
</g>
<defs>
<clipPath id="clip0_357_1933">
<rect width="404" height="165" fill="white"/>
</clipPath>
<clipPath id="clip1_357_1933">
<rect x="35.668" y="19" width="201.123" height="143" rx="22.1419" fill="white"/>
</clipPath>
<clipPath id="clip2_357_1933">
<rect x="255.242" y="19" width="201.123" height="143" rx="22.1419" fill="white"/>
</clipPath>
</defs>
</svg>
