<svg width="280" height="208" viewBox="0 0 280 208" fill="none" xmlns="http://www.w3.org/2000/svg">
<g clip-path="url(#clip0_333_15205)">
<rect width="280" height="208" rx="12" fill="white" fill-opacity="0.01"/>
<g clip-path="url(#clip1_333_15205)">
<g clip-path="url(#clip2_333_15205)">
<g clip-path="url(#clip3_333_15205)">
<path d="M0 8H280V216H0V8Z" fill="white"/>
<path d="M25.9787 125H24.348L28.0121 114.818H29.7869L33.451 125H31.8203L28.9418 116.668H28.8622L25.9787 125ZM26.2521 121.013H31.5419V122.305H26.2521V121.013ZM36.4576 114.818V125H34.9213V114.818H36.4576Z" fill="#344054"/>
<path d="M214.398 115.273H215.455V121.511C215.455 122.068 215.352 122.541 215.148 122.93C214.943 123.32 214.655 123.615 214.283 123.817C213.911 124.018 213.472 124.119 212.966 124.119C212.489 124.119 212.064 124.033 211.692 123.859C211.32 123.683 211.027 123.433 210.814 123.109C210.601 122.786 210.494 122.401 210.494 121.955H211.534C211.534 122.202 211.595 122.418 211.717 122.602C211.842 122.784 212.013 122.926 212.229 123.028C212.445 123.131 212.69 123.182 212.966 123.182C213.27 123.182 213.528 123.118 213.741 122.99C213.955 122.862 214.116 122.675 214.227 122.428C214.341 122.178 214.398 121.872 214.398 121.511V115.273ZM221.561 121.324V117.455H222.567V124H221.561V122.892H221.493C221.339 123.224 221.101 123.507 220.777 123.74C220.453 123.97 220.044 124.085 219.55 124.085C219.141 124.085 218.777 123.996 218.459 123.817C218.141 123.635 217.891 123.362 217.709 122.999C217.527 122.632 217.436 122.17 217.436 121.614V117.455H218.442V121.545C218.442 122.023 218.575 122.403 218.842 122.688C219.112 122.972 219.456 123.114 219.874 123.114C220.124 123.114 220.378 123.05 220.636 122.922C220.898 122.794 221.116 122.598 221.293 122.334C221.472 122.07 221.561 121.733 221.561 121.324ZM229.045 118.92L228.142 119.176C228.085 119.026 228.001 118.879 227.89 118.737C227.782 118.592 227.635 118.473 227.447 118.379C227.26 118.286 227.02 118.239 226.727 118.239C226.326 118.239 225.993 118.331 225.725 118.516C225.461 118.697 225.329 118.929 225.329 119.21C225.329 119.46 225.42 119.658 225.602 119.803C225.784 119.947 226.068 120.068 226.454 120.165L227.426 120.403C228.011 120.545 228.447 120.763 228.734 121.055C229.021 121.345 229.164 121.719 229.164 122.176C229.164 122.551 229.056 122.886 228.841 123.182C228.627 123.477 228.329 123.71 227.946 123.881C227.562 124.051 227.116 124.136 226.608 124.136C225.94 124.136 225.387 123.991 224.95 123.702C224.512 123.412 224.235 122.989 224.119 122.432L225.074 122.193C225.164 122.545 225.336 122.81 225.589 122.986C225.845 123.162 226.179 123.25 226.591 123.25C227.059 123.25 227.431 123.151 227.707 122.952C227.985 122.75 228.125 122.509 228.125 122.227C228.125 122 228.045 121.81 227.886 121.656C227.727 121.5 227.483 121.384 227.153 121.307L226.062 121.051C225.463 120.909 225.022 120.689 224.741 120.391C224.463 120.089 224.324 119.713 224.324 119.261C224.324 118.892 224.427 118.565 224.635 118.281C224.845 117.997 225.13 117.774 225.491 117.612C225.855 117.45 226.267 117.369 226.727 117.369C227.375 117.369 227.883 117.511 228.252 117.795C228.625 118.08 228.889 118.455 229.045 118.92ZM233.525 117.455V118.307H230.133V117.455H233.525ZM231.121 115.886H232.127V122.125C232.127 122.409 232.168 122.622 232.251 122.764C232.336 122.903 232.444 122.997 232.575 123.045C232.708 123.091 232.849 123.114 232.996 123.114C233.107 123.114 233.198 123.108 233.269 123.097C233.34 123.082 233.397 123.071 233.44 123.062L233.644 123.966C233.576 123.991 233.481 124.017 233.359 124.043C233.237 124.071 233.082 124.085 232.894 124.085C232.61 124.085 232.332 124.024 232.059 123.902C231.789 123.78 231.565 123.594 231.386 123.344C231.21 123.094 231.121 122.778 231.121 122.398V115.886ZM239.418 120.062V124H238.413V117.455H239.384V118.477H239.469C239.623 118.145 239.856 117.878 240.168 117.676C240.481 117.472 240.884 117.369 241.379 117.369C241.822 117.369 242.21 117.46 242.542 117.642C242.874 117.821 243.133 118.094 243.317 118.46C243.502 118.824 243.594 119.284 243.594 119.841V124H242.589V119.909C242.589 119.395 242.455 118.994 242.188 118.707C241.921 118.418 241.555 118.273 241.089 118.273C240.768 118.273 240.481 118.342 240.228 118.482C239.978 118.621 239.781 118.824 239.636 119.091C239.491 119.358 239.418 119.682 239.418 120.062ZM248.091 124.136C247.5 124.136 246.982 123.996 246.536 123.714C246.093 123.433 245.746 123.04 245.496 122.534C245.249 122.028 245.125 121.437 245.125 120.761C245.125 120.08 245.249 119.484 245.496 118.976C245.746 118.467 246.093 118.072 246.536 117.791C246.982 117.51 247.5 117.369 248.091 117.369C248.682 117.369 249.199 117.51 249.642 117.791C250.088 118.072 250.435 118.467 250.682 118.976C250.932 119.484 251.057 120.08 251.057 120.761C251.057 121.437 250.932 122.028 250.682 122.534C250.435 123.04 250.088 123.433 249.642 123.714C249.199 123.996 248.682 124.136 248.091 124.136ZM248.091 123.233C248.54 123.233 248.909 123.118 249.199 122.888C249.489 122.658 249.703 122.355 249.843 121.98C249.982 121.605 250.051 121.199 250.051 120.761C250.051 120.324 249.982 119.916 249.843 119.538C249.703 119.161 249.489 118.855 249.199 118.622C248.909 118.389 248.54 118.273 248.091 118.273C247.642 118.273 247.273 118.389 246.983 118.622C246.694 118.855 246.479 119.161 246.34 119.538C246.201 119.916 246.131 120.324 246.131 120.761C246.131 121.199 246.201 121.605 246.34 121.98C246.479 122.355 246.694 122.658 246.983 122.888C247.273 123.118 247.642 123.233 248.091 123.233ZM253.853 124L251.858 117.455H252.915L254.33 122.466H254.398L255.796 117.455H256.87L258.25 122.449H258.319L259.733 117.455H260.79L258.796 124H257.807L256.375 118.972H256.273L254.841 124H253.853Z" fill="#475467"/>
<path d="M254 136.5C258.142 136.5 261.5 139.858 261.5 144V168C261.5 172.142 258.142 175.5 254 175.5H32C27.8579 175.5 24.5 172.142 24.5 168V136.5H254Z" fill="#F9FAFB"/>
<path d="M254 136.5C258.142 136.5 261.5 139.858 261.5 144V168C261.5 172.142 258.142 175.5 254 175.5H32C27.8579 175.5 24.5 172.142 24.5 168V136.5H254Z" stroke="#EAECF0"/>
<path d="M44.8011 153.364C44.7415 152.86 44.4995 152.469 44.0753 152.19C43.651 151.912 43.1307 151.773 42.5142 151.773C42.0634 151.773 41.669 151.846 41.331 151.991C40.9962 152.137 40.7344 152.338 40.5455 152.593C40.3598 152.848 40.267 153.138 40.267 153.463C40.267 153.735 40.3317 153.969 40.4609 154.164C40.5935 154.356 40.7625 154.517 40.968 154.646C41.1735 154.772 41.389 154.877 41.6143 154.96C41.8397 155.039 42.0469 155.104 42.2358 155.153L43.2699 155.432C43.535 155.501 43.83 155.598 44.1548 155.72C44.483 155.843 44.7962 156.01 45.0945 156.222C45.3961 156.431 45.6446 156.7 45.8402 157.028C46.0357 157.356 46.1335 157.759 46.1335 158.236C46.1335 158.786 45.9893 159.283 45.701 159.727C45.416 160.171 44.9983 160.524 44.4482 160.786C43.9013 161.048 43.2367 161.179 42.4545 161.179C41.7254 161.179 41.094 161.061 40.5604 160.826C40.0301 160.591 39.6125 160.263 39.3075 159.842C39.0059 159.421 38.8352 158.932 38.7955 158.375H40.0682C40.1013 158.759 40.2306 159.078 40.456 159.33C40.6847 159.578 40.973 159.764 41.321 159.886C41.6723 160.006 42.0502 160.065 42.4545 160.065C42.9252 160.065 43.3478 159.989 43.7223 159.837C44.0968 159.681 44.3935 159.465 44.6122 159.19C44.831 158.912 44.9403 158.587 44.9403 158.216C44.9403 157.878 44.8459 157.603 44.657 157.391C44.468 157.179 44.2195 157.006 43.9112 156.874C43.603 156.741 43.2699 156.625 42.9119 156.526L41.6591 156.168C40.8636 155.939 40.2339 155.612 39.7699 155.188C39.3059 154.764 39.0739 154.209 39.0739 153.523C39.0739 152.953 39.228 152.455 39.5362 152.031C39.8478 151.604 40.2654 151.272 40.7891 151.037C41.3161 150.798 41.9044 150.679 42.554 150.679C43.2102 150.679 43.7936 150.797 44.304 151.032C44.8144 151.264 45.2188 151.582 45.517 151.987C45.8187 152.391 45.9777 152.85 45.9943 153.364H44.8011ZM51.2033 161.159C50.4675 161.159 49.8328 160.997 49.2992 160.672C48.7689 160.344 48.3596 159.886 48.0712 159.3C47.7862 158.71 47.6436 158.024 47.6436 157.241C47.6436 156.459 47.7862 155.77 48.0712 155.173C48.3596 154.573 48.7606 154.106 49.2743 153.771C49.7914 153.433 50.3946 153.264 51.084 153.264C51.4817 153.264 51.8745 153.33 52.2623 153.463C52.65 153.596 53.003 153.811 53.3212 154.109C53.6394 154.404 53.8929 154.795 54.0819 155.283C54.2708 155.77 54.3652 156.37 54.3652 157.082V157.58H48.4789V156.565H53.1721C53.1721 156.134 53.0859 155.75 52.9135 155.412C52.7445 155.074 52.5025 154.807 52.1877 154.612C51.8761 154.416 51.5082 154.318 51.084 154.318C50.6167 154.318 50.2123 154.434 49.8709 154.666C49.5328 154.895 49.2727 155.193 49.0904 155.561C48.9081 155.929 48.8169 156.323 48.8169 156.744V157.42C48.8169 157.997 48.9164 158.486 49.1152 158.887C49.3174 159.285 49.5975 159.588 49.9554 159.797C50.3134 160.002 50.7293 160.105 51.2033 160.105C51.5115 160.105 51.79 160.062 52.0385 159.976C52.2904 159.886 52.5075 159.754 52.6898 159.578C52.8721 159.399 53.013 159.177 53.1124 158.912L54.2459 159.23C54.1266 159.615 53.9261 159.953 53.6444 160.244C53.3626 160.533 53.0146 160.758 52.6003 160.92C52.186 161.08 51.7203 161.159 51.2033 161.159ZM58.3972 161.179C57.9133 161.179 57.4741 161.088 57.0797 160.906C56.6853 160.72 56.3721 160.453 56.1401 160.105C55.9081 159.754 55.7921 159.33 55.7921 158.832C55.7921 158.395 55.8783 158.04 56.0506 157.768C56.223 157.493 56.4533 157.278 56.7417 157.122C57.03 156.966 57.3482 156.85 57.6962 156.774C58.0475 156.695 58.4005 156.632 58.7551 156.585C59.2192 156.526 59.5953 156.481 59.8837 156.451C60.1754 156.418 60.3875 156.363 60.5201 156.287C60.656 156.211 60.7239 156.078 60.7239 155.889V155.849C60.7239 155.359 60.5897 154.978 60.3212 154.706C60.056 154.434 59.6534 154.298 59.1131 154.298C58.553 154.298 58.1138 154.421 57.7956 154.666C57.4775 154.911 57.2537 155.173 57.1245 155.452L56.0108 155.054C56.2097 154.59 56.4748 154.229 56.8063 153.97C57.141 153.708 57.5056 153.526 57.9 153.423C58.2978 153.317 58.6889 153.264 59.0733 153.264C59.3186 153.264 59.6003 153.294 59.9185 153.354C60.24 153.41 60.5499 153.528 60.8482 153.707C61.1498 153.886 61.4 154.156 61.5989 154.517C61.7978 154.878 61.8972 155.362 61.8972 155.969V161H60.7239V159.966H60.6642C60.5847 160.132 60.4521 160.309 60.2665 160.498C60.0809 160.687 59.834 160.848 59.5257 160.98C59.2175 161.113 58.8413 161.179 58.3972 161.179ZM58.5762 160.125C59.0402 160.125 59.4313 160.034 59.7495 159.852C60.071 159.669 60.3129 159.434 60.4753 159.146C60.641 158.857 60.7239 158.554 60.7239 158.236V157.162C60.6742 157.222 60.5648 157.276 60.3958 157.326C60.2301 157.372 60.0378 157.414 59.8191 157.45C59.6036 157.483 59.3932 157.513 59.1877 157.54C58.9855 157.563 58.8214 157.583 58.6955 157.599C58.3906 157.639 58.1055 157.704 57.8404 157.793C57.5785 157.879 57.3664 158.01 57.204 158.186C57.0449 158.358 56.9654 158.594 56.9654 158.892C56.9654 159.3 57.1162 159.608 57.4178 159.817C57.7227 160.022 58.1088 160.125 58.5762 160.125ZM64.0387 161V153.364H65.1722V154.517H65.2518C65.391 154.139 65.6429 153.833 66.0075 153.597C66.372 153.362 66.783 153.244 67.2404 153.244C67.3266 153.244 67.4343 153.246 67.5636 153.249C67.6928 153.253 67.7906 153.258 67.8569 153.264V154.457C67.8171 154.447 67.726 154.433 67.5835 154.413C67.4442 154.389 67.2968 154.378 67.141 154.378C66.7698 154.378 66.4383 154.456 66.1467 154.612C65.8583 154.764 65.6296 154.976 65.4606 155.248C65.2949 155.516 65.212 155.823 65.212 156.168V161H64.0387ZM72.1175 161.159C71.4016 161.159 70.7852 160.99 70.2681 160.652C69.7511 160.314 69.3533 159.848 69.0749 159.255C68.7965 158.662 68.6573 157.984 68.6573 157.222C68.6573 156.446 68.7998 155.762 69.0849 155.168C69.3732 154.572 69.7743 154.106 70.288 153.771C70.805 153.433 71.4083 153.264 72.0977 153.264C72.6346 153.264 73.1185 153.364 73.5494 153.562C73.9802 153.761 74.3332 154.04 74.6083 154.398C74.8834 154.756 75.0541 155.173 75.1204 155.651H73.9471C73.8576 155.303 73.6587 154.994 73.3505 154.726C73.0456 154.454 72.6346 154.318 72.1175 154.318C71.6602 154.318 71.2591 154.437 70.9144 154.676C70.573 154.911 70.3062 155.245 70.114 155.675C69.9251 156.103 69.8306 156.605 69.8306 157.182C69.8306 157.772 69.9234 158.286 70.109 158.723C70.2979 159.161 70.5631 159.5 70.9045 159.742C71.2492 159.984 71.6535 160.105 72.1175 160.105C72.4225 160.105 72.6992 160.052 72.9478 159.946C73.1964 159.84 73.4068 159.688 73.5792 159.489C73.7515 159.29 73.8742 159.051 73.9471 158.773H75.1204C75.0541 159.223 74.89 159.629 74.6282 159.991C74.3697 160.349 74.0266 160.634 73.5991 160.846C73.1748 161.055 72.681 161.159 72.1175 161.159ZM78.0089 156.406V161H76.8356V150.818H78.0089V154.557H78.1083C78.2873 154.162 78.5558 153.849 78.9137 153.617C79.275 153.382 79.7556 153.264 80.3555 153.264C80.8758 153.264 81.3316 153.369 81.7227 153.577C82.1138 153.783 82.417 154.099 82.6325 154.527C82.8512 154.951 82.9606 155.491 82.9606 156.148V161H81.7873V156.227C81.7873 155.621 81.6299 155.152 81.315 154.82C81.0034 154.486 80.5709 154.318 80.0174 154.318C79.6329 154.318 79.2882 154.399 78.9833 154.562C78.6817 154.724 78.4431 154.961 78.2674 155.273C78.0951 155.584 78.0089 155.962 78.0089 156.406ZM85.1071 161V153.364H86.2804V161H85.1071ZM85.7037 152.091C85.475 152.091 85.2778 152.013 85.112 151.857C84.9496 151.701 84.8684 151.514 84.8684 151.295C84.8684 151.077 84.9496 150.889 85.112 150.734C85.2778 150.578 85.475 150.5 85.7037 150.5C85.9324 150.5 86.1279 150.578 86.2903 150.734C86.456 150.889 86.5389 151.077 86.5389 151.295C86.5389 151.514 86.456 151.701 86.2903 151.857C86.1279 152.013 85.9324 152.091 85.7037 152.091ZM89.6026 156.406V161H88.4293V153.364H89.5629V154.557H89.6623C89.8413 154.169 90.113 153.857 90.4776 153.622C90.8422 153.384 91.3129 153.264 91.8896 153.264C92.4066 153.264 92.859 153.37 93.2468 153.582C93.6346 153.791 93.9362 154.109 94.1516 154.537C94.3671 154.961 94.4748 155.498 94.4748 156.148V161H93.3015V156.227C93.3015 155.627 93.1457 155.16 92.8342 154.825C92.5226 154.487 92.0951 154.318 91.5515 154.318C91.177 154.318 90.8422 154.399 90.5472 154.562C90.2556 154.724 90.0252 154.961 89.8562 155.273C89.6871 155.584 89.6026 155.962 89.6026 156.406ZM99.7012 164.023C99.1344 164.023 98.6472 163.95 98.2395 163.804C97.8319 163.661 97.4921 163.473 97.2203 163.237C96.9519 163.005 96.7381 162.757 96.579 162.491L97.5137 161.835C97.6197 161.974 97.754 162.134 97.9164 162.312C98.0788 162.495 98.3008 162.652 98.5826 162.785C98.8676 162.921 99.2405 162.989 99.7012 162.989C100.318 162.989 100.826 162.839 101.227 162.541C101.628 162.243 101.829 161.776 101.829 161.139V159.588H101.73C101.643 159.727 101.521 159.9 101.362 160.105C101.206 160.307 100.981 160.488 100.686 160.647C100.394 160.803 99.9995 160.881 99.5023 160.881C98.8858 160.881 98.3323 160.735 97.8418 160.443C97.3546 160.152 96.9685 159.727 96.6834 159.17C96.4017 158.614 96.2608 157.937 96.2608 157.142C96.2608 156.36 96.3984 155.679 96.6735 155.099C96.9486 154.515 97.3314 154.065 97.8219 153.746C98.3124 153.425 98.8792 153.264 99.5222 153.264C100.019 153.264 100.414 153.347 100.705 153.513C101 153.675 101.226 153.861 101.382 154.07C101.541 154.275 101.663 154.444 101.749 154.577H101.869V153.364H103.002V161.219C103.002 161.875 102.853 162.409 102.555 162.82C102.26 163.234 101.862 163.537 101.362 163.729C100.865 163.925 100.311 164.023 99.7012 164.023ZM99.6614 159.827C100.132 159.827 100.53 159.719 100.855 159.504C101.179 159.288 101.426 158.978 101.595 158.574C101.764 158.17 101.849 157.686 101.849 157.122C101.849 156.572 101.766 156.086 101.6 155.665C101.435 155.245 101.189 154.915 100.865 154.676C100.54 154.437 100.139 154.318 99.6614 154.318C99.1642 154.318 98.7499 154.444 98.4185 154.696C98.0904 154.948 97.8435 155.286 97.6777 155.71C97.5153 156.134 97.4341 156.605 97.4341 157.122C97.4341 157.652 97.517 158.121 97.6827 158.529C97.8517 158.933 98.1003 159.252 98.4284 159.484C98.7599 159.712 99.1709 159.827 99.6614 159.827ZM109.843 163.864C109.644 163.864 109.467 163.847 109.311 163.814C109.155 163.784 109.048 163.754 108.988 163.724L109.286 162.69C109.571 162.763 109.823 162.79 110.042 162.77C110.261 162.75 110.455 162.652 110.624 162.477C110.796 162.304 110.954 162.024 111.096 161.636L111.315 161.04L108.491 153.364H109.764L111.872 159.449H111.951L114.059 153.364H115.332L112.09 162.114C111.945 162.508 111.764 162.835 111.548 163.093C111.333 163.355 111.083 163.549 110.798 163.675C110.516 163.801 110.198 163.864 109.843 163.864ZM119.709 161.159C119.02 161.159 118.415 160.995 117.895 160.667C117.378 160.339 116.973 159.88 116.682 159.29C116.393 158.7 116.249 158.01 116.249 157.222C116.249 156.426 116.393 155.732 116.682 155.138C116.973 154.545 117.378 154.085 117.895 153.756C118.415 153.428 119.02 153.264 119.709 153.264C120.399 153.264 121.002 153.428 121.519 153.756C122.039 154.085 122.444 154.545 122.732 155.138C123.024 155.732 123.17 156.426 123.17 157.222C123.17 158.01 123.024 158.7 122.732 159.29C122.444 159.88 122.039 160.339 121.519 160.667C121.002 160.995 120.399 161.159 119.709 161.159ZM119.709 160.105C120.233 160.105 120.664 159.971 121.002 159.702C121.34 159.434 121.59 159.081 121.753 158.643C121.915 158.206 121.996 157.732 121.996 157.222C121.996 156.711 121.915 156.236 121.753 155.795C121.59 155.354 121.34 154.998 121.002 154.726C120.664 154.454 120.233 154.318 119.709 154.318C119.186 154.318 118.755 154.454 118.417 154.726C118.079 154.998 117.828 155.354 117.666 155.795C117.504 156.236 117.422 156.711 117.422 157.222C117.422 157.732 117.504 158.206 117.666 158.643C117.828 159.081 118.079 159.434 118.417 159.702C118.755 159.971 119.186 160.105 119.709 160.105ZM129.773 157.878V153.364H130.946V161H129.773V159.707H129.694C129.515 160.095 129.236 160.425 128.858 160.697C128.48 160.965 128.003 161.099 127.426 161.099C126.949 161.099 126.525 160.995 126.154 160.786C125.783 160.574 125.491 160.256 125.279 159.832C125.067 159.404 124.961 158.866 124.961 158.216V153.364H126.134V158.136C126.134 158.693 126.29 159.137 126.601 159.469C126.916 159.8 127.317 159.966 127.804 159.966C128.096 159.966 128.393 159.891 128.694 159.742C128.999 159.593 129.254 159.364 129.46 159.056C129.669 158.748 129.773 158.355 129.773 157.878ZM133.095 161V153.364H134.229V154.517H134.308C134.448 154.139 134.7 153.833 135.064 153.597C135.429 153.362 135.84 153.244 136.297 153.244C136.383 153.244 136.491 153.246 136.62 153.249C136.749 153.253 136.847 153.258 136.914 153.264V154.457C136.874 154.447 136.783 154.433 136.64 154.413C136.501 154.389 136.353 154.378 136.198 154.378C135.826 154.378 135.495 154.456 135.203 154.612C134.915 154.764 134.686 154.976 134.517 155.248C134.352 155.516 134.269 155.823 134.269 156.168V161H133.095ZM145.125 161.159C144.489 161.159 143.927 160.998 143.44 160.677C142.953 160.352 142.572 159.895 142.297 159.305C142.021 158.711 141.884 158.01 141.884 157.202C141.884 156.4 142.021 155.704 142.297 155.114C142.572 154.524 142.954 154.068 143.445 153.746C143.935 153.425 144.502 153.264 145.145 153.264C145.642 153.264 146.035 153.347 146.324 153.513C146.615 153.675 146.837 153.861 146.99 154.07C147.145 154.275 147.266 154.444 147.353 154.577H147.452V150.818H148.625V161H147.492V159.827H147.353C147.266 159.966 147.144 160.142 146.985 160.354C146.826 160.562 146.599 160.75 146.304 160.915C146.009 161.078 145.616 161.159 145.125 161.159ZM145.284 160.105C145.755 160.105 146.153 159.982 146.478 159.737C146.802 159.489 147.049 159.146 147.218 158.708C147.387 158.267 147.472 157.759 147.472 157.182C147.472 156.612 147.389 156.113 147.223 155.685C147.058 155.254 146.812 154.92 146.488 154.681C146.163 154.439 145.762 154.318 145.284 154.318C144.787 154.318 144.373 154.446 144.042 154.701C143.713 154.953 143.467 155.296 143.301 155.73C143.138 156.161 143.057 156.645 143.057 157.182C143.057 157.725 143.14 158.219 143.306 158.663C143.475 159.104 143.723 159.455 144.051 159.717C144.383 159.976 144.794 160.105 145.284 160.105ZM154.039 161.159C153.35 161.159 152.745 160.995 152.225 160.667C151.708 160.339 151.303 159.88 151.012 159.29C150.723 158.7 150.579 158.01 150.579 157.222C150.579 156.426 150.723 155.732 151.012 155.138C151.303 154.545 151.708 154.085 152.225 153.756C152.745 153.428 153.35 153.264 154.039 153.264C154.729 153.264 155.332 153.428 155.849 153.756C156.369 154.085 156.774 154.545 157.062 155.138C157.354 155.732 157.5 156.426 157.5 157.222C157.5 158.01 157.354 158.7 157.062 159.29C156.774 159.88 156.369 160.339 155.849 160.667C155.332 160.995 154.729 161.159 154.039 161.159ZM154.039 160.105C154.563 160.105 154.994 159.971 155.332 159.702C155.67 159.434 155.92 159.081 156.083 158.643C156.245 158.206 156.326 157.732 156.326 157.222C156.326 156.711 156.245 156.236 156.083 155.795C155.92 155.354 155.67 154.998 155.332 154.726C154.994 154.454 154.563 154.318 154.039 154.318C153.516 154.318 153.085 154.454 152.747 154.726C152.409 154.998 152.158 155.354 151.996 155.795C151.834 156.236 151.752 156.711 151.752 157.222C151.752 157.732 151.834 158.206 151.996 158.643C152.158 159.081 152.409 159.434 152.747 159.702C153.085 159.971 153.516 160.105 154.039 160.105ZM162.393 161.159C161.677 161.159 161.061 160.99 160.544 160.652C160.026 160.314 159.629 159.848 159.35 159.255C159.072 158.662 158.933 157.984 158.933 157.222C158.933 156.446 159.075 155.762 159.36 155.168C159.649 154.572 160.05 154.106 160.563 153.771C161.08 153.433 161.684 153.264 162.373 153.264C162.91 153.264 163.394 153.364 163.825 153.562C164.256 153.761 164.609 154.04 164.884 154.398C165.159 154.756 165.329 155.173 165.396 155.651H164.222C164.133 155.303 163.934 154.994 163.626 154.726C163.321 154.454 162.91 154.318 162.393 154.318C161.936 154.318 161.535 154.437 161.19 154.676C160.848 154.911 160.582 155.245 160.389 155.675C160.2 156.103 160.106 156.605 160.106 157.182C160.106 157.772 160.199 158.286 160.384 158.723C160.573 159.161 160.838 159.5 161.18 159.742C161.525 159.984 161.929 160.105 162.393 160.105C162.698 160.105 162.975 160.052 163.223 159.946C163.472 159.84 163.682 159.688 163.855 159.489C164.027 159.29 164.15 159.051 164.222 158.773H165.396C165.329 159.223 165.165 159.629 164.904 159.991C164.645 160.349 164.302 160.634 163.874 160.846C163.45 161.055 162.956 161.159 162.393 161.159ZM171.923 157.878V153.364H173.097V161H171.923V159.707H171.844C171.665 160.095 171.387 160.425 171.009 160.697C170.631 160.965 170.154 161.099 169.577 161.099C169.1 161.099 168.675 160.995 168.304 160.786C167.933 160.574 167.641 160.256 167.429 159.832C167.217 159.404 167.111 158.866 167.111 158.216V153.364H168.284V158.136C168.284 158.693 168.44 159.137 168.752 159.469C169.066 159.8 169.468 159.966 169.955 159.966C170.246 159.966 170.543 159.891 170.845 159.742C171.15 159.593 171.405 159.364 171.61 159.056C171.819 158.748 171.923 158.355 171.923 157.878ZM175.246 161V153.364H176.379V154.557H176.479C176.638 154.149 176.895 153.833 177.249 153.607C177.604 153.379 178.03 153.264 178.527 153.264C179.031 153.264 179.45 153.379 179.785 153.607C180.123 153.833 180.386 154.149 180.575 154.557H180.655C180.85 154.162 181.144 153.849 181.535 153.617C181.926 153.382 182.395 153.264 182.942 153.264C183.625 153.264 184.183 153.478 184.617 153.906C185.051 154.33 185.268 154.991 185.268 155.889V161H184.095V155.889C184.095 155.326 183.941 154.923 183.633 154.681C183.325 154.439 182.962 154.318 182.544 154.318C182.007 154.318 181.591 154.481 181.296 154.805C181.001 155.127 180.854 155.535 180.854 156.028V161H179.661V155.77C179.661 155.336 179.52 154.986 179.238 154.721C178.956 154.452 178.593 154.318 178.149 154.318C177.844 154.318 177.559 154.399 177.294 154.562C177.032 154.724 176.82 154.95 176.658 155.238C176.499 155.523 176.419 155.853 176.419 156.227V161H175.246ZM190.615 161.159C189.88 161.159 189.245 160.997 188.711 160.672C188.181 160.344 187.772 159.886 187.483 159.3C187.198 158.71 187.056 158.024 187.056 157.241C187.056 156.459 187.198 155.77 187.483 155.173C187.772 154.573 188.173 154.106 188.686 153.771C189.203 153.433 189.807 153.264 190.496 153.264C190.894 153.264 191.287 153.33 191.674 153.463C192.062 153.596 192.415 153.811 192.733 154.109C193.051 154.404 193.305 154.795 193.494 155.283C193.683 155.77 193.777 156.37 193.777 157.082V157.58H187.891V156.565H192.584C192.584 156.134 192.498 155.75 192.326 155.412C192.157 155.074 191.915 154.807 191.6 154.612C191.288 154.416 190.92 154.318 190.496 154.318C190.029 154.318 189.624 154.434 189.283 154.666C188.945 154.895 188.685 155.193 188.502 155.561C188.32 155.929 188.229 156.323 188.229 156.744V157.42C188.229 157.997 188.328 158.486 188.527 158.887C188.73 159.285 189.01 159.588 189.368 159.797C189.725 160.002 190.141 160.105 190.615 160.105C190.924 160.105 191.202 160.062 191.451 159.976C191.703 159.886 191.92 159.754 192.102 159.578C192.284 159.399 192.425 159.177 192.525 158.912L193.658 159.23C193.539 159.615 193.338 159.953 193.056 160.244C192.775 160.533 192.427 160.758 192.012 160.92C191.598 161.08 191.132 161.159 190.615 161.159ZM196.735 156.406V161H195.562V153.364H196.696V154.557H196.795C196.974 154.169 197.246 153.857 197.61 153.622C197.975 153.384 198.446 153.264 199.022 153.264C199.539 153.264 199.992 153.37 200.38 153.582C200.767 153.791 201.069 154.109 201.284 154.537C201.5 154.961 201.608 155.498 201.608 156.148V161H200.434V156.227C200.434 155.627 200.279 155.16 199.967 154.825C199.655 154.487 199.228 154.318 198.684 154.318C198.31 154.318 197.975 154.399 197.68 154.562C197.388 154.724 197.158 154.961 196.989 155.273C196.82 155.584 196.735 155.962 196.735 156.406ZM207.073 153.364V154.358H203.115V153.364H207.073ZM204.269 151.534H205.442V158.812C205.442 159.144 205.49 159.393 205.586 159.558C205.686 159.721 205.811 159.83 205.964 159.886C206.12 159.939 206.284 159.966 206.456 159.966C206.585 159.966 206.691 159.959 206.774 159.946C206.857 159.929 206.923 159.916 206.973 159.906L207.212 160.96C207.132 160.99 207.021 161.02 206.879 161.05C206.736 161.083 206.556 161.099 206.337 161.099C206.005 161.099 205.681 161.028 205.362 160.886C205.048 160.743 204.786 160.526 204.577 160.234C204.371 159.943 204.269 159.575 204.269 159.131V151.534ZM214.11 155.074L213.056 155.372C212.99 155.196 212.892 155.026 212.763 154.86C212.637 154.691 212.464 154.552 212.246 154.442C212.027 154.333 211.747 154.278 211.405 154.278C210.938 154.278 210.549 154.386 210.237 154.602C209.929 154.814 209.775 155.084 209.775 155.412C209.775 155.704 209.881 155.934 210.093 156.103C210.305 156.272 210.636 156.413 211.087 156.526L212.221 156.804C212.903 156.97 213.412 157.223 213.747 157.565C214.082 157.903 214.249 158.339 214.249 158.872C214.249 159.31 214.123 159.701 213.871 160.045C213.623 160.39 213.275 160.662 212.827 160.861C212.38 161.06 211.859 161.159 211.266 161.159C210.487 161.159 209.843 160.99 209.332 160.652C208.822 160.314 208.499 159.82 208.363 159.17L209.476 158.892C209.582 159.303 209.783 159.611 210.078 159.817C210.376 160.022 210.766 160.125 211.246 160.125C211.793 160.125 212.227 160.009 212.549 159.777C212.874 159.542 213.036 159.26 213.036 158.932C213.036 158.667 212.943 158.445 212.758 158.266C212.572 158.083 212.287 157.947 211.903 157.858L210.63 157.56C209.93 157.394 209.417 157.137 209.089 156.789C208.764 156.438 208.601 155.999 208.601 155.472C208.601 155.041 208.722 154.66 208.964 154.328C209.21 153.997 209.543 153.737 209.964 153.548C210.388 153.359 210.868 153.264 211.405 153.264C212.161 153.264 212.754 153.43 213.185 153.761C213.619 154.093 213.928 154.53 214.11 155.074ZM216.87 161.08C216.625 161.08 216.415 160.992 216.239 160.816C216.063 160.64 215.975 160.43 215.975 160.185C215.975 159.939 216.063 159.729 216.239 159.553C216.415 159.378 216.625 159.29 216.87 159.29C217.116 159.29 217.326 159.378 217.502 159.553C217.677 159.729 217.765 159.939 217.765 160.185C217.765 160.347 217.724 160.496 217.641 160.632C217.561 160.768 217.454 160.877 217.318 160.96C217.185 161.04 217.036 161.08 216.87 161.08ZM220.726 161.08C220.481 161.08 220.27 160.992 220.094 160.816C219.919 160.64 219.831 160.43 219.831 160.185C219.831 159.939 219.919 159.729 220.094 159.553C220.27 159.378 220.481 159.29 220.726 159.29C220.971 159.29 221.182 159.378 221.357 159.553C221.533 159.729 221.621 159.939 221.621 160.185C221.621 160.347 221.579 160.496 221.496 160.632C221.417 160.768 221.309 160.877 221.173 160.96C221.041 161.04 220.892 161.08 220.726 161.08ZM224.581 161.08C224.336 161.08 224.126 160.992 223.95 160.816C223.774 160.64 223.686 160.43 223.686 160.185C223.686 159.939 223.774 159.729 223.95 159.553C224.126 159.378 224.336 159.29 224.581 159.29C224.827 159.29 225.037 159.378 225.213 159.553C225.388 159.729 225.476 159.939 225.476 160.185C225.476 160.347 225.435 160.496 225.352 160.632C225.272 160.768 225.165 160.877 225.029 160.96C224.896 161.04 224.747 161.08 224.581 161.08Z" fill="#101828"/>
<path d="M19.3331 24.8182H21.0781L23.7379 29.4467H23.8473L26.5071 24.8182H28.2521L24.5582 31.0028V35H23.027V31.0028L19.3331 24.8182ZM31.5421 35.1541C30.8262 35.1541 30.2014 34.9901 29.6678 34.6619C29.1342 34.3338 28.7199 33.8748 28.4249 33.2848C28.1299 32.6948 27.9824 32.0054 27.9824 31.2166C27.9824 30.4245 28.1299 29.7318 28.4249 29.1385C28.7199 28.5452 29.1342 28.0845 29.6678 27.7564C30.2014 27.4283 30.8262 27.2642 31.5421 27.2642C32.258 27.2642 32.8828 27.4283 33.4164 27.7564C33.95 28.0845 34.3643 28.5452 34.6593 29.1385C34.9542 29.7318 35.1017 30.4245 35.1017 31.2166C35.1017 32.0054 34.9542 32.6948 34.6593 33.2848C34.3643 33.8748 33.95 34.3338 33.4164 34.6619C32.8828 34.9901 32.258 35.1541 31.5421 35.1541ZM31.5471 33.9062C32.0111 33.9062 32.3955 33.7836 32.7005 33.5384C33.0054 33.2931 33.2308 32.9666 33.3766 32.5589C33.5257 32.1513 33.6003 31.7022 33.6003 31.2116C33.6003 30.7244 33.5257 30.277 33.3766 29.8693C33.2308 29.4583 33.0054 29.1286 32.7005 28.88C32.3955 28.6314 32.0111 28.5071 31.5471 28.5071C31.0797 28.5071 30.6919 28.6314 30.3837 28.88C30.0788 29.1286 29.8517 29.4583 29.7026 29.8693C29.5568 30.277 29.4838 30.7244 29.4838 31.2116C29.4838 31.7022 29.5568 32.1513 29.7026 32.5589C29.8517 32.9666 30.0788 33.2931 30.3837 33.5384C30.6919 33.7836 31.0797 33.9062 31.5471 33.9062ZM41.5984 31.8331V27.3636H43.0898V35H41.6282V33.6776H41.5487C41.373 34.0852 41.0913 34.425 40.7035 34.6967C40.319 34.9652 39.8401 35.0994 39.2667 35.0994C38.7762 35.0994 38.342 34.9917 37.9641 34.7763C37.5896 34.5575 37.2946 34.2344 37.0792 33.8068C36.8671 33.3793 36.761 32.8506 36.761 32.2209V27.3636H38.2475V32.0419C38.2475 32.5623 38.3917 32.9766 38.68 33.2848C38.9684 33.593 39.3429 33.7472 39.8036 33.7472C40.082 33.7472 40.3588 33.6776 40.6339 33.5384C40.9123 33.3991 41.1426 33.1887 41.3249 32.907C41.5105 32.6252 41.6017 32.2673 41.5984 31.8331Z" fill="#344054"/>
<path d="M160.58 26.2102V25.2727H167.125V26.2102H164.381V34H163.324V26.2102H160.58ZM169.625 30.0625V34H168.62V25.2727H169.625V28.4773H169.711C169.864 28.1392 170.094 27.8707 170.401 27.6719C170.711 27.4702 171.123 27.3693 171.637 27.3693C172.083 27.3693 172.473 27.4588 172.809 27.6378C173.144 27.8139 173.404 28.0852 173.588 28.4517C173.776 28.8153 173.87 29.2784 173.87 29.8409V34H172.864V29.9091C172.864 29.3892 172.729 28.9872 172.459 28.7031C172.192 28.4162 171.821 28.2727 171.347 28.2727C171.017 28.2727 170.722 28.3423 170.461 28.4815C170.202 28.6207 169.998 28.8239 169.847 29.0909C169.699 29.358 169.625 29.6818 169.625 30.0625ZM179.835 31.3239V27.4545H180.84V34H179.835V32.892H179.766C179.613 33.2244 179.374 33.5071 179.05 33.7401C178.727 33.9702 178.317 34.0852 177.823 34.0852C177.414 34.0852 177.05 33.9957 176.732 33.8168C176.414 33.6349 176.164 33.3622 175.982 32.9986C175.8 32.6321 175.71 32.1705 175.71 31.6136V27.4545H176.715V31.5455C176.715 32.0227 176.849 32.4034 177.116 32.6875C177.386 32.9716 177.729 33.1136 178.147 33.1136C178.397 33.1136 178.651 33.0497 178.91 32.9219C179.171 32.794 179.39 32.598 179.566 32.3338C179.745 32.0696 179.835 31.733 179.835 31.3239ZM182.682 34V27.4545H183.654V28.4432H183.722C183.841 28.1193 184.057 27.8565 184.37 27.6548C184.682 27.4531 185.034 27.3523 185.426 27.3523C185.5 27.3523 185.593 27.3537 185.703 27.3565C185.814 27.3594 185.898 27.3636 185.955 27.3693V28.392C185.921 28.3835 185.843 28.3707 185.721 28.3537C185.601 28.3338 185.475 28.3239 185.341 28.3239C185.023 28.3239 184.739 28.3906 184.489 28.5241C184.242 28.6548 184.046 28.8366 183.901 29.0696C183.759 29.2997 183.688 29.5625 183.688 29.858V34H182.682ZM191.783 28.9205L190.88 29.1761C190.823 29.0256 190.739 28.8793 190.629 28.7372C190.521 28.5923 190.373 28.473 190.185 28.3793C189.998 28.2855 189.758 28.2386 189.465 28.2386C189.065 28.2386 188.731 28.331 188.464 28.5156C188.2 28.6974 188.067 28.929 188.067 29.2102C188.067 29.4602 188.158 29.6577 188.34 29.8026C188.522 29.9474 188.806 30.0682 189.192 30.1648L190.164 30.4034C190.749 30.5455 191.185 30.7628 191.472 31.0554C191.759 31.3452 191.903 31.7187 191.903 32.1761C191.903 32.5511 191.795 32.8864 191.579 33.1818C191.366 33.4773 191.067 33.7102 190.684 33.8807C190.3 34.0511 189.854 34.1364 189.346 34.1364C188.678 34.1364 188.126 33.9915 187.688 33.7017C187.251 33.4119 186.974 32.9886 186.857 32.4318L187.812 32.1932C187.903 32.5455 188.075 32.8097 188.327 32.9858C188.583 33.1619 188.917 33.25 189.329 33.25C189.798 33.25 190.17 33.1506 190.445 32.9517C190.724 32.75 190.863 32.5085 190.863 32.2273C190.863 32 190.783 31.8097 190.624 31.6562C190.465 31.5 190.221 31.3835 189.891 31.3068L188.8 31.0511C188.201 30.9091 187.761 30.6889 187.479 30.3906C187.201 30.0895 187.062 29.7131 187.062 29.2614C187.062 28.892 187.165 28.5653 187.373 28.2812C187.583 27.9972 187.869 27.7741 188.229 27.6122C188.593 27.4503 189.005 27.3693 189.465 27.3693C190.113 27.3693 190.621 27.5114 190.991 27.7955C191.363 28.0795 191.627 28.4545 191.783 28.9205ZM195.888 34.1364C195.343 34.1364 194.861 33.9986 194.444 33.723C194.026 33.4446 193.699 33.0526 193.463 32.5469C193.228 32.0384 193.11 31.4375 193.11 30.7443C193.11 30.0568 193.228 29.4602 193.463 28.9545C193.699 28.4489 194.027 28.0582 194.448 27.7827C194.868 27.5071 195.354 27.3693 195.905 27.3693C196.331 27.3693 196.668 27.4403 196.915 27.5824C197.165 27.7216 197.355 27.8807 197.486 28.0597C197.62 28.2358 197.723 28.3807 197.797 28.4943H197.882V25.2727H198.888V34H197.917V32.9943H197.797C197.723 33.1136 197.618 33.2642 197.482 33.446C197.346 33.625 197.151 33.7855 196.898 33.9276C196.645 34.0668 196.309 34.1364 195.888 34.1364ZM196.025 33.233C196.428 33.233 196.769 33.1278 197.047 32.9176C197.326 32.7045 197.537 32.4105 197.682 32.0355C197.827 31.6577 197.9 31.2216 197.9 30.7273C197.9 30.2386 197.828 29.8111 197.686 29.4446C197.544 29.0753 197.334 28.7884 197.056 28.5838C196.777 28.3764 196.434 28.2727 196.025 28.2727C195.598 28.2727 195.243 28.3821 194.959 28.6009C194.678 28.8168 194.466 29.1108 194.324 29.483C194.185 29.8523 194.115 30.267 194.115 30.7273C194.115 31.1932 194.186 31.6165 194.328 31.9972C194.473 32.375 194.686 32.6761 194.968 32.9006C195.252 33.1222 195.604 33.233 196.025 33.233ZM202.796 34.1534C202.381 34.1534 202.005 34.0753 201.667 33.919C201.328 33.7599 201.06 33.5312 200.861 33.233C200.662 32.9318 200.563 32.5682 200.563 32.142C200.563 31.767 200.637 31.4631 200.784 31.2301C200.932 30.9943 201.13 30.8097 201.377 30.6761C201.624 30.5426 201.897 30.4432 202.195 30.3778C202.496 30.3097 202.799 30.2557 203.103 30.2159C203.5 30.1648 203.823 30.1264 204.07 30.1009C204.32 30.0724 204.502 30.0256 204.615 29.9602C204.732 29.8949 204.79 29.7812 204.79 29.6193V29.5852C204.79 29.1648 204.675 28.8381 204.445 28.6051C204.218 28.3722 203.873 28.2557 203.409 28.2557C202.929 28.2557 202.553 28.3608 202.28 28.571C202.007 28.7812 201.816 29.0057 201.705 29.2443L200.75 28.9034C200.921 28.5057 201.148 28.196 201.432 27.9744C201.719 27.75 202.032 27.5937 202.37 27.5057C202.711 27.4148 203.046 27.3693 203.375 27.3693C203.586 27.3693 203.827 27.3949 204.1 27.446C204.375 27.4943 204.641 27.5952 204.897 27.7486C205.155 27.902 205.37 28.1335 205.54 28.4432C205.711 28.7528 205.796 29.1676 205.796 29.6875V34H204.79V33.1136H204.739C204.671 33.2557 204.557 33.4077 204.398 33.5696C204.239 33.7315 204.027 33.8693 203.763 33.983C203.499 34.0966 203.176 34.1534 202.796 34.1534ZM202.949 33.25C203.347 33.25 203.682 33.1719 203.955 33.0156C204.23 32.8594 204.438 32.6577 204.577 32.4105C204.719 32.1634 204.79 31.9034 204.79 31.6307V30.7102C204.748 30.7614 204.654 30.8082 204.509 30.8509C204.367 30.8906 204.202 30.9261 204.015 30.9574C203.83 30.9858 203.65 31.0114 203.473 31.0341C203.3 31.054 203.159 31.071 203.051 31.0852C202.79 31.1193 202.546 31.1747 202.319 31.2514C202.094 31.3253 201.912 31.4375 201.773 31.5881C201.637 31.7358 201.569 31.9375 201.569 32.1932C201.569 32.5426 201.698 32.8068 201.956 32.9858C202.218 33.1619 202.549 33.25 202.949 33.25ZM208.045 36.4545C207.874 36.4545 207.722 36.4403 207.589 36.4119C207.455 36.3864 207.363 36.3608 207.312 36.3352L207.567 35.4489C207.812 35.5114 208.028 35.5341 208.215 35.517C208.403 35.5 208.569 35.4162 208.714 35.2656C208.862 35.1179 208.996 34.8778 209.119 34.5455L209.306 34.0341L206.886 27.4545H207.977L209.783 32.6705H209.852L211.658 27.4545H212.749L209.971 34.9545C209.846 35.2926 209.691 35.5724 209.506 35.794C209.322 36.0185 209.107 36.1847 208.863 36.2926C208.621 36.4006 208.349 36.4545 208.045 36.4545ZM220.503 25.2727V34H219.446V26.3807H219.395L217.264 27.7955V26.7216L219.446 25.2727H220.503ZM226.081 25.2727V34H225.024V26.3807H224.973L222.842 27.7955V26.7216L225.024 25.2727H226.081ZM229.341 32.8835C229.131 32.8835 228.95 32.8082 228.8 32.6577C228.649 32.5071 228.574 32.3267 228.574 32.1165C228.574 31.9062 228.649 31.7259 228.8 31.5753C228.95 31.4247 229.131 31.3494 229.341 31.3494C229.551 31.3494 229.732 31.4247 229.882 31.5753C230.033 31.7259 230.108 31.9062 230.108 32.1165C230.108 32.2557 230.072 32.3835 230.001 32.5C229.933 32.6165 229.841 32.7102 229.724 32.7812C229.611 32.8494 229.483 32.8835 229.341 32.8835ZM229.341 28.4688C229.131 28.4688 228.95 28.3935 228.8 28.2429C228.649 28.0923 228.574 27.9119 228.574 27.7017C228.574 27.4915 228.649 27.3111 228.8 27.1605C228.95 27.0099 229.131 26.9347 229.341 26.9347C229.551 26.9347 229.732 27.0099 229.882 27.1605C230.033 27.3111 230.108 27.4915 230.108 27.7017C230.108 27.8409 230.072 27.9688 230.001 28.0852C229.933 28.2017 229.841 28.2955 229.724 28.3665C229.611 28.4347 229.483 28.4688 229.341 28.4688ZM231.691 32.2102V31.3409L235.526 25.2727H236.157V26.6193H235.731L232.833 31.2045V31.2727H237.998V32.2102H231.691ZM235.799 34V31.946V31.5412V25.2727H236.805V34H235.799ZM242.546 25.2727V34H241.489V26.3807H241.438L239.307 27.7955V26.7216L241.489 25.2727H242.546ZM246.999 34.1534C246.584 34.1534 246.208 34.0753 245.87 33.919C245.532 33.7599 245.263 33.5312 245.064 33.233C244.865 32.9318 244.766 32.5682 244.766 32.142C244.766 31.767 244.84 31.4631 244.988 31.2301C245.135 30.9943 245.333 30.8097 245.58 30.6761C245.827 30.5426 246.1 30.4432 246.398 30.3778C246.699 30.3097 247.002 30.2557 247.306 30.2159C247.703 30.1648 248.026 30.1264 248.273 30.1009C248.523 30.0724 248.705 30.0256 248.819 29.9602C248.935 29.8949 248.993 29.7812 248.993 29.6193V29.5852C248.993 29.1648 248.878 28.8381 248.648 28.6051C248.421 28.3722 248.076 28.2557 247.613 28.2557C247.132 28.2557 246.756 28.3608 246.483 28.571C246.211 28.7812 246.019 29.0057 245.908 29.2443L244.953 28.9034C245.124 28.5057 245.351 28.196 245.635 27.9744C245.922 27.75 246.235 27.5937 246.573 27.5057C246.914 27.4148 247.249 27.3693 247.578 27.3693C247.789 27.3693 248.03 27.3949 248.303 27.446C248.578 27.4943 248.844 27.5952 249.1 27.7486C249.358 27.902 249.573 28.1335 249.743 28.4432C249.914 28.7528 249.999 29.1676 249.999 29.6875V34H248.993V33.1136H248.942C248.874 33.2557 248.76 33.4077 248.601 33.5696C248.442 33.7315 248.23 33.8693 247.966 33.983C247.702 34.0966 247.38 34.1534 246.999 34.1534ZM247.152 33.25C247.55 33.25 247.885 33.1719 248.158 33.0156C248.434 32.8594 248.641 32.6577 248.78 32.4105C248.922 32.1634 248.993 31.9034 248.993 31.6307V30.7102C248.951 30.7614 248.857 30.8082 248.712 30.8509C248.57 30.8906 248.405 30.9261 248.218 30.9574C248.033 30.9858 247.853 31.0114 247.676 31.0341C247.503 31.054 247.363 31.071 247.255 31.0852C246.993 31.1193 246.749 31.1747 246.522 31.2514C246.297 31.3253 246.115 31.4375 245.976 31.5881C245.84 31.7358 245.772 31.9375 245.772 32.1932C245.772 32.5426 245.901 32.8068 246.159 32.9858C246.421 33.1619 246.752 33.25 247.152 33.25ZM251.835 34V27.4545H252.806V28.4773H252.891C253.028 28.1278 253.248 27.8565 253.552 27.6634C253.856 27.4673 254.221 27.3693 254.647 27.3693C255.079 27.3693 255.438 27.4673 255.725 27.6634C256.015 27.8565 256.241 28.1278 256.403 28.4773H256.471C256.638 28.1392 256.89 27.8707 257.225 27.6719C257.56 27.4702 257.962 27.3693 258.431 27.3693C259.016 27.3693 259.495 27.5526 259.867 27.919C260.239 28.2827 260.425 28.8494 260.425 29.6193V34H259.42V29.6193C259.42 29.1364 259.288 28.7912 259.023 28.5838C258.759 28.3764 258.448 28.2727 258.09 28.2727C257.63 28.2727 257.273 28.4119 257.021 28.6903C256.768 28.9659 256.641 29.3153 256.641 29.7386V34H255.619V29.517C255.619 29.1449 255.498 28.8452 255.256 28.6179C255.015 28.3878 254.704 28.2727 254.323 28.2727C254.062 28.2727 253.817 28.3423 253.59 28.4815C253.366 28.6207 253.184 28.8139 253.045 29.0611C252.908 29.3054 252.84 29.5881 252.84 29.9091V34H251.835Z" fill="#475467"/>
<path d="M19 54C19 49.5817 22.5817 46 27 46H262V78C262 82.4183 258.418 86 254 86H27C22.5817 86 19 82.4183 19 78V54Z" fill="#212121"/>
<path d="M33.6761 64V63.1051C33.6761 62.8333 33.7242 62.545 33.8203 62.2401C33.9197 61.9318 34.0623 61.6352 34.2479 61.3501C34.4368 61.0618 34.6638 60.8116 34.929 60.5994L35.5653 61.1165C35.3565 61.4148 35.1742 61.7263 35.0185 62.0511C34.866 62.3726 34.7898 62.7173 34.7898 63.0852V64H33.6761ZM36.2216 64V63.1051C36.2216 62.8333 36.2696 62.545 36.3658 62.2401C36.4652 61.9318 36.6077 61.6352 36.7933 61.3501C36.9822 61.0618 37.2093 60.8116 37.4744 60.5994L38.1108 61.1165C37.902 61.4148 37.7197 61.7263 37.5639 62.0511C37.4115 62.3726 37.3352 62.7173 37.3352 63.0852V64H36.2216ZM41.4144 71L38.6303 60.8182H39.8832L42.011 69.1108H42.1104L44.2781 60.8182H45.6701L47.8377 69.1108H47.9371L50.065 60.8182H51.3178L48.5337 71H47.261L45.0138 62.8864H44.9343L42.6871 71H41.4144ZM53.8683 66.4062V71H52.695V60.8182H53.8683V64.5568H53.9677C54.1467 64.1624 54.4151 63.8492 54.7731 63.6172C55.1344 63.3819 55.6149 63.2642 56.2148 63.2642C56.7352 63.2642 57.1909 63.3686 57.582 63.5774C57.9731 63.7829 58.2764 64.0994 58.4918 64.527C58.7106 64.9512 58.82 65.4915 58.82 66.1477V71H57.6467V66.2273C57.6467 65.6207 57.4892 65.1518 57.1744 64.8203C56.8628 64.4856 56.4303 64.3182 55.8768 64.3182C55.4923 64.3182 55.1476 64.3994 54.8427 64.5618C54.5411 64.7242 54.3024 64.9612 54.1268 65.2727C53.9544 65.5843 53.8683 65.9621 53.8683 66.4062ZM61.4487 73.8636C61.2498 73.8636 61.0725 73.8471 60.9167 73.8139C60.7609 73.7841 60.6532 73.7543 60.5936 73.7244L60.8919 72.6903C61.1769 72.7633 61.4288 72.7898 61.6475 72.7699C61.8663 72.75 62.0602 72.6522 62.2292 72.4766C62.4016 72.3042 62.559 72.0241 62.7015 71.6364L62.9203 71.0398L60.0964 63.3636H61.3691L63.4771 69.4489H63.5566L65.6646 63.3636H66.9373L63.6958 72.1136C63.55 72.508 63.3694 72.8345 63.1539 73.093C62.9385 73.3549 62.6883 73.5488 62.4032 73.6747C62.1215 73.8007 61.8033 73.8636 61.4487 73.8636ZM75.307 71.1591C74.6706 71.1591 74.1088 70.9983 73.6216 70.6768C73.1344 70.352 72.7533 69.8946 72.4782 69.3047C72.2031 68.7114 72.0655 68.0104 72.0655 67.2017C72.0655 66.3996 72.2031 65.7036 72.4782 65.1136C72.7533 64.5237 73.1361 64.0679 73.6266 63.7464C74.1171 63.425 74.6839 63.2642 75.3269 63.2642C75.824 63.2642 76.2168 63.3471 76.5051 63.5128C76.7968 63.6752 77.0189 63.8608 77.1713 64.0696C77.3271 64.2751 77.4481 64.4441 77.5343 64.5767H77.6337V60.8182H78.807V71H77.6735V69.8267H77.5343C77.4481 69.9659 77.3255 70.1416 77.1664 70.3537C77.0073 70.5625 76.7802 70.7498 76.4853 70.9155C76.1903 71.0779 75.7975 71.1591 75.307 71.1591ZM75.4661 70.1051C75.9367 70.1051 76.3345 69.9825 76.6593 69.7372C76.9841 69.4886 77.231 69.1456 77.4 68.7081C77.5691 68.2673 77.6536 67.7585 77.6536 67.1818C77.6536 66.6117 77.5707 66.1129 77.405 65.6854C77.2393 65.2545 76.994 64.9197 76.6692 64.6811C76.3444 64.4392 75.9434 64.3182 75.4661 64.3182C74.9689 64.3182 74.5546 64.4458 74.2232 64.701C73.8951 64.9529 73.6481 65.2959 73.4824 65.7301C73.32 66.161 73.2388 66.6449 73.2388 67.1818C73.2388 67.7254 73.3217 68.2192 73.4874 68.6634C73.6564 69.1042 73.905 69.4555 74.2331 69.7173C74.5646 69.9759 74.9756 70.1051 75.4661 70.1051ZM81.1188 71V63.3636H82.2921V71H81.1188ZM81.7154 62.0909C81.4867 62.0909 81.2895 62.013 81.1238 61.8572C80.9614 61.7015 80.8801 61.5142 80.8801 61.2955C80.8801 61.0767 80.9614 60.8894 81.1238 60.7337C81.2895 60.5779 81.4867 60.5 81.7154 60.5C81.9441 60.5 82.1396 60.5779 82.302 60.7337C82.4677 60.8894 82.5506 61.0767 82.5506 61.2955C82.5506 61.5142 82.4677 61.7015 82.302 61.8572C82.1396 62.013 81.9441 62.0909 81.7154 62.0909ZM87.3246 71.1591C86.6882 71.1591 86.1264 70.9983 85.6392 70.6768C85.152 70.352 84.7708 69.8946 84.4957 69.3047C84.2206 68.7114 84.0831 68.0104 84.0831 67.2017C84.0831 66.3996 84.2206 65.7036 84.4957 65.1136C84.7708 64.5237 85.1536 64.0679 85.6442 63.7464C86.1347 63.425 86.7015 63.2642 87.3445 63.2642C87.8416 63.2642 88.2344 63.3471 88.5227 63.5128C88.8144 63.6752 89.0365 63.8608 89.1889 64.0696C89.3447 64.2751 89.4657 64.4441 89.5518 64.5767H89.6513V60.8182H90.8246V71H89.6911V69.8267H89.5518C89.4657 69.9659 89.343 70.1416 89.1839 70.3537C89.0249 70.5625 88.7978 70.7498 88.5028 70.9155C88.2079 71.0779 87.8151 71.1591 87.3246 71.1591ZM87.4837 70.1051C87.9543 70.1051 88.352 69.9825 88.6768 69.7372C89.0017 69.4886 89.2486 69.1456 89.4176 68.7081C89.5866 68.2673 89.6712 67.7585 89.6712 67.1818C89.6712 66.6117 89.5883 66.1129 89.4226 65.6854C89.2569 65.2545 89.0116 64.9197 88.6868 64.6811C88.362 64.4392 87.9609 64.3182 87.4837 64.3182C86.9865 64.3182 86.5722 64.4458 86.2408 64.701C85.9126 64.9529 85.6657 65.2959 85.5 65.7301C85.3376 66.161 85.2564 66.6449 85.2564 67.1818C85.2564 67.7254 85.3393 68.2192 85.505 68.6634C85.674 69.1042 85.9226 69.4555 86.2507 69.7173C86.5821 69.9759 86.9931 70.1051 87.4837 70.1051ZM98.804 71L96.4773 63.3636H97.7102L99.3608 69.2102H99.4403L101.071 63.3636H102.324L103.935 69.1903H104.014L105.665 63.3636H106.898L104.571 71H103.418L101.747 65.1335H101.628L99.9574 71H98.804ZM111.391 71.1591C110.655 71.1591 110.02 70.9967 109.487 70.6719C108.956 70.3438 108.547 69.8864 108.259 69.2997C107.974 68.7098 107.831 68.0237 107.831 67.2415C107.831 66.4593 107.974 65.7699 108.259 65.1733C108.547 64.5734 108.948 64.1061 109.462 63.7713C109.979 63.4332 110.582 63.2642 111.271 63.2642C111.669 63.2642 112.062 63.3305 112.45 63.4631C112.838 63.5956 113.191 63.8111 113.509 64.1094C113.827 64.4044 114.08 64.7955 114.269 65.2827C114.458 65.7699 114.553 66.3698 114.553 67.0824V67.5795H108.666V66.5653H113.36C113.36 66.1345 113.273 65.75 113.101 65.4119C112.932 65.0739 112.69 64.8071 112.375 64.6115C112.064 64.416 111.696 64.3182 111.271 64.3182C110.804 64.3182 110.4 64.4342 110.058 64.6662C109.72 64.8949 109.46 65.1932 109.278 65.5611C109.096 65.929 109.004 66.3234 109.004 66.7443V67.4205C109.004 67.9972 109.104 68.486 109.303 68.8871C109.505 69.2848 109.785 69.5881 110.143 69.7969C110.501 70.0024 110.917 70.1051 111.391 70.1051C111.699 70.1051 111.977 70.062 112.226 69.9759C112.478 69.8864 112.695 69.7538 112.877 69.5781C113.06 69.3991 113.2 69.1771 113.3 68.9119L114.433 69.2301C114.314 69.6146 114.114 69.9527 113.832 70.2443C113.55 70.5327 113.202 70.758 112.788 70.9205C112.374 71.0795 111.908 71.1591 111.391 71.1591ZM125.684 65.0739L124.63 65.3722C124.564 65.1965 124.466 65.0258 124.337 64.8601C124.211 64.6911 124.039 64.5518 123.82 64.4425C123.601 64.3331 123.321 64.2784 122.98 64.2784C122.512 64.2784 122.123 64.3861 121.811 64.6016C121.503 64.8137 121.349 65.0838 121.349 65.4119C121.349 65.7036 121.455 65.9339 121.667 66.103C121.879 66.272 122.211 66.4129 122.661 66.5256L123.795 66.804C124.478 66.9697 124.986 67.2232 125.321 67.5646C125.656 67.9027 125.823 68.3385 125.823 68.8722C125.823 69.3097 125.697 69.7008 125.445 70.0455C125.197 70.3902 124.849 70.6619 124.401 70.8608C123.954 71.0597 123.434 71.1591 122.84 71.1591C122.061 71.1591 121.417 70.9901 120.906 70.652C120.396 70.3139 120.073 69.8201 119.937 69.1705L121.051 68.892C121.157 69.303 121.357 69.6113 121.652 69.8168C121.95 70.0223 122.34 70.125 122.82 70.125C123.367 70.125 123.802 70.009 124.123 69.777C124.448 69.5417 124.61 69.2599 124.61 68.9318C124.61 68.6667 124.517 68.4446 124.332 68.2656C124.146 68.0833 123.861 67.9474 123.477 67.858L122.204 67.5597C121.505 67.3939 120.991 67.1371 120.663 66.7891C120.338 66.4377 120.176 65.9986 120.176 65.4716C120.176 65.0407 120.297 64.6596 120.539 64.3281C120.784 63.9967 121.117 63.7365 121.538 63.5476C121.962 63.3587 122.443 63.2642 122.98 63.2642C123.735 63.2642 124.329 63.4299 124.759 63.7614C125.194 64.0928 125.502 64.5303 125.684 65.0739ZM132.402 67.8778V63.3636H133.575V71H132.402V69.7074H132.322C132.143 70.0952 131.865 70.425 131.487 70.6967C131.109 70.9652 130.632 71.0994 130.055 71.0994C129.578 71.0994 129.154 70.995 128.783 70.7862C128.411 70.5741 128.12 70.2559 127.908 69.8317C127.696 69.4041 127.589 68.8655 127.589 68.2159V63.3636H128.763V68.1364C128.763 68.6932 128.919 69.1373 129.23 69.4688C129.545 69.8002 129.946 69.9659 130.433 69.9659C130.725 69.9659 131.022 69.8913 131.323 69.7422C131.628 69.593 131.883 69.3643 132.089 69.0561C132.298 68.7479 132.402 68.3551 132.402 67.8778ZM136.898 66.4062V71H135.724V63.3636H136.858V64.5568H136.957C137.136 64.169 137.408 63.8575 137.773 63.6222C138.137 63.3835 138.608 63.2642 139.184 63.2642C139.702 63.2642 140.154 63.3703 140.542 63.5824C140.93 63.7912 141.231 64.1094 141.447 64.5369C141.662 64.9612 141.77 65.4981 141.77 66.1477V71H140.596V66.2273C140.596 65.6274 140.441 65.16 140.129 64.8253C139.818 64.4872 139.39 64.3182 138.846 64.3182C138.472 64.3182 138.137 64.3994 137.842 64.5618C137.55 64.7242 137.32 64.9612 137.151 65.2727C136.982 65.5843 136.898 65.9621 136.898 66.4062ZM149.323 65.0739L148.269 65.3722C148.203 65.1965 148.105 65.0258 147.975 64.8601C147.85 64.6911 147.677 64.5518 147.458 64.4425C147.24 64.3331 146.96 64.2784 146.618 64.2784C146.151 64.2784 145.761 64.3861 145.45 64.6016C145.142 64.8137 144.988 65.0838 144.988 65.4119C144.988 65.7036 145.094 65.9339 145.306 66.103C145.518 66.272 145.849 66.4129 146.3 66.5256L147.434 66.804C148.116 66.9697 148.625 67.2232 148.96 67.5646C149.295 67.9027 149.462 68.3385 149.462 68.8722C149.462 69.3097 149.336 69.7008 149.084 70.0455C148.836 70.3902 148.488 70.6619 148.04 70.8608C147.593 71.0597 147.072 71.1591 146.479 71.1591C145.7 71.1591 145.056 70.9901 144.545 70.652C144.035 70.3139 143.712 69.8201 143.576 69.1705L144.689 68.892C144.795 69.303 144.996 69.6113 145.291 69.8168C145.589 70.0223 145.979 70.125 146.459 70.125C147.006 70.125 147.44 70.009 147.762 69.777C148.087 69.5417 148.249 69.2599 148.249 68.9318C148.249 68.6667 148.156 68.4446 147.971 68.2656C147.785 68.0833 147.5 67.9474 147.115 67.858L145.843 67.5597C145.143 67.3939 144.63 67.1371 144.301 66.7891C143.977 66.4377 143.814 65.9986 143.814 65.4716C143.814 65.0407 143.935 64.6596 144.177 64.3281C144.422 63.9967 144.756 63.7365 145.176 63.5476C145.601 63.3587 146.081 63.2642 146.618 63.2642C147.374 63.2642 147.967 63.4299 148.398 63.7614C148.832 64.0928 149.141 64.5303 149.323 65.0739ZM154.43 71.1591C153.694 71.1591 153.059 70.9967 152.526 70.6719C151.995 70.3438 151.586 69.8864 151.298 69.2997C151.013 68.7098 150.87 68.0237 150.87 67.2415C150.87 66.4593 151.013 65.7699 151.298 65.1733C151.586 64.5734 151.987 64.1061 152.501 63.7713C153.018 63.4332 153.621 63.2642 154.311 63.2642C154.708 63.2642 155.101 63.3305 155.489 63.4631C155.877 63.5956 156.23 63.8111 156.548 64.1094C156.866 64.4044 157.119 64.7955 157.308 65.2827C157.497 65.7699 157.592 66.3698 157.592 67.0824V67.5795H151.705V66.5653H156.399C156.399 66.1345 156.312 65.75 156.14 65.4119C155.971 65.0739 155.729 64.8071 155.414 64.6115C155.103 64.416 154.735 64.3182 154.311 64.3182C153.843 64.3182 153.439 64.4342 153.097 64.6662C152.759 64.8949 152.499 65.1932 152.317 65.5611C152.135 65.929 152.044 66.3234 152.044 66.7443V67.4205C152.044 67.9972 152.143 68.486 152.342 68.8871C152.544 69.2848 152.824 69.5881 153.182 69.7969C153.54 70.0024 153.956 70.1051 154.43 70.1051C154.738 70.1051 155.017 70.062 155.265 69.9759C155.517 69.8864 155.734 69.7538 155.916 69.5781C156.099 69.3991 156.24 69.1771 156.339 68.9119L157.472 69.2301C157.353 69.6146 157.153 69.9527 156.871 70.2443C156.589 70.5327 156.241 70.758 155.827 70.9205C155.413 71.0795 154.947 71.1591 154.43 71.1591ZM162.698 63.3636V64.358H158.74V63.3636H162.698ZM159.894 61.5341H161.067V68.8125C161.067 69.1439 161.115 69.3925 161.211 69.5582C161.311 69.7206 161.436 69.83 161.589 69.8864C161.745 69.9394 161.909 69.9659 162.081 69.9659C162.21 69.9659 162.316 69.9593 162.399 69.946C162.482 69.9295 162.548 69.9162 162.598 69.9062L162.837 70.9602C162.757 70.9901 162.646 71.0199 162.504 71.0497C162.361 71.0829 162.181 71.0994 161.962 71.0994C161.63 71.0994 161.306 71.0282 160.987 70.8857C160.673 70.7431 160.411 70.526 160.202 70.2344C159.996 69.9427 159.894 69.5748 159.894 69.1307V61.5341ZM168.559 71V60.8182H174.664V61.9119H169.792V65.3523H174.207V66.446H169.792V71H168.559ZM179.258 71.1591C178.522 71.1591 177.887 70.9967 177.354 70.6719C176.824 70.3438 176.414 69.8864 176.126 69.2997C175.841 68.7098 175.698 68.0237 175.698 67.2415C175.698 66.4593 175.841 65.7699 176.126 65.1733C176.414 64.5734 176.815 64.1061 177.329 63.7713C177.846 63.4332 178.449 63.2642 179.139 63.2642C179.536 63.2642 179.929 63.3305 180.317 63.4631C180.705 63.5956 181.058 63.8111 181.376 64.1094C181.694 64.4044 181.948 64.7955 182.137 65.2827C182.325 65.7699 182.42 66.3698 182.42 67.0824V67.5795H176.534V66.5653H181.227C181.227 66.1345 181.141 65.75 180.968 65.4119C180.799 65.0739 180.557 64.8071 180.242 64.6115C179.931 64.416 179.563 64.3182 179.139 64.3182C178.671 64.3182 178.267 64.4342 177.926 64.6662C177.588 64.8949 177.327 65.1932 177.145 65.5611C176.963 65.929 176.872 66.3234 176.872 66.7443V67.4205C176.872 67.9972 176.971 68.486 177.17 68.8871C177.372 69.2848 177.652 69.5881 178.01 69.7969C178.368 70.0024 178.784 70.1051 179.258 70.1051C179.566 70.1051 179.845 70.062 180.093 69.9759C180.345 69.8864 180.562 69.7538 180.744 69.5781C180.927 69.3991 181.068 69.1771 181.167 68.9119L182.301 69.2301C182.181 69.6146 181.981 69.9527 181.699 70.2443C181.417 70.5327 181.069 70.758 180.655 70.9205C180.241 71.0795 179.775 71.1591 179.258 71.1591ZM186.452 71.179C185.968 71.179 185.529 71.0878 185.134 70.9055C184.74 70.7199 184.427 70.4531 184.195 70.1051C183.963 69.7538 183.847 69.3295 183.847 68.8324C183.847 68.3949 183.933 68.0402 184.105 67.7685C184.278 67.4934 184.508 67.2779 184.796 67.1222C185.085 66.9664 185.403 66.8504 185.751 66.7741C186.102 66.6946 186.455 66.6316 186.81 66.5852C187.274 66.5256 187.65 66.4808 187.938 66.451C188.23 66.4179 188.442 66.3632 188.575 66.2869C188.711 66.2107 188.779 66.0781 188.779 65.8892V65.8494C188.779 65.3589 188.644 64.9777 188.376 64.706C188.111 64.4342 187.708 64.2983 187.168 64.2983C186.608 64.2983 186.169 64.4209 185.85 64.6662C185.532 64.9115 185.308 65.1733 185.179 65.4517L184.066 65.054C184.264 64.59 184.53 64.2287 184.861 63.9702C185.196 63.7083 185.56 63.526 185.955 63.4233C186.352 63.3172 186.744 63.2642 187.128 63.2642C187.373 63.2642 187.655 63.294 187.973 63.3537C188.295 63.41 188.605 63.5277 188.903 63.7067C189.204 63.8857 189.455 64.1558 189.654 64.517C189.852 64.8783 189.952 65.3622 189.952 65.9688V71H188.779V69.9659H188.719C188.639 70.1316 188.507 70.3089 188.321 70.4979C188.136 70.6868 187.889 70.8475 187.58 70.9801C187.272 71.1127 186.896 71.179 186.452 71.179ZM186.631 70.125C187.095 70.125 187.486 70.0339 187.804 69.8516C188.126 69.6693 188.368 69.4339 188.53 69.1456C188.696 68.8572 188.779 68.554 188.779 68.2358V67.1619C188.729 67.2216 188.619 67.2763 188.45 67.326C188.285 67.3724 188.093 67.4138 187.874 67.4503C187.658 67.4834 187.448 67.5133 187.242 67.5398C187.04 67.563 186.876 67.5829 186.75 67.5994C186.445 67.6392 186.16 67.7038 185.895 67.7933C185.633 67.8795 185.421 68.0104 185.259 68.1861C185.1 68.3584 185.02 68.5937 185.02 68.892C185.02 69.2997 185.171 69.608 185.472 69.8168C185.777 70.0223 186.164 70.125 186.631 70.125ZM195.414 63.3636V64.358H191.457V63.3636H195.414ZM192.61 61.5341H193.784V68.8125C193.784 69.1439 193.832 69.3925 193.928 69.5582C194.027 69.7206 194.153 69.83 194.306 69.8864C194.462 69.9394 194.626 69.9659 194.798 69.9659C194.927 69.9659 195.033 69.9593 195.116 69.946C195.199 69.9295 195.265 69.9162 195.315 69.9062L195.554 70.9602C195.474 70.9901 195.363 71.0199 195.221 71.0497C195.078 71.0829 194.897 71.0994 194.679 71.0994C194.347 71.0994 194.022 71.0282 193.704 70.8857C193.389 70.7431 193.127 70.526 192.919 70.2344C192.713 69.9427 192.61 69.5748 192.61 69.1307V61.5341ZM201.992 67.8778V63.3636H203.165V71H201.992V69.7074H201.912C201.733 70.0952 201.455 70.425 201.077 70.6967C200.699 70.9652 200.222 71.0994 199.645 71.0994C199.168 71.0994 198.744 70.995 198.373 70.7862C198.001 70.5741 197.71 70.2559 197.498 69.8317C197.285 69.4041 197.179 68.8655 197.179 68.2159V63.3636H198.353V68.1364C198.353 68.6932 198.508 69.1373 198.82 69.4688C199.135 69.8002 199.536 69.9659 200.023 69.9659C200.315 69.9659 200.611 69.8913 200.913 69.7422C201.218 69.593 201.473 69.3643 201.679 69.0561C201.887 68.7479 201.992 68.3551 201.992 67.8778ZM205.314 71V63.3636H206.448V64.517H206.527C206.666 64.1392 206.918 63.8326 207.283 63.5973C207.647 63.362 208.058 63.2443 208.516 63.2443C208.602 63.2443 208.71 63.246 208.839 63.2493C208.968 63.2526 209.066 63.2576 209.132 63.2642V64.4574C209.093 64.4474 209.001 64.4325 208.859 64.4126C208.72 64.3894 208.572 64.3778 208.416 64.3778C208.045 64.3778 207.714 64.4557 207.422 64.6115C207.134 64.764 206.905 64.9761 206.736 65.2479C206.57 65.5163 206.487 65.8229 206.487 66.1676V71H205.314ZM213.492 71.1591C212.757 71.1591 212.122 70.9967 211.588 70.6719C211.058 70.3438 210.649 69.8864 210.36 69.2997C210.075 68.7098 209.933 68.0237 209.933 67.2415C209.933 66.4593 210.075 65.7699 210.36 65.1733C210.649 64.5734 211.05 64.1061 211.563 63.7713C212.08 63.4332 212.684 63.2642 213.373 63.2642C213.771 63.2642 214.164 63.3305 214.551 63.4631C214.939 63.5956 215.292 63.8111 215.61 64.1094C215.928 64.4044 216.182 64.7955 216.371 65.2827C216.56 65.7699 216.654 66.3698 216.654 67.0824V67.5795H210.768V66.5653H215.461C215.461 66.1345 215.375 65.75 215.203 65.4119C215.034 65.0739 214.792 64.8071 214.477 64.6115C214.165 64.416 213.797 64.3182 213.373 64.3182C212.906 64.3182 212.501 64.4342 212.16 64.6662C211.822 64.8949 211.562 65.1932 211.379 65.5611C211.197 65.929 211.106 66.3234 211.106 66.7443V67.4205C211.106 67.9972 211.205 68.486 211.404 68.8871C211.606 69.2848 211.887 69.5881 212.244 69.7969C212.602 70.0024 213.018 70.1051 213.492 70.1051C213.801 70.1051 214.079 70.062 214.328 69.9759C214.579 69.8864 214.797 69.7538 214.979 69.5781C215.161 69.3991 215.302 69.1771 215.401 68.9119L216.535 69.2301C216.416 69.6146 216.215 69.9527 215.933 70.2443C215.652 70.5327 215.304 70.758 214.889 70.9205C214.475 71.0795 214.009 71.1591 213.492 71.1591ZM223.132 60.8182L225.757 65.054H225.837L228.462 60.8182H229.914L226.712 65.9091L229.914 71H228.462L225.837 66.8438H225.757L223.132 71H221.681L224.962 65.9091L221.681 60.8182H223.132ZM232.89 68.1364V68.0767C232.897 67.4437 232.963 66.9399 233.089 66.5653C233.215 66.1908 233.394 65.8875 233.626 65.6555C233.858 65.4235 234.136 65.2098 234.461 65.0142C234.657 64.8949 234.833 64.754 234.988 64.5916C235.144 64.4259 235.267 64.2353 235.356 64.0199C235.449 63.8045 235.495 63.5658 235.495 63.304C235.495 62.9792 235.419 62.6974 235.267 62.4588C235.114 62.2202 234.91 62.0362 234.655 61.907C234.4 61.7777 234.117 61.7131 233.805 61.7131C233.533 61.7131 233.271 61.7694 233.02 61.8821C232.768 61.9948 232.557 62.1721 232.388 62.4141C232.219 62.656 232.121 62.9725 232.095 63.3636H230.842C230.868 62.8002 231.014 62.3179 231.279 61.9169C231.548 61.5159 231.901 61.2093 232.338 60.9972C232.779 60.785 233.268 60.679 233.805 60.679C234.388 60.679 234.895 60.795 235.326 61.027C235.761 61.259 236.095 61.5772 236.331 61.9815C236.569 62.3859 236.689 62.8466 236.689 63.3636C236.689 63.7282 236.632 64.058 236.52 64.353C236.41 64.648 236.251 64.9115 236.042 65.1435C235.837 65.3755 235.588 65.581 235.297 65.7599C235.005 65.9422 234.771 66.1345 234.596 66.3366C234.42 66.5355 234.292 66.7725 234.213 67.0476C234.133 67.3227 234.09 67.6657 234.083 68.0767V68.1364H232.89ZM233.527 71.0795C233.281 71.0795 233.071 70.9917 232.895 70.8161C232.72 70.6404 232.632 70.4299 232.632 70.1847C232.632 69.9394 232.72 69.7289 232.895 69.5533C233.071 69.3776 233.281 69.2898 233.527 69.2898C233.772 69.2898 233.982 69.3776 234.158 69.5533C234.334 69.7289 234.422 69.9394 234.422 70.1847C234.422 70.3471 234.38 70.4962 234.297 70.6321C234.218 70.768 234.11 70.8774 233.974 70.9602C233.842 71.0398 233.692 71.0795 233.527 71.0795ZM239.489 60.8182V61.7131C239.489 61.9848 239.439 62.2749 239.34 62.5831C239.244 62.888 239.101 63.1847 238.912 63.473C238.727 63.758 238.501 64.0066 238.236 64.2188L237.6 63.7017C237.808 63.4034 237.989 63.0935 238.142 62.772C238.297 62.4472 238.375 62.1009 238.375 61.733V60.8182H239.489ZM242.034 60.8182V61.7131C242.034 61.9848 241.985 62.2749 241.885 62.5831C241.789 62.888 241.646 63.1847 241.458 63.473C241.272 63.758 241.047 64.0066 240.781 64.2188L240.145 63.7017C240.354 63.4034 240.535 63.0935 240.687 62.772C240.843 62.4472 240.921 62.1009 240.921 61.733V60.8182H242.034Z" fill="white"/>
</g>
</g>
</g>
<rect x="0.5" y="0.5" width="279" height="207" rx="11.5" stroke="#E9EBF1"/>
</g>
<defs>
<clipPath id="clip0_333_15205">
<rect width="280" height="208" rx="12" fill="white"/>
</clipPath>
<clipPath id="clip1_333_15205">
<rect width="280" height="208" rx="12" fill="white"/>
</clipPath>
<clipPath id="clip2_333_15205">
<rect width="280" height="208" fill="white"/>
</clipPath>
<clipPath id="clip3_333_15205">
<rect width="280" height="208" fill="white" transform="translate(0 8)"/>
</clipPath>
</defs>
</svg>
