<svg width="432" height="266" viewBox="0 0 432 266" fill="none" xmlns="http://www.w3.org/2000/svg">
<g filter="url(#filter0_dd_333_15205)">
<g clip-path="url(#clip0_333_15205)">
<rect x="56" y="30" width="280" height="208" rx="12" fill="white" fill-opacity="0.01" shape-rendering="crispEdges"/>
<g clip-path="url(#clip1_333_15205)">
<g clip-path="url(#clip2_333_15205)">
<g clip-path="url(#clip3_333_15205)">
<path d="M56 38H336V246H56V38Z" fill="white"/>
<path d="M81.9787 155H80.348L84.0121 144.818H85.7869L89.451 155H87.8203L84.9418 146.668H84.8622L81.9787 155ZM82.2521 151.013H87.5419V152.305H82.2521V151.013ZM92.4576 144.818V155H90.9213V144.818H92.4576Z" fill="#344054"/>
<path d="M270.398 145.273H271.455V151.511C271.455 152.068 271.352 152.541 271.148 152.93C270.943 153.32 270.655 153.615 270.283 153.817C269.911 154.018 269.472 154.119 268.966 154.119C268.489 154.119 268.064 154.033 267.692 153.859C267.32 153.683 267.027 153.433 266.814 153.109C266.601 152.786 266.494 152.401 266.494 151.955H267.534C267.534 152.202 267.595 152.418 267.717 152.602C267.842 152.784 268.013 152.926 268.229 153.028C268.445 153.131 268.69 153.182 268.966 153.182C269.27 153.182 269.528 153.118 269.741 152.99C269.955 152.862 270.116 152.675 270.227 152.428C270.341 152.178 270.398 151.872 270.398 151.511V145.273ZM277.561 151.324V147.455H278.567V154H277.561V152.892H277.493C277.339 153.224 277.101 153.507 276.777 153.74C276.453 153.97 276.044 154.085 275.55 154.085C275.141 154.085 274.777 153.996 274.459 153.817C274.141 153.635 273.891 153.362 273.709 152.999C273.527 152.632 273.436 152.17 273.436 151.614V147.455H274.442V151.545C274.442 152.023 274.575 152.403 274.842 152.688C275.112 152.972 275.456 153.114 275.874 153.114C276.124 153.114 276.378 153.05 276.636 152.922C276.898 152.794 277.116 152.598 277.293 152.334C277.472 152.07 277.561 151.733 277.561 151.324ZM285.045 148.92L284.142 149.176C284.085 149.026 284.001 148.879 283.89 148.737C283.782 148.592 283.635 148.473 283.447 148.379C283.26 148.286 283.02 148.239 282.727 148.239C282.326 148.239 281.993 148.331 281.725 148.516C281.461 148.697 281.329 148.929 281.329 149.21C281.329 149.46 281.42 149.658 281.602 149.803C281.784 149.947 282.068 150.068 282.454 150.165L283.426 150.403C284.011 150.545 284.447 150.763 284.734 151.055C285.021 151.345 285.164 151.719 285.164 152.176C285.164 152.551 285.056 152.886 284.841 153.182C284.627 153.477 284.329 153.71 283.946 153.881C283.562 154.051 283.116 154.136 282.608 154.136C281.94 154.136 281.387 153.991 280.95 153.702C280.512 153.412 280.235 152.989 280.119 152.432L281.074 152.193C281.164 152.545 281.336 152.81 281.589 152.986C281.845 153.162 282.179 153.25 282.591 153.25C283.059 153.25 283.431 153.151 283.707 152.952C283.985 152.75 284.125 152.509 284.125 152.227C284.125 152 284.045 151.81 283.886 151.656C283.727 151.5 283.483 151.384 283.153 151.307L282.062 151.051C281.463 150.909 281.022 150.689 280.741 150.391C280.463 150.089 280.324 149.713 280.324 149.261C280.324 148.892 280.427 148.565 280.635 148.281C280.845 147.997 281.13 147.774 281.491 147.612C281.855 147.45 282.267 147.369 282.727 147.369C283.375 147.369 283.883 147.511 284.252 147.795C284.625 148.08 284.889 148.455 285.045 148.92ZM289.525 147.455V148.307H286.133V147.455H289.525ZM287.121 145.886H288.127V152.125C288.127 152.409 288.168 152.622 288.251 152.764C288.336 152.903 288.444 152.997 288.575 153.045C288.708 153.091 288.849 153.114 288.996 153.114C289.107 153.114 289.198 153.108 289.269 153.097C289.34 153.082 289.397 153.071 289.44 153.062L289.644 153.966C289.576 153.991 289.481 154.017 289.359 154.043C289.237 154.071 289.082 154.085 288.894 154.085C288.61 154.085 288.332 154.024 288.059 153.902C287.789 153.78 287.565 153.594 287.386 153.344C287.21 153.094 287.121 152.778 287.121 152.398V145.886ZM295.418 150.062V154H294.413V147.455H295.384V148.477H295.469C295.623 148.145 295.856 147.878 296.168 147.676C296.481 147.472 296.884 147.369 297.379 147.369C297.822 147.369 298.21 147.46 298.542 147.642C298.874 147.821 299.133 148.094 299.317 148.46C299.502 148.824 299.594 149.284 299.594 149.841V154H298.589V149.909C298.589 149.395 298.455 148.994 298.188 148.707C297.921 148.418 297.555 148.273 297.089 148.273C296.768 148.273 296.481 148.342 296.228 148.482C295.978 148.621 295.781 148.824 295.636 149.091C295.491 149.358 295.418 149.682 295.418 150.062ZM304.091 154.136C303.5 154.136 302.982 153.996 302.536 153.714C302.093 153.433 301.746 153.04 301.496 152.534C301.249 152.028 301.125 151.437 301.125 150.761C301.125 150.08 301.249 149.484 301.496 148.976C301.746 148.467 302.093 148.072 302.536 147.791C302.982 147.51 303.5 147.369 304.091 147.369C304.682 147.369 305.199 147.51 305.642 147.791C306.088 148.072 306.435 148.467 306.682 148.976C306.932 149.484 307.057 150.08 307.057 150.761C307.057 151.437 306.932 152.028 306.682 152.534C306.435 153.04 306.088 153.433 305.642 153.714C305.199 153.996 304.682 154.136 304.091 154.136ZM304.091 153.233C304.54 153.233 304.909 153.118 305.199 152.888C305.489 152.658 305.703 152.355 305.843 151.98C305.982 151.605 306.051 151.199 306.051 150.761C306.051 150.324 305.982 149.916 305.843 149.538C305.703 149.161 305.489 148.855 305.199 148.622C304.909 148.389 304.54 148.273 304.091 148.273C303.642 148.273 303.273 148.389 302.983 148.622C302.694 148.855 302.479 149.161 302.34 149.538C302.201 149.916 302.131 150.324 302.131 150.761C302.131 151.199 302.201 151.605 302.34 151.98C302.479 152.355 302.694 152.658 302.983 152.888C303.273 153.118 303.642 153.233 304.091 153.233ZM309.853 154L307.858 147.455H308.915L310.33 152.466H310.398L311.796 147.455H312.87L314.25 152.449H314.319L315.733 147.455H316.79L314.796 154H313.807L312.375 148.972H312.273L310.841 154H309.853Z" fill="#475467"/>
<path d="M310 166.5C314.142 166.5 317.5 169.858 317.5 174V198C317.5 202.142 314.142 205.5 310 205.5H88C83.8579 205.5 80.5 202.142 80.5 198V166.5H310Z" fill="#F9FAFB"/>
<path d="M310 166.5C314.142 166.5 317.5 169.858 317.5 174V198C317.5 202.142 314.142 205.5 310 205.5H88C83.8579 205.5 80.5 202.142 80.5 198V166.5H310Z" stroke="#EAECF0"/>
<path d="M100.801 183.364C100.741 182.86 100.5 182.469 100.075 182.19C99.651 181.912 99.1307 181.773 98.5142 181.773C98.0634 181.773 97.669 181.846 97.331 181.991C96.9962 182.137 96.7344 182.338 96.5455 182.593C96.3598 182.848 96.267 183.138 96.267 183.463C96.267 183.735 96.3317 183.969 96.4609 184.164C96.5935 184.356 96.7625 184.517 96.968 184.646C97.1735 184.772 97.389 184.877 97.6143 184.96C97.8397 185.039 98.0469 185.104 98.2358 185.153L99.2699 185.432C99.535 185.501 99.83 185.598 100.155 185.72C100.483 185.843 100.796 186.01 101.094 186.222C101.396 186.431 101.645 186.7 101.84 187.028C102.036 187.356 102.134 187.759 102.134 188.236C102.134 188.786 101.989 189.283 101.701 189.727C101.416 190.171 100.998 190.524 100.448 190.786C99.9013 191.048 99.2367 191.179 98.4545 191.179C97.7254 191.179 97.094 191.061 96.5604 190.826C96.0301 190.591 95.6125 190.263 95.3075 189.842C95.0059 189.421 94.8352 188.932 94.7955 188.375H96.0682C96.1013 188.759 96.2306 189.078 96.456 189.33C96.6847 189.578 96.973 189.764 97.321 189.886C97.6723 190.006 98.0502 190.065 98.4545 190.065C98.9252 190.065 99.3478 189.989 99.7223 189.837C100.097 189.681 100.393 189.465 100.612 189.19C100.831 188.912 100.94 188.587 100.94 188.216C100.94 187.878 100.846 187.603 100.657 187.391C100.468 187.179 100.219 187.006 99.9112 186.874C99.603 186.741 99.2699 186.625 98.9119 186.526L97.6591 186.168C96.8636 185.939 96.2339 185.612 95.7699 185.188C95.3059 184.764 95.0739 184.209 95.0739 183.523C95.0739 182.953 95.228 182.455 95.5362 182.031C95.8478 181.604 96.2654 181.272 96.7891 181.037C97.3161 180.798 97.9044 180.679 98.554 180.679C99.2102 180.679 99.7936 180.797 100.304 181.032C100.814 181.264 101.219 181.582 101.517 181.987C101.819 182.391 101.978 182.85 101.994 183.364H100.801ZM107.203 191.159C106.468 191.159 105.833 190.997 105.299 190.672C104.769 190.344 104.36 189.886 104.071 189.3C103.786 188.71 103.644 188.024 103.644 187.241C103.644 186.459 103.786 185.77 104.071 185.173C104.36 184.573 104.761 184.106 105.274 183.771C105.791 183.433 106.395 183.264 107.084 183.264C107.482 183.264 107.874 183.33 108.262 183.463C108.65 183.596 109.003 183.811 109.321 184.109C109.639 184.404 109.893 184.795 110.082 185.283C110.271 185.77 110.365 186.37 110.365 187.082V187.58H104.479V186.565H109.172C109.172 186.134 109.086 185.75 108.914 185.412C108.744 185.074 108.503 184.807 108.188 184.612C107.876 184.416 107.508 184.318 107.084 184.318C106.617 184.318 106.212 184.434 105.871 184.666C105.533 184.895 105.273 185.193 105.09 185.561C104.908 185.929 104.817 186.323 104.817 186.744V187.42C104.817 187.997 104.916 188.486 105.115 188.887C105.317 189.285 105.597 189.588 105.955 189.797C106.313 190.002 106.729 190.105 107.203 190.105C107.512 190.105 107.79 190.062 108.039 189.976C108.29 189.886 108.508 189.754 108.69 189.578C108.872 189.399 109.013 189.177 109.112 188.912L110.246 189.23C110.127 189.615 109.926 189.953 109.644 190.244C109.363 190.533 109.015 190.758 108.6 190.92C108.186 191.08 107.72 191.159 107.203 191.159ZM114.397 191.179C113.913 191.179 113.474 191.088 113.08 190.906C112.685 190.72 112.372 190.453 112.14 190.105C111.908 189.754 111.792 189.33 111.792 188.832C111.792 188.395 111.878 188.04 112.051 187.768C112.223 187.493 112.453 187.278 112.742 187.122C113.03 186.966 113.348 186.85 113.696 186.774C114.048 186.695 114.401 186.632 114.755 186.585C115.219 186.526 115.595 186.481 115.884 186.451C116.175 186.418 116.387 186.363 116.52 186.287C116.656 186.211 116.724 186.078 116.724 185.889V185.849C116.724 185.359 116.59 184.978 116.321 184.706C116.056 184.434 115.653 184.298 115.113 184.298C114.553 184.298 114.114 184.421 113.796 184.666C113.477 184.911 113.254 185.173 113.124 185.452L112.011 185.054C112.21 184.59 112.475 184.229 112.806 183.97C113.141 183.708 113.506 183.526 113.9 183.423C114.298 183.317 114.689 183.264 115.073 183.264C115.319 183.264 115.6 183.294 115.919 183.354C116.24 183.41 116.55 183.528 116.848 183.707C117.15 183.886 117.4 184.156 117.599 184.517C117.798 184.878 117.897 185.362 117.897 185.969V191H116.724V189.966H116.664C116.585 190.132 116.452 190.309 116.267 190.498C116.081 190.687 115.834 190.848 115.526 190.98C115.218 191.113 114.841 191.179 114.397 191.179ZM114.576 190.125C115.04 190.125 115.431 190.034 115.749 189.852C116.071 189.669 116.313 189.434 116.475 189.146C116.641 188.857 116.724 188.554 116.724 188.236V187.162C116.674 187.222 116.565 187.276 116.396 187.326C116.23 187.372 116.038 187.414 115.819 187.45C115.604 187.483 115.393 187.513 115.188 187.54C114.985 187.563 114.821 187.583 114.695 187.599C114.391 187.639 114.106 187.704 113.84 187.793C113.579 187.879 113.366 188.01 113.204 188.186C113.045 188.358 112.965 188.594 112.965 188.892C112.965 189.3 113.116 189.608 113.418 189.817C113.723 190.022 114.109 190.125 114.576 190.125ZM120.039 191V183.364H121.172V184.517H121.252C121.391 184.139 121.643 183.833 122.007 183.597C122.372 183.362 122.783 183.244 123.24 183.244C123.327 183.244 123.434 183.246 123.564 183.249C123.693 183.253 123.791 183.258 123.857 183.264V184.457C123.817 184.447 123.726 184.433 123.583 184.413C123.444 184.389 123.297 184.378 123.141 184.378C122.77 184.378 122.438 184.456 122.147 184.612C121.858 184.764 121.63 184.976 121.461 185.248C121.295 185.516 121.212 185.823 121.212 186.168V191H120.039ZM128.118 191.159C127.402 191.159 126.785 190.99 126.268 190.652C125.751 190.314 125.353 189.848 125.075 189.255C124.797 188.662 124.657 187.984 124.657 187.222C124.657 186.446 124.8 185.762 125.085 185.168C125.373 184.572 125.774 184.106 126.288 183.771C126.805 183.433 127.408 183.264 128.098 183.264C128.635 183.264 129.118 183.364 129.549 183.562C129.98 183.761 130.333 184.04 130.608 184.398C130.883 184.756 131.054 185.173 131.12 185.651H129.947C129.858 185.303 129.659 184.994 129.35 184.726C129.046 184.454 128.635 184.318 128.118 184.318C127.66 184.318 127.259 184.437 126.914 184.676C126.573 184.911 126.306 185.245 126.114 185.675C125.925 186.103 125.831 186.605 125.831 187.182C125.831 187.772 125.923 188.286 126.109 188.723C126.298 189.161 126.563 189.5 126.904 189.742C127.249 189.984 127.654 190.105 128.118 190.105C128.422 190.105 128.699 190.052 128.948 189.946C129.196 189.84 129.407 189.688 129.579 189.489C129.752 189.29 129.874 189.051 129.947 188.773H131.12C131.054 189.223 130.89 189.629 130.628 189.991C130.37 190.349 130.027 190.634 129.599 190.846C129.175 191.055 128.681 191.159 128.118 191.159ZM134.009 186.406V191H132.836V180.818H134.009V184.557H134.108C134.287 184.162 134.556 183.849 134.914 183.617C135.275 183.382 135.756 183.264 136.355 183.264C136.876 183.264 137.332 183.369 137.723 183.577C138.114 183.783 138.417 184.099 138.632 184.527C138.851 184.951 138.961 185.491 138.961 186.148V191H137.787V186.227C137.787 185.621 137.63 185.152 137.315 184.82C137.003 184.486 136.571 184.318 136.017 184.318C135.633 184.318 135.288 184.399 134.983 184.562C134.682 184.724 134.443 184.961 134.267 185.273C134.095 185.584 134.009 185.962 134.009 186.406ZM141.107 191V183.364H142.28V191H141.107ZM141.704 182.091C141.475 182.091 141.278 182.013 141.112 181.857C140.95 181.701 140.868 181.514 140.868 181.295C140.868 181.077 140.95 180.889 141.112 180.734C141.278 180.578 141.475 180.5 141.704 180.5C141.932 180.5 142.128 180.578 142.29 180.734C142.456 180.889 142.539 181.077 142.539 181.295C142.539 181.514 142.456 181.701 142.29 181.857C142.128 182.013 141.932 182.091 141.704 182.091ZM145.603 186.406V191H144.429V183.364H145.563V184.557H145.662C145.841 184.169 146.113 183.857 146.478 183.622C146.842 183.384 147.313 183.264 147.89 183.264C148.407 183.264 148.859 183.37 149.247 183.582C149.635 183.791 149.936 184.109 150.152 184.537C150.367 184.961 150.475 185.498 150.475 186.148V191H149.301V186.227C149.301 185.627 149.146 185.16 148.834 184.825C148.523 184.487 148.095 184.318 147.551 184.318C147.177 184.318 146.842 184.399 146.547 184.562C146.256 184.724 146.025 184.961 145.856 185.273C145.687 185.584 145.603 185.962 145.603 186.406ZM155.701 194.023C155.134 194.023 154.647 193.95 154.24 193.804C153.832 193.661 153.492 193.473 153.22 193.237C152.952 193.005 152.738 192.757 152.579 192.491L153.514 191.835C153.62 191.974 153.754 192.134 153.916 192.312C154.079 192.495 154.301 192.652 154.583 192.785C154.868 192.921 155.24 192.989 155.701 192.989C156.318 192.989 156.826 192.839 157.227 192.541C157.628 192.243 157.829 191.776 157.829 191.139V189.588H157.73C157.643 189.727 157.521 189.9 157.362 190.105C157.206 190.307 156.981 190.488 156.686 190.647C156.394 190.803 155.999 190.881 155.502 190.881C154.886 190.881 154.332 190.735 153.842 190.443C153.355 190.152 152.968 189.727 152.683 189.17C152.402 188.614 152.261 187.937 152.261 187.142C152.261 186.36 152.398 185.679 152.673 185.099C152.949 184.515 153.331 184.065 153.822 183.746C154.312 183.425 154.879 183.264 155.522 183.264C156.019 183.264 156.414 183.347 156.705 183.513C157 183.675 157.226 183.861 157.382 184.07C157.541 184.275 157.663 184.444 157.749 184.577H157.869V183.364H159.002V191.219C159.002 191.875 158.853 192.409 158.555 192.82C158.26 193.234 157.862 193.537 157.362 193.729C156.865 193.925 156.311 194.023 155.701 194.023ZM155.661 189.827C156.132 189.827 156.53 189.719 156.855 189.504C157.179 189.288 157.426 188.978 157.595 188.574C157.764 188.17 157.849 187.686 157.849 187.122C157.849 186.572 157.766 186.086 157.6 185.665C157.435 185.245 157.189 184.915 156.865 184.676C156.54 184.437 156.139 184.318 155.661 184.318C155.164 184.318 154.75 184.444 154.419 184.696C154.09 184.948 153.843 185.286 153.678 185.71C153.515 186.134 153.434 186.605 153.434 187.122C153.434 187.652 153.517 188.121 153.683 188.529C153.852 188.933 154.1 189.252 154.428 189.484C154.76 189.712 155.171 189.827 155.661 189.827ZM165.843 193.864C165.644 193.864 165.467 193.847 165.311 193.814C165.155 193.784 165.048 193.754 164.988 193.724L165.286 192.69C165.571 192.763 165.823 192.79 166.042 192.77C166.261 192.75 166.455 192.652 166.624 192.477C166.796 192.304 166.954 192.024 167.096 191.636L167.315 191.04L164.491 183.364H165.764L167.872 189.449H167.951L170.059 183.364H171.332L168.09 192.114C167.945 192.508 167.764 192.835 167.548 193.093C167.333 193.355 167.083 193.549 166.798 193.675C166.516 193.801 166.198 193.864 165.843 193.864ZM175.709 191.159C175.02 191.159 174.415 190.995 173.895 190.667C173.378 190.339 172.973 189.88 172.682 189.29C172.393 188.7 172.249 188.01 172.249 187.222C172.249 186.426 172.393 185.732 172.682 185.138C172.973 184.545 173.378 184.085 173.895 183.756C174.415 183.428 175.02 183.264 175.709 183.264C176.399 183.264 177.002 183.428 177.519 183.756C178.039 184.085 178.444 184.545 178.732 185.138C179.024 185.732 179.17 186.426 179.17 187.222C179.17 188.01 179.024 188.7 178.732 189.29C178.444 189.88 178.039 190.339 177.519 190.667C177.002 190.995 176.399 191.159 175.709 191.159ZM175.709 190.105C176.233 190.105 176.664 189.971 177.002 189.702C177.34 189.434 177.59 189.081 177.753 188.643C177.915 188.206 177.996 187.732 177.996 187.222C177.996 186.711 177.915 186.236 177.753 185.795C177.59 185.354 177.34 184.998 177.002 184.726C176.664 184.454 176.233 184.318 175.709 184.318C175.186 184.318 174.755 184.454 174.417 184.726C174.079 184.998 173.828 185.354 173.666 185.795C173.504 186.236 173.422 186.711 173.422 187.222C173.422 187.732 173.504 188.206 173.666 188.643C173.828 189.081 174.079 189.434 174.417 189.702C174.755 189.971 175.186 190.105 175.709 190.105ZM185.773 187.878V183.364H186.946V191H185.773V189.707H185.694C185.515 190.095 185.236 190.425 184.858 190.697C184.48 190.965 184.003 191.099 183.426 191.099C182.949 191.099 182.525 190.995 182.154 190.786C181.783 190.574 181.491 190.256 181.279 189.832C181.067 189.404 180.961 188.866 180.961 188.216V183.364H182.134V188.136C182.134 188.693 182.29 189.137 182.601 189.469C182.916 189.8 183.317 189.966 183.804 189.966C184.096 189.966 184.393 189.891 184.694 189.742C184.999 189.593 185.254 189.364 185.46 189.056C185.669 188.748 185.773 188.355 185.773 187.878ZM189.095 191V183.364H190.229V184.517H190.308C190.448 184.139 190.7 183.833 191.064 183.597C191.429 183.362 191.84 183.244 192.297 183.244C192.383 183.244 192.491 183.246 192.62 183.249C192.749 183.253 192.847 183.258 192.914 183.264V184.457C192.874 184.447 192.783 184.433 192.64 184.413C192.501 184.389 192.353 184.378 192.198 184.378C191.826 184.378 191.495 184.456 191.203 184.612C190.915 184.764 190.686 184.976 190.517 185.248C190.352 185.516 190.269 185.823 190.269 186.168V191H189.095ZM201.125 191.159C200.489 191.159 199.927 190.998 199.44 190.677C198.953 190.352 198.572 189.895 198.297 189.305C198.021 188.711 197.884 188.01 197.884 187.202C197.884 186.4 198.021 185.704 198.297 185.114C198.572 184.524 198.954 184.068 199.445 183.746C199.935 183.425 200.502 183.264 201.145 183.264C201.642 183.264 202.035 183.347 202.324 183.513C202.615 183.675 202.837 183.861 202.99 184.07C203.145 184.275 203.266 184.444 203.353 184.577H203.452V180.818H204.625V191H203.492V189.827H203.353C203.266 189.966 203.144 190.142 202.985 190.354C202.826 190.562 202.599 190.75 202.304 190.915C202.009 191.078 201.616 191.159 201.125 191.159ZM201.284 190.105C201.755 190.105 202.153 189.982 202.478 189.737C202.802 189.489 203.049 189.146 203.218 188.708C203.387 188.267 203.472 187.759 203.472 187.182C203.472 186.612 203.389 186.113 203.223 185.685C203.058 185.254 202.812 184.92 202.488 184.681C202.163 184.439 201.762 184.318 201.284 184.318C200.787 184.318 200.373 184.446 200.042 184.701C199.713 184.953 199.467 185.296 199.301 185.73C199.138 186.161 199.057 186.645 199.057 187.182C199.057 187.725 199.14 188.219 199.306 188.663C199.475 189.104 199.723 189.455 200.051 189.717C200.383 189.976 200.794 190.105 201.284 190.105ZM210.039 191.159C209.35 191.159 208.745 190.995 208.225 190.667C207.708 190.339 207.303 189.88 207.012 189.29C206.723 188.7 206.579 188.01 206.579 187.222C206.579 186.426 206.723 185.732 207.012 185.138C207.303 184.545 207.708 184.085 208.225 183.756C208.745 183.428 209.35 183.264 210.039 183.264C210.729 183.264 211.332 183.428 211.849 183.756C212.369 184.085 212.774 184.545 213.062 185.138C213.354 185.732 213.5 186.426 213.5 187.222C213.5 188.01 213.354 188.7 213.062 189.29C212.774 189.88 212.369 190.339 211.849 190.667C211.332 190.995 210.729 191.159 210.039 191.159ZM210.039 190.105C210.563 190.105 210.994 189.971 211.332 189.702C211.67 189.434 211.92 189.081 212.083 188.643C212.245 188.206 212.326 187.732 212.326 187.222C212.326 186.711 212.245 186.236 212.083 185.795C211.92 185.354 211.67 184.998 211.332 184.726C210.994 184.454 210.563 184.318 210.039 184.318C209.516 184.318 209.085 184.454 208.747 184.726C208.409 184.998 208.158 185.354 207.996 185.795C207.834 186.236 207.752 186.711 207.752 187.222C207.752 187.732 207.834 188.206 207.996 188.643C208.158 189.081 208.409 189.434 208.747 189.702C209.085 189.971 209.516 190.105 210.039 190.105ZM218.393 191.159C217.677 191.159 217.061 190.99 216.544 190.652C216.026 190.314 215.629 189.848 215.35 189.255C215.072 188.662 214.933 187.984 214.933 187.222C214.933 186.446 215.075 185.762 215.36 185.168C215.649 184.572 216.05 184.106 216.563 183.771C217.08 183.433 217.684 183.264 218.373 183.264C218.91 183.264 219.394 183.364 219.825 183.562C220.256 183.761 220.609 184.04 220.884 184.398C221.159 184.756 221.329 185.173 221.396 185.651H220.222C220.133 185.303 219.934 184.994 219.626 184.726C219.321 184.454 218.91 184.318 218.393 184.318C217.936 184.318 217.535 184.437 217.19 184.676C216.848 184.911 216.582 185.245 216.389 185.675C216.2 186.103 216.106 186.605 216.106 187.182C216.106 187.772 216.199 188.286 216.384 188.723C216.573 189.161 216.838 189.5 217.18 189.742C217.525 189.984 217.929 190.105 218.393 190.105C218.698 190.105 218.975 190.052 219.223 189.946C219.472 189.84 219.682 189.688 219.855 189.489C220.027 189.29 220.15 189.051 220.222 188.773H221.396C221.329 189.223 221.165 189.629 220.904 189.991C220.645 190.349 220.302 190.634 219.874 190.846C219.45 191.055 218.956 191.159 218.393 191.159ZM227.923 187.878V183.364H229.097V191H227.923V189.707H227.844C227.665 190.095 227.387 190.425 227.009 190.697C226.631 190.965 226.154 191.099 225.577 191.099C225.1 191.099 224.675 190.995 224.304 190.786C223.933 190.574 223.641 190.256 223.429 189.832C223.217 189.404 223.111 188.866 223.111 188.216V183.364H224.284V188.136C224.284 188.693 224.44 189.137 224.752 189.469C225.066 189.8 225.468 189.966 225.955 189.966C226.246 189.966 226.543 189.891 226.845 189.742C227.15 189.593 227.405 189.364 227.61 189.056C227.819 188.748 227.923 188.355 227.923 187.878ZM231.246 191V183.364H232.379V184.557H232.479C232.638 184.149 232.895 183.833 233.249 183.607C233.604 183.379 234.03 183.264 234.527 183.264C235.031 183.264 235.45 183.379 235.785 183.607C236.123 183.833 236.386 184.149 236.575 184.557H236.655C236.85 184.162 237.144 183.849 237.535 183.617C237.926 183.382 238.395 183.264 238.942 183.264C239.625 183.264 240.183 183.478 240.617 183.906C241.051 184.33 241.268 184.991 241.268 185.889V191H240.095V185.889C240.095 185.326 239.941 184.923 239.633 184.681C239.325 184.439 238.962 184.318 238.544 184.318C238.007 184.318 237.591 184.481 237.296 184.805C237.001 185.127 236.854 185.535 236.854 186.028V191H235.661V185.77C235.661 185.336 235.52 184.986 235.238 184.721C234.956 184.452 234.593 184.318 234.149 184.318C233.844 184.318 233.559 184.399 233.294 184.562C233.032 184.724 232.82 184.95 232.658 185.238C232.499 185.523 232.419 185.853 232.419 186.227V191H231.246ZM246.615 191.159C245.88 191.159 245.245 190.997 244.711 190.672C244.181 190.344 243.772 189.886 243.483 189.3C243.198 188.71 243.056 188.024 243.056 187.241C243.056 186.459 243.198 185.77 243.483 185.173C243.772 184.573 244.173 184.106 244.686 183.771C245.203 183.433 245.807 183.264 246.496 183.264C246.894 183.264 247.287 183.33 247.674 183.463C248.062 183.596 248.415 183.811 248.733 184.109C249.051 184.404 249.305 184.795 249.494 185.283C249.683 185.77 249.777 186.37 249.777 187.082V187.58H243.891V186.565H248.584C248.584 186.134 248.498 185.75 248.326 185.412C248.157 185.074 247.915 184.807 247.6 184.612C247.288 184.416 246.92 184.318 246.496 184.318C246.029 184.318 245.624 184.434 245.283 184.666C244.945 184.895 244.685 185.193 244.502 185.561C244.32 185.929 244.229 186.323 244.229 186.744V187.42C244.229 187.997 244.328 188.486 244.527 188.887C244.73 189.285 245.01 189.588 245.368 189.797C245.725 190.002 246.141 190.105 246.615 190.105C246.924 190.105 247.202 190.062 247.451 189.976C247.703 189.886 247.92 189.754 248.102 189.578C248.284 189.399 248.425 189.177 248.525 188.912L249.658 189.23C249.539 189.615 249.338 189.953 249.056 190.244C248.775 190.533 248.427 190.758 248.012 190.92C247.598 191.08 247.132 191.159 246.615 191.159ZM252.735 186.406V191H251.562V183.364H252.696V184.557H252.795C252.974 184.169 253.246 183.857 253.61 183.622C253.975 183.384 254.446 183.264 255.022 183.264C255.539 183.264 255.992 183.37 256.38 183.582C256.767 183.791 257.069 184.109 257.284 184.537C257.5 184.961 257.608 185.498 257.608 186.148V191H256.434V186.227C256.434 185.627 256.279 185.16 255.967 184.825C255.655 184.487 255.228 184.318 254.684 184.318C254.31 184.318 253.975 184.399 253.68 184.562C253.388 184.724 253.158 184.961 252.989 185.273C252.82 185.584 252.735 185.962 252.735 186.406ZM263.073 183.364V184.358H259.115V183.364H263.073ZM260.269 181.534H261.442V188.812C261.442 189.144 261.49 189.393 261.586 189.558C261.686 189.721 261.811 189.83 261.964 189.886C262.12 189.939 262.284 189.966 262.456 189.966C262.585 189.966 262.691 189.959 262.774 189.946C262.857 189.929 262.923 189.916 262.973 189.906L263.212 190.96C263.132 190.99 263.021 191.02 262.879 191.05C262.736 191.083 262.556 191.099 262.337 191.099C262.005 191.099 261.681 191.028 261.362 190.886C261.048 190.743 260.786 190.526 260.577 190.234C260.371 189.943 260.269 189.575 260.269 189.131V181.534ZM270.11 185.074L269.056 185.372C268.99 185.196 268.892 185.026 268.763 184.86C268.637 184.691 268.464 184.552 268.246 184.442C268.027 184.333 267.747 184.278 267.405 184.278C266.938 184.278 266.549 184.386 266.237 184.602C265.929 184.814 265.775 185.084 265.775 185.412C265.775 185.704 265.881 185.934 266.093 186.103C266.305 186.272 266.636 186.413 267.087 186.526L268.221 186.804C268.903 186.97 269.412 187.223 269.747 187.565C270.082 187.903 270.249 188.339 270.249 188.872C270.249 189.31 270.123 189.701 269.871 190.045C269.623 190.39 269.275 190.662 268.827 190.861C268.38 191.06 267.859 191.159 267.266 191.159C266.487 191.159 265.843 190.99 265.332 190.652C264.822 190.314 264.499 189.82 264.363 189.17L265.476 188.892C265.582 189.303 265.783 189.611 266.078 189.817C266.376 190.022 266.766 190.125 267.246 190.125C267.793 190.125 268.227 190.009 268.549 189.777C268.874 189.542 269.036 189.26 269.036 188.932C269.036 188.667 268.943 188.445 268.758 188.266C268.572 188.083 268.287 187.947 267.903 187.858L266.63 187.56C265.93 187.394 265.417 187.137 265.089 186.789C264.764 186.438 264.601 185.999 264.601 185.472C264.601 185.041 264.722 184.66 264.964 184.328C265.21 183.997 265.543 183.737 265.964 183.548C266.388 183.359 266.868 183.264 267.405 183.264C268.161 183.264 268.754 183.43 269.185 183.761C269.619 184.093 269.928 184.53 270.11 185.074ZM272.87 191.08C272.625 191.08 272.415 190.992 272.239 190.816C272.063 190.64 271.975 190.43 271.975 190.185C271.975 189.939 272.063 189.729 272.239 189.553C272.415 189.378 272.625 189.29 272.87 189.29C273.116 189.29 273.326 189.378 273.502 189.553C273.677 189.729 273.765 189.939 273.765 190.185C273.765 190.347 273.724 190.496 273.641 190.632C273.561 190.768 273.454 190.877 273.318 190.96C273.185 191.04 273.036 191.08 272.87 191.08ZM276.726 191.08C276.481 191.08 276.27 190.992 276.094 190.816C275.919 190.64 275.831 190.43 275.831 190.185C275.831 189.939 275.919 189.729 276.094 189.553C276.27 189.378 276.481 189.29 276.726 189.29C276.971 189.29 277.182 189.378 277.357 189.553C277.533 189.729 277.621 189.939 277.621 190.185C277.621 190.347 277.579 190.496 277.496 190.632C277.417 190.768 277.309 190.877 277.173 190.96C277.041 191.04 276.892 191.08 276.726 191.08ZM280.581 191.08C280.336 191.08 280.126 190.992 279.95 190.816C279.774 190.64 279.686 190.43 279.686 190.185C279.686 189.939 279.774 189.729 279.95 189.553C280.126 189.378 280.336 189.29 280.581 189.29C280.827 189.29 281.037 189.378 281.213 189.553C281.388 189.729 281.476 189.939 281.476 190.185C281.476 190.347 281.435 190.496 281.352 190.632C281.272 190.768 281.165 190.877 281.029 190.96C280.896 191.04 280.747 191.08 280.581 191.08Z" fill="#101828"/>
<path d="M75.3331 54.8182H77.0781L79.7379 59.4467H79.8473L82.5071 54.8182H84.2521L80.5582 61.0028V65H79.027V61.0028L75.3331 54.8182ZM87.5421 65.1541C86.8262 65.1541 86.2014 64.9901 85.6678 64.6619C85.1342 64.3338 84.7199 63.8748 84.4249 63.2848C84.1299 62.6948 83.9824 62.0054 83.9824 61.2166C83.9824 60.4245 84.1299 59.7318 84.4249 59.1385C84.7199 58.5452 85.1342 58.0845 85.6678 57.7564C86.2014 57.4283 86.8262 57.2642 87.5421 57.2642C88.258 57.2642 88.8828 57.4283 89.4164 57.7564C89.95 58.0845 90.3643 58.5452 90.6593 59.1385C90.9542 59.7318 91.1017 60.4245 91.1017 61.2166C91.1017 62.0054 90.9542 62.6948 90.6593 63.2848C90.3643 63.8748 89.95 64.3338 89.4164 64.6619C88.8828 64.9901 88.258 65.1541 87.5421 65.1541ZM87.5471 63.9062C88.0111 63.9062 88.3955 63.7836 88.7005 63.5384C89.0054 63.2931 89.2308 62.9666 89.3766 62.5589C89.5257 62.1513 89.6003 61.7022 89.6003 61.2116C89.6003 60.7244 89.5257 60.277 89.3766 59.8693C89.2308 59.4583 89.0054 59.1286 88.7005 58.88C88.3955 58.6314 88.0111 58.5071 87.5471 58.5071C87.0797 58.5071 86.6919 58.6314 86.3837 58.88C86.0788 59.1286 85.8517 59.4583 85.7026 59.8693C85.5568 60.277 85.4838 60.7244 85.4838 61.2116C85.4838 61.7022 85.5568 62.1513 85.7026 62.5589C85.8517 62.9666 86.0788 63.2931 86.3837 63.5384C86.6919 63.7836 87.0797 63.9062 87.5471 63.9062ZM97.5984 61.8331V57.3636H99.0898V65H97.6282V63.6776H97.5487C97.373 64.0852 97.0913 64.425 96.7035 64.6967C96.319 64.9652 95.8401 65.0994 95.2667 65.0994C94.7762 65.0994 94.342 64.9917 93.9641 64.7763C93.5896 64.5575 93.2946 64.2344 93.0792 63.8068C92.8671 63.3793 92.761 62.8506 92.761 62.2209V57.3636H94.2475V62.0419C94.2475 62.5623 94.3917 62.9766 94.68 63.2848C94.9684 63.593 95.3429 63.7472 95.8036 63.7472C96.082 63.7472 96.3588 63.6776 96.6339 63.5384C96.9123 63.3991 97.1426 63.1887 97.3249 62.907C97.5105 62.6252 97.6017 62.2673 97.5984 61.8331Z" fill="#344054"/>
<path d="M216.58 56.2102V55.2727H223.125V56.2102H220.381V64H219.324V56.2102H216.58ZM225.625 60.0625V64H224.62V55.2727H225.625V58.4773H225.711C225.864 58.1392 226.094 57.8707 226.401 57.6719C226.711 57.4702 227.123 57.3693 227.637 57.3693C228.083 57.3693 228.473 57.4588 228.809 57.6378C229.144 57.8139 229.404 58.0852 229.588 58.4517C229.776 58.8153 229.87 59.2784 229.87 59.8409V64H228.864V59.9091C228.864 59.3892 228.729 58.9872 228.459 58.7031C228.192 58.4162 227.821 58.2727 227.347 58.2727C227.017 58.2727 226.722 58.3423 226.461 58.4815C226.202 58.6207 225.998 58.8239 225.847 59.0909C225.699 59.358 225.625 59.6818 225.625 60.0625ZM235.835 61.3239V57.4545H236.84V64H235.835V62.892H235.766C235.613 63.2244 235.374 63.5071 235.05 63.7401C234.727 63.9702 234.317 64.0852 233.823 64.0852C233.414 64.0852 233.05 63.9957 232.732 63.8168C232.414 63.6349 232.164 63.3622 231.982 62.9986C231.8 62.6321 231.71 62.1705 231.71 61.6136V57.4545H232.715V61.5455C232.715 62.0227 232.849 62.4034 233.116 62.6875C233.386 62.9716 233.729 63.1136 234.147 63.1136C234.397 63.1136 234.651 63.0497 234.91 62.9219C235.171 62.794 235.39 62.598 235.566 62.3338C235.745 62.0696 235.835 61.733 235.835 61.3239ZM238.682 64V57.4545H239.654V58.4432H239.722C239.841 58.1193 240.057 57.8565 240.37 57.6548C240.682 57.4531 241.034 57.3523 241.426 57.3523C241.5 57.3523 241.593 57.3537 241.703 57.3565C241.814 57.3594 241.898 57.3636 241.955 57.3693V58.392C241.921 58.3835 241.843 58.3707 241.721 58.3537C241.601 58.3338 241.475 58.3239 241.341 58.3239C241.023 58.3239 240.739 58.3906 240.489 58.5241C240.242 58.6548 240.046 58.8366 239.901 59.0696C239.759 59.2997 239.688 59.5625 239.688 59.858V64H238.682ZM247.783 58.9205L246.88 59.1761C246.823 59.0256 246.739 58.8793 246.629 58.7372C246.521 58.5923 246.373 58.473 246.185 58.3793C245.998 58.2855 245.758 58.2386 245.465 58.2386C245.065 58.2386 244.731 58.331 244.464 58.5156C244.2 58.6974 244.067 58.929 244.067 59.2102C244.067 59.4602 244.158 59.6577 244.34 59.8026C244.522 59.9474 244.806 60.0682 245.192 60.1648L246.164 60.4034C246.749 60.5455 247.185 60.7628 247.472 61.0554C247.759 61.3452 247.903 61.7187 247.903 62.1761C247.903 62.5511 247.795 62.8864 247.579 63.1818C247.366 63.4773 247.067 63.7102 246.684 63.8807C246.3 64.0511 245.854 64.1364 245.346 64.1364C244.678 64.1364 244.126 63.9915 243.688 63.7017C243.251 63.4119 242.974 62.9886 242.857 62.4318L243.812 62.1932C243.903 62.5455 244.075 62.8097 244.327 62.9858C244.583 63.1619 244.917 63.25 245.329 63.25C245.798 63.25 246.17 63.1506 246.445 62.9517C246.724 62.75 246.863 62.5085 246.863 62.2273C246.863 62 246.783 61.8097 246.624 61.6562C246.465 61.5 246.221 61.3835 245.891 61.3068L244.8 61.0511C244.201 60.9091 243.761 60.6889 243.479 60.3906C243.201 60.0895 243.062 59.7131 243.062 59.2614C243.062 58.892 243.165 58.5653 243.373 58.2812C243.583 57.9972 243.869 57.7741 244.229 57.6122C244.593 57.4503 245.005 57.3693 245.465 57.3693C246.113 57.3693 246.621 57.5114 246.991 57.7955C247.363 58.0795 247.627 58.4545 247.783 58.9205ZM251.888 64.1364C251.343 64.1364 250.861 63.9986 250.444 63.723C250.026 63.4446 249.699 63.0526 249.463 62.5469C249.228 62.0384 249.11 61.4375 249.11 60.7443C249.11 60.0568 249.228 59.4602 249.463 58.9545C249.699 58.4489 250.027 58.0582 250.448 57.7827C250.868 57.5071 251.354 57.3693 251.905 57.3693C252.331 57.3693 252.668 57.4403 252.915 57.5824C253.165 57.7216 253.355 57.8807 253.486 58.0597C253.62 58.2358 253.723 58.3807 253.797 58.4943H253.882V55.2727H254.888V64H253.917V62.9943H253.797C253.723 63.1136 253.618 63.2642 253.482 63.446C253.346 63.625 253.151 63.7855 252.898 63.9276C252.645 64.0668 252.309 64.1364 251.888 64.1364ZM252.025 63.233C252.428 63.233 252.769 63.1278 253.047 62.9176C253.326 62.7045 253.537 62.4105 253.682 62.0355C253.827 61.6577 253.9 61.2216 253.9 60.7273C253.9 60.2386 253.828 59.8111 253.686 59.4446C253.544 59.0753 253.334 58.7884 253.056 58.5838C252.777 58.3764 252.434 58.2727 252.025 58.2727C251.598 58.2727 251.243 58.3821 250.959 58.6009C250.678 58.8168 250.466 59.1108 250.324 59.483C250.185 59.8523 250.115 60.267 250.115 60.7273C250.115 61.1932 250.186 61.6165 250.328 61.9972C250.473 62.375 250.686 62.6761 250.968 62.9006C251.252 63.1222 251.604 63.233 252.025 63.233ZM258.796 64.1534C258.381 64.1534 258.005 64.0753 257.667 63.919C257.328 63.7599 257.06 63.5312 256.861 63.233C256.662 62.9318 256.563 62.5682 256.563 62.142C256.563 61.767 256.637 61.4631 256.784 61.2301C256.932 60.9943 257.13 60.8097 257.377 60.6761C257.624 60.5426 257.897 60.4432 258.195 60.3778C258.496 60.3097 258.799 60.2557 259.103 60.2159C259.5 60.1648 259.823 60.1264 260.07 60.1009C260.32 60.0724 260.502 60.0256 260.615 59.9602C260.732 59.8949 260.79 59.7812 260.79 59.6193V59.5852C260.79 59.1648 260.675 58.8381 260.445 58.6051C260.218 58.3722 259.873 58.2557 259.409 58.2557C258.929 58.2557 258.553 58.3608 258.28 58.571C258.007 58.7812 257.816 59.0057 257.705 59.2443L256.75 58.9034C256.921 58.5057 257.148 58.196 257.432 57.9744C257.719 57.75 258.032 57.5937 258.37 57.5057C258.711 57.4148 259.046 57.3693 259.375 57.3693C259.586 57.3693 259.827 57.3949 260.1 57.446C260.375 57.4943 260.641 57.5952 260.897 57.7486C261.155 57.902 261.37 58.1335 261.54 58.4432C261.711 58.7528 261.796 59.1676 261.796 59.6875V64H260.79V63.1136H260.739C260.671 63.2557 260.557 63.4077 260.398 63.5696C260.239 63.7315 260.027 63.8693 259.763 63.983C259.499 64.0966 259.176 64.1534 258.796 64.1534ZM258.949 63.25C259.347 63.25 259.682 63.1719 259.955 63.0156C260.23 62.8594 260.438 62.6577 260.577 62.4105C260.719 62.1634 260.79 61.9034 260.79 61.6307V60.7102C260.748 60.7614 260.654 60.8082 260.509 60.8509C260.367 60.8906 260.202 60.9261 260.015 60.9574C259.83 60.9858 259.65 61.0114 259.473 61.0341C259.3 61.054 259.159 61.071 259.051 61.0852C258.79 61.1193 258.546 61.1747 258.319 61.2514C258.094 61.3253 257.912 61.4375 257.773 61.5881C257.637 61.7358 257.569 61.9375 257.569 62.1932C257.569 62.5426 257.698 62.8068 257.956 62.9858C258.218 63.1619 258.549 63.25 258.949 63.25ZM264.045 66.4545C263.874 66.4545 263.722 66.4403 263.589 66.4119C263.455 66.3864 263.363 66.3608 263.312 66.3352L263.567 65.4489C263.812 65.5114 264.028 65.5341 264.215 65.517C264.403 65.5 264.569 65.4162 264.714 65.2656C264.862 65.1179 264.996 64.8778 265.119 64.5455L265.306 64.0341L262.886 57.4545H263.977L265.783 62.6705H265.852L267.658 57.4545H268.749L265.971 64.9545C265.846 65.2926 265.691 65.5724 265.506 65.794C265.322 66.0185 265.107 66.1847 264.863 66.2926C264.621 66.4006 264.349 66.4545 264.045 66.4545ZM276.503 55.2727V64H275.446V56.3807H275.395L273.264 57.7955V56.7216L275.446 55.2727H276.503ZM282.081 55.2727V64H281.024V56.3807H280.973L278.842 57.7955V56.7216L281.024 55.2727H282.081ZM285.341 62.8835C285.131 62.8835 284.95 62.8082 284.8 62.6577C284.649 62.5071 284.574 62.3267 284.574 62.1165C284.574 61.9062 284.649 61.7259 284.8 61.5753C284.95 61.4247 285.131 61.3494 285.341 61.3494C285.551 61.3494 285.732 61.4247 285.882 61.5753C286.033 61.7259 286.108 61.9062 286.108 62.1165C286.108 62.2557 286.072 62.3835 286.001 62.5C285.933 62.6165 285.841 62.7102 285.724 62.7812C285.611 62.8494 285.483 62.8835 285.341 62.8835ZM285.341 58.4688C285.131 58.4688 284.95 58.3935 284.8 58.2429C284.649 58.0923 284.574 57.9119 284.574 57.7017C284.574 57.4915 284.649 57.3111 284.8 57.1605C284.95 57.0099 285.131 56.9347 285.341 56.9347C285.551 56.9347 285.732 57.0099 285.882 57.1605C286.033 57.3111 286.108 57.4915 286.108 57.7017C286.108 57.8409 286.072 57.9688 286.001 58.0852C285.933 58.2017 285.841 58.2955 285.724 58.3665C285.611 58.4347 285.483 58.4688 285.341 58.4688ZM287.691 62.2102V61.3409L291.526 55.2727H292.157V56.6193H291.731L288.833 61.2045V61.2727H293.998V62.2102H287.691ZM291.799 64V61.946V61.5412V55.2727H292.805V64H291.799ZM298.546 55.2727V64H297.489V56.3807H297.438L295.307 57.7955V56.7216L297.489 55.2727H298.546ZM302.999 64.1534C302.584 64.1534 302.208 64.0753 301.87 63.919C301.532 63.7599 301.263 63.5312 301.064 63.233C300.865 62.9318 300.766 62.5682 300.766 62.142C300.766 61.767 300.84 61.4631 300.988 61.2301C301.135 60.9943 301.333 60.8097 301.58 60.6761C301.827 60.5426 302.1 60.4432 302.398 60.3778C302.699 60.3097 303.002 60.2557 303.306 60.2159C303.703 60.1648 304.026 60.1264 304.273 60.1009C304.523 60.0724 304.705 60.0256 304.819 59.9602C304.935 59.8949 304.993 59.7812 304.993 59.6193V59.5852C304.993 59.1648 304.878 58.8381 304.648 58.6051C304.421 58.3722 304.076 58.2557 303.613 58.2557C303.132 58.2557 302.756 58.3608 302.483 58.571C302.211 58.7812 302.019 59.0057 301.908 59.2443L300.953 58.9034C301.124 58.5057 301.351 58.196 301.635 57.9744C301.922 57.75 302.235 57.5937 302.573 57.5057C302.914 57.4148 303.249 57.3693 303.578 57.3693C303.789 57.3693 304.03 57.3949 304.303 57.446C304.578 57.4943 304.844 57.5952 305.1 57.7486C305.358 57.902 305.573 58.1335 305.743 58.4432C305.914 58.7528 305.999 59.1676 305.999 59.6875V64H304.993V63.1136H304.942C304.874 63.2557 304.76 63.4077 304.601 63.5696C304.442 63.7315 304.23 63.8693 303.966 63.983C303.702 64.0966 303.38 64.1534 302.999 64.1534ZM303.152 63.25C303.55 63.25 303.885 63.1719 304.158 63.0156C304.434 62.8594 304.641 62.6577 304.78 62.4105C304.922 62.1634 304.993 61.9034 304.993 61.6307V60.7102C304.951 60.7614 304.857 60.8082 304.712 60.8509C304.57 60.8906 304.405 60.9261 304.218 60.9574C304.033 60.9858 303.853 61.0114 303.676 61.0341C303.503 61.054 303.363 61.071 303.255 61.0852C302.993 61.1193 302.749 61.1747 302.522 61.2514C302.297 61.3253 302.115 61.4375 301.976 61.5881C301.84 61.7358 301.772 61.9375 301.772 62.1932C301.772 62.5426 301.901 62.8068 302.159 62.9858C302.421 63.1619 302.752 63.25 303.152 63.25ZM307.835 64V57.4545H308.806V58.4773H308.891C309.028 58.1278 309.248 57.8565 309.552 57.6634C309.856 57.4673 310.221 57.3693 310.647 57.3693C311.079 57.3693 311.438 57.4673 311.725 57.6634C312.015 57.8565 312.241 58.1278 312.403 58.4773H312.471C312.638 58.1392 312.89 57.8707 313.225 57.6719C313.56 57.4702 313.962 57.3693 314.431 57.3693C315.016 57.3693 315.495 57.5526 315.867 57.919C316.239 58.2827 316.425 58.8494 316.425 59.6193V64H315.42V59.6193C315.42 59.1364 315.288 58.7912 315.023 58.5838C314.759 58.3764 314.448 58.2727 314.09 58.2727C313.63 58.2727 313.273 58.4119 313.021 58.6903C312.768 58.9659 312.641 59.3153 312.641 59.7386V64H311.619V59.517C311.619 59.1449 311.498 58.8452 311.256 58.6179C311.015 58.3878 310.704 58.2727 310.323 58.2727C310.062 58.2727 309.817 58.3423 309.59 58.4815C309.366 58.6207 309.184 58.8139 309.045 59.0611C308.908 59.3054 308.84 59.5881 308.84 59.9091V64H307.835Z" fill="#475467"/>
<path d="M75 84C75 79.5817 78.5817 76 83 76H318V108C318 112.418 314.418 116 310 116H83C78.5817 116 75 112.418 75 108V84Z" fill="#212121"/>
<path d="M89.6761 94V93.1051C89.6761 92.8333 89.7242 92.545 89.8203 92.2401C89.9197 91.9318 90.0623 91.6352 90.2479 91.3501C90.4368 91.0618 90.6638 90.8116 90.929 90.5994L91.5653 91.1165C91.3565 91.4148 91.1742 91.7263 91.0185 92.0511C90.866 92.3726 90.7898 92.7173 90.7898 93.0852V94H89.6761ZM92.2216 94V93.1051C92.2216 92.8333 92.2696 92.545 92.3658 92.2401C92.4652 91.9318 92.6077 91.6352 92.7933 91.3501C92.9822 91.0618 93.2093 90.8116 93.4744 90.5994L94.1108 91.1165C93.902 91.4148 93.7197 91.7263 93.5639 92.0511C93.4115 92.3726 93.3352 92.7173 93.3352 93.0852V94H92.2216ZM97.4144 101L94.6303 90.8182H95.8832L98.011 99.1108H98.1104L100.278 90.8182H101.67L103.838 99.1108H103.937L106.065 90.8182H107.318L104.534 101H103.261L101.014 92.8864H100.934L98.6871 101H97.4144ZM109.868 96.4062V101H108.695V90.8182H109.868V94.5568H109.968C110.147 94.1624 110.415 93.8492 110.773 93.6172C111.134 93.3819 111.615 93.2642 112.215 93.2642C112.735 93.2642 113.191 93.3686 113.582 93.5774C113.973 93.7829 114.276 94.0994 114.492 94.527C114.711 94.9512 114.82 95.4915 114.82 96.1477V101H113.647V96.2273C113.647 95.6207 113.489 95.1518 113.174 94.8203C112.863 94.4856 112.43 94.3182 111.877 94.3182C111.492 94.3182 111.148 94.3994 110.843 94.5618C110.541 94.7242 110.302 94.9612 110.127 95.2727C109.954 95.5843 109.868 95.9621 109.868 96.4062ZM117.449 103.864C117.25 103.864 117.073 103.847 116.917 103.814C116.761 103.784 116.653 103.754 116.594 103.724L116.892 102.69C117.177 102.763 117.429 102.79 117.648 102.77C117.866 102.75 118.06 102.652 118.229 102.477C118.402 102.304 118.559 102.024 118.702 101.636L118.92 101.04L116.096 93.3636H117.369L119.477 99.4489H119.557L121.665 93.3636H122.937L119.696 102.114C119.55 102.508 119.369 102.835 119.154 103.093C118.939 103.355 118.688 103.549 118.403 103.675C118.122 103.801 117.803 103.864 117.449 103.864ZM131.307 101.159C130.671 101.159 130.109 100.998 129.622 100.677C129.134 100.352 128.753 99.8946 128.478 99.3047C128.203 98.7114 128.066 98.0104 128.066 97.2017C128.066 96.3996 128.203 95.7036 128.478 95.1136C128.753 94.5237 129.136 94.0679 129.627 93.7464C130.117 93.425 130.684 93.2642 131.327 93.2642C131.824 93.2642 132.217 93.3471 132.505 93.5128C132.797 93.6752 133.019 93.8608 133.171 94.0696C133.327 94.2751 133.448 94.4441 133.534 94.5767H133.634V90.8182H134.807V101H133.673V99.8267H133.534C133.448 99.9659 133.325 100.142 133.166 100.354C133.007 100.562 132.78 100.75 132.485 100.915C132.19 101.078 131.798 101.159 131.307 101.159ZM131.466 100.105C131.937 100.105 132.334 99.9825 132.659 99.7372C132.984 99.4886 133.231 99.1456 133.4 98.7081C133.569 98.2673 133.654 97.7585 133.654 97.1818C133.654 96.6117 133.571 96.1129 133.405 95.6854C133.239 95.2545 132.994 94.9197 132.669 94.6811C132.344 94.4392 131.943 94.3182 131.466 94.3182C130.969 94.3182 130.555 94.4458 130.223 94.701C129.895 94.9529 129.648 95.2959 129.482 95.7301C129.32 96.161 129.239 96.6449 129.239 97.1818C129.239 97.7254 129.322 98.2192 129.487 98.6634C129.656 99.1042 129.905 99.4555 130.233 99.7173C130.565 99.9759 130.976 100.105 131.466 100.105ZM137.119 101V93.3636H138.292V101H137.119ZM137.715 92.0909C137.487 92.0909 137.289 92.013 137.124 91.8572C136.961 91.7015 136.88 91.5142 136.88 91.2955C136.88 91.0767 136.961 90.8894 137.124 90.7337C137.289 90.5779 137.487 90.5 137.715 90.5C137.944 90.5 138.14 90.5779 138.302 90.7337C138.468 90.8894 138.551 91.0767 138.551 91.2955C138.551 91.5142 138.468 91.7015 138.302 91.8572C138.14 92.013 137.944 92.0909 137.715 92.0909ZM143.325 101.159C142.688 101.159 142.126 100.998 141.639 100.677C141.152 100.352 140.771 99.8946 140.496 99.3047C140.221 98.7114 140.083 98.0104 140.083 97.2017C140.083 96.3996 140.221 95.7036 140.496 95.1136C140.771 94.5237 141.154 94.0679 141.644 93.7464C142.135 93.425 142.701 93.2642 143.344 93.2642C143.842 93.2642 144.234 93.3471 144.523 93.5128C144.814 93.6752 145.036 93.8608 145.189 94.0696C145.345 94.2751 145.466 94.4441 145.552 94.5767H145.651V90.8182H146.825V101H145.691V99.8267H145.552C145.466 99.9659 145.343 100.142 145.184 100.354C145.025 100.562 144.798 100.75 144.503 100.915C144.208 101.078 143.815 101.159 143.325 101.159ZM143.484 100.105C143.954 100.105 144.352 99.9825 144.677 99.7372C145.002 99.4886 145.249 99.1456 145.418 98.7081C145.587 98.2673 145.671 97.7585 145.671 97.1818C145.671 96.6117 145.588 96.1129 145.423 95.6854C145.257 95.2545 145.012 94.9197 144.687 94.6811C144.362 94.4392 143.961 94.3182 143.484 94.3182C142.987 94.3182 142.572 94.4458 142.241 94.701C141.913 94.9529 141.666 95.2959 141.5 95.7301C141.338 96.161 141.256 96.6449 141.256 97.1818C141.256 97.7254 141.339 98.2192 141.505 98.6634C141.674 99.1042 141.923 99.4555 142.251 99.7173C142.582 99.9759 142.993 100.105 143.484 100.105ZM154.804 101L152.477 93.3636H153.71L155.361 99.2102H155.44L157.071 93.3636H158.324L159.935 99.1903H160.014L161.665 93.3636H162.898L160.571 101H159.418L157.747 95.1335H157.628L155.957 101H154.804ZM167.391 101.159C166.655 101.159 166.02 100.997 165.487 100.672C164.956 100.344 164.547 99.8864 164.259 99.2997C163.974 98.7098 163.831 98.0237 163.831 97.2415C163.831 96.4593 163.974 95.7699 164.259 95.1733C164.547 94.5734 164.948 94.1061 165.462 93.7713C165.979 93.4332 166.582 93.2642 167.271 93.2642C167.669 93.2642 168.062 93.3305 168.45 93.4631C168.838 93.5956 169.191 93.8111 169.509 94.1094C169.827 94.4044 170.08 94.7955 170.269 95.2827C170.458 95.7699 170.553 96.3698 170.553 97.0824V97.5795H164.666V96.5653H169.36C169.36 96.1345 169.273 95.75 169.101 95.4119C168.932 95.0739 168.69 94.8071 168.375 94.6115C168.064 94.416 167.696 94.3182 167.271 94.3182C166.804 94.3182 166.4 94.4342 166.058 94.6662C165.72 94.8949 165.46 95.1932 165.278 95.5611C165.096 95.929 165.004 96.3234 165.004 96.7443V97.4205C165.004 97.9972 165.104 98.486 165.303 98.8871C165.505 99.2848 165.785 99.5881 166.143 99.7969C166.501 100.002 166.917 100.105 167.391 100.105C167.699 100.105 167.977 100.062 168.226 99.9759C168.478 99.8864 168.695 99.7538 168.877 99.5781C169.06 99.3991 169.2 99.1771 169.3 98.9119L170.433 99.2301C170.314 99.6146 170.114 99.9527 169.832 100.244C169.55 100.533 169.202 100.758 168.788 100.92C168.374 101.08 167.908 101.159 167.391 101.159ZM181.684 95.0739L180.63 95.3722C180.564 95.1965 180.466 95.0258 180.337 94.8601C180.211 94.6911 180.039 94.5518 179.82 94.4425C179.601 94.3331 179.321 94.2784 178.98 94.2784C178.512 94.2784 178.123 94.3861 177.811 94.6016C177.503 94.8137 177.349 95.0838 177.349 95.4119C177.349 95.7036 177.455 95.9339 177.667 96.103C177.879 96.272 178.211 96.4129 178.661 96.5256L179.795 96.804C180.478 96.9697 180.986 97.2232 181.321 97.5646C181.656 97.9027 181.823 98.3385 181.823 98.8722C181.823 99.3097 181.697 99.7008 181.445 100.045C181.197 100.39 180.849 100.662 180.401 100.861C179.954 101.06 179.434 101.159 178.84 101.159C178.061 101.159 177.417 100.99 176.906 100.652C176.396 100.314 176.073 99.8201 175.937 99.1705L177.051 98.892C177.157 99.303 177.357 99.6113 177.652 99.8168C177.95 100.022 178.34 100.125 178.82 100.125C179.367 100.125 179.802 100.009 180.123 99.777C180.448 99.5417 180.61 99.2599 180.61 98.9318C180.61 98.6667 180.517 98.4446 180.332 98.2656C180.146 98.0833 179.861 97.9474 179.477 97.858L178.204 97.5597C177.505 97.3939 176.991 97.1371 176.663 96.7891C176.338 96.4377 176.176 95.9986 176.176 95.4716C176.176 95.0407 176.297 94.6596 176.539 94.3281C176.784 93.9967 177.117 93.7365 177.538 93.5476C177.962 93.3587 178.443 93.2642 178.98 93.2642C179.735 93.2642 180.329 93.4299 180.759 93.7614C181.194 94.0928 181.502 94.5303 181.684 95.0739ZM188.402 97.8778V93.3636H189.575V101H188.402V99.7074H188.322C188.143 100.095 187.865 100.425 187.487 100.697C187.109 100.965 186.632 101.099 186.055 101.099C185.578 101.099 185.154 100.995 184.783 100.786C184.411 100.574 184.12 100.256 183.908 99.8317C183.696 99.4041 183.589 98.8655 183.589 98.2159V93.3636H184.763V98.1364C184.763 98.6932 184.919 99.1373 185.23 99.4688C185.545 99.8002 185.946 99.9659 186.433 99.9659C186.725 99.9659 187.022 99.8913 187.323 99.7422C187.628 99.593 187.883 99.3643 188.089 99.0561C188.298 98.7479 188.402 98.3551 188.402 97.8778ZM192.898 96.4062V101H191.724V93.3636H192.858V94.5568H192.957C193.136 94.169 193.408 93.8575 193.773 93.6222C194.137 93.3835 194.608 93.2642 195.184 93.2642C195.702 93.2642 196.154 93.3703 196.542 93.5824C196.93 93.7912 197.231 94.1094 197.447 94.5369C197.662 94.9612 197.77 95.4981 197.77 96.1477V101H196.596V96.2273C196.596 95.6274 196.441 95.16 196.129 94.8253C195.818 94.4872 195.39 94.3182 194.846 94.3182C194.472 94.3182 194.137 94.3994 193.842 94.5618C193.55 94.7242 193.32 94.9612 193.151 95.2727C192.982 95.5843 192.898 95.9621 192.898 96.4062ZM205.323 95.0739L204.269 95.3722C204.203 95.1965 204.105 95.0258 203.975 94.8601C203.85 94.6911 203.677 94.5518 203.458 94.4425C203.24 94.3331 202.96 94.2784 202.618 94.2784C202.151 94.2784 201.761 94.3861 201.45 94.6016C201.142 94.8137 200.988 95.0838 200.988 95.4119C200.988 95.7036 201.094 95.9339 201.306 96.103C201.518 96.272 201.849 96.4129 202.3 96.5256L203.434 96.804C204.116 96.9697 204.625 97.2232 204.96 97.5646C205.295 97.9027 205.462 98.3385 205.462 98.8722C205.462 99.3097 205.336 99.7008 205.084 100.045C204.836 100.39 204.488 100.662 204.04 100.861C203.593 101.06 203.072 101.159 202.479 101.159C201.7 101.159 201.056 100.99 200.545 100.652C200.035 100.314 199.712 99.8201 199.576 99.1705L200.689 98.892C200.795 99.303 200.996 99.6113 201.291 99.8168C201.589 100.022 201.979 100.125 202.459 100.125C203.006 100.125 203.44 100.009 203.762 99.777C204.087 99.5417 204.249 99.2599 204.249 98.9318C204.249 98.6667 204.156 98.4446 203.971 98.2656C203.785 98.0833 203.5 97.9474 203.115 97.858L201.843 97.5597C201.143 97.3939 200.63 97.1371 200.301 96.7891C199.977 96.4377 199.814 95.9986 199.814 95.4716C199.814 95.0407 199.935 94.6596 200.177 94.3281C200.422 93.9967 200.756 93.7365 201.176 93.5476C201.601 93.3587 202.081 93.2642 202.618 93.2642C203.374 93.2642 203.967 93.4299 204.398 93.7614C204.832 94.0928 205.141 94.5303 205.323 95.0739ZM210.43 101.159C209.694 101.159 209.059 100.997 208.526 100.672C207.995 100.344 207.586 99.8864 207.298 99.2997C207.013 98.7098 206.87 98.0237 206.87 97.2415C206.87 96.4593 207.013 95.7699 207.298 95.1733C207.586 94.5734 207.987 94.1061 208.501 93.7713C209.018 93.4332 209.621 93.2642 210.311 93.2642C210.708 93.2642 211.101 93.3305 211.489 93.4631C211.877 93.5956 212.23 93.8111 212.548 94.1094C212.866 94.4044 213.119 94.7955 213.308 95.2827C213.497 95.7699 213.592 96.3698 213.592 97.0824V97.5795H207.705V96.5653H212.399C212.399 96.1345 212.312 95.75 212.14 95.4119C211.971 95.0739 211.729 94.8071 211.414 94.6115C211.103 94.416 210.735 94.3182 210.311 94.3182C209.843 94.3182 209.439 94.4342 209.097 94.6662C208.759 94.8949 208.499 95.1932 208.317 95.5611C208.135 95.929 208.044 96.3234 208.044 96.7443V97.4205C208.044 97.9972 208.143 98.486 208.342 98.8871C208.544 99.2848 208.824 99.5881 209.182 99.7969C209.54 100.002 209.956 100.105 210.43 100.105C210.738 100.105 211.017 100.062 211.265 99.9759C211.517 99.8864 211.734 99.7538 211.916 99.5781C212.099 99.3991 212.24 99.1771 212.339 98.9119L213.472 99.2301C213.353 99.6146 213.153 99.9527 212.871 100.244C212.589 100.533 212.241 100.758 211.827 100.92C211.413 101.08 210.947 101.159 210.43 101.159ZM218.698 93.3636V94.358H214.74V93.3636H218.698ZM215.894 91.5341H217.067V98.8125C217.067 99.1439 217.115 99.3925 217.211 99.5582C217.311 99.7206 217.436 99.83 217.589 99.8864C217.745 99.9394 217.909 99.9659 218.081 99.9659C218.21 99.9659 218.316 99.9593 218.399 99.946C218.482 99.9295 218.548 99.9162 218.598 99.9062L218.837 100.96C218.757 100.99 218.646 101.02 218.504 101.05C218.361 101.083 218.181 101.099 217.962 101.099C217.63 101.099 217.306 101.028 216.987 100.886C216.673 100.743 216.411 100.526 216.202 100.234C215.996 99.9427 215.894 99.5748 215.894 99.1307V91.5341ZM224.559 101V90.8182H230.664V91.9119H225.792V95.3523H230.207V96.446H225.792V101H224.559ZM235.258 101.159C234.522 101.159 233.887 100.997 233.354 100.672C232.824 100.344 232.414 99.8864 232.126 99.2997C231.841 98.7098 231.698 98.0237 231.698 97.2415C231.698 96.4593 231.841 95.7699 232.126 95.1733C232.414 94.5734 232.815 94.1061 233.329 93.7713C233.846 93.4332 234.449 93.2642 235.139 93.2642C235.536 93.2642 235.929 93.3305 236.317 93.4631C236.705 93.5956 237.058 93.8111 237.376 94.1094C237.694 94.4044 237.948 94.7955 238.137 95.2827C238.325 95.7699 238.42 96.3698 238.42 97.0824V97.5795H232.534V96.5653H237.227C237.227 96.1345 237.141 95.75 236.968 95.4119C236.799 95.0739 236.557 94.8071 236.242 94.6115C235.931 94.416 235.563 94.3182 235.139 94.3182C234.671 94.3182 234.267 94.4342 233.926 94.6662C233.588 94.8949 233.327 95.1932 233.145 95.5611C232.963 95.929 232.872 96.3234 232.872 96.7443V97.4205C232.872 97.9972 232.971 98.486 233.17 98.8871C233.372 99.2848 233.652 99.5881 234.01 99.7969C234.368 100.002 234.784 100.105 235.258 100.105C235.566 100.105 235.845 100.062 236.093 99.9759C236.345 99.8864 236.562 99.7538 236.744 99.5781C236.927 99.3991 237.068 99.1771 237.167 98.9119L238.301 99.2301C238.181 99.6146 237.981 99.9527 237.699 100.244C237.417 100.533 237.069 100.758 236.655 100.92C236.241 101.08 235.775 101.159 235.258 101.159ZM242.452 101.179C241.968 101.179 241.529 101.088 241.134 100.906C240.74 100.72 240.427 100.453 240.195 100.105C239.963 99.7538 239.847 99.3295 239.847 98.8324C239.847 98.3949 239.933 98.0402 240.105 97.7685C240.278 97.4934 240.508 97.2779 240.796 97.1222C241.085 96.9664 241.403 96.8504 241.751 96.7741C242.102 96.6946 242.455 96.6316 242.81 96.5852C243.274 96.5256 243.65 96.4808 243.938 96.451C244.23 96.4179 244.442 96.3632 244.575 96.2869C244.711 96.2107 244.779 96.0781 244.779 95.8892V95.8494C244.779 95.3589 244.644 94.9777 244.376 94.706C244.111 94.4342 243.708 94.2983 243.168 94.2983C242.608 94.2983 242.169 94.4209 241.85 94.6662C241.532 94.9115 241.308 95.1733 241.179 95.4517L240.066 95.054C240.264 94.59 240.53 94.2287 240.861 93.9702C241.196 93.7083 241.56 93.526 241.955 93.4233C242.352 93.3172 242.744 93.2642 243.128 93.2642C243.373 93.2642 243.655 93.294 243.973 93.3537C244.295 93.41 244.605 93.5277 244.903 93.7067C245.204 93.8857 245.455 94.1558 245.654 94.517C245.852 94.8783 245.952 95.3622 245.952 95.9688V101H244.779V99.9659H244.719C244.639 100.132 244.507 100.309 244.321 100.498C244.136 100.687 243.889 100.848 243.58 100.98C243.272 101.113 242.896 101.179 242.452 101.179ZM242.631 100.125C243.095 100.125 243.486 100.034 243.804 99.8516C244.126 99.6693 244.368 99.4339 244.53 99.1456C244.696 98.8572 244.779 98.554 244.779 98.2358V97.1619C244.729 97.2216 244.619 97.2763 244.45 97.326C244.285 97.3724 244.093 97.4138 243.874 97.4503C243.658 97.4834 243.448 97.5133 243.242 97.5398C243.04 97.563 242.876 97.5829 242.75 97.5994C242.445 97.6392 242.16 97.7038 241.895 97.7933C241.633 97.8795 241.421 98.0104 241.259 98.1861C241.1 98.3584 241.02 98.5937 241.02 98.892C241.02 99.2997 241.171 99.608 241.472 99.8168C241.777 100.022 242.164 100.125 242.631 100.125ZM251.414 93.3636V94.358H247.457V93.3636H251.414ZM248.61 91.5341H249.784V98.8125C249.784 99.1439 249.832 99.3925 249.928 99.5582C250.027 99.7206 250.153 99.83 250.306 99.8864C250.462 99.9394 250.626 99.9659 250.798 99.9659C250.927 99.9659 251.033 99.9593 251.116 99.946C251.199 99.9295 251.265 99.9162 251.315 99.9062L251.554 100.96C251.474 100.99 251.363 101.02 251.221 101.05C251.078 101.083 250.897 101.099 250.679 101.099C250.347 101.099 250.022 101.028 249.704 100.886C249.389 100.743 249.127 100.526 248.919 100.234C248.713 99.9427 248.61 99.5748 248.61 99.1307V91.5341ZM257.992 97.8778V93.3636H259.165V101H257.992V99.7074H257.912C257.733 100.095 257.455 100.425 257.077 100.697C256.699 100.965 256.222 101.099 255.645 101.099C255.168 101.099 254.744 100.995 254.373 100.786C254.001 100.574 253.71 100.256 253.498 99.8317C253.285 99.4041 253.179 98.8655 253.179 98.2159V93.3636H254.353V98.1364C254.353 98.6932 254.508 99.1373 254.82 99.4688C255.135 99.8002 255.536 99.9659 256.023 99.9659C256.315 99.9659 256.611 99.8913 256.913 99.7422C257.218 99.593 257.473 99.3643 257.679 99.0561C257.887 98.7479 257.992 98.3551 257.992 97.8778ZM261.314 101V93.3636H262.448V94.517H262.527C262.666 94.1392 262.918 93.8326 263.283 93.5973C263.647 93.362 264.058 93.2443 264.516 93.2443C264.602 93.2443 264.71 93.246 264.839 93.2493C264.968 93.2526 265.066 93.2576 265.132 93.2642V94.4574C265.093 94.4474 265.001 94.4325 264.859 94.4126C264.72 94.3894 264.572 94.3778 264.416 94.3778C264.045 94.3778 263.714 94.4557 263.422 94.6115C263.134 94.764 262.905 94.9761 262.736 95.2479C262.57 95.5163 262.487 95.8229 262.487 96.1676V101H261.314ZM269.492 101.159C268.757 101.159 268.122 100.997 267.588 100.672C267.058 100.344 266.649 99.8864 266.36 99.2997C266.075 98.7098 265.933 98.0237 265.933 97.2415C265.933 96.4593 266.075 95.7699 266.36 95.1733C266.649 94.5734 267.05 94.1061 267.563 93.7713C268.08 93.4332 268.684 93.2642 269.373 93.2642C269.771 93.2642 270.164 93.3305 270.551 93.4631C270.939 93.5956 271.292 93.8111 271.61 94.1094C271.928 94.4044 272.182 94.7955 272.371 95.2827C272.56 95.7699 272.654 96.3698 272.654 97.0824V97.5795H266.768V96.5653H271.461C271.461 96.1345 271.375 95.75 271.203 95.4119C271.034 95.0739 270.792 94.8071 270.477 94.6115C270.165 94.416 269.797 94.3182 269.373 94.3182C268.906 94.3182 268.501 94.4342 268.16 94.6662C267.822 94.8949 267.562 95.1932 267.379 95.5611C267.197 95.929 267.106 96.3234 267.106 96.7443V97.4205C267.106 97.9972 267.205 98.486 267.404 98.8871C267.606 99.2848 267.887 99.5881 268.244 99.7969C268.602 100.002 269.018 100.105 269.492 100.105C269.801 100.105 270.079 100.062 270.328 99.9759C270.579 99.8864 270.797 99.7538 270.979 99.5781C271.161 99.3991 271.302 99.1771 271.401 98.9119L272.535 99.2301C272.416 99.6146 272.215 99.9527 271.933 100.244C271.652 100.533 271.304 100.758 270.889 100.92C270.475 101.08 270.009 101.159 269.492 101.159ZM279.132 90.8182L281.757 95.054H281.837L284.462 90.8182H285.914L282.712 95.9091L285.914 101H284.462L281.837 96.8438H281.757L279.132 101H277.681L280.962 95.9091L277.681 90.8182H279.132ZM288.89 98.1364V98.0767C288.897 97.4437 288.963 96.9399 289.089 96.5653C289.215 96.1908 289.394 95.8875 289.626 95.6555C289.858 95.4235 290.136 95.2098 290.461 95.0142C290.657 94.8949 290.833 94.754 290.988 94.5916C291.144 94.4259 291.267 94.2353 291.356 94.0199C291.449 93.8045 291.495 93.5658 291.495 93.304C291.495 92.9792 291.419 92.6974 291.267 92.4588C291.114 92.2202 290.91 92.0362 290.655 91.907C290.4 91.7777 290.117 91.7131 289.805 91.7131C289.533 91.7131 289.271 91.7694 289.02 91.8821C288.768 91.9948 288.557 92.1721 288.388 92.4141C288.219 92.656 288.121 92.9725 288.095 93.3636H286.842C286.868 92.8002 287.014 92.3179 287.279 91.9169C287.548 91.5159 287.901 91.2093 288.338 90.9972C288.779 90.785 289.268 90.679 289.805 90.679C290.388 90.679 290.895 90.795 291.326 91.027C291.761 91.259 292.095 91.5772 292.331 91.9815C292.569 92.3859 292.689 92.8466 292.689 93.3636C292.689 93.7282 292.632 94.058 292.52 94.353C292.41 94.648 292.251 94.9115 292.042 95.1435C291.837 95.3755 291.588 95.581 291.297 95.7599C291.005 95.9422 290.771 96.1345 290.596 96.3366C290.42 96.5355 290.292 96.7725 290.213 97.0476C290.133 97.3227 290.09 97.6657 290.083 98.0767V98.1364H288.89ZM289.527 101.08C289.281 101.08 289.071 100.992 288.895 100.816C288.72 100.64 288.632 100.43 288.632 100.185C288.632 99.9394 288.72 99.7289 288.895 99.5533C289.071 99.3776 289.281 99.2898 289.527 99.2898C289.772 99.2898 289.982 99.3776 290.158 99.5533C290.334 99.7289 290.422 99.9394 290.422 100.185C290.422 100.347 290.38 100.496 290.297 100.632C290.218 100.768 290.11 100.877 289.974 100.96C289.842 101.04 289.692 101.08 289.527 101.08ZM295.489 90.8182V91.7131C295.489 91.9848 295.439 92.2749 295.34 92.5831C295.244 92.888 295.101 93.1847 294.912 93.473C294.727 93.758 294.501 94.0066 294.236 94.2188L293.6 93.7017C293.808 93.4034 293.989 93.0935 294.142 92.772C294.297 92.4472 294.375 92.1009 294.375 91.733V90.8182H295.489ZM298.034 90.8182V91.7131C298.034 91.9848 297.985 92.2749 297.885 92.5831C297.789 92.888 297.646 93.1847 297.458 93.473C297.272 93.758 297.047 94.0066 296.781 94.2188L296.145 93.7017C296.354 93.4034 296.535 93.0935 296.687 92.772C296.843 92.4472 296.921 92.1009 296.921 91.733V90.8182H298.034Z" fill="white"/>
</g>
</g>
</g>
<rect x="56.5" y="30.5" width="279" height="207" rx="11.5" stroke="#E9EBF1"/>
</g>
</g>
<defs>
<filter id="filter0_dd_333_15205" x="-40" y="-54" width="472" height="400" filterUnits="userSpaceOnUse" color-interpolation-filters="sRGB">
<feFlood flood-opacity="0" result="BackgroundImageFix"/>
<feColorMatrix in="SourceAlpha" type="matrix" values="0 0 0 0 0 0 0 0 0 0 0 0 0 0 0 0 0 0 127 0" result="hardAlpha"/>
<feOffset dy="12"/>
<feGaussianBlur stdDeviation="48"/>
<feComposite in2="hardAlpha" operator="out"/>
<feColorMatrix type="matrix" values="0 0 0 0 0.0235294 0 0 0 0 0.0431373 0 0 0 0 0.0745098 0 0 0 0.1 0"/>
<feBlend mode="normal" in2="BackgroundImageFix" result="effect1_dropShadow_333_15205"/>
<feColorMatrix in="SourceAlpha" type="matrix" values="0 0 0 0 0 0 0 0 0 0 0 0 0 0 0 0 0 0 127 0" result="hardAlpha"/>
<feMorphology radius="4" operator="dilate" in="SourceAlpha" result="effect2_dropShadow_333_15205"/>
<feOffset/>
<feComposite in2="hardAlpha" operator="out"/>
<feColorMatrix type="matrix" values="0 0 0 0 1 0 0 0 0 1 0 0 0 0 1 0 0 0 1 0"/>
<feBlend mode="normal" in2="effect1_dropShadow_333_15205" result="effect2_dropShadow_333_15205"/>
<feBlend mode="normal" in="SourceGraphic" in2="effect2_dropShadow_333_15205" result="shape"/>
</filter>
<clipPath id="clip0_333_15205">
<rect x="56" y="30" width="280" height="208" rx="12" fill="white"/>
</clipPath>
<clipPath id="clip1_333_15205">
<rect x="56" y="30" width="280" height="208" rx="12" fill="white"/>
</clipPath>
<clipPath id="clip2_333_15205">
<rect width="280" height="208" fill="white" transform="translate(56 30)"/>
</clipPath>
<clipPath id="clip3_333_15205">
<rect width="280" height="208" fill="white" transform="translate(56 38)"/>
</clipPath>
</defs>
</svg>
