<svg width="288" height="216" viewBox="0 0 288 216" fill="none" xmlns="http://www.w3.org/2000/svg">
<g filter="url(#filter0_i_371_2760)">
<mask id="mask0_371_2760" style="mask-type:luminance" maskUnits="userSpaceOnUse" x="4" y="4" width="280" height="208">
<path d="M272 4H16C9.37258 4 4 9.37258 4 16V200C4 206.627 9.37258 212 16 212H272C278.627 212 284 206.627 284 200V16C284 9.37258 278.627 4 272 4Z" fill="white"/>
</mask>
<g mask="url(#mask0_371_2760)">
<path d="M272 4H16C9.37258 4 4 9.37258 4 16V200C4 206.627 9.37258 212 16 212H272C278.627 212 284 206.627 284 200V16C284 9.37258 278.627 4 272 4Z" fill="white" fill-opacity="0.01"/>
<mask id="mask1_371_2760" style="mask-type:luminance" maskUnits="userSpaceOnUse" x="4" y="4" width="280" height="208">
<path d="M272 4H16C9.37258 4 4 9.37258 4 16V200C4 206.627 9.37258 212 16 212H272C278.627 212 284 206.627 284 200V16C284 9.37258 278.627 4 272 4Z" fill="white"/>
</mask>
<g mask="url(#mask1_371_2760)">
<mask id="mask2_371_2760" style="mask-type:luminance" maskUnits="userSpaceOnUse" x="4" y="4" width="280" height="208">
<path d="M284 4H4V212H284V4Z" fill="white"/>
</mask>
<g mask="url(#mask2_371_2760)">
<mask id="mask3_371_2760" style="mask-type:luminance" maskUnits="userSpaceOnUse" x="4" y="12" width="280" height="208">
<path d="M284 12H4V220H284V12Z" fill="white"/>
</mask>
<g mask="url(#mask3_371_2760)">
<path d="M4 12H284V220H4V12Z" fill="white"/>
<path d="M29.9784 129H28.3477L32.0118 118.818H33.7866L37.4507 129H35.82L32.9415 120.668H32.8619L29.9784 129ZM30.2518 125.013H35.5416V126.305H30.2518V125.013ZM40.4573 118.818V129H38.921V118.818H40.4573Z" fill="#344054"/>
<path d="M218.396 119.273H219.453V125.511C219.453 126.068 219.35 126.541 219.146 126.93C218.941 127.32 218.653 127.615 218.281 127.817C217.909 128.018 217.47 128.119 216.964 128.119C216.487 128.119 216.062 128.033 215.69 127.859C215.318 127.683 215.025 127.433 214.812 127.109C214.599 126.786 214.492 126.401 214.492 125.955H215.532C215.532 126.202 215.593 126.418 215.715 126.602C215.84 126.784 216.011 126.926 216.227 127.028C216.443 127.131 216.688 127.182 216.964 127.182C217.268 127.182 217.526 127.118 217.739 126.99C217.953 126.862 218.114 126.675 218.225 126.428C218.339 126.178 218.396 125.872 218.396 125.511V119.273ZM225.559 125.324V121.455H226.565V128H225.559V126.892H225.491C225.337 127.224 225.099 127.507 224.775 127.74C224.451 127.97 224.042 128.085 223.548 128.085C223.139 128.085 222.775 127.996 222.457 127.817C222.139 127.635 221.889 127.362 221.707 126.999C221.525 126.632 221.434 126.17 221.434 125.614V121.455H222.44V125.545C222.44 126.023 222.573 126.403 222.84 126.688C223.11 126.972 223.454 127.114 223.872 127.114C224.122 127.114 224.376 127.05 224.634 126.922C224.896 126.794 225.114 126.598 225.291 126.334C225.47 126.07 225.559 125.733 225.559 125.324ZM233.043 122.92L232.14 123.176C232.083 123.026 231.999 122.879 231.888 122.737C231.78 122.592 231.633 122.473 231.445 122.379C231.258 122.286 231.018 122.239 230.725 122.239C230.324 122.239 229.991 122.331 229.723 122.516C229.459 122.697 229.327 122.929 229.327 123.21C229.327 123.46 229.418 123.658 229.6 123.803C229.782 123.947 230.066 124.068 230.452 124.165L231.424 124.403C232.009 124.545 232.445 124.763 232.732 125.055C233.019 125.345 233.162 125.719 233.162 126.176C233.162 126.551 233.054 126.886 232.839 127.182C232.625 127.477 232.327 127.71 231.944 127.881C231.56 128.051 231.114 128.136 230.606 128.136C229.938 128.136 229.385 127.991 228.948 127.702C228.51 127.412 228.233 126.989 228.117 126.432L229.072 126.193C229.162 126.545 229.334 126.81 229.587 126.986C229.843 127.162 230.177 127.25 230.589 127.25C231.057 127.25 231.429 127.151 231.705 126.952C231.983 126.75 232.123 126.509 232.123 126.227C232.123 126 232.043 125.81 231.884 125.656C231.725 125.5 231.481 125.384 231.151 125.307L230.06 125.051C229.461 124.909 229.02 124.689 228.739 124.391C228.461 124.089 228.322 123.713 228.322 123.261C228.322 122.892 228.425 122.565 228.633 122.281C228.843 121.997 229.128 121.774 229.489 121.612C229.853 121.45 230.265 121.369 230.725 121.369C231.373 121.369 231.881 121.511 232.25 121.795C232.623 122.08 232.887 122.455 233.043 122.92ZM237.523 121.455V122.307H234.131V121.455H237.523ZM235.119 119.886H236.125V126.125C236.125 126.409 236.166 126.622 236.249 126.764C236.334 126.903 236.442 126.997 236.573 127.045C236.706 127.091 236.847 127.114 236.994 127.114C237.105 127.114 237.196 127.108 237.267 127.097C237.338 127.082 237.395 127.071 237.438 127.062L237.642 127.966C237.574 127.991 237.479 128.017 237.357 128.043C237.235 128.071 237.08 128.085 236.892 128.085C236.608 128.085 236.33 128.024 236.057 127.902C235.787 127.78 235.563 127.594 235.384 127.344C235.208 127.094 235.119 126.778 235.119 126.398V119.886ZM243.416 124.062V128H242.411V121.455H243.382V122.477H243.467C243.621 122.145 243.854 121.878 244.166 121.676C244.479 121.472 244.882 121.369 245.377 121.369C245.82 121.369 246.208 121.46 246.54 121.642C246.872 121.821 247.131 122.094 247.315 122.46C247.5 122.824 247.592 123.284 247.592 123.841V128H246.587V123.909C246.587 123.395 246.453 122.994 246.186 122.707C245.919 122.418 245.553 122.273 245.087 122.273C244.766 122.273 244.479 122.342 244.226 122.482C243.976 122.621 243.779 122.824 243.634 123.091C243.489 123.358 243.416 123.682 243.416 124.062ZM252.089 128.136C251.498 128.136 250.98 127.996 250.534 127.714C250.091 127.433 249.744 127.04 249.494 126.534C249.247 126.028 249.123 125.437 249.123 124.761C249.123 124.08 249.247 123.484 249.494 122.976C249.744 122.467 250.091 122.072 250.534 121.791C250.98 121.51 251.498 121.369 252.089 121.369C252.68 121.369 253.197 121.51 253.64 121.791C254.086 122.072 254.433 122.467 254.68 122.976C254.93 123.484 255.055 124.08 255.055 124.761C255.055 125.437 254.93 126.028 254.68 126.534C254.433 127.04 254.086 127.433 253.64 127.714C253.197 127.996 252.68 128.136 252.089 128.136ZM252.089 127.233C252.538 127.233 252.907 127.118 253.197 126.888C253.487 126.658 253.701 126.355 253.841 125.98C253.98 125.605 254.049 125.199 254.049 124.761C254.049 124.324 253.98 123.916 253.841 123.538C253.701 123.161 253.487 122.855 253.197 122.622C252.907 122.389 252.538 122.273 252.089 122.273C251.64 122.273 251.271 122.389 250.981 122.622C250.692 122.855 250.477 123.161 250.338 123.538C250.199 123.916 250.129 124.324 250.129 124.761C250.129 125.199 250.199 125.605 250.338 125.98C250.477 126.355 250.692 126.658 250.981 126.888C251.271 127.118 251.64 127.233 252.089 127.233ZM257.851 128L255.856 121.455H256.913L258.328 126.466H258.396L259.794 121.455H260.868L262.248 126.449H262.317L263.731 121.455H264.788L262.794 128H261.805L260.373 122.972H260.271L258.839 128H257.851Z" fill="#475467"/>
<path d="M258 140.5C262.142 140.5 265.5 143.858 265.5 148V172C265.5 176.142 262.142 179.5 258 179.5H36C31.8579 179.5 28.5 176.142 28.5 172V140.5H258Z" fill="#F9FAFB"/>
<path d="M258 140.5C262.142 140.5 265.5 143.858 265.5 148V172C265.5 176.142 262.142 179.5 258 179.5H36C31.8579 179.5 28.5 176.142 28.5 172V140.5H258Z" stroke="#EAECF0"/>
<path d="M48.8025 157.364C48.7429 156.86 48.5009 156.469 48.0767 156.19C47.6524 155.912 47.1321 155.773 46.5156 155.773C46.0648 155.773 45.6704 155.846 45.3324 155.991C44.9976 156.137 44.7358 156.338 44.5469 156.593C44.3612 156.848 44.2684 157.138 44.2684 157.463C44.2684 157.735 44.3331 157.969 44.4623 158.164C44.5949 158.356 44.7639 158.517 44.9694 158.646C45.1749 158.772 45.3904 158.877 45.6157 158.96C45.8411 159.039 46.0483 159.104 46.2372 159.153L47.2713 159.432C47.5364 159.501 47.8314 159.598 48.1562 159.72C48.4844 159.843 48.7976 160.01 49.0959 160.222C49.3975 160.431 49.646 160.7 49.8416 161.028C50.0371 161.356 50.1349 161.759 50.1349 162.236C50.1349 162.786 49.9907 163.283 49.7024 163.727C49.4174 164.171 48.9997 164.524 48.4496 164.786C47.9027 165.048 47.2381 165.179 46.4559 165.179C45.7268 165.179 45.0954 165.061 44.5618 164.826C44.0315 164.591 43.6139 164.263 43.3089 163.842C43.0073 163.421 42.8366 162.932 42.7969 162.375H44.0696C44.1027 162.759 44.232 163.078 44.4574 163.33C44.6861 163.578 44.9744 163.764 45.3224 163.886C45.6737 164.006 46.0516 164.065 46.4559 164.065C46.9266 164.065 47.3492 163.989 47.7237 163.837C48.0982 163.681 48.3949 163.465 48.6136 163.19C48.8324 162.912 48.9417 162.587 48.9417 162.216C48.9417 161.878 48.8473 161.603 48.6584 161.391C48.4694 161.179 48.2209 161.006 47.9126 160.874C47.6044 160.741 47.2713 160.625 46.9133 160.526L45.6605 160.168C44.865 159.939 44.2353 159.612 43.7713 159.188C43.3073 158.764 43.0753 158.209 43.0753 157.523C43.0753 156.953 43.2294 156.455 43.5376 156.031C43.8492 155.604 44.2668 155.272 44.7905 155.037C45.3175 154.798 45.9058 154.679 46.5554 154.679C47.2116 154.679 47.795 154.797 48.3054 155.032C48.8158 155.264 49.2202 155.582 49.5184 155.987C49.8201 156.391 49.9791 156.85 49.9957 157.364H48.8025ZM55.2047 165.159C54.4689 165.159 53.8342 164.997 53.3006 164.672C52.7703 164.344 52.361 163.886 52.0726 163.3C51.7876 162.71 51.645 162.024 51.645 161.241C51.645 160.459 51.7876 159.77 52.0726 159.173C52.361 158.573 52.762 158.106 53.2757 157.771C53.7928 157.433 54.396 157.264 55.0854 157.264C55.4831 157.264 55.8759 157.33 56.2637 157.463C56.6514 157.596 57.0044 157.811 57.3226 158.109C57.6408 158.404 57.8943 158.795 58.0833 159.283C58.2722 159.77 58.3666 160.37 58.3666 161.082V161.58H52.4803V160.565H57.1735C57.1735 160.134 57.0873 159.75 56.9149 159.412C56.7459 159.074 56.5039 158.807 56.1891 158.612C55.8775 158.416 55.5096 158.318 55.0854 158.318C54.6181 158.318 54.2137 158.434 53.8723 158.666C53.5342 158.895 53.2741 159.193 53.0918 159.561C52.9095 159.929 52.8183 160.323 52.8183 160.744V161.42C52.8183 161.997 52.9178 162.486 53.1166 162.887C53.3188 163.285 53.5989 163.588 53.9568 163.797C54.3148 164.002 54.7307 164.105 55.2047 164.105C55.5129 164.105 55.7914 164.062 56.0399 163.976C56.2918 163.886 56.5089 163.754 56.6912 163.578C56.8735 163.399 57.0144 163.177 57.1138 162.912L58.2473 163.23C58.128 163.615 57.9275 163.953 57.6458 164.244C57.364 164.533 57.016 164.758 56.6017 164.92C56.1874 165.08 55.7217 165.159 55.2047 165.159ZM62.3986 165.179C61.9147 165.179 61.4755 165.088 61.0811 164.906C60.6867 164.72 60.3735 164.453 60.1415 164.105C59.9095 163.754 59.7935 163.33 59.7935 162.832C59.7935 162.395 59.8797 162.04 60.052 161.768C60.2244 161.493 60.4547 161.278 60.7431 161.122C61.0314 160.966 61.3496 160.85 61.6976 160.774C62.0489 160.695 62.4019 160.632 62.7565 160.585C63.2206 160.526 63.5967 160.481 63.8851 160.451C64.1768 160.418 64.3889 160.363 64.5215 160.287C64.6574 160.211 64.7253 160.078 64.7253 159.889V159.849C64.7253 159.359 64.5911 158.978 64.3226 158.706C64.0574 158.434 63.6548 158.298 63.1145 158.298C62.5544 158.298 62.1152 158.421 61.797 158.666C61.4789 158.911 61.2551 159.173 61.1259 159.452L60.0122 159.054C60.2111 158.59 60.4762 158.229 60.8077 157.97C61.1424 157.708 61.507 157.526 61.9014 157.423C62.2992 157.317 62.6903 157.264 63.0747 157.264C63.32 157.264 63.6017 157.294 63.9199 157.354C64.2414 157.41 64.5513 157.528 64.8496 157.707C65.1512 157.886 65.4014 158.156 65.6003 158.517C65.7992 158.878 65.8986 159.362 65.8986 159.969V165H64.7253V163.966H64.6656C64.5861 164.132 64.4535 164.309 64.2679 164.498C64.0823 164.687 63.8354 164.848 63.5271 164.98C63.2189 165.113 62.8427 165.179 62.3986 165.179ZM62.5776 164.125C63.0416 164.125 63.4327 164.034 63.7509 163.852C64.0724 163.669 64.3143 163.434 64.4767 163.146C64.6424 162.857 64.7253 162.554 64.7253 162.236V161.162C64.6756 161.222 64.5662 161.276 64.3972 161.326C64.2315 161.372 64.0392 161.414 63.8205 161.45C63.605 161.483 63.3946 161.513 63.1891 161.54C62.9869 161.563 62.8228 161.583 62.6969 161.599C62.392 161.639 62.1069 161.704 61.8418 161.793C61.5799 161.879 61.3678 162.01 61.2054 162.186C61.0463 162.358 60.9668 162.594 60.9668 162.892C60.9668 163.3 61.1176 163.608 61.4192 163.817C61.7241 164.022 62.1102 164.125 62.5776 164.125ZM68.0401 165V157.364H69.1736V158.517H69.2532C69.3924 158.139 69.6443 157.833 70.0089 157.597C70.3734 157.362 70.7844 157.244 71.2418 157.244C71.328 157.244 71.4357 157.246 71.565 157.249C71.6942 157.253 71.792 157.258 71.8583 157.264V158.457C71.8185 158.447 71.7274 158.433 71.5849 158.413C71.4456 158.389 71.2982 158.378 71.1424 158.378C70.7712 158.378 70.4397 158.456 70.1481 158.612C69.8597 158.764 69.631 158.976 69.462 159.248C69.2963 159.516 69.2134 159.823 69.2134 160.168V165H68.0401ZM76.1189 165.159C75.403 165.159 74.7866 164.99 74.2695 164.652C73.7525 164.314 73.3547 163.848 73.0763 163.255C72.7979 162.662 72.6587 161.984 72.6587 161.222C72.6587 160.446 72.8012 159.762 73.0863 159.168C73.3746 158.572 73.7757 158.106 74.2894 157.771C74.8064 157.433 75.4097 157.264 76.0991 157.264C76.636 157.264 77.1199 157.364 77.5508 157.562C77.9816 157.761 78.3346 158.04 78.6097 158.398C78.8848 158.756 79.0555 159.173 79.1218 159.651H77.9485C77.859 159.303 77.6601 158.994 77.3519 158.726C77.047 158.454 76.636 158.318 76.1189 158.318C75.6616 158.318 75.2605 158.437 74.9158 158.676C74.5744 158.911 74.3076 159.245 74.1154 159.675C73.9265 160.103 73.832 160.605 73.832 161.182C73.832 161.772 73.9248 162.286 74.1104 162.723C74.2993 163.161 74.5645 163.5 74.9059 163.742C75.2506 163.984 75.6549 164.105 76.1189 164.105C76.4239 164.105 76.7006 164.052 76.9492 163.946C77.1978 163.84 77.4082 163.688 77.5806 163.489C77.7529 163.29 77.8756 163.051 77.9485 162.773H79.1218C79.0555 163.223 78.8914 163.629 78.6296 163.991C78.3711 164.349 78.028 164.634 77.6005 164.846C77.1762 165.055 76.6824 165.159 76.1189 165.159ZM82.0103 160.406V165H80.837V154.818H82.0103V158.557H82.1097C82.2887 158.162 82.5572 157.849 82.9151 157.617C83.2764 157.382 83.757 157.264 84.3569 157.264C84.8772 157.264 85.333 157.369 85.7241 157.577C86.1152 157.783 86.4184 158.099 86.6339 158.527C86.8526 158.951 86.962 159.491 86.962 160.148V165H85.7887V160.227C85.7887 159.621 85.6313 159.152 85.3164 158.82C85.0048 158.486 84.5723 158.318 84.0188 158.318C83.6343 158.318 83.2896 158.399 82.9847 158.562C82.6831 158.724 82.4445 158.961 82.2688 159.273C82.0965 159.584 82.0103 159.962 82.0103 160.406ZM89.1085 165V157.364H90.2818V165H89.1085ZM89.7051 156.091C89.4764 156.091 89.2792 156.013 89.1134 155.857C88.951 155.701 88.8698 155.514 88.8698 155.295C88.8698 155.077 88.951 154.889 89.1134 154.734C89.2792 154.578 89.4764 154.5 89.7051 154.5C89.9338 154.5 90.1293 154.578 90.2917 154.734C90.4574 154.889 90.5403 155.077 90.5403 155.295C90.5403 155.514 90.4574 155.701 90.2917 155.857C90.1293 156.013 89.9338 156.091 89.7051 156.091ZM93.604 160.406V165H92.4307V157.364H93.5643V158.557H93.6637C93.8427 158.169 94.1144 157.857 94.479 157.622C94.8436 157.384 95.3143 157.264 95.891 157.264C96.408 157.264 96.8604 157.37 97.2482 157.582C97.636 157.791 97.9376 158.109 98.153 158.537C98.3685 158.961 98.4762 159.498 98.4762 160.148V165H97.3029V160.227C97.3029 159.627 97.1471 159.16 96.8356 158.825C96.524 158.487 96.0965 158.318 95.5529 158.318C95.1784 158.318 94.8436 158.399 94.5486 158.562C94.257 158.724 94.0266 158.961 93.8576 159.273C93.6885 159.584 93.604 159.962 93.604 160.406ZM103.702 168.023C103.135 168.023 102.648 167.95 102.241 167.804C101.833 167.661 101.493 167.473 101.221 167.237C100.953 167.005 100.739 166.757 100.58 166.491L101.515 165.835C101.621 165.974 101.755 166.134 101.917 166.312C102.08 166.495 102.302 166.652 102.584 166.785C102.869 166.921 103.241 166.989 103.702 166.989C104.319 166.989 104.827 166.839 105.228 166.541C105.629 166.243 105.83 165.776 105.83 165.139V163.588H105.731C105.644 163.727 105.522 163.9 105.363 164.105C105.207 164.307 104.982 164.488 104.687 164.647C104.395 164.803 104 164.881 103.503 164.881C102.887 164.881 102.333 164.735 101.843 164.443C101.356 164.152 100.969 163.727 100.684 163.17C100.403 162.614 100.262 161.937 100.262 161.142C100.262 160.36 100.399 159.679 100.674 159.099C100.95 158.515 101.332 158.065 101.823 157.746C102.313 157.425 102.88 157.264 103.523 157.264C104.02 157.264 104.415 157.347 104.706 157.513C105.001 157.675 105.227 157.861 105.383 158.07C105.542 158.275 105.664 158.444 105.75 158.577H105.87V157.364H107.003V165.219C107.003 165.875 106.854 166.409 106.556 166.82C106.261 167.234 105.863 167.537 105.363 167.729C104.866 167.925 104.312 168.023 103.702 168.023ZM103.662 163.827C104.133 163.827 104.531 163.719 104.856 163.504C105.18 163.288 105.427 162.978 105.596 162.574C105.765 162.17 105.85 161.686 105.85 161.122C105.85 160.572 105.767 160.086 105.601 159.665C105.436 159.245 105.19 158.915 104.866 158.676C104.541 158.437 104.14 158.318 103.662 158.318C103.165 158.318 102.751 158.444 102.42 158.696C102.091 158.948 101.844 159.286 101.679 159.71C101.516 160.134 101.435 160.605 101.435 161.122C101.435 161.652 101.518 162.121 101.684 162.529C101.853 162.933 102.101 163.252 102.429 163.484C102.761 163.712 103.172 163.827 103.662 163.827ZM113.844 167.864C113.645 167.864 113.468 167.847 113.312 167.814C113.156 167.784 113.049 167.754 112.989 167.724L113.287 166.69C113.572 166.763 113.824 166.79 114.043 166.77C114.262 166.75 114.456 166.652 114.625 166.477C114.797 166.304 114.955 166.024 115.097 165.636L115.316 165.04L112.492 157.364H113.765L115.873 163.449H115.952L118.06 157.364H119.333L116.091 166.114C115.946 166.508 115.765 166.835 115.549 167.093C115.334 167.355 115.084 167.549 114.799 167.675C114.517 167.801 114.199 167.864 113.844 167.864ZM123.71 165.159C123.021 165.159 122.416 164.995 121.896 164.667C121.379 164.339 120.974 163.88 120.683 163.29C120.394 162.7 120.25 162.01 120.25 161.222C120.25 160.426 120.394 159.732 120.683 159.138C120.974 158.545 121.379 158.085 121.896 157.756C122.416 157.428 123.021 157.264 123.71 157.264C124.4 157.264 125.003 157.428 125.52 157.756C126.04 158.085 126.445 158.545 126.733 159.138C127.025 159.732 127.171 160.426 127.171 161.222C127.171 162.01 127.025 162.7 126.733 163.29C126.445 163.88 126.04 164.339 125.52 164.667C125.003 164.995 124.4 165.159 123.71 165.159ZM123.71 164.105C124.234 164.105 124.665 163.971 125.003 163.702C125.341 163.434 125.591 163.081 125.754 162.643C125.916 162.206 125.997 161.732 125.997 161.222C125.997 160.711 125.916 160.236 125.754 159.795C125.591 159.354 125.341 158.998 125.003 158.726C124.665 158.454 124.234 158.318 123.71 158.318C123.187 158.318 122.756 158.454 122.418 158.726C122.08 158.998 121.829 159.354 121.667 159.795C121.505 160.236 121.423 160.711 121.423 161.222C121.423 161.732 121.505 162.206 121.667 162.643C121.829 163.081 122.08 163.434 122.418 163.702C122.756 163.971 123.187 164.105 123.71 164.105ZM133.774 161.878V157.364H134.947V165H133.774V163.707H133.695C133.516 164.095 133.237 164.425 132.859 164.697C132.481 164.965 132.004 165.099 131.427 165.099C130.95 165.099 130.526 164.995 130.155 164.786C129.784 164.574 129.492 164.256 129.28 163.832C129.068 163.404 128.962 162.866 128.962 162.216V157.364H130.135V162.136C130.135 162.693 130.291 163.137 130.602 163.469C130.917 163.8 131.318 163.966 131.805 163.966C132.097 163.966 132.394 163.891 132.695 163.742C133 163.593 133.255 163.364 133.461 163.056C133.67 162.748 133.774 162.355 133.774 161.878ZM137.096 165V157.364H138.23V158.517H138.309C138.449 158.139 138.701 157.833 139.065 157.597C139.43 157.362 139.841 157.244 140.298 157.244C140.384 157.244 140.492 157.246 140.621 157.249C140.75 157.253 140.848 157.258 140.915 157.264V158.457C140.875 158.447 140.784 158.433 140.641 158.413C140.502 158.389 140.354 158.378 140.199 158.378C139.827 158.378 139.496 158.456 139.204 158.612C138.916 158.764 138.687 158.976 138.518 159.248C138.353 159.516 138.27 159.823 138.27 160.168V165H137.096ZM149.126 165.159C148.49 165.159 147.928 164.998 147.441 164.677C146.954 164.352 146.573 163.895 146.298 163.305C146.022 162.711 145.885 162.01 145.885 161.202C145.885 160.4 146.022 159.704 146.298 159.114C146.573 158.524 146.955 158.068 147.446 157.746C147.936 157.425 148.503 157.264 149.146 157.264C149.643 157.264 150.036 157.347 150.325 157.513C150.616 157.675 150.838 157.861 150.991 158.07C151.146 158.275 151.267 158.444 151.354 158.577H151.453V154.818H152.626V165H151.493V163.827H151.354C151.267 163.966 151.145 164.142 150.986 164.354C150.827 164.562 150.6 164.75 150.305 164.915C150.01 165.078 149.617 165.159 149.126 165.159ZM149.285 164.105C149.756 164.105 150.154 163.982 150.479 163.737C150.803 163.489 151.05 163.146 151.219 162.708C151.388 162.267 151.473 161.759 151.473 161.182C151.473 160.612 151.39 160.113 151.224 159.685C151.059 159.254 150.813 158.92 150.489 158.681C150.164 158.439 149.763 158.318 149.285 158.318C148.788 158.318 148.374 158.446 148.043 158.701C147.714 158.953 147.468 159.296 147.302 159.73C147.139 160.161 147.058 160.645 147.058 161.182C147.058 161.725 147.141 162.219 147.307 162.663C147.476 163.104 147.724 163.455 148.052 163.717C148.384 163.976 148.795 164.105 149.285 164.105ZM158.04 165.159C157.351 165.159 156.746 164.995 156.226 164.667C155.709 164.339 155.304 163.88 155.013 163.29C154.724 162.7 154.58 162.01 154.58 161.222C154.58 160.426 154.724 159.732 155.013 159.138C155.304 158.545 155.709 158.085 156.226 157.756C156.746 157.428 157.351 157.264 158.04 157.264C158.73 157.264 159.333 157.428 159.85 157.756C160.37 158.085 160.775 158.545 161.063 159.138C161.355 159.732 161.501 160.426 161.501 161.222C161.501 162.01 161.355 162.7 161.063 163.29C160.775 163.88 160.37 164.339 159.85 164.667C159.333 164.995 158.73 165.159 158.04 165.159ZM158.04 164.105C158.564 164.105 158.995 163.971 159.333 163.702C159.671 163.434 159.921 163.081 160.084 162.643C160.246 162.206 160.327 161.732 160.327 161.222C160.327 160.711 160.246 160.236 160.084 159.795C159.921 159.354 159.671 158.998 159.333 158.726C158.995 158.454 158.564 158.318 158.04 158.318C157.517 158.318 157.086 158.454 156.748 158.726C156.41 158.998 156.159 159.354 155.997 159.795C155.835 160.236 155.753 160.711 155.753 161.222C155.753 161.732 155.835 162.206 155.997 162.643C156.159 163.081 156.41 163.434 156.748 163.702C157.086 163.971 157.517 164.105 158.04 164.105ZM166.394 165.159C165.678 165.159 165.062 164.99 164.545 164.652C164.027 164.314 163.63 163.848 163.351 163.255C163.073 162.662 162.934 161.984 162.934 161.222C162.934 160.446 163.076 159.762 163.361 159.168C163.65 158.572 164.051 158.106 164.564 157.771C165.081 157.433 165.685 157.264 166.374 157.264C166.911 157.264 167.395 157.364 167.826 157.562C168.257 157.761 168.61 158.04 168.885 158.398C169.16 158.756 169.33 159.173 169.397 159.651H168.223C168.134 159.303 167.935 158.994 167.627 158.726C167.322 158.454 166.911 158.318 166.394 158.318C165.937 158.318 165.536 158.437 165.191 158.676C164.849 158.911 164.583 159.245 164.39 159.675C164.201 160.103 164.107 160.605 164.107 161.182C164.107 161.772 164.2 162.286 164.385 162.723C164.574 163.161 164.839 163.5 165.181 163.742C165.526 163.984 165.93 164.105 166.394 164.105C166.699 164.105 166.976 164.052 167.224 163.946C167.473 163.84 167.683 163.688 167.856 163.489C168.028 163.29 168.151 163.051 168.223 162.773H169.397C169.33 163.223 169.166 163.629 168.905 163.991C168.646 164.349 168.303 164.634 167.875 164.846C167.451 165.055 166.957 165.159 166.394 165.159ZM175.924 161.878V157.364H177.098V165H175.924V163.707H175.845C175.666 164.095 175.388 164.425 175.01 164.697C174.632 164.965 174.155 165.099 173.578 165.099C173.101 165.099 172.676 164.995 172.305 164.786C171.934 164.574 171.642 164.256 171.43 163.832C171.218 163.404 171.112 162.866 171.112 162.216V157.364H172.285V162.136C172.285 162.693 172.441 163.137 172.753 163.469C173.067 163.8 173.469 163.966 173.956 163.966C174.247 163.966 174.544 163.891 174.846 163.742C175.151 163.593 175.406 163.364 175.611 163.056C175.82 162.748 175.924 162.355 175.924 161.878ZM179.247 165V157.364H180.38V158.557H180.48C180.639 158.149 180.896 157.833 181.25 157.607C181.605 157.379 182.031 157.264 182.528 157.264C183.032 157.264 183.451 157.379 183.786 157.607C184.124 157.833 184.387 158.149 184.576 158.557H184.656C184.851 158.162 185.145 157.849 185.536 157.617C185.927 157.382 186.396 157.264 186.943 157.264C187.626 157.264 188.184 157.478 188.618 157.906C189.052 158.33 189.269 158.991 189.269 159.889V165H188.096V159.889C188.096 159.326 187.942 158.923 187.634 158.681C187.326 158.439 186.963 158.318 186.545 158.318C186.008 158.318 185.592 158.481 185.297 158.805C185.002 159.127 184.855 159.535 184.855 160.028V165H183.662V159.77C183.662 159.336 183.521 158.986 183.239 158.721C182.957 158.452 182.594 158.318 182.15 158.318C181.845 158.318 181.56 158.399 181.295 158.562C181.033 158.724 180.821 158.95 180.659 159.238C180.5 159.523 180.42 159.853 180.42 160.227V165H179.247ZM194.616 165.159C193.881 165.159 193.246 164.997 192.712 164.672C192.182 164.344 191.773 163.886 191.484 163.3C191.199 162.71 191.057 162.024 191.057 161.241C191.057 160.459 191.199 159.77 191.484 159.173C191.773 158.573 192.174 158.106 192.687 157.771C193.204 157.433 193.808 157.264 194.497 157.264C194.895 157.264 195.288 157.33 195.675 157.463C196.063 157.596 196.416 157.811 196.734 158.109C197.052 158.404 197.306 158.795 197.495 159.283C197.684 159.77 197.778 160.37 197.778 161.082V161.58H191.892V160.565H196.585C196.585 160.134 196.499 159.75 196.327 159.412C196.158 159.074 195.916 158.807 195.601 158.612C195.289 158.416 194.921 158.318 194.497 158.318C194.03 158.318 193.625 158.434 193.284 158.666C192.946 158.895 192.686 159.193 192.503 159.561C192.321 159.929 192.23 160.323 192.23 160.744V161.42C192.23 161.997 192.329 162.486 192.528 162.887C192.731 163.285 193.011 163.588 193.369 163.797C193.726 164.002 194.142 164.105 194.616 164.105C194.925 164.105 195.203 164.062 195.452 163.976C195.704 163.886 195.921 163.754 196.103 163.578C196.285 163.399 196.426 163.177 196.526 162.912L197.659 163.23C197.54 163.615 197.339 163.953 197.057 164.244C196.776 164.533 196.428 164.758 196.013 164.92C195.599 165.08 195.133 165.159 194.616 165.159ZM200.736 160.406V165H199.563V157.364H200.697V158.557H200.796C200.975 158.169 201.247 157.857 201.611 157.622C201.976 157.384 202.447 157.264 203.023 157.264C203.54 157.264 203.993 157.37 204.381 157.582C204.768 157.791 205.07 158.109 205.285 158.537C205.501 158.961 205.609 159.498 205.609 160.148V165H204.435V160.227C204.435 159.627 204.28 159.16 203.968 158.825C203.656 158.487 203.229 158.318 202.685 158.318C202.311 158.318 201.976 158.399 201.681 158.562C201.389 158.724 201.159 158.961 200.99 159.273C200.821 159.584 200.736 159.962 200.736 160.406ZM211.074 157.364V158.358H207.116V157.364H211.074ZM208.27 155.534H209.443V162.812C209.443 163.144 209.491 163.393 209.587 163.558C209.687 163.721 209.812 163.83 209.965 163.886C210.121 163.939 210.285 163.966 210.457 163.966C210.586 163.966 210.692 163.959 210.775 163.946C210.858 163.929 210.924 163.916 210.974 163.906L211.213 164.96C211.133 164.99 211.022 165.02 210.88 165.05C210.737 165.083 210.557 165.099 210.338 165.099C210.006 165.099 209.682 165.028 209.363 164.886C209.049 164.743 208.787 164.526 208.578 164.234C208.372 163.943 208.27 163.575 208.27 163.131V155.534ZM218.111 159.074L217.057 159.372C216.991 159.196 216.893 159.026 216.764 158.86C216.638 158.691 216.465 158.552 216.247 158.442C216.028 158.333 215.748 158.278 215.406 158.278C214.939 158.278 214.55 158.386 214.238 158.602C213.93 158.814 213.776 159.084 213.776 159.412C213.776 159.704 213.882 159.934 214.094 160.103C214.306 160.272 214.637 160.413 215.088 160.526L216.222 160.804C216.904 160.97 217.413 161.223 217.748 161.565C218.083 161.903 218.25 162.339 218.25 162.872C218.25 163.31 218.124 163.701 217.872 164.045C217.624 164.39 217.276 164.662 216.828 164.861C216.381 165.06 215.86 165.159 215.267 165.159C214.488 165.159 213.844 164.99 213.333 164.652C212.823 164.314 212.5 163.82 212.364 163.17L213.477 162.892C213.583 163.303 213.784 163.611 214.079 163.817C214.377 164.022 214.767 164.125 215.247 164.125C215.794 164.125 216.228 164.009 216.55 163.777C216.875 163.542 217.037 163.26 217.037 162.932C217.037 162.667 216.944 162.445 216.759 162.266C216.573 162.083 216.288 161.947 215.904 161.858L214.631 161.56C213.931 161.394 213.418 161.137 213.09 160.789C212.765 160.438 212.602 159.999 212.602 159.472C212.602 159.041 212.723 158.66 212.965 158.328C213.211 157.997 213.544 157.737 213.965 157.548C214.389 157.359 214.869 157.264 215.406 157.264C216.162 157.264 216.755 157.43 217.186 157.761C217.62 158.093 217.929 158.53 218.111 159.074ZM220.871 165.08C220.626 165.08 220.416 164.992 220.24 164.816C220.064 164.64 219.976 164.43 219.976 164.185C219.976 163.939 220.064 163.729 220.24 163.553C220.416 163.378 220.626 163.29 220.871 163.29C221.117 163.29 221.327 163.378 221.503 163.553C221.678 163.729 221.766 163.939 221.766 164.185C221.766 164.347 221.725 164.496 221.642 164.632C221.562 164.768 221.455 164.877 221.319 164.96C221.186 165.04 221.037 165.08 220.871 165.08ZM224.727 165.08C224.482 165.08 224.271 164.992 224.095 164.816C223.92 164.64 223.832 164.43 223.832 164.185C223.832 163.939 223.92 163.729 224.095 163.553C224.271 163.378 224.482 163.29 224.727 163.29C224.972 163.29 225.183 163.378 225.358 163.553C225.534 163.729 225.622 163.939 225.622 164.185C225.622 164.347 225.58 164.496 225.497 164.632C225.418 164.768 225.31 164.877 225.174 164.96C225.042 165.04 224.893 165.08 224.727 165.08ZM228.582 165.08C228.337 165.08 228.127 164.992 227.951 164.816C227.775 164.64 227.687 164.43 227.687 164.185C227.687 163.939 227.775 163.729 227.951 163.553C228.127 163.378 228.337 163.29 228.582 163.29C228.828 163.29 229.038 163.378 229.214 163.553C229.389 163.729 229.477 163.939 229.477 164.185C229.477 164.347 229.436 164.496 229.353 164.632C229.273 164.768 229.166 164.877 229.03 164.96C228.897 165.04 228.748 165.08 228.582 165.08Z" fill="#101828"/>
<path d="M23.332 28.8184H25.077L27.7368 33.4469H27.8462L30.506 28.8184H32.251L28.5571 35.003V39.0002H27.0259V35.003L23.332 28.8184ZM35.541 39.1543C34.8251 39.1543 34.2003 38.9903 33.6667 38.6621C33.1331 38.334 32.7188 37.875 32.4238 37.285C32.1288 36.695 31.9813 36.0056 31.9813 35.2168C31.9813 34.4247 32.1288 33.732 32.4238 33.1387C32.7188 32.5454 33.1331 32.0847 33.6667 31.7566C34.2003 31.4285 34.8251 31.2644 35.541 31.2644C36.2569 31.2644 36.8817 31.4285 37.4153 31.7566C37.9489 32.0847 38.3632 32.5454 38.6582 33.1387C38.9531 33.732 39.1006 34.4247 39.1006 35.2168C39.1006 36.0056 38.9531 36.695 38.6582 37.285C38.3632 37.875 37.9489 38.334 37.4153 38.6621C36.8817 38.9903 36.2569 39.1543 35.541 39.1543ZM35.546 37.9064C36.01 37.9064 36.3944 37.7838 36.6994 37.5386C37.0043 37.2933 37.2297 36.9668 37.3755 36.5591C37.5246 36.1515 37.5992 35.7024 37.5992 35.2118C37.5992 34.7246 37.5246 34.2772 37.3755 33.8695C37.2297 33.4585 37.0043 33.1288 36.6994 32.8802C36.3944 32.6316 36.01 32.5073 35.546 32.5073C35.0786 32.5073 34.6908 32.6316 34.3826 32.8802C34.0777 33.1288 33.8506 33.4585 33.7015 33.8695C33.5557 34.2772 33.4827 34.7246 33.4827 35.2118C33.4827 35.7024 33.5557 36.1515 33.7015 36.5591C33.8506 36.9668 34.0777 37.2933 34.3826 37.5386C34.6908 37.7838 35.0786 37.9064 35.546 37.9064ZM45.5973 35.8333V31.3638H47.0887V39.0002H45.6271V37.6778H45.5476C45.3719 38.0854 45.0902 38.4252 44.7024 38.6969C44.3179 38.9654 43.839 39.0996 43.2656 39.0996C42.7751 39.0996 42.3409 38.9919 41.963 38.7765C41.5885 38.5577 41.2935 38.2346 41.0781 37.807C40.866 37.3795 40.7599 36.8508 40.7599 36.2211V31.3638H42.2464V36.0421C42.2464 36.5625 42.3906 36.9768 42.6789 37.285C42.9673 37.5932 43.3418 37.7474 43.8025 37.7474C44.0809 37.7474 44.3577 37.6778 44.6328 37.5386C44.9112 37.3993 45.1415 37.1889 45.3238 36.9072C45.5094 36.6254 45.6006 36.2675 45.5973 35.8333Z" fill="#344054"/>
<path d="M164.578 30.21V29.2725H171.123V30.21H168.379V37.9998H167.322V30.21H164.578ZM173.623 34.0623V37.9998H172.618V29.2725H173.623V32.4771H173.709C173.862 32.139 174.092 31.8705 174.399 31.6717C174.709 31.47 175.121 31.3691 175.635 31.3691C176.081 31.3691 176.471 31.4586 176.807 31.6376C177.142 31.8137 177.402 32.085 177.586 32.4515C177.774 32.8151 177.868 33.2782 177.868 33.8407V37.9998H176.862V33.9089C176.862 33.389 176.727 32.987 176.457 32.7029C176.19 32.416 175.819 32.2725 175.345 32.2725C175.015 32.2725 174.72 32.3421 174.459 32.4813C174.2 32.6205 173.996 32.8237 173.845 33.0907C173.697 33.3578 173.623 33.6816 173.623 34.0623ZM183.833 35.3237V31.4543H184.838V37.9998H183.833V36.8918H183.764C183.611 37.2242 183.372 37.5069 183.048 37.7399C182.725 37.97 182.315 38.085 181.821 38.085C181.412 38.085 181.048 37.9955 180.73 37.8166C180.412 37.6347 180.162 37.362 179.98 36.9984C179.798 36.6319 179.708 36.1703 179.708 35.6134V31.4543H180.713V35.5453C180.713 36.0225 180.847 36.4032 181.114 36.6873C181.384 36.9714 181.727 37.1134 182.145 37.1134C182.395 37.1134 182.649 37.0495 182.908 36.9217C183.169 36.7938 183.388 36.5978 183.564 36.3336C183.743 36.0694 183.833 35.7328 183.833 35.3237ZM186.68 37.9998V31.4543H187.652V32.443H187.72C187.839 32.1191 188.055 31.8563 188.368 31.6546C188.68 31.4529 189.032 31.3521 189.424 31.3521C189.498 31.3521 189.591 31.3535 189.701 31.3563C189.812 31.3592 189.896 31.3634 189.953 31.3691V32.3918C189.919 32.3833 189.841 32.3705 189.719 32.3535C189.599 32.3336 189.473 32.3237 189.339 32.3237C189.021 32.3237 188.737 32.3904 188.487 32.5239C188.24 32.6546 188.044 32.8364 187.899 33.0694C187.757 33.2995 187.686 33.5623 187.686 33.8578V37.9998H186.68ZM195.781 32.9203L194.878 33.1759C194.821 33.0254 194.737 32.8791 194.627 32.737C194.519 32.5921 194.371 32.4728 194.183 32.3791C193.996 32.2853 193.756 32.2384 193.463 32.2384C193.063 32.2384 192.729 32.3308 192.462 32.5154C192.198 32.6972 192.065 32.9288 192.065 33.21C192.065 33.46 192.156 33.6575 192.338 33.8024C192.52 33.9472 192.804 34.068 193.19 34.1646L194.162 34.4032C194.747 34.5453 195.183 34.7626 195.47 35.0552C195.757 35.345 195.901 35.7185 195.901 36.1759C195.901 36.5509 195.793 36.8862 195.577 37.1816C195.364 37.4771 195.065 37.71 194.682 37.8805C194.298 38.0509 193.852 38.1362 193.344 38.1362C192.676 38.1362 192.124 37.9913 191.686 37.7015C191.249 37.4117 190.972 36.9884 190.855 36.4316L191.81 36.193C191.901 36.5453 192.073 36.8095 192.325 36.9856C192.581 37.1617 192.915 37.2498 193.327 37.2498C193.796 37.2498 194.168 37.1504 194.443 36.9515C194.722 36.7498 194.861 36.5083 194.861 36.2271C194.861 35.9998 194.781 35.8095 194.622 35.656C194.463 35.4998 194.219 35.3833 193.889 35.3066L192.798 35.0509C192.199 34.9089 191.759 34.6887 191.477 34.3904C191.199 34.0893 191.06 33.7129 191.06 33.2612C191.06 32.8918 191.163 32.5651 191.371 32.281C191.581 31.997 191.867 31.7739 192.227 31.612C192.591 31.4501 193.003 31.3691 193.463 31.3691C194.111 31.3691 194.619 31.5112 194.989 31.7953C195.361 32.0793 195.625 32.4543 195.781 32.9203ZM199.886 38.1362C199.341 38.1362 198.859 37.9984 198.442 37.7228C198.024 37.4444 197.697 37.0524 197.461 36.5467C197.226 36.0382 197.108 35.4373 197.108 34.7441C197.108 34.0566 197.226 33.46 197.461 32.9543C197.697 32.4487 198.025 32.058 198.446 31.7825C198.866 31.5069 199.352 31.3691 199.903 31.3691C200.329 31.3691 200.666 31.4401 200.913 31.5822C201.163 31.7214 201.353 31.8805 201.484 32.0595C201.618 32.2356 201.721 32.3805 201.795 32.4941H201.88V29.2725H202.886V37.9998H201.915V36.9941H201.795C201.721 37.1134 201.616 37.264 201.48 37.4458C201.344 37.6248 201.149 37.7853 200.896 37.9274C200.643 38.0666 200.307 38.1362 199.886 38.1362ZM200.023 37.2328C200.426 37.2328 200.767 37.1276 201.045 36.9174C201.324 36.7043 201.535 36.4103 201.68 36.0353C201.825 35.6575 201.898 35.2214 201.898 34.7271C201.898 34.2384 201.826 33.8109 201.684 33.4444C201.542 33.0751 201.332 32.7882 201.054 32.5836C200.775 32.3762 200.432 32.2725 200.023 32.2725C199.596 32.2725 199.241 32.3819 198.957 32.6007C198.676 32.8166 198.464 33.1106 198.322 33.4828C198.183 33.8521 198.113 34.2668 198.113 34.7271C198.113 35.193 198.184 35.6163 198.326 35.997C198.471 36.3748 198.684 36.6759 198.966 36.9004C199.25 37.122 199.602 37.2328 200.023 37.2328ZM206.794 38.1532C206.379 38.1532 206.003 38.0751 205.665 37.9188C205.326 37.7597 205.058 37.531 204.859 37.2328C204.66 36.9316 204.561 36.568 204.561 36.1418C204.561 35.7668 204.635 35.4629 204.782 35.2299C204.93 34.9941 205.128 34.8095 205.375 34.6759C205.622 34.5424 205.895 34.443 206.193 34.3776C206.494 34.3095 206.797 34.2555 207.101 34.2157C207.498 34.1646 207.821 34.1262 208.068 34.1007C208.318 34.0722 208.5 34.0254 208.613 33.96C208.73 33.8947 208.788 33.781 208.788 33.6191V33.585C208.788 33.1646 208.673 32.8379 208.443 32.6049C208.216 32.372 207.871 32.2555 207.407 32.2555C206.927 32.2555 206.551 32.3606 206.278 32.5708C206.005 32.781 205.814 33.0055 205.703 33.2441L204.748 32.9032C204.919 32.5055 205.146 32.1958 205.43 31.9742C205.717 31.7498 206.03 31.5935 206.368 31.5055C206.709 31.4146 207.044 31.3691 207.373 31.3691C207.584 31.3691 207.825 31.3947 208.098 31.4458C208.373 31.4941 208.639 31.595 208.895 31.7484C209.153 31.9018 209.368 32.1333 209.538 32.443C209.709 32.7526 209.794 33.1674 209.794 33.6873V37.9998H208.788V37.1134H208.737C208.669 37.2555 208.555 37.4075 208.396 37.5694C208.237 37.7313 208.025 37.8691 207.761 37.9828C207.497 38.0964 207.174 38.1532 206.794 38.1532ZM206.947 37.2498C207.345 37.2498 207.68 37.1717 207.953 37.0154C208.228 36.8592 208.436 36.6575 208.575 36.4103C208.717 36.1632 208.788 35.9032 208.788 35.6305V34.71C208.746 34.7612 208.652 34.808 208.507 34.8507C208.365 34.8904 208.2 34.9259 208.013 34.9572C207.828 34.9856 207.648 35.0112 207.471 35.0339C207.298 35.0538 207.157 35.0708 207.049 35.085C206.788 35.1191 206.544 35.1745 206.317 35.2512C206.092 35.3251 205.91 35.4373 205.771 35.5879C205.635 35.7356 205.567 35.9373 205.567 36.193C205.567 36.5424 205.696 36.8066 205.954 36.9856C206.216 37.1617 206.547 37.2498 206.947 37.2498ZM212.043 40.4543C211.872 40.4543 211.72 40.4401 211.587 40.4117C211.453 40.3862 211.361 40.3606 211.31 40.335L211.565 39.4487C211.81 39.5112 212.026 39.5339 212.213 39.5168C212.401 39.4998 212.567 39.416 212.712 39.2654C212.86 39.1177 212.994 38.8776 213.117 38.5453L213.304 38.0339L210.884 31.4543H211.975L213.781 36.6703H213.85L215.656 31.4543H216.747L213.969 38.9543C213.844 39.2924 213.689 39.5722 213.504 39.7938C213.32 40.0183 213.105 40.1845 212.861 40.2924C212.619 40.4004 212.347 40.4543 212.043 40.4543ZM224.501 29.2725V37.9998H223.444V30.3805H223.393L221.262 31.7953V30.7214L223.444 29.2725H224.501ZM230.079 29.2725V37.9998H229.022V30.3805H228.971L226.84 31.7953V30.7214L229.022 29.2725H230.079ZM233.339 36.8833C233.129 36.8833 232.948 36.808 232.798 36.6575C232.647 36.5069 232.572 36.3265 232.572 36.1163C232.572 35.906 232.647 35.7257 232.798 35.5751C232.948 35.4245 233.129 35.3492 233.339 35.3492C233.549 35.3492 233.73 35.4245 233.88 35.5751C234.031 35.7257 234.106 35.906 234.106 36.1163C234.106 36.2555 234.07 36.3833 233.999 36.4998C233.931 36.6163 233.839 36.71 233.722 36.781C233.609 36.8492 233.481 36.8833 233.339 36.8833ZM233.339 32.4686C233.129 32.4686 232.948 32.3933 232.798 32.2427C232.647 32.0921 232.572 31.9117 232.572 31.7015C232.572 31.4913 232.647 31.3109 232.798 31.1603C232.948 31.0097 233.129 30.9345 233.339 30.9345C233.549 30.9345 233.73 31.0097 233.88 31.1603C234.031 31.3109 234.106 31.4913 234.106 31.7015C234.106 31.8407 234.07 31.9686 233.999 32.085C233.931 32.2015 233.839 32.2953 233.722 32.3663C233.609 32.4345 233.481 32.4686 233.339 32.4686ZM235.689 36.21V35.3407L239.524 29.2725H240.155V30.6191H239.729L236.831 35.2043V35.2725H241.996V36.21H235.689ZM239.797 37.9998V35.9458V35.541V29.2725H240.803V37.9998H239.797ZM246.544 29.2725V37.9998H245.487V30.3805H245.436L243.305 31.7953V30.7214L245.487 29.2725H246.544ZM250.997 38.1532C250.582 38.1532 250.206 38.0751 249.868 37.9188C249.53 37.7597 249.261 37.531 249.062 37.2328C248.863 36.9316 248.764 36.568 248.764 36.1418C248.764 35.7668 248.838 35.4629 248.986 35.2299C249.133 34.9941 249.331 34.8095 249.578 34.6759C249.825 34.5424 250.098 34.443 250.396 34.3776C250.697 34.3095 251 34.2555 251.304 34.2157C251.701 34.1646 252.024 34.1262 252.271 34.1007C252.521 34.0722 252.703 34.0254 252.817 33.96C252.933 33.8947 252.991 33.781 252.991 33.6191V33.585C252.991 33.1646 252.876 32.8379 252.646 32.6049C252.419 32.372 252.074 32.2555 251.611 32.2555C251.13 32.2555 250.754 32.3606 250.481 32.5708C250.209 32.781 250.017 33.0055 249.906 33.2441L248.951 32.9032C249.122 32.5055 249.349 32.1958 249.633 31.9742C249.92 31.7498 250.233 31.5935 250.571 31.5055C250.912 31.4146 251.247 31.3691 251.576 31.3691C251.787 31.3691 252.028 31.3947 252.301 31.4458C252.576 31.4941 252.842 31.595 253.098 31.7484C253.356 31.9018 253.571 32.1333 253.741 32.443C253.912 32.7526 253.997 33.1674 253.997 33.6873V37.9998H252.991V37.1134H252.94C252.872 37.2555 252.758 37.4075 252.599 37.5694C252.44 37.7313 252.228 37.8691 251.964 37.9828C251.7 38.0964 251.378 38.1532 250.997 38.1532ZM251.15 37.2498C251.548 37.2498 251.883 37.1717 252.156 37.0154C252.432 36.8592 252.639 36.6575 252.778 36.4103C252.92 36.1632 252.991 35.9032 252.991 35.6305V34.71C252.949 34.7612 252.855 34.808 252.71 34.8507C252.568 34.8904 252.403 34.9259 252.216 34.9572C252.031 34.9856 251.851 35.0112 251.674 35.0339C251.501 35.0538 251.361 35.0708 251.253 35.085C250.991 35.1191 250.747 35.1745 250.52 35.2512C250.295 35.3251 250.113 35.4373 249.974 35.5879C249.838 35.7356 249.77 35.9373 249.77 36.193C249.77 36.5424 249.899 36.8066 250.157 36.9856C250.419 37.1617 250.75 37.2498 251.15 37.2498ZM255.833 37.9998V31.4543H256.804V32.4771H256.889C257.026 32.1276 257.246 31.8563 257.55 31.6632C257.854 31.4671 258.219 31.3691 258.645 31.3691C259.077 31.3691 259.436 31.4671 259.723 31.6632C260.013 31.8563 260.239 32.1276 260.401 32.4771H260.469C260.636 32.139 260.888 31.8705 261.223 31.6717C261.558 31.47 261.96 31.3691 262.429 31.3691C263.014 31.3691 263.493 31.5524 263.865 31.9188C264.237 32.2825 264.423 32.8492 264.423 33.6191V37.9998H263.418V33.6191C263.418 33.1362 263.286 32.791 263.021 32.5836C262.757 32.3762 262.446 32.2725 262.088 32.2725C261.628 32.2725 261.271 32.4117 261.019 32.6901C260.766 32.9657 260.639 33.3151 260.639 33.7384V37.9998H259.617V33.5168C259.617 33.1447 259.496 32.845 259.254 32.6177C259.013 32.3876 258.702 32.2725 258.321 32.2725C258.06 32.2725 257.815 32.3421 257.588 32.4813C257.364 32.6205 257.182 32.8137 257.043 33.0609C256.906 33.3052 256.838 33.5879 256.838 33.9089V37.9998H255.833Z" fill="#475467"/>
<path d="M23 58C23 53.5817 26.5817 50 31 50H266V82C266 86.4183 262.418 90 258 90H31C26.5817 90 23 86.4183 23 82V58Z" fill="#212121"/>
<path d="M37.6758 68V67.1051C37.6758 66.8333 37.7239 66.545 37.82 66.2401C37.9194 65.9318 38.062 65.6352 38.2476 65.3501C38.4365 65.0618 38.6635 64.8116 38.9287 64.5994L39.565 65.1165C39.3562 65.4148 39.1739 65.7263 39.0182 66.0511C38.8657 66.3726 38.7895 66.7173 38.7895 67.0852V68H37.6758ZM40.2213 68V67.1051C40.2213 66.8333 40.2693 66.545 40.3655 66.2401C40.4649 65.9318 40.6074 65.6352 40.793 65.3501C40.9819 65.0618 41.209 64.8116 41.4741 64.5994L42.1105 65.1165C41.9017 65.4148 41.7194 65.7263 41.5636 66.0511C41.4112 66.3726 41.3349 66.7173 41.3349 67.0852V68H40.2213ZM45.4141 75L42.63 64.8182H43.8829L46.0107 73.1108H46.1101L48.2778 64.8182H49.6698L51.8374 73.1108H51.9368L54.0647 64.8182H55.3175L52.5334 75H51.2607L49.0135 66.8864H48.934L46.6868 75H45.4141ZM57.868 70.4062V75H56.6947V64.8182H57.868V68.5568H57.9674C58.1464 68.1624 58.4148 67.8492 58.7728 67.6172C59.1341 67.3819 59.6146 67.2642 60.2145 67.2642C60.7349 67.2642 61.1906 67.3686 61.5817 67.5774C61.9728 67.7829 62.2761 68.0994 62.4915 68.527C62.7103 68.9512 62.8197 69.4915 62.8197 70.1477V75H61.6464V70.2273C61.6464 69.6207 61.4889 69.1518 61.1741 68.8203C60.8625 68.4856 60.43 68.3182 59.8765 68.3182C59.492 68.3182 59.1473 68.3994 58.8424 68.5618C58.5408 68.7242 58.3021 68.9612 58.1265 69.2727C57.9541 69.5843 57.868 69.9621 57.868 70.4062ZM65.4484 77.8636C65.2495 77.8636 65.0722 77.8471 64.9164 77.8139C64.7606 77.7841 64.6529 77.7543 64.5933 77.7244L64.8916 76.6903C65.1766 76.7633 65.4285 76.7898 65.6472 76.7699C65.866 76.75 66.0599 76.6522 66.2289 76.4766C66.4013 76.3042 66.5587 76.0241 66.7012 75.6364L66.92 75.0398L64.0961 67.3636H65.3688L67.4768 73.4489H67.5563L69.6643 67.3636H70.937L67.6955 76.1136C67.5497 76.508 67.3691 76.8345 67.1536 77.093C66.9382 77.3549 66.688 77.5488 66.4029 77.6747C66.1212 77.8007 65.803 77.8636 65.4484 77.8636ZM79.3067 75.1591C78.6703 75.1591 78.1085 74.9983 77.6213 74.6768C77.1341 74.352 76.753 73.8946 76.4779 73.3047C76.2028 72.7114 76.0652 72.0104 76.0652 71.2017C76.0652 70.3996 76.2028 69.7036 76.4779 69.1136C76.753 68.5237 77.1358 68.0679 77.6263 67.7464C78.1168 67.425 78.6836 67.2642 79.3266 67.2642C79.8237 67.2642 80.2165 67.3471 80.5048 67.5128C80.7965 67.6752 81.0186 67.8608 81.171 68.0696C81.3268 68.2751 81.4478 68.4441 81.534 68.5767H81.6334V64.8182H82.8067V75H81.6732V73.8267H81.534C81.4478 73.9659 81.3252 74.1416 81.1661 74.3537C81.007 74.5625 80.7799 74.7498 80.485 74.9155C80.19 75.0779 79.7972 75.1591 79.3067 75.1591ZM79.4658 74.1051C79.9364 74.1051 80.3342 73.9825 80.659 73.7372C80.9838 73.4886 81.2307 73.1456 81.3997 72.7081C81.5688 72.2673 81.6533 71.7585 81.6533 71.1818C81.6533 70.6117 81.5704 70.1129 81.4047 69.6854C81.239 69.2545 80.9937 68.9197 80.6689 68.6811C80.3441 68.4392 79.9431 68.3182 79.4658 68.3182C78.9686 68.3182 78.5543 68.4458 78.2229 68.701C77.8948 68.9529 77.6478 69.2959 77.4821 69.7301C77.3197 70.161 77.2385 70.6449 77.2385 71.1818C77.2385 71.7254 77.3214 72.2192 77.4871 72.6634C77.6561 73.1042 77.9047 73.4555 78.2328 73.7173C78.5643 73.9759 78.9753 74.1051 79.4658 74.1051ZM85.1185 75V67.3636H86.2918V75H85.1185ZM85.7151 66.0909C85.4864 66.0909 85.2892 66.013 85.1235 65.8572C84.9611 65.7015 84.8798 65.5142 84.8798 65.2955C84.8798 65.0767 84.9611 64.8894 85.1235 64.7337C85.2892 64.5779 85.4864 64.5 85.7151 64.5C85.9438 64.5 86.1393 64.5779 86.3017 64.7337C86.4674 64.8894 86.5503 65.0767 86.5503 65.2955C86.5503 65.5142 86.4674 65.7015 86.3017 65.8572C86.1393 66.013 85.9438 66.0909 85.7151 66.0909ZM91.3243 75.1591C90.6879 75.1591 90.1261 74.9983 89.6389 74.6768C89.1517 74.352 88.7705 73.8946 88.4954 73.3047C88.2203 72.7114 88.0828 72.0104 88.0828 71.2017C88.0828 70.3996 88.2203 69.7036 88.4954 69.1136C88.7705 68.5237 89.1533 68.0679 89.6439 67.7464C90.1344 67.425 90.7012 67.2642 91.3442 67.2642C91.8413 67.2642 92.2341 67.3471 92.5224 67.5128C92.8141 67.6752 93.0362 67.8608 93.1886 68.0696C93.3444 68.2751 93.4654 68.4441 93.5515 68.5767H93.651V64.8182H94.8243V75H93.6908V73.8267H93.5515C93.4654 73.9659 93.3427 74.1416 93.1836 74.3537C93.0246 74.5625 92.7975 74.7498 92.5025 74.9155C92.2076 75.0779 91.8148 75.1591 91.3243 75.1591ZM91.4834 74.1051C91.954 74.1051 92.3517 73.9825 92.6765 73.7372C93.0014 73.4886 93.2483 73.1456 93.4173 72.7081C93.5863 72.2673 93.6709 71.7585 93.6709 71.1818C93.6709 70.6117 93.588 70.1129 93.4223 69.6854C93.2566 69.2545 93.0113 68.9197 92.6865 68.6811C92.3617 68.4392 91.9606 68.3182 91.4834 68.3182C90.9862 68.3182 90.5719 68.4458 90.2405 68.701C89.9123 68.9529 89.6654 69.2959 89.4997 69.7301C89.3373 70.161 89.2561 70.6449 89.2561 71.1818C89.2561 71.7254 89.339 72.2192 89.5047 72.6634C89.6737 73.1042 89.9223 73.4555 90.2504 73.7173C90.5818 73.9759 90.9928 74.1051 91.4834 74.1051ZM102.804 75L100.477 67.3636H101.71L103.361 73.2102H103.44L105.071 67.3636H106.324L107.935 73.1903H108.014L109.665 67.3636H110.898L108.571 75H107.418L105.747 69.1335H105.628L103.957 75H102.804ZM115.391 75.1591C114.655 75.1591 114.02 74.9967 113.487 74.6719C112.956 74.3438 112.547 73.8864 112.259 73.2997C111.974 72.7098 111.831 72.0237 111.831 71.2415C111.831 70.4593 111.974 69.7699 112.259 69.1733C112.547 68.5734 112.948 68.1061 113.462 67.7713C113.979 67.4332 114.582 67.2642 115.271 67.2642C115.669 67.2642 116.062 67.3305 116.45 67.4631C116.838 67.5956 117.191 67.8111 117.509 68.1094C117.827 68.4044 118.08 68.7955 118.269 69.2827C118.458 69.7699 118.553 70.3698 118.553 71.0824V71.5795H112.666V70.5653H117.36C117.36 70.1345 117.273 69.75 117.101 69.4119C116.932 69.0739 116.69 68.8071 116.375 68.6115C116.064 68.416 115.696 68.3182 115.271 68.3182C114.804 68.3182 114.4 68.4342 114.058 68.6662C113.72 68.8949 113.46 69.1932 113.278 69.5611C113.096 69.929 113.004 70.3234 113.004 70.7443V71.4205C113.004 71.9972 113.104 72.486 113.303 72.8871C113.505 73.2848 113.785 73.5881 114.143 73.7969C114.501 74.0024 114.917 74.1051 115.391 74.1051C115.699 74.1051 115.977 74.062 116.226 73.9759C116.478 73.8864 116.695 73.7538 116.877 73.5781C117.06 73.3991 117.2 73.1771 117.3 72.9119L118.433 73.2301C118.314 73.6146 118.114 73.9527 117.832 74.2443C117.55 74.5327 117.202 74.758 116.788 74.9205C116.374 75.0795 115.908 75.1591 115.391 75.1591ZM129.684 69.0739L128.63 69.3722C128.564 69.1965 128.466 69.0258 128.337 68.8601C128.211 68.6911 128.039 68.5518 127.82 68.4425C127.601 68.3331 127.321 68.2784 126.98 68.2784C126.512 68.2784 126.123 68.3861 125.811 68.6016C125.503 68.8137 125.349 69.0838 125.349 69.4119C125.349 69.7036 125.455 69.9339 125.667 70.103C125.879 70.272 126.211 70.4129 126.661 70.5256L127.795 70.804C128.478 70.9697 128.986 71.2232 129.321 71.5646C129.656 71.9027 129.823 72.3385 129.823 72.8722C129.823 73.3097 129.697 73.7008 129.445 74.0455C129.197 74.3902 128.849 74.6619 128.401 74.8608C127.954 75.0597 127.434 75.1591 126.84 75.1591C126.061 75.1591 125.417 74.9901 124.906 74.652C124.396 74.3139 124.073 73.8201 123.937 73.1705L125.051 72.892C125.157 73.303 125.357 73.6113 125.652 73.8168C125.95 74.0223 126.34 74.125 126.82 74.125C127.367 74.125 127.802 74.009 128.123 73.777C128.448 73.5417 128.61 73.2599 128.61 72.9318C128.61 72.6667 128.517 72.4446 128.332 72.2656C128.146 72.0833 127.861 71.9474 127.477 71.858L126.204 71.5597C125.505 71.3939 124.991 71.1371 124.663 70.7891C124.338 70.4377 124.176 69.9986 124.176 69.4716C124.176 69.0407 124.297 68.6596 124.539 68.3281C124.784 67.9967 125.117 67.7365 125.538 67.5476C125.962 67.3587 126.443 67.2642 126.98 67.2642C127.735 67.2642 128.329 67.4299 128.759 67.7614C129.194 68.0928 129.502 68.5303 129.684 69.0739ZM136.402 71.8778V67.3636H137.575V75H136.402V73.7074H136.322C136.143 74.0952 135.865 74.425 135.487 74.6967C135.109 74.9652 134.632 75.0994 134.055 75.0994C133.578 75.0994 133.154 74.995 132.783 74.7862C132.411 74.5741 132.12 74.2559 131.908 73.8317C131.696 73.4041 131.589 72.8655 131.589 72.2159V67.3636H132.763V72.1364C132.763 72.6932 132.919 73.1373 133.23 73.4688C133.545 73.8002 133.946 73.9659 134.433 73.9659C134.725 73.9659 135.022 73.8913 135.323 73.7422C135.628 73.593 135.883 73.3643 136.089 73.0561C136.298 72.7479 136.402 72.3551 136.402 71.8778ZM140.898 70.4062V75H139.724V67.3636H140.858V68.5568H140.957C141.136 68.169 141.408 67.8575 141.773 67.6222C142.137 67.3835 142.608 67.2642 143.184 67.2642C143.702 67.2642 144.154 67.3703 144.542 67.5824C144.93 67.7912 145.231 68.1094 145.447 68.5369C145.662 68.9612 145.77 69.4981 145.77 70.1477V75H144.596V70.2273C144.596 69.6274 144.441 69.16 144.129 68.8253C143.818 68.4872 143.39 68.3182 142.846 68.3182C142.472 68.3182 142.137 68.3994 141.842 68.5618C141.55 68.7242 141.32 68.9612 141.151 69.2727C140.982 69.5843 140.898 69.9621 140.898 70.4062ZM153.323 69.0739L152.269 69.3722C152.203 69.1965 152.105 69.0258 151.975 68.8601C151.85 68.6911 151.677 68.5518 151.458 68.4425C151.24 68.3331 150.96 68.2784 150.618 68.2784C150.151 68.2784 149.761 68.3861 149.45 68.6016C149.142 68.8137 148.988 69.0838 148.988 69.4119C148.988 69.7036 149.094 69.9339 149.306 70.103C149.518 70.272 149.849 70.4129 150.3 70.5256L151.434 70.804C152.116 70.9697 152.625 71.2232 152.96 71.5646C153.295 71.9027 153.462 72.3385 153.462 72.8722C153.462 73.3097 153.336 73.7008 153.084 74.0455C152.836 74.3902 152.488 74.6619 152.04 74.8608C151.593 75.0597 151.072 75.1591 150.479 75.1591C149.7 75.1591 149.056 74.9901 148.545 74.652C148.035 74.3139 147.712 73.8201 147.576 73.1705L148.689 72.892C148.795 73.303 148.996 73.6113 149.291 73.8168C149.589 74.0223 149.979 74.125 150.459 74.125C151.006 74.125 151.44 74.009 151.762 73.777C152.087 73.5417 152.249 73.2599 152.249 72.9318C152.249 72.6667 152.156 72.4446 151.971 72.2656C151.785 72.0833 151.5 71.9474 151.115 71.858L149.843 71.5597C149.143 71.3939 148.63 71.1371 148.301 70.7891C147.977 70.4377 147.814 69.9986 147.814 69.4716C147.814 69.0407 147.935 68.6596 148.177 68.3281C148.422 67.9967 148.756 67.7365 149.176 67.5476C149.601 67.3587 150.081 67.2642 150.618 67.2642C151.374 67.2642 151.967 67.4299 152.398 67.7614C152.832 68.0928 153.141 68.5303 153.323 69.0739ZM158.43 75.1591C157.694 75.1591 157.059 74.9967 156.526 74.6719C155.995 74.3438 155.586 73.8864 155.298 73.2997C155.013 72.7098 154.87 72.0237 154.87 71.2415C154.87 70.4593 155.013 69.7699 155.298 69.1733C155.586 68.5734 155.987 68.1061 156.501 67.7713C157.018 67.4332 157.621 67.2642 158.311 67.2642C158.708 67.2642 159.101 67.3305 159.489 67.4631C159.877 67.5956 160.23 67.8111 160.548 68.1094C160.866 68.4044 161.119 68.7955 161.308 69.2827C161.497 69.7699 161.592 70.3698 161.592 71.0824V71.5795H155.705V70.5653H160.399C160.399 70.1345 160.312 69.75 160.14 69.4119C159.971 69.0739 159.729 68.8071 159.414 68.6115C159.103 68.416 158.735 68.3182 158.311 68.3182C157.843 68.3182 157.439 68.4342 157.097 68.6662C156.759 68.8949 156.499 69.1932 156.317 69.5611C156.135 69.929 156.044 70.3234 156.044 70.7443V71.4205C156.044 71.9972 156.143 72.486 156.342 72.8871C156.544 73.2848 156.824 73.5881 157.182 73.7969C157.54 74.0024 157.956 74.1051 158.43 74.1051C158.738 74.1051 159.017 74.062 159.265 73.9759C159.517 73.8864 159.734 73.7538 159.916 73.5781C160.099 73.3991 160.24 73.1771 160.339 72.9119L161.472 73.2301C161.353 73.6146 161.153 73.9527 160.871 74.2443C160.589 74.5327 160.241 74.758 159.827 74.9205C159.413 75.0795 158.947 75.1591 158.43 75.1591ZM166.698 67.3636V68.358H162.74V67.3636H166.698ZM163.894 65.5341H165.067V72.8125C165.067 73.1439 165.115 73.3925 165.211 73.5582C165.311 73.7206 165.436 73.83 165.589 73.8864C165.745 73.9394 165.909 73.9659 166.081 73.9659C166.21 73.9659 166.316 73.9593 166.399 73.946C166.482 73.9295 166.548 73.9162 166.598 73.9062L166.837 74.9602C166.757 74.9901 166.646 75.0199 166.504 75.0497C166.361 75.0829 166.181 75.0994 165.962 75.0994C165.63 75.0994 165.306 75.0282 164.987 74.8857C164.673 74.7431 164.411 74.526 164.202 74.2344C163.996 73.9427 163.894 73.5748 163.894 73.1307V65.5341ZM172.559 75V64.8182H178.664V65.9119H173.792V69.3523H178.207V70.446H173.792V75H172.559ZM183.258 75.1591C182.522 75.1591 181.887 74.9967 181.354 74.6719C180.824 74.3438 180.414 73.8864 180.126 73.2997C179.841 72.7098 179.698 72.0237 179.698 71.2415C179.698 70.4593 179.841 69.7699 180.126 69.1733C180.414 68.5734 180.815 68.1061 181.329 67.7713C181.846 67.4332 182.449 67.2642 183.139 67.2642C183.536 67.2642 183.929 67.3305 184.317 67.4631C184.705 67.5956 185.058 67.8111 185.376 68.1094C185.694 68.4044 185.948 68.7955 186.137 69.2827C186.325 69.7699 186.42 70.3698 186.42 71.0824V71.5795H180.534V70.5653H185.227C185.227 70.1345 185.141 69.75 184.968 69.4119C184.799 69.0739 184.557 68.8071 184.242 68.6115C183.931 68.416 183.563 68.3182 183.139 68.3182C182.671 68.3182 182.267 68.4342 181.926 68.6662C181.588 68.8949 181.327 69.1932 181.145 69.5611C180.963 69.929 180.872 70.3234 180.872 70.7443V71.4205C180.872 71.9972 180.971 72.486 181.17 72.8871C181.372 73.2848 181.652 73.5881 182.01 73.7969C182.368 74.0024 182.784 74.1051 183.258 74.1051C183.566 74.1051 183.845 74.062 184.093 73.9759C184.345 73.8864 184.562 73.7538 184.744 73.5781C184.927 73.3991 185.068 73.1771 185.167 72.9119L186.301 73.2301C186.181 73.6146 185.981 73.9527 185.699 74.2443C185.417 74.5327 185.069 74.758 184.655 74.9205C184.241 75.0795 183.775 75.1591 183.258 75.1591ZM190.452 75.179C189.968 75.179 189.529 75.0878 189.134 74.9055C188.74 74.7199 188.427 74.4531 188.195 74.1051C187.963 73.7538 187.847 73.3295 187.847 72.8324C187.847 72.3949 187.933 72.0402 188.105 71.7685C188.278 71.4934 188.508 71.2779 188.796 71.1222C189.085 70.9664 189.403 70.8504 189.751 70.7741C190.102 70.6946 190.455 70.6316 190.81 70.5852C191.274 70.5256 191.65 70.4808 191.938 70.451C192.23 70.4179 192.442 70.3632 192.575 70.2869C192.711 70.2107 192.779 70.0781 192.779 69.8892V69.8494C192.779 69.3589 192.644 68.9777 192.376 68.706C192.111 68.4342 191.708 68.2983 191.168 68.2983C190.608 68.2983 190.169 68.4209 189.85 68.6662C189.532 68.9115 189.308 69.1733 189.179 69.4517L188.066 69.054C188.264 68.59 188.53 68.2287 188.861 67.9702C189.196 67.7083 189.56 67.526 189.955 67.4233C190.352 67.3172 190.744 67.2642 191.128 67.2642C191.373 67.2642 191.655 67.294 191.973 67.3537C192.295 67.41 192.605 67.5277 192.903 67.7067C193.204 67.8857 193.455 68.1558 193.654 68.517C193.852 68.8783 193.952 69.3622 193.952 69.9688V75H192.779V73.9659H192.719C192.639 74.1316 192.507 74.3089 192.321 74.4979C192.136 74.6868 191.889 74.8475 191.58 74.9801C191.272 75.1127 190.896 75.179 190.452 75.179ZM190.631 74.125C191.095 74.125 191.486 74.0339 191.804 73.8516C192.126 73.6693 192.368 73.4339 192.53 73.1456C192.696 72.8572 192.779 72.554 192.779 72.2358V71.1619C192.729 71.2216 192.619 71.2763 192.45 71.326C192.285 71.3724 192.093 71.4138 191.874 71.4503C191.658 71.4834 191.448 71.5133 191.242 71.5398C191.04 71.563 190.876 71.5829 190.75 71.5994C190.445 71.6392 190.16 71.7038 189.895 71.7933C189.633 71.8795 189.421 72.0104 189.259 72.1861C189.1 72.3584 189.02 72.5937 189.02 72.892C189.02 73.2997 189.171 73.608 189.472 73.8168C189.777 74.0223 190.164 74.125 190.631 74.125ZM199.414 67.3636V68.358H195.457V67.3636H199.414ZM196.61 65.5341H197.784V72.8125C197.784 73.1439 197.832 73.3925 197.928 73.5582C198.027 73.7206 198.153 73.83 198.306 73.8864C198.462 73.9394 198.626 73.9659 198.798 73.9659C198.927 73.9659 199.033 73.9593 199.116 73.946C199.199 73.9295 199.265 73.9162 199.315 73.9062L199.554 74.9602C199.474 74.9901 199.363 75.0199 199.221 75.0497C199.078 75.0829 198.897 75.0994 198.679 75.0994C198.347 75.0994 198.022 75.0282 197.704 74.8857C197.389 74.7431 197.127 74.526 196.919 74.2344C196.713 73.9427 196.61 73.5748 196.61 73.1307V65.5341ZM205.992 71.8778V67.3636H207.165V75H205.992V73.7074H205.912C205.733 74.0952 205.455 74.425 205.077 74.6967C204.699 74.9652 204.222 75.0994 203.645 75.0994C203.168 75.0994 202.744 74.995 202.373 74.7862C202.001 74.5741 201.71 74.2559 201.498 73.8317C201.285 73.4041 201.179 72.8655 201.179 72.2159V67.3636H202.353V72.1364C202.353 72.6932 202.508 73.1373 202.82 73.4688C203.135 73.8002 203.536 73.9659 204.023 73.9659C204.315 73.9659 204.611 73.8913 204.913 73.7422C205.218 73.593 205.473 73.3643 205.679 73.0561C205.887 72.7479 205.992 72.3551 205.992 71.8778ZM209.314 75V67.3636H210.448V68.517H210.527C210.666 68.1392 210.918 67.8326 211.283 67.5973C211.647 67.362 212.058 67.2443 212.516 67.2443C212.602 67.2443 212.71 67.246 212.839 67.2493C212.968 67.2526 213.066 67.2576 213.132 67.2642V68.4574C213.093 68.4474 213.001 68.4325 212.859 68.4126C212.72 68.3894 212.572 68.3778 212.416 68.3778C212.045 68.3778 211.714 68.4557 211.422 68.6115C211.134 68.764 210.905 68.9761 210.736 69.2479C210.57 69.5163 210.487 69.8229 210.487 70.1676V75H209.314ZM217.492 75.1591C216.757 75.1591 216.122 74.9967 215.588 74.6719C215.058 74.3438 214.649 73.8864 214.36 73.2997C214.075 72.7098 213.933 72.0237 213.933 71.2415C213.933 70.4593 214.075 69.7699 214.36 69.1733C214.649 68.5734 215.05 68.1061 215.563 67.7713C216.08 67.4332 216.684 67.2642 217.373 67.2642C217.771 67.2642 218.164 67.3305 218.551 67.4631C218.939 67.5956 219.292 67.8111 219.61 68.1094C219.928 68.4044 220.182 68.7955 220.371 69.2827C220.56 69.7699 220.654 70.3698 220.654 71.0824V71.5795H214.768V70.5653H219.461C219.461 70.1345 219.375 69.75 219.203 69.4119C219.034 69.0739 218.792 68.8071 218.477 68.6115C218.165 68.416 217.797 68.3182 217.373 68.3182C216.906 68.3182 216.501 68.4342 216.16 68.6662C215.822 68.8949 215.562 69.1932 215.379 69.5611C215.197 69.929 215.106 70.3234 215.106 70.7443V71.4205C215.106 71.9972 215.205 72.486 215.404 72.8871C215.606 73.2848 215.887 73.5881 216.244 73.7969C216.602 74.0024 217.018 74.1051 217.492 74.1051C217.801 74.1051 218.079 74.062 218.328 73.9759C218.579 73.8864 218.797 73.7538 218.979 73.5781C219.161 73.3991 219.302 73.1771 219.401 72.9119L220.535 73.2301C220.416 73.6146 220.215 73.9527 219.933 74.2443C219.652 74.5327 219.304 74.758 218.889 74.9205C218.475 75.0795 218.009 75.1591 217.492 75.1591ZM227.132 64.8182L229.757 69.054H229.837L232.462 64.8182H233.914L230.712 69.9091L233.914 75H232.462L229.837 70.8438H229.757L227.132 75H225.681L228.962 69.9091L225.681 64.8182H227.132ZM236.89 72.1364V72.0767C236.897 71.4437 236.963 70.9399 237.089 70.5653C237.215 70.1908 237.394 69.8875 237.626 69.6555C237.858 69.4235 238.136 69.2098 238.461 69.0142C238.657 68.8949 238.833 68.754 238.988 68.5916C239.144 68.4259 239.267 68.2353 239.356 68.0199C239.449 67.8045 239.495 67.5658 239.495 67.304C239.495 66.9792 239.419 66.6974 239.267 66.4588C239.114 66.2202 238.91 66.0362 238.655 65.907C238.4 65.7777 238.117 65.7131 237.805 65.7131C237.533 65.7131 237.271 65.7694 237.02 65.8821C236.768 65.9948 236.557 66.1721 236.388 66.4141C236.219 66.656 236.121 66.9725 236.095 67.3636H234.842C234.868 66.8002 235.014 66.3179 235.279 65.9169C235.548 65.5159 235.901 65.2093 236.338 64.9972C236.779 64.785 237.268 64.679 237.805 64.679C238.388 64.679 238.895 64.795 239.326 65.027C239.761 65.259 240.095 65.5772 240.331 65.9815C240.569 66.3859 240.689 66.8466 240.689 67.3636C240.689 67.7282 240.632 68.058 240.52 68.353C240.41 68.648 240.251 68.9115 240.042 69.1435C239.837 69.3755 239.588 69.581 239.297 69.7599C239.005 69.9422 238.771 70.1345 238.596 70.3366C238.42 70.5355 238.292 70.7725 238.213 71.0476C238.133 71.3227 238.09 71.6657 238.083 72.0767V72.1364H236.89ZM237.527 75.0795C237.281 75.0795 237.071 74.9917 236.895 74.8161C236.72 74.6404 236.632 74.4299 236.632 74.1847C236.632 73.9394 236.72 73.7289 236.895 73.5533C237.071 73.3776 237.281 73.2898 237.527 73.2898C237.772 73.2898 237.982 73.3776 238.158 73.5533C238.334 73.7289 238.422 73.9394 238.422 74.1847C238.422 74.3471 238.38 74.4962 238.297 74.6321C238.218 74.768 238.11 74.8774 237.974 74.9602C237.842 75.0398 237.692 75.0795 237.527 75.0795ZM243.489 64.8182V65.7131C243.489 65.9848 243.439 66.2749 243.34 66.5831C243.244 66.888 243.101 67.1847 242.912 67.473C242.727 67.758 242.501 68.0066 242.236 68.2188L241.6 67.7017C241.808 67.4034 241.989 67.0935 242.142 66.772C242.297 66.4472 242.375 66.1009 242.375 65.733V64.8182H243.489ZM246.034 64.8182V65.7131C246.034 65.9848 245.985 66.2749 245.885 66.5831C245.789 66.888 245.646 67.1847 245.458 67.473C245.272 67.758 245.047 68.0066 244.781 68.2188L244.145 67.7017C244.354 67.4034 244.535 67.0935 244.687 66.772C244.843 66.4472 244.921 66.1009 244.921 65.733V64.8182H246.034Z" fill="white"/>
</g>
</g>
</g>
<path d="M272 4.5H16C9.64873 4.5 4.5 9.64873 4.5 16V200C4.5 206.351 9.64873 211.5 16 211.5H272C278.351 211.5 283.5 206.351 283.5 200V16C283.5 9.64873 278.351 4.5 272 4.5Z" stroke="#E9EBF1"/>
</g>
</g>
<defs>
<filter id="filter0_i_371_2760" x="4" y="4" width="280" height="208" filterUnits="userSpaceOnUse" color-interpolation-filters="sRGB">
<feFlood flood-opacity="0" result="BackgroundImageFix"/>
<feBlend mode="normal" in="SourceGraphic" in2="BackgroundImageFix" result="shape"/>
<feColorMatrix in="SourceAlpha" type="matrix" values="0 0 0 0 0 0 0 0 0 0 0 0 0 0 0 0 0 0 127 0" result="hardAlpha"/>
<feOffset/>
<feGaussianBlur stdDeviation="2"/>
<feComposite in2="hardAlpha" operator="arithmetic" k2="-1" k3="1"/>
<feColorMatrix type="matrix" values="0 0 0 0 1 0 0 0 0 1 0 0 0 0 1 0 0 0 1 0"/>
<feBlend mode="normal" in2="shape" result="effect1_innerShadow_371_2760"/>
</filter>
</defs>
</svg>
