<svg width="545" height="233" viewBox="0 0 545 233" fill="none" xmlns="http://www.w3.org/2000/svg">
<g clip-path="url(#clip0_357_2380)">
<rect width="545" height="233" fill="white"/>
<rect x="4.5" y="14.5" width="535" height="265" rx="23.5" fill="white"/>
<rect x="4.5" y="14.5" width="535" height="265" rx="23.5" stroke="#CCCCCC"/>
<mask id="path-2-inside-1_357_2380" fill="white">
<path d="M4 38C4 24.7452 14.7452 14 28 14H516C529.255 14 540 24.7452 540 38V69H4V38Z"/>
</mask>
<path d="M4 38C4 24.7452 14.7452 14 28 14H516C529.255 14 540 24.7452 540 38V69H4V38Z" fill="#F6F6F6"/>
<path d="M4 14H540H4ZM540 70H4V68H540V70ZM4 69V14V69ZM540 14V69V14Z" fill="#CCCCCC" mask="url(#path-2-inside-1_357_2380)"/>
<g clip-path="url(#clip1_357_2380)">
<path d="M34.6667 29.6667H39.3333V26H42.6667V29.6667H49.3333V36.3333H53V39.6667H49.3333V44.3333H53V47.6667H49.3333V54.3333H42.6667V58H39.3333V54.3333H34.6667V58H31.3333V54.3333H24.6667V47.6667H21V44.3333H24.6667V39.6667H21V36.3333H24.6667V29.6667H31.3333V26H34.6667V29.6667ZM28 51H46V33H28V51ZM38.008 35.6267C38.0733 37.0286 38.6595 38.3557 39.6519 39.3481C40.6443 40.3405 41.9714 40.9268 43.3733 40.992L43.6667 41V43C42.9215 42.9965 42.1831 43.1406 41.494 43.4242C40.8049 43.7077 40.1788 44.125 39.6519 44.6519C39.125 45.1788 38.7077 45.8049 38.4242 46.494C38.1406 47.1831 37.9965 47.9215 38 48.6667H36L35.992 48.3733C35.9242 46.9206 35.2976 45.5504 34.243 44.549C33.1884 43.5476 31.7876 42.9926 30.3333 43V41L30.6267 40.992C32.0794 40.9242 33.4496 40.2976 34.451 39.243C35.4524 38.1884 36.0074 36.7876 36 35.3333H38L38.008 35.6267Z" fill="#CCCCCC"/>
</g>
<path d="M63.8438 48V36.3594H65.9531V46.2344H71.0859V48H63.8438ZM72.2969 48V36.3594H74.4062V46.2344H79.5391V48H72.2969ZM80.75 36.3594H83.3359L86.7891 44.7891H86.9219L90.3828 36.3594H93V48H90.9297V40H90.8359L87.6016 47.9609H86.0859L82.8906 39.9844H82.7812V48H80.75V36.3594ZM97.5547 38.125V36.3594H106.836V38.125H103.242V48H101.156V38.125H97.5547ZM107.023 48V39.2656H109.016V40.7344H109.109C109.266 40.224 109.539 39.8333 109.93 39.5625C110.32 39.2865 110.766 39.1484 111.266 39.1484C111.375 39.1484 111.5 39.1536 111.641 39.1641C111.786 39.1745 111.906 39.1875 112 39.2031V41.0938C111.911 41.0625 111.773 41.0365 111.586 41.0156C111.398 40.9948 111.219 40.9844 111.047 40.9844C110.667 40.9844 110.328 41.0651 110.031 41.2266C109.734 41.388 109.5 41.6094 109.328 41.8906C109.161 42.1719 109.078 42.5 109.078 42.875V48H107.023ZM115.133 48.1797C114.576 48.1797 114.076 48.0807 113.633 47.8828C113.19 47.6797 112.841 47.3828 112.586 46.9922C112.331 46.6016 112.203 46.1198 112.203 45.5469C112.203 45.0573 112.294 44.651 112.477 44.3281C112.659 44.0052 112.906 43.7474 113.219 43.5547C113.536 43.362 113.893 43.2161 114.289 43.1172C114.685 43.013 115.094 42.9401 115.516 42.8984C116.031 42.8411 116.448 42.7917 116.766 42.75C117.083 42.7083 117.312 42.6406 117.453 42.5469C117.599 42.4531 117.672 42.3073 117.672 42.1094V42.0703C117.672 41.6484 117.547 41.3203 117.297 41.0859C117.047 40.8516 116.682 40.7344 116.203 40.7344C115.698 40.7344 115.297 40.8438 115 41.0625C114.708 41.2812 114.51 41.5391 114.406 41.8359L112.492 41.5625C112.643 41.0312 112.893 40.5885 113.242 40.2344C113.591 39.875 114.016 39.6068 114.516 39.4297C115.021 39.2474 115.578 39.1562 116.188 39.1562C116.604 39.1562 117.021 39.2057 117.438 39.3047C117.854 39.3984 118.237 39.5599 118.586 39.7891C118.935 40.0182 119.214 40.3255 119.422 40.7109C119.63 41.0964 119.734 41.5781 119.734 42.1562V48H117.758V46.7969H117.695C117.57 47.0365 117.393 47.263 117.164 47.4766C116.94 47.6849 116.659 47.8542 116.32 47.9844C115.987 48.1146 115.591 48.1797 115.133 48.1797ZM115.656 46.6641C116.073 46.6641 116.432 46.5833 116.734 46.4219C117.036 46.2552 117.271 46.0365 117.438 45.7656C117.604 45.4896 117.688 45.1901 117.688 44.8672V43.8438C117.62 43.8958 117.51 43.9453 117.359 43.9922C117.208 44.0339 117.036 44.0729 116.844 44.1094C116.651 44.1458 116.461 44.1771 116.273 44.2031C116.091 44.2292 115.932 44.25 115.797 44.2656C115.49 44.3073 115.214 44.3776 114.969 44.4766C114.729 44.5703 114.539 44.7005 114.398 44.8672C114.258 45.0339 114.188 45.25 114.188 45.5156C114.188 45.8958 114.326 46.1823 114.602 46.375C114.878 46.5677 115.229 46.6641 115.656 46.6641ZM121.258 48V39.2656H123.312V48H121.258ZM122.289 38.0391C121.961 38.0391 121.68 37.9297 121.445 37.7109C121.211 37.4922 121.094 37.2292 121.094 36.9219C121.094 36.6094 121.211 36.3438 121.445 36.125C121.68 35.9062 121.961 35.7969 122.289 35.7969C122.612 35.7969 122.891 35.9062 123.125 36.125C123.359 36.3438 123.477 36.6068 123.477 36.9141C123.477 37.2266 123.359 37.4922 123.125 37.7109C122.891 37.9297 122.612 38.0391 122.289 38.0391ZM126.891 42.8906V48H124.836V39.2656H126.852V40.7578H126.953C127.151 40.2682 127.461 39.8802 127.883 39.5938C128.31 39.3021 128.852 39.1562 129.508 39.1562C130.112 39.1562 130.638 39.2839 131.086 39.5391C131.534 39.7943 131.88 40.1693 132.125 40.6641C132.375 41.1536 132.5 41.7474 132.5 42.4453V48H130.445V42.7656C130.445 42.1823 130.294 41.7266 129.992 41.3984C129.69 41.0651 129.273 40.8984 128.742 40.8984C128.383 40.8984 128.062 40.9766 127.781 41.1328C127.505 41.2891 127.286 41.5156 127.125 41.8125C126.969 42.1042 126.891 42.4635 126.891 42.8906ZM134.023 48V39.2656H136.078V48H134.023ZM135.055 38.0391C134.727 38.0391 134.445 37.9297 134.211 37.7109C133.977 37.4922 133.859 37.2292 133.859 36.9219C133.859 36.6094 133.977 36.3438 134.211 36.125C134.445 35.9062 134.727 35.7969 135.055 35.7969C135.378 35.7969 135.656 35.9062 135.891 36.125C136.125 36.3438 136.242 36.6068 136.242 36.9141C136.242 37.2266 136.125 37.4922 135.891 37.7109C135.656 37.9297 135.378 38.0391 135.055 38.0391ZM139.656 42.8906V48H137.602V39.2656H139.617V40.7578H139.719C139.917 40.2682 140.227 39.8802 140.648 39.5938C141.076 39.3021 141.617 39.1562 142.273 39.1562C142.878 39.1562 143.404 39.2839 143.852 39.5391C144.299 39.7943 144.646 40.1693 144.891 40.6641C145.141 41.1536 145.266 41.7474 145.266 42.4453V48H143.211V42.7656C143.211 42.1823 143.06 41.7266 142.758 41.3984C142.456 41.0651 142.039 40.8984 141.508 40.8984C141.148 40.8984 140.828 40.9766 140.547 41.1328C140.271 41.2891 140.052 41.5156 139.891 41.8125C139.734 42.1042 139.656 42.4635 139.656 42.8906ZM150.57 51.4531C149.461 51.4531 148.589 51.237 147.953 50.8047C147.318 50.3776 146.909 49.8594 146.727 49.25L148.57 48.7969C148.654 48.9688 148.776 49.138 148.938 49.3047C149.099 49.4766 149.315 49.6172 149.586 49.7266C149.857 49.8411 150.198 49.8984 150.609 49.8984C151.193 49.8984 151.674 49.7552 152.055 49.4688C152.44 49.1875 152.633 48.7266 152.633 48.0859V46.4375H152.516C152.417 46.6458 152.266 46.862 152.062 47.0859C151.859 47.3047 151.591 47.4922 151.258 47.6484C150.93 47.7995 150.513 47.875 150.008 47.875C149.341 47.875 148.734 47.7161 148.188 47.3984C147.646 47.0807 147.214 46.6068 146.891 45.9766C146.573 45.3464 146.414 44.5573 146.414 43.6094C146.414 42.651 146.573 41.8411 146.891 41.1797C147.214 40.5182 147.648 40.0156 148.195 39.6719C148.742 39.3281 149.352 39.1562 150.023 39.1562C150.534 39.1562 150.956 39.2422 151.289 39.4141C151.622 39.5859 151.888 39.7943 152.086 40.0391C152.284 40.2786 152.438 40.5026 152.547 40.7109H152.656V39.2656H154.664V48.1406C154.664 48.8854 154.487 49.5026 154.133 49.9922C153.779 50.4818 153.292 50.8464 152.672 51.0859C152.057 51.3307 151.357 51.4531 150.57 51.4531ZM150.586 46.2578C151.242 46.2578 151.747 46.0234 152.102 45.5547C152.461 45.0807 152.641 44.4271 152.641 43.5938C152.641 43.0417 152.562 42.5599 152.406 42.1484C152.25 41.737 152.018 41.4167 151.711 41.1875C151.404 40.9583 151.029 40.8438 150.586 40.8438C150.128 40.8438 149.745 40.9635 149.438 41.2031C149.13 41.4427 148.898 41.7708 148.742 42.1875C148.591 42.599 148.516 43.0677 148.516 43.5938C148.516 44.125 148.594 44.5911 148.75 44.9922C148.906 45.3932 149.138 45.7057 149.445 45.9297C149.758 46.1484 150.138 46.2578 150.586 46.2578Z" fill="#CCCCCC"/>
<mask id="path-6-inside-2_357_2380" fill="white">
<path d="M18 94C18 87.3726 23.3726 82 30 82H257C263.627 82 269 87.3726 269 94V243H18V94Z"/>
</mask>
<path d="M18 94C18 87.3726 23.3726 82 30 82H257C263.627 82 269 87.3726 269 94V243H18V94Z" fill="white"/>
<path d="M17 94C17 86.8203 22.8203 81 30 81H257C264.18 81 270 86.8203 270 94H268C268 87.9249 263.075 83 257 83H30C23.9249 83 19 87.9249 19 94H17ZM269 243H18H269ZM17 243V94C17 86.8203 22.8203 81 30 81V83C23.9249 83 19 87.9249 19 94V243H17ZM257 81C264.18 81 270 86.8203 270 94V243H268V94C268 87.9249 263.075 83 257 83V81Z" fill="#E6E6E6" mask="url(#path-6-inside-2_357_2380)"/>
<rect x="36.1191" y="110" width="155.916" height="8.30323" rx="3.69032" fill="#EAEAEB"/>
<rect x="36.1191" y="127.529" width="106.097" height="8.30323" rx="3.69032" fill="#EAEAEB"/>
<rect x="36.1191" y="145.059" width="127.316" height="8.30323" rx="3.69032" fill="#EAEAEB"/>
<rect x="36.1191" y="162.587" width="106.097" height="8.30323" rx="3.69032" fill="#EAEAEB"/>
<mask id="path-12-inside-3_357_2380" fill="white">
<path d="M279 94C279 87.3726 284.373 82 291 82H518C524.627 82 530 87.3726 530 94V243H279V94Z"/>
</mask>
<path d="M279 94C279 87.3726 284.373 82 291 82H518C524.627 82 530 87.3726 530 94V243H279V94Z" fill="white"/>
<path d="M278 94C278 86.8203 283.82 81 291 81H518C525.18 81 531 86.8203 531 94H529C529 87.9249 524.075 83 518 83H291C284.925 83 280 87.9249 280 94H278ZM530 243H279H530ZM278 243V94C278 86.8203 283.82 81 291 81V83C284.925 83 280 87.9249 280 94V243H278ZM518 81C525.18 81 531 86.8203 531 94V243H529V94C529 87.9249 524.075 83 518 83V81Z" fill="#E6E6E6" mask="url(#path-12-inside-3_357_2380)"/>
<rect x="297.119" y="110" width="155.916" height="8.30323" rx="3.69032" fill="#EAEAEB"/>
<rect x="297.119" y="127.529" width="106.097" height="8.30323" rx="3.69032" fill="#EAEAEB"/>
<rect x="462" y="187" width="44" height="8" rx="3.69032" fill="#EAEAEB"/>
<rect x="297.119" y="145.059" width="127.316" height="8.30323" rx="3.69032" fill="#EAEAEB"/>
<rect x="462" y="205" width="52" height="8" rx="3.69032" fill="#EAEAEB"/>
<rect x="297.119" y="162.587" width="106.097" height="8.30323" rx="3.69032" fill="#EAEAEB"/>
</g>
<defs>
<clipPath id="clip0_357_2380">
<rect width="545" height="233" fill="white"/>
</clipPath>
<clipPath id="clip1_357_2380">
<rect width="32" height="32" fill="white" transform="translate(21 26)"/>
</clipPath>
</defs>
</svg>
