<svg width="352" height="234" viewBox="0 0 352 234" fill="none" xmlns="http://www.w3.org/2000/svg">
<g filter="url(#filter0_d_365_2441)">
<g clip-path="url(#clip0_365_2441)">
<rect x="4" y="4" width="344" height="226" rx="12" fill="white" fill-opacity="0.01" shape-rendering="crispEdges"/>
<rect x="4.5" y="4.5" width="343" height="177" rx="11.5" stroke="#E9EBF1"/>
<path d="M-373 -1.5H569C575.351 -1.49999 580.5 3.64873 580.5 10V70C580.5 76.3513 575.351 81.5 569 81.5H-373C-379.351 81.5 -384.5 76.3513 -384.5 70V10L-384.485 9.4082C-384.177 3.33195 -379.153 -1.5 -373 -1.5Z" fill="#F9FAFB"/>
<path d="M-373 -1.5H569C575.351 -1.49999 580.5 3.64873 580.5 10V70C580.5 76.3513 575.351 81.5 569 81.5H-373C-379.351 81.5 -384.5 76.3513 -384.5 70V10L-384.485 9.4082C-384.177 3.33195 -379.153 -1.5 -373 -1.5Z" stroke="#EAECF0"/>
<g filter="url(#filter1_d_365_2441)">
<path d="M-28.5 20.5H-4.5C-0.357865 20.5 3 23.8579 3 28V52C3 56.1421 -0.357865 59.5 -4.5 59.5H-28.5C-32.6421 59.5 -36 56.1421 -36 52V28C-36 23.8579 -32.6421 20.5 -28.5 20.5Z" stroke="#EAECF0" shape-rendering="crispEdges"/>
</g>
<g filter="url(#filter2_dd_365_2441)">
<path d="M27.5 26C27.5 21.5817 31.0817 18 35.5 18H324C328.418 18 332 21.5817 332 26V54C332 58.4183 328.418 62 324 62H35.5C31.0817 62 27.5 58.4183 27.5 54V26Z" fill="white"/>
<path d="M35.5 18.5H324C328.142 18.5 331.5 21.8579 331.5 26V54C331.5 58.1421 328.142 61.5 324 61.5H35.5C31.3579 61.5 28 58.1421 28 54V26C28 21.8579 31.3579 18.5 35.5 18.5Z" stroke="#D6BBFB"/>
<path d="M59 47.5L56.0834 44.5833M58.1667 39.5833C58.1667 43.4954 54.9954 46.6667 51.0833 46.6667C47.1713 46.6667 44 43.4954 44 39.5833C44 35.6713 47.1713 32.5 51.0833 32.5C54.9954 32.5 58.1667 35.6713 58.1667 39.5833Z" stroke="#667085" stroke-width="1.66667" stroke-linecap="round" stroke-linejoin="round"/>
<path d="M75.5 28.5H138.5C141.538 28.5 144 30.9624 144 34V46C144 49.0376 141.538 51.5 138.5 51.5H75.5C72.4624 51.5 70 49.0376 70 46V34C70 30.9624 72.4624 28.5 75.5 28.5Z" fill="white"/>
<path d="M75.5 28.5H138.5C141.538 28.5 144 30.9624 144 34V46C144 49.0376 141.538 51.5 138.5 51.5H75.5C72.4624 51.5 70 49.0376 70 46V34C70 30.9624 72.4624 28.5 75.5 28.5Z" stroke="#D0D5DD"/>
<path d="M88.2068 34.8182V45H86.7948L81.6194 37.5327H81.5249V45H79.9887V34.8182H81.4106L86.591 42.2955H86.6855V34.8182H88.2068ZM93.6196 45.1541C92.8672 45.1541 92.2193 44.9934 91.6757 44.6719C91.1354 44.3471 90.7178 43.8913 90.4229 43.3047C90.1312 42.7147 89.9854 42.0237 89.9854 41.2315C89.9854 40.4493 90.1312 39.7599 90.4229 39.1634C90.7178 38.5668 91.1288 38.1011 91.6558 37.7663C92.1861 37.4316 92.8059 37.2642 93.5152 37.2642C93.9461 37.2642 94.3637 37.3355 94.768 37.478C95.1724 37.6205 95.5353 37.8442 95.8568 38.1491C96.1783 38.4541 96.4318 38.8501 96.6175 39.3374C96.8031 39.8213 96.8959 40.4096 96.8959 41.1023V41.6293H90.8256V40.5156H95.4392C95.4392 40.1245 95.3596 39.7782 95.2006 39.4766C95.0415 39.1716 94.8177 38.9313 94.5294 38.7557C94.2443 38.58 93.9096 38.4922 93.5251 38.4922C93.1075 38.4922 92.7429 38.5949 92.4314 38.8004C92.1231 39.0026 91.8845 39.2678 91.7155 39.5959C91.5497 39.9207 91.4669 40.2737 91.4669 40.6548V41.5249C91.4669 42.0353 91.5564 42.4695 91.7354 42.8274C91.9176 43.1854 92.1712 43.4588 92.496 43.6477C92.8208 43.8333 93.2003 43.9261 93.6345 43.9261C93.9162 43.9261 94.1731 43.8864 94.4051 43.8068C94.6371 43.724 94.8376 43.6013 95.0067 43.4389C95.1757 43.2765 95.305 43.076 95.3944 42.8374L96.8014 43.0909C96.6887 43.5052 96.4865 43.8681 96.1949 44.1797C95.9065 44.4879 95.5436 44.7282 95.1061 44.9006C94.6719 45.0696 94.1764 45.1541 93.6196 45.1541ZM98.5452 47.8636V37.3636H99.9969V38.6016H100.121C100.207 38.4425 100.332 38.2585 100.494 38.0497C100.656 37.8409 100.882 37.6586 101.17 37.5028C101.459 37.3438 101.84 37.2642 102.314 37.2642C102.93 37.2642 103.48 37.42 103.964 37.7315C104.448 38.0431 104.828 38.4922 105.103 39.0788C105.381 39.6655 105.52 40.3714 105.52 41.1967C105.52 42.022 105.383 42.7296 105.108 43.3196C104.833 43.9062 104.455 44.3587 103.974 44.6768C103.494 44.9917 102.945 45.1491 102.329 45.1491C101.865 45.1491 101.485 45.0713 101.19 44.9155C100.898 44.7597 100.67 44.5774 100.504 44.3686C100.338 44.1598 100.211 43.9742 100.121 43.8118H100.032V47.8636H98.5452ZM100.002 41.1818C100.002 41.7187 100.08 42.1894 100.236 42.5938C100.391 42.9981 100.617 43.3146 100.912 43.5433C101.207 43.7687 101.568 43.8814 101.995 43.8814C102.44 43.8814 102.811 43.7637 103.109 43.5284C103.407 43.2898 103.633 42.9666 103.785 42.5589C103.941 42.1513 104.019 41.6922 104.019 41.1818C104.019 40.678 103.943 40.2256 103.79 39.8246C103.641 39.4235 103.416 39.107 103.114 38.875C102.816 38.643 102.443 38.527 101.995 38.527C101.565 38.527 101.2 38.638 100.902 38.8601C100.607 39.0821 100.383 39.392 100.231 39.7898C100.078 40.1875 100.002 40.6515 100.002 41.1818ZM109.408 45.169C108.924 45.169 108.487 45.0795 108.096 44.9006C107.705 44.7183 107.395 44.4548 107.166 44.1101C106.941 43.7654 106.828 43.3428 106.828 42.8423C106.828 42.4115 106.911 42.0568 107.076 41.7784C107.242 41.5 107.466 41.2796 107.748 41.1172C108.029 40.9548 108.344 40.8321 108.692 40.7493C109.04 40.6664 109.395 40.6035 109.756 40.5604C110.214 40.5073 110.585 40.4643 110.87 40.4311C111.155 40.3946 111.362 40.3366 111.491 40.2571C111.62 40.1776 111.685 40.0483 111.685 39.8693V39.8345C111.685 39.4003 111.562 39.0639 111.317 38.8253C111.075 38.5866 110.714 38.4673 110.233 38.4673C109.733 38.4673 109.339 38.5784 109.05 38.8004C108.765 39.0192 108.568 39.2628 108.459 39.5312L107.062 39.2131C107.227 38.7491 107.469 38.3745 107.787 38.0895C108.109 37.8011 108.478 37.5923 108.896 37.4631C109.314 37.3305 109.753 37.2642 110.214 37.2642C110.518 37.2642 110.842 37.3007 111.183 37.3736C111.528 37.4432 111.849 37.5724 112.147 37.7614C112.449 37.9503 112.696 38.2204 112.888 38.5717C113.08 38.9197 113.177 39.3722 113.177 39.929V45H111.725V43.956H111.665C111.569 44.1482 111.425 44.3371 111.233 44.5227C111.04 44.7083 110.794 44.8625 110.492 44.9851C110.19 45.1077 109.829 45.169 109.408 45.169ZM109.731 43.9759C110.142 43.9759 110.494 43.8946 110.785 43.7322C111.08 43.5698 111.304 43.3577 111.456 43.0959C111.612 42.8307 111.69 42.5473 111.69 42.2457V41.2614C111.637 41.3144 111.534 41.3641 111.382 41.4105C111.233 41.4536 111.062 41.4917 110.87 41.5249C110.678 41.5547 110.49 41.5829 110.308 41.6094C110.126 41.6326 109.973 41.6525 109.851 41.669C109.562 41.7055 109.299 41.7668 109.06 41.853C108.825 41.9392 108.636 42.0634 108.493 42.2259C108.354 42.3849 108.285 42.5971 108.285 42.8622C108.285 43.2301 108.42 43.5085 108.692 43.6974C108.964 43.883 109.31 43.9759 109.731 43.9759ZM116.643 34.8182V45H115.157V34.8182H116.643ZM118.643 45V37.3636H120.129V45H118.643ZM119.394 36.1854C119.135 36.1854 118.913 36.0992 118.727 35.9268C118.545 35.7512 118.454 35.5424 118.454 35.3004C118.454 35.0552 118.545 34.8464 118.727 34.674C118.913 34.4983 119.135 34.4105 119.394 34.4105C119.652 34.4105 119.872 34.4983 120.055 34.674C120.24 34.8464 120.333 35.0552 120.333 35.3004C120.333 35.5424 120.24 35.7512 120.055 35.9268C119.872 36.0992 119.652 36.1854 119.394 36.1854Z" fill="#344054"/>
<path d="M135.5 37L129.5 43M129.5 37L135.5 43" stroke="#98A2B3" stroke-width="1.5" stroke-linecap="round" stroke-linejoin="round"/>
<path d="M156.5 28.5H211.5C214.538 28.5 217 30.9624 217 34V46C217 49.0376 214.538 51.5 211.5 51.5H156.5C153.462 51.5 151 49.0376 151 46V34C151 30.9624 153.462 28.5 156.5 28.5Z" fill="white"/>
<path d="M156.5 28.5H211.5C214.538 28.5 217 30.9624 217 34V46C217 49.0376 214.538 51.5 211.5 51.5H156.5C153.462 51.5 151 49.0376 151 46V34C151 30.9624 153.462 28.5 156.5 28.5Z" stroke="#D0D5DD"/>
<path d="M160.872 45V34.8182H162.408V39.2429H167.484V34.8182H169.025V45H167.484V40.5604H162.408V45H160.872ZM171.143 45V37.3636H172.629V45H171.143ZM171.894 36.1854C171.635 36.1854 171.413 36.0992 171.227 35.9268C171.045 35.7512 170.954 35.5424 170.954 35.3004C170.954 35.0552 171.045 34.8464 171.227 34.674C171.413 34.4983 171.635 34.4105 171.894 34.4105C172.152 34.4105 172.372 34.4983 172.555 34.674C172.74 34.8464 172.833 35.0552 172.833 35.3004C172.833 35.5424 172.74 35.7512 172.555 35.9268C172.372 36.0992 172.152 36.1854 171.894 36.1854ZM176.116 40.4659V45H174.629V37.3636H176.056V38.6065H176.15C176.326 38.2022 176.601 37.8774 176.976 37.6321C177.354 37.3868 177.829 37.2642 178.403 37.2642C178.923 37.2642 179.379 37.3736 179.77 37.5923C180.161 37.8078 180.464 38.1293 180.68 38.5568C180.895 38.9844 181.003 39.513 181.003 40.1428V45H179.516V40.3217C179.516 39.7682 179.372 39.3357 179.084 39.0241C178.795 38.7093 178.399 38.5518 177.896 38.5518C177.551 38.5518 177.244 38.6264 176.976 38.7756C176.711 38.9247 176.5 39.1435 176.344 39.4318C176.192 39.7169 176.116 40.0616 176.116 40.4659ZM185.855 45.1491C185.239 45.1491 184.688 44.9917 184.204 44.6768C183.724 44.3587 183.346 43.9062 183.071 43.3196C182.799 42.7296 182.663 42.022 182.663 41.1967C182.663 40.3714 182.801 39.6655 183.076 39.0788C183.354 38.4922 183.735 38.0431 184.219 37.7315C184.703 37.42 185.252 37.2642 185.865 37.2642C186.339 37.2642 186.72 37.3438 187.008 37.5028C187.3 37.6586 187.525 37.8409 187.685 38.0497C187.847 38.2585 187.973 38.4425 188.062 38.6016H188.152V34.8182H189.638V45H188.187V43.8118H188.062C187.973 43.9742 187.844 44.1598 187.675 44.3686C187.509 44.5774 187.28 44.7597 186.989 44.9155C186.697 45.0713 186.319 45.1491 185.855 45.1491ZM186.183 43.8814C186.611 43.8814 186.972 43.7687 187.267 43.5433C187.565 43.3146 187.791 42.9981 187.943 42.5938C188.099 42.1894 188.177 41.7187 188.177 41.1818C188.177 40.6515 188.101 40.1875 187.948 39.7898C187.796 39.392 187.572 39.0821 187.277 38.8601C186.982 38.638 186.617 38.527 186.183 38.527C185.736 38.527 185.363 38.643 185.065 38.875C184.766 39.107 184.541 39.4235 184.388 39.8246C184.239 40.2256 184.165 40.678 184.165 41.1818C184.165 41.6922 184.241 42.1513 184.393 42.5589C184.546 42.9666 184.771 43.2898 185.07 43.5284C185.371 43.7637 185.742 43.8814 186.183 43.8814ZM191.76 45V37.3636H193.247V45H191.76ZM192.511 36.1854C192.252 36.1854 192.03 36.0992 191.845 35.9268C191.662 35.7512 191.571 35.5424 191.571 35.3004C191.571 35.0552 191.662 34.8464 191.845 34.674C192.03 34.4983 192.252 34.4105 192.511 34.4105C192.769 34.4105 192.99 34.4983 193.172 34.674C193.358 34.8464 193.45 35.0552 193.45 35.3004C193.45 35.5424 193.358 35.7512 193.172 35.9268C192.99 36.0992 192.769 36.1854 192.511 36.1854Z" fill="#344054"/>
<path d="M208.5 37L202.5 43M202.5 37L208.5 43" stroke="#98A2B3" stroke-width="1.5" stroke-linecap="round" stroke-linejoin="round"/>
</g>
<g filter="url(#filter3_dd_365_2441)">
<g clip-path="url(#clip1_365_2441)">
<path d="M27.5 74C27.5 69.5817 31.0817 66 35.5 66H324.5C328.918 66 332.5 69.5817 332.5 74V378C332.5 382.418 328.918 386 324.5 386H35.5C31.0817 386 27.5 382.418 27.5 378V74Z" fill="white"/>
<path d="M33.5 77C33.5 73.6863 36.1863 71 39.5 71H320.5C323.814 71 326.5 73.6863 326.5 77V109C326.5 112.314 323.814 115 320.5 115H39.5C36.1863 115 33.5 112.314 33.5 109V77Z" fill="#F9FAFB"/>
<path d="M52.1705 87.3636V99H50.5568L44.642 90.4659H44.5341V99H42.7784V87.3636H44.4034L50.3239 95.9091H50.4318V87.3636H52.1705ZM58.3565 99.1761C57.4967 99.1761 56.7562 98.9924 56.1349 98.625C55.5175 98.2538 55.0402 97.733 54.7031 97.0625C54.3698 96.3883 54.2031 95.5985 54.2031 94.6932C54.2031 93.7992 54.3698 93.0114 54.7031 92.3295C55.0402 91.6477 55.5099 91.1155 56.1122 90.733C56.7183 90.3504 57.4266 90.1591 58.2372 90.1591C58.7296 90.1591 59.2069 90.2405 59.669 90.4034C60.1312 90.5663 60.5459 90.822 60.9134 91.1705C61.2808 91.5189 61.5705 91.9716 61.7827 92.5284C61.9948 93.0814 62.1009 93.7538 62.1009 94.5455V95.1477H55.1634V93.875H60.4361C60.4361 93.428 60.3452 93.0322 60.1634 92.6875C59.9815 92.339 59.7259 92.0644 59.3963 91.8636C59.0705 91.6629 58.688 91.5625 58.2486 91.5625C57.7713 91.5625 57.3546 91.6799 56.9986 91.9148C56.6463 92.1458 56.3736 92.4489 56.1804 92.8239C55.991 93.1951 55.8963 93.5985 55.8963 94.0341V95.0284C55.8963 95.6117 55.9986 96.108 56.2031 96.517C56.4115 96.9261 56.7012 97.2386 57.0724 97.4545C57.4437 97.6667 57.8774 97.7727 58.3736 97.7727C58.6955 97.7727 58.9891 97.7273 59.2543 97.6364C59.5194 97.5417 59.7486 97.4015 59.9418 97.2159C60.1349 97.0303 60.2827 96.8011 60.3849 96.5284L61.9929 96.8182C61.8641 97.2917 61.633 97.7064 61.2997 98.0625C60.9702 98.4148 60.5554 98.6894 60.0554 98.8864C59.5592 99.0795 58.9929 99.1761 58.3565 99.1761ZM63.9858 102.273V90.2727H65.6449V91.6875H65.7869C65.8854 91.5057 66.0275 91.2955 66.2131 91.0568C66.3987 90.8182 66.6563 90.6098 66.9858 90.4318C67.3153 90.25 67.7509 90.1591 68.2926 90.1591C68.9972 90.1591 69.6259 90.3371 70.179 90.6932C70.732 91.0492 71.1657 91.5625 71.4801 92.233C71.7983 92.9034 71.9574 93.7102 71.9574 94.6534C71.9574 95.5966 71.8002 96.4053 71.4858 97.0795C71.1714 97.75 70.7396 98.267 70.1903 98.6307C69.6411 98.9905 69.0142 99.1705 68.3097 99.1705C67.7794 99.1705 67.3456 99.0814 67.0085 98.9034C66.6752 98.7254 66.4138 98.517 66.2244 98.2784C66.035 98.0398 65.8892 97.8277 65.7869 97.642H65.6847V102.273H63.9858ZM65.6506 94.6364C65.6506 95.25 65.7396 95.7879 65.9176 96.25C66.0956 96.7121 66.3532 97.0739 66.6903 97.3352C67.0275 97.5928 67.4403 97.7216 67.929 97.7216C68.4366 97.7216 68.8608 97.5871 69.2017 97.3182C69.5426 97.0455 69.8002 96.6761 69.9744 96.2102C70.1525 95.7443 70.2415 95.2197 70.2415 94.6364C70.2415 94.0606 70.1544 93.5436 69.9801 93.0852C69.8097 92.6269 69.5521 92.2652 69.2074 92C68.8665 91.7348 68.4403 91.6023 67.929 91.6023C67.4366 91.6023 67.0199 91.7292 66.679 91.983C66.3419 92.2367 66.0862 92.5909 65.9119 93.0455C65.7377 93.5 65.6506 94.0303 65.6506 94.6364ZM76.4006 99.1932C75.8475 99.1932 75.3475 99.0909 74.9006 98.8864C74.4536 98.678 74.0994 98.3769 73.8381 97.983C73.5805 97.589 73.4517 97.1061 73.4517 96.5341C73.4517 96.0417 73.5464 95.6364 73.7358 95.3182C73.9252 95 74.1809 94.7481 74.5028 94.5625C74.8248 94.3769 75.1847 94.2367 75.5824 94.142C75.9801 94.0473 76.3854 93.9754 76.7983 93.9261C77.321 93.8655 77.7453 93.8163 78.071 93.7784C78.3968 93.7367 78.6335 93.6705 78.7812 93.5795C78.929 93.4886 79.0028 93.3409 79.0028 93.1364V93.0966C79.0028 92.6004 78.8627 92.2159 78.5824 91.9432C78.3059 91.6705 77.893 91.5341 77.3438 91.5341C76.7718 91.5341 76.321 91.661 75.9915 91.9148C75.6657 92.1648 75.4403 92.4432 75.3153 92.75L73.7188 92.3864C73.9081 91.8561 74.1847 91.428 74.5483 91.1023C74.9157 90.7727 75.3381 90.5341 75.8153 90.3864C76.2926 90.2348 76.7945 90.1591 77.321 90.1591C77.6695 90.1591 78.0388 90.2008 78.429 90.2841C78.8229 90.3636 79.1903 90.5114 79.5312 90.7273C79.8759 90.9432 80.1581 91.2519 80.3778 91.6534C80.5975 92.0511 80.7074 92.5682 80.7074 93.2045V99H79.0483V97.8068H78.9801C78.8703 98.0265 78.7055 98.2424 78.4858 98.4545C78.2661 98.6667 77.9839 98.8428 77.6392 98.983C77.2945 99.1231 76.8816 99.1932 76.4006 99.1932ZM76.7699 97.8295C77.2396 97.8295 77.6411 97.7367 77.9744 97.5511C78.3116 97.3655 78.5672 97.1231 78.7415 96.8239C78.9195 96.5208 79.0085 96.197 79.0085 95.8523V94.7273C78.9479 94.7879 78.8305 94.8447 78.6562 94.8977C78.4858 94.947 78.2907 94.9905 78.071 95.0284C77.8513 95.0625 77.6373 95.0947 77.429 95.125C77.2206 95.1515 77.0464 95.1742 76.9062 95.1932C76.5767 95.2348 76.2756 95.3049 76.0028 95.4034C75.7339 95.5019 75.518 95.6439 75.3551 95.8295C75.196 96.0114 75.1165 96.2538 75.1165 96.5568C75.1165 96.9773 75.2718 97.2955 75.5824 97.5114C75.893 97.7235 76.2888 97.8295 76.7699 97.8295ZM84.669 87.3636V99H82.9702V87.3636H84.669ZM86.9545 99V90.2727H88.6534V99H86.9545ZM87.8125 88.9261C87.517 88.9261 87.2633 88.8277 87.0511 88.6307C86.8428 88.4299 86.7386 88.1913 86.7386 87.9148C86.7386 87.6345 86.8428 87.3958 87.0511 87.1989C87.2633 86.9981 87.517 86.8977 87.8125 86.8977C88.108 86.8977 88.3598 86.9981 88.5682 87.1989C88.7803 87.3958 88.8864 87.6345 88.8864 87.9148C88.8864 88.1913 88.7803 88.4299 88.5682 88.6307C88.3598 88.8277 88.108 88.9261 87.8125 88.9261Z" fill="#101828"/>
<path d="M313.165 88L303.999 97.1667L299.832 93" stroke="#7F56D9" stroke-width="1.66667" stroke-linecap="round" stroke-linejoin="round"/>
<path d="M33.5 123C33.5 119.686 36.1863 117 39.5 117H320.5C323.814 117 326.5 119.686 326.5 123V155C326.5 158.314 323.814 161 320.5 161H39.5C36.1863 161 33.5 158.314 33.5 155V123Z" fill="#F9FAFB"/>
<path d="M42.7784 145V133.364H44.5341V138.42H50.3352V133.364H52.0966V145H50.3352V139.926H44.5341V145H42.7784ZM54.517 145V136.273H56.2159V145H54.517ZM55.375 134.926C55.0795 134.926 54.8258 134.828 54.6136 134.631C54.4053 134.43 54.3011 134.191 54.3011 133.915C54.3011 133.634 54.4053 133.396 54.6136 133.199C54.8258 132.998 55.0795 132.898 55.375 132.898C55.6705 132.898 55.9223 132.998 56.1307 133.199C56.3428 133.396 56.4489 133.634 56.4489 133.915C56.4489 134.191 56.3428 134.43 56.1307 134.631C55.9223 134.828 55.6705 134.926 55.375 134.926ZM60.2003 139.818V145H58.5014V136.273H60.1321V137.693H60.2401C60.4408 137.231 60.7552 136.86 61.1832 136.58C61.6151 136.299 62.1586 136.159 62.8139 136.159C63.4086 136.159 63.9295 136.284 64.3764 136.534C64.8234 136.78 65.17 137.148 65.4162 137.636C65.6624 138.125 65.7855 138.729 65.7855 139.449V145H64.0866V139.653C64.0866 139.021 63.9219 138.527 63.5923 138.17C63.2628 137.811 62.8101 137.631 62.2344 137.631C61.8404 137.631 61.4901 137.716 61.1832 137.886C60.8802 138.057 60.6397 138.307 60.4616 138.636C60.2874 138.962 60.2003 139.356 60.2003 139.818ZM71.331 145.17C70.6264 145.17 69.9976 144.991 69.4446 144.631C68.8954 144.267 68.4635 143.75 68.1491 143.08C67.8385 142.405 67.6832 141.597 67.6832 140.653C67.6832 139.71 67.8404 138.903 68.1548 138.233C68.473 137.562 68.9086 137.049 69.4616 136.693C70.0147 136.337 70.6416 136.159 71.3423 136.159C71.884 136.159 72.3196 136.25 72.6491 136.432C72.9825 136.61 73.2401 136.818 73.4219 137.057C73.6075 137.295 73.7514 137.506 73.8537 137.688H73.956V133.364H75.6548V145H73.9957V143.642H73.8537C73.7514 143.828 73.6037 144.04 73.4105 144.278C73.2211 144.517 72.9598 144.725 72.6264 144.903C72.2931 145.081 71.8613 145.17 71.331 145.17ZM71.706 143.722C72.1946 143.722 72.6075 143.593 72.9446 143.335C73.2855 143.074 73.5431 142.712 73.7173 142.25C73.8954 141.788 73.9844 141.25 73.9844 140.636C73.9844 140.03 73.8973 139.5 73.723 139.045C73.5488 138.591 73.2931 138.237 72.956 137.983C72.6188 137.729 72.2022 137.602 71.706 137.602C71.1946 137.602 70.7685 137.735 70.4276 138C70.0866 138.265 69.8291 138.627 69.6548 139.085C69.4844 139.544 69.3991 140.061 69.3991 140.636C69.3991 141.22 69.4863 141.744 69.6605 142.21C69.8348 142.676 70.0923 143.045 70.4332 143.318C70.7779 143.587 71.2022 143.722 71.706 143.722ZM78.0795 145V136.273H79.7784V145H78.0795ZM78.9375 134.926C78.642 134.926 78.3883 134.828 78.1761 134.631C77.9678 134.43 77.8636 134.191 77.8636 133.915C77.8636 133.634 77.9678 133.396 78.1761 133.199C78.3883 132.998 78.642 132.898 78.9375 132.898C79.233 132.898 79.4848 132.998 79.6932 133.199C79.9053 133.396 80.0114 133.634 80.0114 133.915C80.0114 134.191 79.9053 134.43 79.6932 134.631C79.4848 134.828 79.233 134.926 78.9375 134.926Z" fill="#101828"/>
<path d="M313.165 134L303.999 143.167L299.832 139" stroke="#7F56D9" stroke-width="1.66667" stroke-linecap="round" stroke-linejoin="round"/>
<path d="M50.6534 183.04C50.5436 182.695 50.3958 182.386 50.2102 182.114C50.0284 181.837 49.8106 181.602 49.5568 181.409C49.303 181.212 49.0133 181.062 48.6875 180.96C48.3655 180.858 48.0114 180.807 47.625 180.807C46.9697 180.807 46.3788 180.975 45.8523 181.312C45.3258 181.65 44.9091 182.144 44.6023 182.795C44.2992 183.443 44.1477 184.237 44.1477 185.176C44.1477 186.119 44.3011 186.917 44.608 187.568C44.9148 188.22 45.3352 188.714 45.8693 189.051C46.4034 189.388 47.0114 189.557 47.6932 189.557C48.3258 189.557 48.8769 189.428 49.3466 189.17C49.8201 188.913 50.1856 188.549 50.4432 188.08C50.7045 187.606 50.8352 187.049 50.8352 186.409L51.2898 186.494H47.9602V185.045H52.5341V186.369C52.5341 187.347 52.3258 188.195 51.9091 188.915C51.4962 189.631 50.9242 190.184 50.1932 190.574C49.4659 190.964 48.6326 191.159 47.6932 191.159C46.6402 191.159 45.7159 190.917 44.9205 190.432C44.1288 189.947 43.5114 189.259 43.0682 188.369C42.625 187.475 42.4034 186.415 42.4034 185.188C42.4034 184.259 42.5322 183.426 42.7898 182.688C43.0473 181.949 43.4091 181.322 43.875 180.807C44.3447 180.288 44.8958 179.892 45.5284 179.619C46.1648 179.343 46.8598 179.205 47.6136 179.205C48.2424 179.205 48.8277 179.297 49.3693 179.483C49.9148 179.669 50.3996 179.932 50.8239 180.273C51.2519 180.614 51.6061 181.019 51.8864 181.489C52.1667 181.955 52.3561 182.472 52.4545 183.04H50.6534ZM58.3878 191.176C57.5279 191.176 56.7874 190.992 56.1662 190.625C55.5488 190.254 55.0715 189.733 54.7344 189.062C54.401 188.388 54.2344 187.598 54.2344 186.693C54.2344 185.799 54.401 185.011 54.7344 184.33C55.0715 183.648 55.5412 183.116 56.1435 182.733C56.7495 182.35 57.4579 182.159 58.2685 182.159C58.7609 182.159 59.2382 182.241 59.7003 182.403C60.1624 182.566 60.5772 182.822 60.9446 183.17C61.312 183.519 61.6018 183.972 61.8139 184.528C62.026 185.081 62.1321 185.754 62.1321 186.545V187.148H55.1946V185.875H60.4673C60.4673 185.428 60.3764 185.032 60.1946 184.688C60.0128 184.339 59.7571 184.064 59.4276 183.864C59.1018 183.663 58.7192 183.562 58.2798 183.562C57.8026 183.562 57.3859 183.68 57.0298 183.915C56.6776 184.146 56.4048 184.449 56.2116 184.824C56.0223 185.195 55.9276 185.598 55.9276 186.034V187.028C55.9276 187.612 56.0298 188.108 56.2344 188.517C56.4427 188.926 56.7325 189.239 57.1037 189.455C57.4749 189.667 57.9086 189.773 58.4048 189.773C58.7268 189.773 59.0204 189.727 59.2855 189.636C59.5507 189.542 59.7798 189.402 59.973 189.216C60.1662 189.03 60.3139 188.801 60.4162 188.528L62.0241 188.818C61.8954 189.292 61.6643 189.706 61.331 190.062C61.0014 190.415 60.5866 190.689 60.0866 190.886C59.5904 191.08 59.0241 191.176 58.3878 191.176ZM64.017 191V182.273H65.6591V183.659H65.75C65.9091 183.189 66.1894 182.82 66.5909 182.551C66.9962 182.278 67.4545 182.142 67.9659 182.142C68.072 182.142 68.197 182.146 68.3409 182.153C68.4886 182.161 68.6042 182.17 68.6875 182.182V183.807C68.6193 183.788 68.4981 183.767 68.3239 183.744C68.1496 183.718 67.9754 183.705 67.8011 183.705C67.3996 183.705 67.0417 183.79 66.7273 183.96C66.4167 184.127 66.1705 184.36 65.9886 184.659C65.8068 184.955 65.7159 185.292 65.7159 185.67V191H64.017ZM70.1577 191V182.273H71.7884V183.693H71.8963C72.0781 183.212 72.3755 182.837 72.7884 182.568C73.2012 182.295 73.6955 182.159 74.2713 182.159C74.8546 182.159 75.3433 182.295 75.7372 182.568C76.1349 182.841 76.4285 183.216 76.6179 183.693H76.7088C76.9171 183.227 77.2486 182.856 77.7031 182.58C78.1577 182.299 78.6993 182.159 79.3281 182.159C80.1198 182.159 80.7656 182.407 81.2656 182.903C81.7694 183.4 82.0213 184.148 82.0213 185.148V191H80.3224V185.307C80.3224 184.716 80.1615 184.288 79.8395 184.023C79.5175 183.758 79.133 183.625 78.6861 183.625C78.133 183.625 77.7031 183.795 77.3963 184.136C77.0895 184.473 76.9361 184.907 76.9361 185.438V191H75.2429V185.199C75.2429 184.725 75.0952 184.345 74.7997 184.057C74.5043 183.769 74.1198 183.625 73.6463 183.625C73.3243 183.625 73.027 183.71 72.7543 183.881C72.4853 184.047 72.2675 184.28 72.1009 184.58C71.938 184.879 71.8565 185.225 71.8565 185.619V191H70.1577ZM86.8381 191.193C86.285 191.193 85.785 191.091 85.3381 190.886C84.8911 190.678 84.5369 190.377 84.2756 189.983C84.018 189.589 83.8892 189.106 83.8892 188.534C83.8892 188.042 83.9839 187.636 84.1733 187.318C84.3627 187 84.6184 186.748 84.9403 186.562C85.2623 186.377 85.6222 186.237 86.0199 186.142C86.4176 186.047 86.8229 185.975 87.2358 185.926C87.7585 185.866 88.1828 185.816 88.5085 185.778C88.8343 185.737 89.071 185.67 89.2188 185.58C89.3665 185.489 89.4403 185.341 89.4403 185.136V185.097C89.4403 184.6 89.3002 184.216 89.0199 183.943C88.7434 183.67 88.3305 183.534 87.7812 183.534C87.2093 183.534 86.7585 183.661 86.429 183.915C86.1032 184.165 85.8778 184.443 85.7528 184.75L84.1562 184.386C84.3456 183.856 84.6222 183.428 84.9858 183.102C85.3532 182.773 85.7756 182.534 86.2528 182.386C86.7301 182.235 87.232 182.159 87.7585 182.159C88.107 182.159 88.4763 182.201 88.8665 182.284C89.2604 182.364 89.6278 182.511 89.9688 182.727C90.3134 182.943 90.5956 183.252 90.8153 183.653C91.035 184.051 91.1449 184.568 91.1449 185.205V191H89.4858V189.807H89.4176C89.3078 190.027 89.143 190.242 88.9233 190.455C88.7036 190.667 88.4214 190.843 88.0767 190.983C87.732 191.123 87.3191 191.193 86.8381 191.193ZM87.2074 189.83C87.6771 189.83 88.0786 189.737 88.4119 189.551C88.7491 189.366 89.0047 189.123 89.179 188.824C89.357 188.521 89.446 188.197 89.446 187.852V186.727C89.3854 186.788 89.268 186.845 89.0938 186.898C88.9233 186.947 88.7282 186.991 88.5085 187.028C88.2888 187.062 88.0748 187.095 87.8665 187.125C87.6581 187.152 87.4839 187.174 87.3438 187.193C87.0142 187.235 86.7131 187.305 86.4403 187.403C86.1714 187.502 85.9555 187.644 85.7926 187.83C85.6335 188.011 85.554 188.254 85.554 188.557C85.554 188.977 85.7093 189.295 86.0199 189.511C86.3305 189.723 86.7263 189.83 87.2074 189.83ZM95.1065 185.818V191H93.4077V182.273H95.0384V183.693H95.1463C95.3471 183.231 95.6615 182.86 96.0895 182.58C96.5213 182.299 97.0649 182.159 97.7202 182.159C98.3149 182.159 98.8357 182.284 99.2827 182.534C99.7296 182.78 100.076 183.148 100.322 183.636C100.569 184.125 100.692 184.729 100.692 185.449V191H98.9929V185.653C98.9929 185.021 98.8281 184.527 98.4986 184.17C98.169 183.811 97.7164 183.631 97.1406 183.631C96.7467 183.631 96.3963 183.716 96.0895 183.886C95.7865 184.057 95.5459 184.307 95.3679 184.636C95.1937 184.962 95.1065 185.356 95.1065 185.818Z" fill="#101828"/>
<path d="M42.2045 226.875V225.364H51.2102V226.875H47.5795V237H45.8295V226.875H42.2045ZM57.4048 233.381V228.273H59.1094V237H57.4389V235.489H57.348C57.1473 235.955 56.8253 236.343 56.3821 236.653C55.9427 236.96 55.3954 237.114 54.7401 237.114C54.1795 237.114 53.6832 236.991 53.2514 236.744C52.8234 236.494 52.4863 236.125 52.2401 235.636C51.9976 235.148 51.8764 234.544 51.8764 233.824V228.273H53.5753V233.619C53.5753 234.214 53.7401 234.687 54.0696 235.04C54.3991 235.392 54.8272 235.568 55.3537 235.568C55.6719 235.568 55.9882 235.489 56.3026 235.33C56.6207 235.17 56.884 234.93 57.0923 234.608C57.3045 234.286 57.4086 233.877 57.4048 233.381ZM61.392 237V228.273H63.0341V229.659H63.125C63.2841 229.189 63.5644 228.82 63.9659 228.551C64.3712 228.278 64.8295 228.142 65.3409 228.142C65.447 228.142 65.572 228.146 65.7159 228.153C65.8636 228.161 65.9792 228.17 66.0625 228.182V229.807C65.9943 229.788 65.8731 229.767 65.6989 229.744C65.5246 229.718 65.3504 229.705 65.1761 229.705C64.7746 229.705 64.4167 229.79 64.1023 229.96C63.7917 230.127 63.5455 230.36 63.3636 230.659C63.1818 230.955 63.0909 231.292 63.0909 231.67V237H61.392ZM69.0952 234.04L69.0838 231.966H69.3793L72.8565 228.273H74.8906L70.9247 232.477H70.6577L69.0952 234.04ZM67.5327 237V225.364H69.2315V237H67.5327ZM73.044 237L69.919 232.852L71.0895 231.665L75.1293 237H73.044ZM76.4389 237V228.273H78.1378V237H76.4389ZM77.2969 226.926C77.0014 226.926 76.7476 226.828 76.5355 226.631C76.3272 226.43 76.223 226.191 76.223 225.915C76.223 225.634 76.3272 225.396 76.5355 225.199C76.7476 224.998 77.0014 224.898 77.2969 224.898C77.5923 224.898 77.8442 224.998 78.0526 225.199C78.2647 225.396 78.3707 225.634 78.3707 225.915C78.3707 226.191 78.2647 226.43 78.0526 226.631C77.8442 226.828 77.5923 226.926 77.2969 226.926ZM86.9631 230.403L85.4233 230.676C85.3589 230.479 85.2566 230.292 85.1165 230.114C84.9801 229.936 84.7945 229.79 84.5597 229.676C84.3248 229.562 84.0313 229.506 83.679 229.506C83.1979 229.506 82.7964 229.614 82.4744 229.83C82.1525 230.042 81.9915 230.316 81.9915 230.653C81.9915 230.945 82.0994 231.18 82.3153 231.358C82.5313 231.536 82.8797 231.682 83.3608 231.795L84.7472 232.114C85.5502 232.299 86.1487 232.585 86.5426 232.972C86.9366 233.358 87.1335 233.86 87.1335 234.477C87.1335 235 86.982 235.466 86.679 235.875C86.3797 236.28 85.9612 236.598 85.4233 236.83C84.8892 237.061 84.2699 237.176 83.5653 237.176C82.5881 237.176 81.7907 236.968 81.1733 236.551C80.5559 236.131 80.1771 235.534 80.0369 234.761L81.679 234.511C81.7813 234.939 81.9915 235.263 82.3097 235.483C82.6278 235.699 83.0426 235.807 83.554 235.807C84.1108 235.807 84.5559 235.691 84.8892 235.46C85.2225 235.225 85.3892 234.939 85.3892 234.602C85.3892 234.33 85.2869 234.1 85.0824 233.915C84.8816 233.729 84.5729 233.589 84.1562 233.494L82.679 233.17C81.8646 232.985 81.2623 232.689 80.8722 232.284C80.4858 231.879 80.2926 231.366 80.2926 230.744C80.2926 230.229 80.4366 229.778 80.7244 229.392C81.0123 229.006 81.41 228.705 81.9176 228.489C82.4252 228.269 83.0066 228.159 83.6619 228.159C84.6051 228.159 85.3475 228.364 85.8892 228.773C86.4309 229.178 86.7888 229.722 86.9631 230.403ZM90.7003 231.818V237H89.0014V225.364H90.6776V229.693H90.7855C90.9901 229.223 91.3026 228.85 91.723 228.574C92.1435 228.297 92.6927 228.159 93.3707 228.159C93.9692 228.159 94.492 228.282 94.9389 228.528C95.3897 228.775 95.7382 229.142 95.9844 229.631C96.2344 230.116 96.3594 230.722 96.3594 231.449V237H94.6605V231.653C94.6605 231.013 94.4957 230.517 94.1662 230.165C93.8366 229.809 93.3783 229.631 92.7912 229.631C92.3897 229.631 92.0298 229.716 91.7116 229.886C91.3973 230.057 91.1491 230.307 90.9673 230.636C90.7893 230.962 90.7003 231.356 90.7003 231.818Z" fill="#101828"/>
<path d="M320.5 74C320.5 71.7909 322.291 70 324.5 70V70C326.709 70 328.5 71.7909 328.5 74V222C328.5 224.209 326.709 226 324.5 226V226C322.291 226 320.5 224.209 320.5 222V74Z" fill="#EAECF0"/>
</g>
<path d="M35.5 66.5H324.5C328.642 66.5 332 69.8579 332 74V378C332 382.142 328.642 385.5 324.5 385.5H35.5C31.3579 385.5 28 382.142 28 378V74C28 69.8579 31.3579 66.5 35.5 66.5Z" stroke="#EAECF0"/>
</g>
</g>
</g>
<defs>
<filter id="filter0_d_365_2441" x="0" y="0" width="352" height="234" filterUnits="userSpaceOnUse" color-interpolation-filters="sRGB">
<feFlood flood-opacity="0" result="BackgroundImageFix"/>
<feColorMatrix in="SourceAlpha" type="matrix" values="0 0 0 0 0 0 0 0 0 0 0 0 0 0 0 0 0 0 127 0" result="hardAlpha"/>
<feMorphology radius="4" operator="dilate" in="SourceAlpha" result="effect1_dropShadow_365_2441"/>
<feOffset/>
<feComposite in2="hardAlpha" operator="out"/>
<feColorMatrix type="matrix" values="0 0 0 0 1 0 0 0 0 1 0 0 0 0 1 0 0 0 1 0"/>
<feBlend mode="normal" in2="BackgroundImageFix" result="effect1_dropShadow_365_2441"/>
<feBlend mode="normal" in="SourceGraphic" in2="effect1_dropShadow_365_2441" result="shape"/>
</filter>
<filter id="filter1_d_365_2441" x="-38.5" y="19" width="44" height="44" filterUnits="userSpaceOnUse" color-interpolation-filters="sRGB">
<feFlood flood-opacity="0" result="BackgroundImageFix"/>
<feColorMatrix in="SourceAlpha" type="matrix" values="0 0 0 0 0 0 0 0 0 0 0 0 0 0 0 0 0 0 127 0" result="hardAlpha"/>
<feOffset dy="1"/>
<feGaussianBlur stdDeviation="1"/>
<feComposite in2="hardAlpha" operator="out"/>
<feColorMatrix type="matrix" values="0 0 0 0 0.0627451 0 0 0 0 0.0941176 0 0 0 0 0.156863 0 0 0 0.05 0"/>
<feBlend mode="normal" in2="BackgroundImageFix" result="effect1_dropShadow_365_2441"/>
<feBlend mode="normal" in="SourceGraphic" in2="effect1_dropShadow_365_2441" result="shape"/>
</filter>
<filter id="filter2_dd_365_2441" x="23.5" y="14" width="312.5" height="52" filterUnits="userSpaceOnUse" color-interpolation-filters="sRGB">
<feFlood flood-opacity="0" result="BackgroundImageFix"/>
<feColorMatrix in="SourceAlpha" type="matrix" values="0 0 0 0 0 0 0 0 0 0 0 0 0 0 0 0 0 0 127 0" result="hardAlpha"/>
<feMorphology radius="4" operator="dilate" in="SourceAlpha" result="effect1_dropShadow_365_2441"/>
<feOffset/>
<feComposite in2="hardAlpha" operator="out"/>
<feColorMatrix type="matrix" values="0 0 0 0 0.619608 0 0 0 0 0.466667 0 0 0 0 0.929412 0 0 0 0.24 0"/>
<feBlend mode="normal" in2="BackgroundImageFix" result="effect1_dropShadow_365_2441"/>
<feColorMatrix in="SourceAlpha" type="matrix" values="0 0 0 0 0 0 0 0 0 0 0 0 0 0 0 0 0 0 127 0" result="hardAlpha"/>
<feOffset dy="1"/>
<feGaussianBlur stdDeviation="1"/>
<feComposite in2="hardAlpha" operator="out"/>
<feColorMatrix type="matrix" values="0 0 0 0 0.0627451 0 0 0 0 0.0941176 0 0 0 0 0.156863 0 0 0 0.05 0"/>
<feBlend mode="normal" in2="effect1_dropShadow_365_2441" result="effect2_dropShadow_365_2441"/>
<feBlend mode="normal" in="SourceGraphic" in2="effect2_dropShadow_365_2441" result="shape"/>
</filter>
<filter id="filter3_dd_365_2441" x="15.5" y="66" width="329" height="344" filterUnits="userSpaceOnUse" color-interpolation-filters="sRGB">
<feFlood flood-opacity="0" result="BackgroundImageFix"/>
<feColorMatrix in="SourceAlpha" type="matrix" values="0 0 0 0 0 0 0 0 0 0 0 0 0 0 0 0 0 0 127 0" result="hardAlpha"/>
<feMorphology radius="2" operator="erode" in="SourceAlpha" result="effect1_dropShadow_365_2441"/>
<feOffset dy="4"/>
<feGaussianBlur stdDeviation="3"/>
<feComposite in2="hardAlpha" operator="out"/>
<feColorMatrix type="matrix" values="0 0 0 0 0.0627451 0 0 0 0 0.0941176 0 0 0 0 0.156863 0 0 0 0.03 0"/>
<feBlend mode="normal" in2="BackgroundImageFix" result="effect1_dropShadow_365_2441"/>
<feColorMatrix in="SourceAlpha" type="matrix" values="0 0 0 0 0 0 0 0 0 0 0 0 0 0 0 0 0 0 127 0" result="hardAlpha"/>
<feMorphology radius="4" operator="erode" in="SourceAlpha" result="effect2_dropShadow_365_2441"/>
<feOffset dy="12"/>
<feGaussianBlur stdDeviation="8"/>
<feComposite in2="hardAlpha" operator="out"/>
<feColorMatrix type="matrix" values="0 0 0 0 0.0627451 0 0 0 0 0.0941176 0 0 0 0 0.156863 0 0 0 0.08 0"/>
<feBlend mode="normal" in2="effect1_dropShadow_365_2441" result="effect2_dropShadow_365_2441"/>
<feBlend mode="normal" in="SourceGraphic" in2="effect2_dropShadow_365_2441" result="shape"/>
</filter>
<clipPath id="clip0_365_2441">
<rect x="4" y="4" width="344" height="226" rx="12" fill="white"/>
</clipPath>
<clipPath id="clip1_365_2441">
<path d="M27.5 74C27.5 69.5817 31.0817 66 35.5 66H324.5C328.918 66 332.5 69.5817 332.5 74V378C332.5 382.418 328.918 386 324.5 386H35.5C31.0817 386 27.5 382.418 27.5 378V74Z" fill="white"/>
</clipPath>
</defs>
</svg>
