<svg width="424" height="350" viewBox="0 0 424 350" fill="none" xmlns="http://www.w3.org/2000/svg">
<g filter="url(#filter0_dd_333_15188)">
<g clip-path="url(#clip0_333_15188)">
<rect x="40.5" y="84.5" width="343" height="177" rx="11.5" stroke="#E9EBF1"/>
<path d="M-337 78.5H605C611.351 78.5 616.5 83.6487 616.5 90V150C616.5 156.351 611.351 161.5 605 161.5H-337C-343.351 161.5 -348.5 156.351 -348.5 150V90C-348.5 83.6487 -343.351 78.5 -337 78.5Z" fill="#F9FAFB"/>
<path d="M-337 78.5H605C611.351 78.5 616.5 83.6487 616.5 90V150C616.5 156.351 611.351 161.5 605 161.5H-337C-343.351 161.5 -348.5 156.351 -348.5 150V90C-348.5 83.6487 -343.351 78.5 -337 78.5Z" stroke="#EAECF0"/>
<g filter="url(#filter1_d_333_15188)">
<path d="M7.5 100.5H31.5C35.6421 100.5 39 103.858 39 108V132C39 136.142 35.6421 139.5 31.5 139.5H7.5C3.35786 139.5 0 136.142 0 132V108C0 103.858 3.35786 100.5 7.5 100.5Z" stroke="#EAECF0" shape-rendering="crispEdges"/>
</g>
<g filter="url(#filter2_dd_333_15188)">
<path d="M63.5 106C63.5 101.582 67.0817 98 71.5 98H360C364.418 98 368 101.582 368 106V134C368 138.418 364.418 142 360 142H71.5C67.0817 142 63.5 138.418 63.5 134V106Z" fill="white"/>
<path d="M71.5 98.5H360C364.142 98.5 367.5 101.858 367.5 106V134C367.5 138.142 364.142 141.5 360 141.5H71.5C67.3579 141.5 64 138.142 64 134V106C64 101.858 67.3579 98.5 71.5 98.5Z" stroke="#D6BBFB"/>
<path d="M95 127.5L92.0834 124.583M94.1667 119.583C94.1667 123.495 90.9954 126.667 87.0833 126.667C83.1713 126.667 80 123.495 80 119.583C80 115.671 83.1713 112.5 87.0833 112.5C90.9954 112.5 94.1667 115.671 94.1667 119.583Z" stroke="#667085" stroke-width="1.66667" stroke-linecap="round" stroke-linejoin="round"/>
<path d="M111.5 108.5H174.5C177.538 108.5 180 110.962 180 114V126C180 129.038 177.538 131.5 174.5 131.5H111.5C108.462 131.5 106 129.038 106 126V114C106 110.962 108.462 108.5 111.5 108.5Z" fill="white"/>
<path d="M111.5 108.5H174.5C177.538 108.5 180 110.962 180 114V126C180 129.038 177.538 131.5 174.5 131.5H111.5C108.462 131.5 106 129.038 106 126V114C106 110.962 108.462 108.5 111.5 108.5Z" stroke="#D0D5DD"/>
<path d="M124.207 114.818V125H122.795L117.619 117.533H117.525V125H115.989V114.818H117.411L122.591 122.295H122.685V114.818H124.207ZM129.62 125.154C128.867 125.154 128.219 124.993 127.676 124.672C127.135 124.347 126.718 123.891 126.423 123.305C126.131 122.715 125.985 122.024 125.985 121.232C125.985 120.449 126.131 119.76 126.423 119.163C126.718 118.567 127.129 118.101 127.656 117.766C128.186 117.432 128.806 117.264 129.515 117.264C129.946 117.264 130.364 117.335 130.768 117.478C131.172 117.621 131.535 117.844 131.857 118.149C132.178 118.454 132.432 118.85 132.617 119.337C132.803 119.821 132.896 120.41 132.896 121.102V121.629H126.826V120.516H131.439C131.439 120.125 131.36 119.778 131.201 119.477C131.041 119.172 130.818 118.931 130.529 118.756C130.244 118.58 129.91 118.492 129.525 118.492C129.108 118.492 128.743 118.595 128.431 118.8C128.123 119.003 127.884 119.268 127.715 119.596C127.55 119.921 127.467 120.274 127.467 120.655V121.525C127.467 122.035 127.556 122.469 127.735 122.827C127.918 123.185 128.171 123.459 128.496 123.648C128.821 123.833 129.2 123.926 129.634 123.926C129.916 123.926 130.173 123.886 130.405 123.807C130.637 123.724 130.838 123.601 131.007 123.439C131.176 123.277 131.305 123.076 131.394 122.837L132.801 123.091C132.689 123.505 132.487 123.868 132.195 124.18C131.907 124.488 131.544 124.728 131.106 124.901C130.672 125.07 130.176 125.154 129.62 125.154ZM134.545 127.864V117.364H135.997V118.602H136.121C136.207 118.442 136.332 118.259 136.494 118.05C136.656 117.841 136.882 117.659 137.17 117.503C137.459 117.344 137.84 117.264 138.314 117.264C138.93 117.264 139.48 117.42 139.964 117.732C140.448 118.043 140.828 118.492 141.103 119.079C141.381 119.665 141.52 120.371 141.52 121.197C141.52 122.022 141.383 122.73 141.108 123.32C140.833 123.906 140.455 124.359 139.974 124.677C139.494 124.992 138.945 125.149 138.329 125.149C137.865 125.149 137.485 125.071 137.19 124.915C136.898 124.76 136.67 124.577 136.504 124.369C136.338 124.16 136.211 123.974 136.121 123.812H136.032V127.864H134.545ZM136.002 121.182C136.002 121.719 136.08 122.189 136.236 122.594C136.391 122.998 136.617 123.315 136.912 123.543C137.207 123.769 137.568 123.881 137.995 123.881C138.44 123.881 138.811 123.764 139.109 123.528C139.407 123.29 139.633 122.967 139.785 122.559C139.941 122.151 140.019 121.692 140.019 121.182C140.019 120.678 139.943 120.226 139.79 119.825C139.641 119.424 139.416 119.107 139.114 118.875C138.816 118.643 138.443 118.527 137.995 118.527C137.565 118.527 137.2 118.638 136.902 118.86C136.607 119.082 136.383 119.392 136.231 119.79C136.078 120.187 136.002 120.652 136.002 121.182ZM145.408 125.169C144.924 125.169 144.487 125.08 144.096 124.901C143.705 124.718 143.395 124.455 143.166 124.11C142.941 123.765 142.828 123.343 142.828 122.842C142.828 122.411 142.911 122.057 143.076 121.778C143.242 121.5 143.466 121.28 143.748 121.117C144.029 120.955 144.344 120.832 144.692 120.749C145.04 120.666 145.395 120.603 145.756 120.56C146.214 120.507 146.585 120.464 146.87 120.431C147.155 120.395 147.362 120.337 147.491 120.257C147.62 120.178 147.685 120.048 147.685 119.869V119.835C147.685 119.4 147.562 119.064 147.317 118.825C147.075 118.587 146.714 118.467 146.233 118.467C145.733 118.467 145.339 118.578 145.05 118.8C144.765 119.019 144.568 119.263 144.459 119.531L143.062 119.213C143.227 118.749 143.469 118.375 143.787 118.089C144.109 117.801 144.478 117.592 144.896 117.463C145.314 117.33 145.753 117.264 146.214 117.264C146.518 117.264 146.842 117.301 147.183 117.374C147.528 117.443 147.849 117.572 148.147 117.761C148.449 117.95 148.696 118.22 148.888 118.572C149.08 118.92 149.177 119.372 149.177 119.929V125H147.725V123.956H147.665C147.569 124.148 147.425 124.337 147.233 124.523C147.04 124.708 146.794 124.862 146.492 124.985C146.19 125.108 145.829 125.169 145.408 125.169ZM145.731 123.976C146.142 123.976 146.494 123.895 146.785 123.732C147.08 123.57 147.304 123.358 147.456 123.096C147.612 122.831 147.69 122.547 147.69 122.246V121.261C147.637 121.314 147.534 121.364 147.382 121.411C147.233 121.454 147.062 121.492 146.87 121.525C146.678 121.555 146.49 121.583 146.308 121.609C146.126 121.633 145.973 121.652 145.851 121.669C145.562 121.705 145.299 121.767 145.06 121.853C144.825 121.939 144.636 122.063 144.493 122.226C144.354 122.385 144.285 122.597 144.285 122.862C144.285 123.23 144.42 123.509 144.692 123.697C144.964 123.883 145.31 123.976 145.731 123.976ZM152.643 114.818V125H151.157V114.818H152.643ZM154.643 125V117.364H156.129V125H154.643ZM155.394 116.185C155.135 116.185 154.913 116.099 154.727 115.927C154.545 115.751 154.454 115.542 154.454 115.3C154.454 115.055 154.545 114.846 154.727 114.674C154.913 114.498 155.135 114.411 155.394 114.411C155.652 114.411 155.872 114.498 156.055 114.674C156.24 114.846 156.333 115.055 156.333 115.3C156.333 115.542 156.24 115.751 156.055 115.927C155.872 116.099 155.652 116.185 155.394 116.185Z" fill="#344054"/>
<path d="M171.5 117L165.5 123M165.5 117L171.5 123" stroke="#98A2B3" stroke-width="1.5" stroke-linecap="round" stroke-linejoin="round"/>
<path d="M192.5 108.5H247.5C250.538 108.5 253 110.962 253 114V126C253 129.038 250.538 131.5 247.5 131.5H192.5C189.462 131.5 187 129.038 187 126V114C187 110.962 189.462 108.5 192.5 108.5Z" fill="white"/>
<path d="M192.5 108.5H247.5C250.538 108.5 253 110.962 253 114V126C253 129.038 250.538 131.5 247.5 131.5H192.5C189.462 131.5 187 129.038 187 126V114C187 110.962 189.462 108.5 192.5 108.5Z" stroke="#D0D5DD"/>
<path d="M196.872 125V114.818H198.408V119.243H203.484V114.818H205.025V125H203.484V120.56H198.408V125H196.872ZM207.143 125V117.364H208.629V125H207.143ZM207.894 116.185C207.635 116.185 207.413 116.099 207.227 115.927C207.045 115.751 206.954 115.542 206.954 115.3C206.954 115.055 207.045 114.846 207.227 114.674C207.413 114.498 207.635 114.411 207.894 114.411C208.152 114.411 208.372 114.498 208.555 114.674C208.74 114.846 208.833 115.055 208.833 115.3C208.833 115.542 208.74 115.751 208.555 115.927C208.372 116.099 208.152 116.185 207.894 116.185ZM212.116 120.466V125H210.629V117.364H212.056V118.607H212.15C212.326 118.202 212.601 117.877 212.976 117.632C213.354 117.387 213.829 117.264 214.403 117.264C214.923 117.264 215.379 117.374 215.77 117.592C216.161 117.808 216.464 118.129 216.68 118.557C216.895 118.984 217.003 119.513 217.003 120.143V125H215.516V120.322C215.516 119.768 215.372 119.336 215.084 119.024C214.795 118.709 214.399 118.552 213.896 118.552C213.551 118.552 213.244 118.626 212.976 118.776C212.711 118.925 212.5 119.143 212.344 119.432C212.192 119.717 212.116 120.062 212.116 120.466ZM221.855 125.149C221.239 125.149 220.688 124.992 220.204 124.677C219.724 124.359 219.346 123.906 219.071 123.32C218.799 122.73 218.663 122.022 218.663 121.197C218.663 120.371 218.801 119.665 219.076 119.079C219.354 118.492 219.735 118.043 220.219 117.732C220.703 117.42 221.252 117.264 221.865 117.264C222.339 117.264 222.72 117.344 223.008 117.503C223.3 117.659 223.525 117.841 223.685 118.05C223.847 118.259 223.973 118.442 224.062 118.602H224.152V114.818H225.638V125H224.187V123.812H224.062C223.973 123.974 223.844 124.16 223.675 124.369C223.509 124.577 223.28 124.76 222.989 124.915C222.697 125.071 222.319 125.149 221.855 125.149ZM222.183 123.881C222.611 123.881 222.972 123.769 223.267 123.543C223.565 123.315 223.791 122.998 223.943 122.594C224.099 122.189 224.177 121.719 224.177 121.182C224.177 120.652 224.101 120.187 223.948 119.79C223.796 119.392 223.572 119.082 223.277 118.86C222.982 118.638 222.617 118.527 222.183 118.527C221.736 118.527 221.363 118.643 221.065 118.875C220.766 119.107 220.541 119.424 220.388 119.825C220.239 120.226 220.165 120.678 220.165 121.182C220.165 121.692 220.241 122.151 220.393 122.559C220.546 122.967 220.771 123.29 221.07 123.528C221.371 123.764 221.742 123.881 222.183 123.881ZM227.76 125V117.364H229.247V125H227.76ZM228.511 116.185C228.252 116.185 228.03 116.099 227.845 115.927C227.662 115.751 227.571 115.542 227.571 115.3C227.571 115.055 227.662 114.846 227.845 114.674C228.03 114.498 228.252 114.411 228.511 114.411C228.769 114.411 228.99 114.498 229.172 114.674C229.358 114.846 229.45 115.055 229.45 115.3C229.45 115.542 229.358 115.751 229.172 115.927C228.99 116.099 228.769 116.185 228.511 116.185Z" fill="#344054"/>
<path d="M244.5 117L238.5 123M238.5 117L244.5 123" stroke="#98A2B3" stroke-width="1.5" stroke-linecap="round" stroke-linejoin="round"/>
</g>
<g filter="url(#filter3_dd_333_15188)">
<g clip-path="url(#clip1_333_15188)">
<path d="M63.5 154C63.5 149.582 67.0817 146 71.5 146H360.5C364.918 146 368.5 149.582 368.5 154V458C368.5 462.418 364.918 466 360.5 466H71.5C67.0817 466 63.5 462.418 63.5 458V154Z" fill="white"/>
<path d="M69.5 157C69.5 153.686 72.1863 151 75.5 151H356.5C359.814 151 362.5 153.686 362.5 157V189C362.5 192.314 359.814 195 356.5 195H75.5C72.1863 195 69.5 192.314 69.5 189V157Z" fill="#F9FAFB"/>
<path d="M88.1705 167.364V179H86.5568L80.642 170.466H80.5341V179H78.7784V167.364H80.4034L86.3239 175.909H86.4318V167.364H88.1705ZM94.3565 179.176C93.4967 179.176 92.7562 178.992 92.1349 178.625C91.5175 178.254 91.0402 177.733 90.7031 177.062C90.3698 176.388 90.2031 175.598 90.2031 174.693C90.2031 173.799 90.3698 173.011 90.7031 172.33C91.0402 171.648 91.5099 171.116 92.1122 170.733C92.7183 170.35 93.4266 170.159 94.2372 170.159C94.7296 170.159 95.2069 170.241 95.669 170.403C96.1312 170.566 96.5459 170.822 96.9134 171.17C97.2808 171.519 97.5705 171.972 97.7827 172.528C97.9948 173.081 98.1009 173.754 98.1009 174.545V175.148H91.1634V173.875H96.4361C96.4361 173.428 96.3452 173.032 96.1634 172.688C95.9815 172.339 95.7259 172.064 95.3963 171.864C95.0705 171.663 94.688 171.562 94.2486 171.562C93.7713 171.562 93.3546 171.68 92.9986 171.915C92.6463 172.146 92.3736 172.449 92.1804 172.824C91.991 173.195 91.8963 173.598 91.8963 174.034V175.028C91.8963 175.612 91.9986 176.108 92.2031 176.517C92.4115 176.926 92.7012 177.239 93.0724 177.455C93.4437 177.667 93.8774 177.773 94.3736 177.773C94.6955 177.773 94.9891 177.727 95.2543 177.636C95.5194 177.542 95.7486 177.402 95.9418 177.216C96.1349 177.03 96.2827 176.801 96.3849 176.528L97.9929 176.818C97.8641 177.292 97.633 177.706 97.2997 178.062C96.9702 178.415 96.5554 178.689 96.0554 178.886C95.5592 179.08 94.9929 179.176 94.3565 179.176ZM99.9858 182.273V170.273H101.645V171.688H101.787C101.885 171.506 102.027 171.295 102.213 171.057C102.399 170.818 102.656 170.61 102.986 170.432C103.315 170.25 103.751 170.159 104.293 170.159C104.997 170.159 105.626 170.337 106.179 170.693C106.732 171.049 107.166 171.562 107.48 172.233C107.798 172.903 107.957 173.71 107.957 174.653C107.957 175.597 107.8 176.405 107.486 177.08C107.171 177.75 106.74 178.267 106.19 178.631C105.641 178.991 105.014 179.17 104.31 179.17C103.779 179.17 103.346 179.081 103.009 178.903C102.675 178.725 102.414 178.517 102.224 178.278C102.035 178.04 101.889 177.828 101.787 177.642H101.685V182.273H99.9858ZM101.651 174.636C101.651 175.25 101.74 175.788 101.918 176.25C102.096 176.712 102.353 177.074 102.69 177.335C103.027 177.593 103.44 177.722 103.929 177.722C104.437 177.722 104.861 177.587 105.202 177.318C105.543 177.045 105.8 176.676 105.974 176.21C106.152 175.744 106.241 175.22 106.241 174.636C106.241 174.061 106.154 173.544 105.98 173.085C105.81 172.627 105.552 172.265 105.207 172C104.866 171.735 104.44 171.602 103.929 171.602C103.437 171.602 103.02 171.729 102.679 171.983C102.342 172.237 102.086 172.591 101.912 173.045C101.738 173.5 101.651 174.03 101.651 174.636ZM112.401 179.193C111.848 179.193 111.348 179.091 110.901 178.886C110.454 178.678 110.099 178.377 109.838 177.983C109.58 177.589 109.452 177.106 109.452 176.534C109.452 176.042 109.546 175.636 109.736 175.318C109.925 175 110.181 174.748 110.503 174.562C110.825 174.377 111.185 174.237 111.582 174.142C111.98 174.047 112.385 173.975 112.798 173.926C113.321 173.866 113.745 173.816 114.071 173.778C114.397 173.737 114.634 173.67 114.781 173.58C114.929 173.489 115.003 173.341 115.003 173.136V173.097C115.003 172.6 114.863 172.216 114.582 171.943C114.306 171.67 113.893 171.534 113.344 171.534C112.772 171.534 112.321 171.661 111.991 171.915C111.666 172.165 111.44 172.443 111.315 172.75L109.719 172.386C109.908 171.856 110.185 171.428 110.548 171.102C110.916 170.773 111.338 170.534 111.815 170.386C112.293 170.235 112.795 170.159 113.321 170.159C113.67 170.159 114.039 170.201 114.429 170.284C114.823 170.364 115.19 170.511 115.531 170.727C115.876 170.943 116.158 171.252 116.378 171.653C116.598 172.051 116.707 172.568 116.707 173.205V179H115.048V177.807H114.98C114.87 178.027 114.705 178.242 114.486 178.455C114.266 178.667 113.984 178.843 113.639 178.983C113.295 179.123 112.882 179.193 112.401 179.193ZM112.77 177.83C113.24 177.83 113.641 177.737 113.974 177.551C114.312 177.366 114.567 177.123 114.741 176.824C114.92 176.521 115.009 176.197 115.009 175.852V174.727C114.948 174.788 114.83 174.845 114.656 174.898C114.486 174.947 114.291 174.991 114.071 175.028C113.851 175.062 113.637 175.095 113.429 175.125C113.221 175.152 113.046 175.174 112.906 175.193C112.577 175.235 112.276 175.305 112.003 175.403C111.734 175.502 111.518 175.644 111.355 175.83C111.196 176.011 111.116 176.254 111.116 176.557C111.116 176.977 111.272 177.295 111.582 177.511C111.893 177.723 112.289 177.83 112.77 177.83ZM120.669 167.364V179H118.97V167.364H120.669ZM122.955 179V170.273H124.653V179H122.955ZM123.812 168.926C123.517 168.926 123.263 168.828 123.051 168.631C122.843 168.43 122.739 168.191 122.739 167.915C122.739 167.634 122.843 167.396 123.051 167.199C123.263 166.998 123.517 166.898 123.812 166.898C124.108 166.898 124.36 166.998 124.568 167.199C124.78 167.396 124.886 167.634 124.886 167.915C124.886 168.191 124.78 168.43 124.568 168.631C124.36 168.828 124.108 168.926 123.812 168.926Z" fill="#101828"/>
<path d="M349.167 168L340.001 177.167L335.834 173" stroke="#7F56D9" stroke-width="1.66667" stroke-linecap="round" stroke-linejoin="round"/>
<path d="M69.5 203C69.5 199.686 72.1863 197 75.5 197H356.5C359.814 197 362.5 199.686 362.5 203V235C362.5 238.314 359.814 241 356.5 241H75.5C72.1863 241 69.5 238.314 69.5 235V203Z" fill="#F9FAFB"/>
<path d="M78.7784 225V213.364H80.5341V218.42H86.3352V213.364H88.0966V225H86.3352V219.926H80.5341V225H78.7784ZM90.517 225V216.273H92.2159V225H90.517ZM91.375 214.926C91.0795 214.926 90.8258 214.828 90.6136 214.631C90.4053 214.43 90.3011 214.191 90.3011 213.915C90.3011 213.634 90.4053 213.396 90.6136 213.199C90.8258 212.998 91.0795 212.898 91.375 212.898C91.6705 212.898 91.9223 212.998 92.1307 213.199C92.3428 213.396 92.4489 213.634 92.4489 213.915C92.4489 214.191 92.3428 214.43 92.1307 214.631C91.9223 214.828 91.6705 214.926 91.375 214.926ZM96.2003 219.818V225H94.5014V216.273H96.1321V217.693H96.2401C96.4408 217.231 96.7552 216.86 97.1832 216.58C97.6151 216.299 98.1586 216.159 98.8139 216.159C99.4086 216.159 99.9295 216.284 100.376 216.534C100.823 216.78 101.17 217.148 101.416 217.636C101.662 218.125 101.786 218.729 101.786 219.449V225H100.087V219.653C100.087 219.021 99.9219 218.527 99.5923 218.17C99.2628 217.811 98.8101 217.631 98.2344 217.631C97.8404 217.631 97.4901 217.716 97.1832 217.886C96.8802 218.057 96.6397 218.307 96.4616 218.636C96.2874 218.962 96.2003 219.356 96.2003 219.818ZM107.331 225.17C106.626 225.17 105.998 224.991 105.445 224.631C104.895 224.267 104.464 223.75 104.149 223.08C103.839 222.405 103.683 221.597 103.683 220.653C103.683 219.71 103.84 218.903 104.155 218.233C104.473 217.562 104.909 217.049 105.462 216.693C106.015 216.337 106.642 216.159 107.342 216.159C107.884 216.159 108.32 216.25 108.649 216.432C108.982 216.61 109.24 216.818 109.422 217.057C109.607 217.295 109.751 217.506 109.854 217.688H109.956V213.364H111.655V225H109.996V223.642H109.854C109.751 223.828 109.604 224.04 109.411 224.278C109.221 224.517 108.96 224.725 108.626 224.903C108.293 225.081 107.861 225.17 107.331 225.17ZM107.706 223.722C108.195 223.722 108.607 223.593 108.945 223.335C109.286 223.074 109.543 222.712 109.717 222.25C109.895 221.788 109.984 221.25 109.984 220.636C109.984 220.03 109.897 219.5 109.723 219.045C109.549 218.591 109.293 218.237 108.956 217.983C108.619 217.729 108.202 217.602 107.706 217.602C107.195 217.602 106.768 217.735 106.428 218C106.087 218.265 105.829 218.627 105.655 219.085C105.484 219.544 105.399 220.061 105.399 220.636C105.399 221.22 105.486 221.744 105.661 222.21C105.835 222.676 106.092 223.045 106.433 223.318C106.778 223.587 107.202 223.722 107.706 223.722ZM114.08 225V216.273H115.778V225H114.08ZM114.938 214.926C114.642 214.926 114.388 214.828 114.176 214.631C113.968 214.43 113.864 214.191 113.864 213.915C113.864 213.634 113.968 213.396 114.176 213.199C114.388 212.998 114.642 212.898 114.938 212.898C115.233 212.898 115.485 212.998 115.693 213.199C115.905 213.396 116.011 213.634 116.011 213.915C116.011 214.191 115.905 214.43 115.693 214.631C115.485 214.828 115.233 214.926 114.938 214.926Z" fill="#101828"/>
<path d="M349.167 214L340.001 223.167L335.834 219" stroke="#7F56D9" stroke-width="1.66667" stroke-linecap="round" stroke-linejoin="round"/>
<path d="M86.6534 263.04C86.5436 262.695 86.3958 262.386 86.2102 262.114C86.0284 261.837 85.8106 261.602 85.5568 261.409C85.303 261.212 85.0133 261.062 84.6875 260.96C84.3655 260.858 84.0114 260.807 83.625 260.807C82.9697 260.807 82.3788 260.975 81.8523 261.312C81.3258 261.65 80.9091 262.144 80.6023 262.795C80.2992 263.443 80.1477 264.237 80.1477 265.176C80.1477 266.119 80.3011 266.917 80.608 267.568C80.9148 268.22 81.3352 268.714 81.8693 269.051C82.4034 269.388 83.0114 269.557 83.6932 269.557C84.3258 269.557 84.8769 269.428 85.3466 269.17C85.8201 268.913 86.1856 268.549 86.4432 268.08C86.7045 267.606 86.8352 267.049 86.8352 266.409L87.2898 266.494H83.9602V265.045H88.5341V266.369C88.5341 267.347 88.3258 268.195 87.9091 268.915C87.4962 269.631 86.9242 270.184 86.1932 270.574C85.4659 270.964 84.6326 271.159 83.6932 271.159C82.6402 271.159 81.7159 270.917 80.9205 270.432C80.1288 269.947 79.5114 269.259 79.0682 268.369C78.625 267.475 78.4034 266.415 78.4034 265.188C78.4034 264.259 78.5322 263.426 78.7898 262.688C79.0473 261.949 79.4091 261.322 79.875 260.807C80.3447 260.288 80.8958 259.892 81.5284 259.619C82.1648 259.343 82.8598 259.205 83.6136 259.205C84.2424 259.205 84.8277 259.297 85.3693 259.483C85.9148 259.669 86.3996 259.932 86.8239 260.273C87.2519 260.614 87.6061 261.019 87.8864 261.489C88.1667 261.955 88.3561 262.472 88.4545 263.04H86.6534ZM94.3878 271.176C93.5279 271.176 92.7874 270.992 92.1662 270.625C91.5488 270.254 91.0715 269.733 90.7344 269.062C90.401 268.388 90.2344 267.598 90.2344 266.693C90.2344 265.799 90.401 265.011 90.7344 264.33C91.0715 263.648 91.5412 263.116 92.1435 262.733C92.7495 262.35 93.4579 262.159 94.2685 262.159C94.7609 262.159 95.2382 262.241 95.7003 262.403C96.1624 262.566 96.5772 262.822 96.9446 263.17C97.312 263.519 97.6018 263.972 97.8139 264.528C98.026 265.081 98.1321 265.754 98.1321 266.545V267.148H91.1946V265.875H96.4673C96.4673 265.428 96.3764 265.032 96.1946 264.688C96.0128 264.339 95.7571 264.064 95.4276 263.864C95.1018 263.663 94.7192 263.562 94.2798 263.562C93.8026 263.562 93.3859 263.68 93.0298 263.915C92.6776 264.146 92.4048 264.449 92.2116 264.824C92.0223 265.195 91.9276 265.598 91.9276 266.034V267.028C91.9276 267.612 92.0298 268.108 92.2344 268.517C92.4427 268.926 92.7325 269.239 93.1037 269.455C93.4749 269.667 93.9086 269.773 94.4048 269.773C94.7268 269.773 95.0204 269.727 95.2855 269.636C95.5507 269.542 95.7798 269.402 95.973 269.216C96.1662 269.03 96.3139 268.801 96.4162 268.528L98.0241 268.818C97.8954 269.292 97.6643 269.706 97.331 270.062C97.0014 270.415 96.5866 270.689 96.0866 270.886C95.5904 271.08 95.0241 271.176 94.3878 271.176ZM100.017 271V262.273H101.659V263.659H101.75C101.909 263.189 102.189 262.82 102.591 262.551C102.996 262.278 103.455 262.142 103.966 262.142C104.072 262.142 104.197 262.146 104.341 262.153C104.489 262.161 104.604 262.17 104.688 262.182V263.807C104.619 263.788 104.498 263.767 104.324 263.744C104.15 263.718 103.975 263.705 103.801 263.705C103.4 263.705 103.042 263.79 102.727 263.96C102.417 264.127 102.17 264.36 101.989 264.659C101.807 264.955 101.716 265.292 101.716 265.67V271H100.017ZM106.158 271V262.273H107.788V263.693H107.896C108.078 263.212 108.375 262.837 108.788 262.568C109.201 262.295 109.696 262.159 110.271 262.159C110.855 262.159 111.343 262.295 111.737 262.568C112.135 262.841 112.429 263.216 112.618 263.693H112.709C112.917 263.227 113.249 262.856 113.703 262.58C114.158 262.299 114.699 262.159 115.328 262.159C116.12 262.159 116.766 262.407 117.266 262.903C117.769 263.4 118.021 264.148 118.021 265.148V271H116.322V265.307C116.322 264.716 116.161 264.288 115.839 264.023C115.518 263.758 115.133 263.625 114.686 263.625C114.133 263.625 113.703 263.795 113.396 264.136C113.089 264.473 112.936 264.907 112.936 265.438V271H111.243V265.199C111.243 264.725 111.095 264.345 110.8 264.057C110.504 263.769 110.12 263.625 109.646 263.625C109.324 263.625 109.027 263.71 108.754 263.881C108.485 264.047 108.268 264.28 108.101 264.58C107.938 264.879 107.857 265.225 107.857 265.619V271H106.158ZM122.838 271.193C122.285 271.193 121.785 271.091 121.338 270.886C120.891 270.678 120.537 270.377 120.276 269.983C120.018 269.589 119.889 269.106 119.889 268.534C119.889 268.042 119.984 267.636 120.173 267.318C120.363 267 120.618 266.748 120.94 266.562C121.262 266.377 121.622 266.237 122.02 266.142C122.418 266.047 122.823 265.975 123.236 265.926C123.759 265.866 124.183 265.816 124.509 265.778C124.834 265.737 125.071 265.67 125.219 265.58C125.366 265.489 125.44 265.341 125.44 265.136V265.097C125.44 264.6 125.3 264.216 125.02 263.943C124.743 263.67 124.33 263.534 123.781 263.534C123.209 263.534 122.759 263.661 122.429 263.915C122.103 264.165 121.878 264.443 121.753 264.75L120.156 264.386C120.346 263.856 120.622 263.428 120.986 263.102C121.353 262.773 121.776 262.534 122.253 262.386C122.73 262.235 123.232 262.159 123.759 262.159C124.107 262.159 124.476 262.201 124.866 262.284C125.26 262.364 125.628 262.511 125.969 262.727C126.313 262.943 126.596 263.252 126.815 263.653C127.035 264.051 127.145 264.568 127.145 265.205V271H125.486V269.807H125.418C125.308 270.027 125.143 270.242 124.923 270.455C124.704 270.667 124.421 270.843 124.077 270.983C123.732 271.123 123.319 271.193 122.838 271.193ZM123.207 269.83C123.677 269.83 124.079 269.737 124.412 269.551C124.749 269.366 125.005 269.123 125.179 268.824C125.357 268.521 125.446 268.197 125.446 267.852V266.727C125.385 266.788 125.268 266.845 125.094 266.898C124.923 266.947 124.728 266.991 124.509 267.028C124.289 267.062 124.075 267.095 123.866 267.125C123.658 267.152 123.484 267.174 123.344 267.193C123.014 267.235 122.713 267.305 122.44 267.403C122.171 267.502 121.955 267.644 121.793 267.83C121.634 268.011 121.554 268.254 121.554 268.557C121.554 268.977 121.709 269.295 122.02 269.511C122.33 269.723 122.726 269.83 123.207 269.83ZM131.107 265.818V271H129.408V262.273H131.038V263.693H131.146C131.347 263.231 131.661 262.86 132.089 262.58C132.521 262.299 133.065 262.159 133.72 262.159C134.315 262.159 134.836 262.284 135.283 262.534C135.73 262.78 136.076 263.148 136.322 263.636C136.569 264.125 136.692 264.729 136.692 265.449V271H134.993V265.653C134.993 265.021 134.828 264.527 134.499 264.17C134.169 263.811 133.716 263.631 133.141 263.631C132.747 263.631 132.396 263.716 132.089 263.886C131.786 264.057 131.546 264.307 131.368 264.636C131.194 264.962 131.107 265.356 131.107 265.818Z" fill="#101828"/>
<path d="M78.2045 306.875V305.364H87.2102V306.875H83.5795V317H81.8295V306.875H78.2045ZM93.4048 313.381V308.273H95.1094V317H93.4389V315.489H93.348C93.1473 315.955 92.8253 316.343 92.3821 316.653C91.9427 316.96 91.3954 317.114 90.7401 317.114C90.1795 317.114 89.6832 316.991 89.2514 316.744C88.8234 316.494 88.4863 316.125 88.2401 315.636C87.9976 315.148 87.8764 314.544 87.8764 313.824V308.273H89.5753V313.619C89.5753 314.214 89.7401 314.687 90.0696 315.04C90.3991 315.392 90.8272 315.568 91.3537 315.568C91.6719 315.568 91.9882 315.489 92.3026 315.33C92.6207 315.17 92.884 314.93 93.0923 314.608C93.3045 314.286 93.4086 313.877 93.4048 313.381ZM97.392 317V308.273H99.0341V309.659H99.125C99.2841 309.189 99.5644 308.82 99.9659 308.551C100.371 308.278 100.83 308.142 101.341 308.142C101.447 308.142 101.572 308.146 101.716 308.153C101.864 308.161 101.979 308.17 102.062 308.182V309.807C101.994 309.788 101.873 309.767 101.699 309.744C101.525 309.718 101.35 309.705 101.176 309.705C100.775 309.705 100.417 309.79 100.102 309.96C99.7917 310.127 99.5455 310.36 99.3636 310.659C99.1818 310.955 99.0909 311.292 99.0909 311.67V317H97.392ZM105.095 314.04L105.084 311.966H105.379L108.857 308.273H110.891L106.925 312.477H106.658L105.095 314.04ZM103.533 317V305.364H105.232V317H103.533ZM109.044 317L105.919 312.852L107.089 311.665L111.129 317H109.044ZM112.439 317V308.273H114.138V317H112.439ZM113.297 306.926C113.001 306.926 112.748 306.828 112.536 306.631C112.327 306.43 112.223 306.191 112.223 305.915C112.223 305.634 112.327 305.396 112.536 305.199C112.748 304.998 113.001 304.898 113.297 304.898C113.592 304.898 113.844 304.998 114.053 305.199C114.265 305.396 114.371 305.634 114.371 305.915C114.371 306.191 114.265 306.43 114.053 306.631C113.844 306.828 113.592 306.926 113.297 306.926ZM122.963 310.403L121.423 310.676C121.359 310.479 121.257 310.292 121.116 310.114C120.98 309.936 120.795 309.79 120.56 309.676C120.325 309.562 120.031 309.506 119.679 309.506C119.198 309.506 118.796 309.614 118.474 309.83C118.152 310.042 117.991 310.316 117.991 310.653C117.991 310.945 118.099 311.18 118.315 311.358C118.531 311.536 118.88 311.682 119.361 311.795L120.747 312.114C121.55 312.299 122.149 312.585 122.543 312.972C122.937 313.358 123.134 313.86 123.134 314.477C123.134 315 122.982 315.466 122.679 315.875C122.38 316.28 121.961 316.598 121.423 316.83C120.889 317.061 120.27 317.176 119.565 317.176C118.588 317.176 117.791 316.968 117.173 316.551C116.556 316.131 116.177 315.534 116.037 314.761L117.679 314.511C117.781 314.939 117.991 315.263 118.31 315.483C118.628 315.699 119.043 315.807 119.554 315.807C120.111 315.807 120.556 315.691 120.889 315.46C121.223 315.225 121.389 314.939 121.389 314.602C121.389 314.33 121.287 314.1 121.082 313.915C120.882 313.729 120.573 313.589 120.156 313.494L118.679 313.17C117.865 312.985 117.262 312.689 116.872 312.284C116.486 311.879 116.293 311.366 116.293 310.744C116.293 310.229 116.437 309.778 116.724 309.392C117.012 309.006 117.41 308.705 117.918 308.489C118.425 308.269 119.007 308.159 119.662 308.159C120.605 308.159 121.348 308.364 121.889 308.773C122.431 309.178 122.789 309.722 122.963 310.403ZM126.7 311.818V317H125.001V305.364H126.678V309.693H126.786C126.99 309.223 127.303 308.85 127.723 308.574C128.143 308.297 128.693 308.159 129.371 308.159C129.969 308.159 130.492 308.282 130.939 308.528C131.39 308.775 131.738 309.142 131.984 309.631C132.234 310.116 132.359 310.722 132.359 311.449V317H130.661V311.653C130.661 311.013 130.496 310.517 130.166 310.165C129.837 309.809 129.378 309.631 128.791 309.631C128.39 309.631 128.03 309.716 127.712 309.886C127.397 310.057 127.149 310.307 126.967 310.636C126.789 310.962 126.7 311.356 126.7 311.818Z" fill="#101828"/>
<path d="M356.5 154C356.5 151.791 358.291 150 360.5 150C362.709 150 364.5 151.791 364.5 154V302C364.5 304.209 362.709 306 360.5 306C358.291 306 356.5 304.209 356.5 302V154Z" fill="#EAECF0"/>
</g>
<path d="M71.5 146.5H360.5C364.642 146.5 368 149.858 368 154V458C368 462.142 364.642 465.5 360.5 465.5H71.5C67.3579 465.5 64 462.142 64 458V154C64 149.858 67.3579 146.5 71.5 146.5Z" stroke="#EAECF0"/>
</g>
</g>
</g>
<defs>
<filter id="filter0_dd_333_15188" x="-56" y="0" width="536" height="418" filterUnits="userSpaceOnUse" color-interpolation-filters="sRGB">
<feFlood flood-opacity="0" result="BackgroundImageFix"/>
<feColorMatrix in="SourceAlpha" type="matrix" values="0 0 0 0 0 0 0 0 0 0 0 0 0 0 0 0 0 0 127 0" result="hardAlpha"/>
<feOffset dy="12"/>
<feGaussianBlur stdDeviation="48"/>
<feComposite in2="hardAlpha" operator="out"/>
<feColorMatrix type="matrix" values="0 0 0 0 0.0235294 0 0 0 0 0.0431373 0 0 0 0 0.0745098 0 0 0 0.1 0"/>
<feBlend mode="normal" in2="BackgroundImageFix" result="effect1_dropShadow_333_15188"/>
<feColorMatrix in="SourceAlpha" type="matrix" values="0 0 0 0 0 0 0 0 0 0 0 0 0 0 0 0 0 0 127 0" result="hardAlpha"/>
<feMorphology radius="4" operator="dilate" in="SourceAlpha" result="effect2_dropShadow_333_15188"/>
<feOffset/>
<feComposite in2="hardAlpha" operator="out"/>
<feColorMatrix type="matrix" values="0 0 0 0 1 0 0 0 0 1 0 0 0 0 1 0 0 0 1 0"/>
<feBlend mode="normal" in2="effect1_dropShadow_333_15188" result="effect2_dropShadow_333_15188"/>
<feBlend mode="normal" in="SourceGraphic" in2="effect2_dropShadow_333_15188" result="shape"/>
</filter>
<filter id="filter1_d_333_15188" x="-2.5" y="99" width="44" height="44" filterUnits="userSpaceOnUse" color-interpolation-filters="sRGB">
<feFlood flood-opacity="0" result="BackgroundImageFix"/>
<feColorMatrix in="SourceAlpha" type="matrix" values="0 0 0 0 0 0 0 0 0 0 0 0 0 0 0 0 0 0 127 0" result="hardAlpha"/>
<feOffset dy="1"/>
<feGaussianBlur stdDeviation="1"/>
<feComposite in2="hardAlpha" operator="out"/>
<feColorMatrix type="matrix" values="0 0 0 0 0.0627451 0 0 0 0 0.0941176 0 0 0 0 0.156863 0 0 0 0.05 0"/>
<feBlend mode="normal" in2="BackgroundImageFix" result="effect1_dropShadow_333_15188"/>
<feBlend mode="normal" in="SourceGraphic" in2="effect1_dropShadow_333_15188" result="shape"/>
</filter>
<filter id="filter2_dd_333_15188" x="59.5" y="94" width="312.5" height="52" filterUnits="userSpaceOnUse" color-interpolation-filters="sRGB">
<feFlood flood-opacity="0" result="BackgroundImageFix"/>
<feColorMatrix in="SourceAlpha" type="matrix" values="0 0 0 0 0 0 0 0 0 0 0 0 0 0 0 0 0 0 127 0" result="hardAlpha"/>
<feMorphology radius="4" operator="dilate" in="SourceAlpha" result="effect1_dropShadow_333_15188"/>
<feOffset/>
<feComposite in2="hardAlpha" operator="out"/>
<feColorMatrix type="matrix" values="0 0 0 0 0.619608 0 0 0 0 0.466667 0 0 0 0 0.929412 0 0 0 0.24 0"/>
<feBlend mode="normal" in2="BackgroundImageFix" result="effect1_dropShadow_333_15188"/>
<feColorMatrix in="SourceAlpha" type="matrix" values="0 0 0 0 0 0 0 0 0 0 0 0 0 0 0 0 0 0 127 0" result="hardAlpha"/>
<feOffset dy="1"/>
<feGaussianBlur stdDeviation="1"/>
<feComposite in2="hardAlpha" operator="out"/>
<feColorMatrix type="matrix" values="0 0 0 0 0.0627451 0 0 0 0 0.0941176 0 0 0 0 0.156863 0 0 0 0.05 0"/>
<feBlend mode="normal" in2="effect1_dropShadow_333_15188" result="effect2_dropShadow_333_15188"/>
<feBlend mode="normal" in="SourceGraphic" in2="effect2_dropShadow_333_15188" result="shape"/>
</filter>
<filter id="filter3_dd_333_15188" x="51.5" y="146" width="329" height="344" filterUnits="userSpaceOnUse" color-interpolation-filters="sRGB">
<feFlood flood-opacity="0" result="BackgroundImageFix"/>
<feColorMatrix in="SourceAlpha" type="matrix" values="0 0 0 0 0 0 0 0 0 0 0 0 0 0 0 0 0 0 127 0" result="hardAlpha"/>
<feMorphology radius="2" operator="erode" in="SourceAlpha" result="effect1_dropShadow_333_15188"/>
<feOffset dy="4"/>
<feGaussianBlur stdDeviation="3"/>
<feComposite in2="hardAlpha" operator="out"/>
<feColorMatrix type="matrix" values="0 0 0 0 0.0627451 0 0 0 0 0.0941176 0 0 0 0 0.156863 0 0 0 0.03 0"/>
<feBlend mode="normal" in2="BackgroundImageFix" result="effect1_dropShadow_333_15188"/>
<feColorMatrix in="SourceAlpha" type="matrix" values="0 0 0 0 0 0 0 0 0 0 0 0 0 0 0 0 0 0 127 0" result="hardAlpha"/>
<feMorphology radius="4" operator="erode" in="SourceAlpha" result="effect2_dropShadow_333_15188"/>
<feOffset dy="12"/>
<feGaussianBlur stdDeviation="8"/>
<feComposite in2="hardAlpha" operator="out"/>
<feColorMatrix type="matrix" values="0 0 0 0 0.0627451 0 0 0 0 0.0941176 0 0 0 0 0.156863 0 0 0 0.08 0"/>
<feBlend mode="normal" in2="effect1_dropShadow_333_15188" result="effect2_dropShadow_333_15188"/>
<feBlend mode="normal" in="SourceGraphic" in2="effect2_dropShadow_333_15188" result="shape"/>
</filter>
<clipPath id="clip0_333_15188">
<rect x="40" y="84" width="344" height="226" rx="12" fill="white"/>
</clipPath>
<clipPath id="clip1_333_15188">
<path d="M63.5 154C63.5 149.582 67.0817 146 71.5 146H360.5C364.918 146 368.5 149.582 368.5 154V458C368.5 462.418 364.918 466 360.5 466H71.5C67.0817 466 63.5 462.418 63.5 458V154Z" fill="white"/>
</clipPath>
</defs>
</svg>
