<svg width="352" height="236" viewBox="0 0 352 236" fill="none" xmlns="http://www.w3.org/2000/svg">
<rect width="352" height="236" rx="14" fill="white"/>
<g filter="url(#filter0_i_372_2849)">
<mask id="mask0_372_2849" style="mask-type:luminance" maskUnits="userSpaceOnUse" x="4" y="5" width="344" height="226">
<path d="M336 5H16C9.37258 5 4 10.3726 4 17V219C4 225.627 9.37258 231 16 231H336C342.627 231 348 225.627 348 219V17C348 10.3726 342.627 5 336 5Z" fill="white"/>
</mask>
<g mask="url(#mask0_372_2849)">
<path d="M336 5H16C9.37258 5 4 10.3726 4 17V219C4 225.627 9.37258 231 16 231H336C342.627 231 348 225.627 348 219V17C348 10.3726 342.627 5 336 5Z" fill="white" fill-opacity="0.01"/>
<path d="M336 5.5H16C9.64873 5.5 4.5 10.6487 4.5 17V171C4.5 177.351 9.64873 182.5 16 182.5H336C342.351 182.5 347.5 177.351 347.5 171V17C347.5 10.6487 342.351 5.5 336 5.5Z" stroke="#E9EBF1"/>
<path d="M-373 -0.5H569C575.351 -0.49999 580.5 4.64873 580.5 11V71C580.5 77.3513 575.351 82.5 569 82.5H-373C-379.351 82.5 -384.5 77.3513 -384.5 71V11L-384.485 10.4082C-384.177 4.33195 -379.153 -0.5 -373 -0.5Z" fill="#F9FAFB"/>
<path d="M-373 -0.5H569C575.351 -0.49999 580.5 4.64873 580.5 11V71C580.5 77.3513 575.351 82.5 569 82.5H-373C-379.351 82.5 -384.5 77.3513 -384.5 71V11L-384.485 10.4082C-384.177 4.33195 -379.153 -0.5 -373 -0.5Z" stroke="#EAECF0"/>
<g filter="url(#filter1_d_372_2849)">
</g>
<g filter="url(#filter2_di_372_2849)">
<path d="M27.5 27C27.5 22.5817 31.0817 19 35.5 19H324C328.418 19 332 22.5817 332 27V55C332 59.4183 328.418 63 324 63H35.5C31.0817 63 27.5 59.4183 27.5 55V27Z" fill="white"/>
<path d="M35.5 19.5H324C328.142 19.5 331.5 22.8579 331.5 27V55C331.5 59.1421 328.142 62.5 324 62.5H35.5C31.3579 62.5 28 59.1421 28 55V27C28 22.8579 31.3579 19.5 35.5 19.5Z" stroke="#D6BBFB"/>
<path d="M59 48.5L56.0834 45.5833M58.1667 40.5833C58.1667 44.4954 54.9954 47.6667 51.0833 47.6667C47.1713 47.6667 44 44.4954 44 40.5833C44 36.6713 47.1713 33.5 51.0833 33.5C54.9954 33.5 58.1667 36.6713 58.1667 40.5833Z" stroke="#667085" stroke-width="1.66667" stroke-linecap="round" stroke-linejoin="round"/>
<path d="M75.5 29.5H138.5C141.538 29.5 144 31.9624 144 35V47C144 50.0376 141.538 52.5 138.5 52.5H75.5C72.4624 52.5 70 50.0376 70 47V35C70 31.9624 72.4624 29.5 75.5 29.5Z" fill="white"/>
<path d="M75.5 29.5H138.5C141.538 29.5 144 31.9624 144 35V47C144 50.0376 141.538 52.5 138.5 52.5H75.5C72.4624 52.5 70 50.0376 70 47V35C70 31.9624 72.4624 29.5 75.5 29.5Z" stroke="#D0D5DD"/>
<path d="M88.2064 35.8179V45.9997H86.7944L81.619 38.5324H81.5245V45.9997H79.9883V35.8179H81.4102L86.5906 43.2952H86.6851V35.8179H88.2064ZM93.6192 46.1538C92.8668 46.1538 92.2189 45.9931 91.6753 45.6716C91.135 45.3468 90.7174 44.891 90.4225 44.3044C90.1308 43.7144 89.985 43.0234 89.985 42.2312C89.985 41.449 90.1308 40.7596 90.4225 40.1631C90.7174 39.5665 91.1284 39.1008 91.6554 38.766C92.1857 38.4313 92.8055 38.2639 93.5148 38.2639C93.9457 38.2639 94.3633 38.3352 94.7676 38.4777C95.172 38.6202 95.5349 38.8439 95.8564 39.1488C96.1779 39.4538 96.4314 39.8498 96.6171 40.3371C96.8027 40.821 96.8955 41.4093 96.8955 42.102V42.629H90.8252V41.5153H95.4388C95.4388 41.1242 95.3592 40.7779 95.2002 40.4763C95.0411 40.1713 94.8173 39.931 94.529 39.7554C94.2439 39.5797 93.9092 39.4919 93.5247 39.4919C93.1071 39.4919 92.7425 39.5946 92.431 39.8001C92.1227 40.0023 91.8841 40.2675 91.7151 40.5956C91.5493 40.9204 91.4665 41.2734 91.4665 41.6545V42.5246C91.4665 43.035 91.556 43.4692 91.735 43.8271C91.9172 44.1851 92.1708 44.4585 92.4956 44.6474C92.8204 44.833 93.1999 44.9258 93.6341 44.9258C93.9158 44.9258 94.1727 44.8861 94.4047 44.8065C94.6367 44.7237 94.8372 44.601 95.0063 44.4386C95.1753 44.2762 95.3046 44.0757 95.394 43.8371L96.801 44.0906C96.6883 44.5049 96.4861 44.8678 96.1945 45.1794C95.9061 45.4876 95.5432 45.7279 95.1057 45.9003C94.6715 46.0693 94.176 46.1538 93.6192 46.1538ZM98.5448 48.8633V38.3633H99.9965V39.6013H100.121C100.207 39.4422 100.332 39.2582 100.494 39.0494C100.656 38.8406 100.882 38.6583 101.17 38.5025C101.459 38.3435 101.84 38.2639 102.314 38.2639C102.93 38.2639 103.48 38.4197 103.964 38.7312C104.448 39.0428 104.828 39.4919 105.103 40.0785C105.381 40.6652 105.52 41.3711 105.52 42.1964C105.52 43.0217 105.383 43.7293 105.108 44.3193C104.833 44.9059 104.455 45.3584 103.974 45.6765C103.494 45.9914 102.945 46.1488 102.329 46.1488C101.865 46.1488 101.485 46.071 101.19 45.9152C100.898 45.7594 100.67 45.5771 100.504 45.3683C100.338 45.1595 100.211 44.9739 100.121 44.8115H100.032V48.8633H98.5448ZM100.002 42.1815C100.002 42.7184 100.08 43.1891 100.236 43.5935C100.391 43.9978 100.617 44.3143 100.912 44.543C101.207 44.7684 101.568 44.8811 101.995 44.8811C102.44 44.8811 102.811 44.7634 103.109 44.5281C103.407 44.2895 103.633 43.9663 103.785 43.5586C103.941 43.151 104.019 42.6919 104.019 42.1815C104.019 41.6777 103.943 41.2253 103.79 40.8243C103.641 40.4232 103.416 40.1067 103.114 39.8747C102.816 39.6427 102.443 39.5267 101.995 39.5267C101.565 39.5267 101.2 39.6377 100.902 39.8598C100.607 40.0818 100.383 40.3917 100.231 40.7895C100.078 41.1872 100.002 41.6512 100.002 42.1815ZM109.408 46.1687C108.924 46.1687 108.487 46.0792 108.096 45.9003C107.705 45.718 107.395 45.4545 107.166 45.1098C106.941 44.7651 106.828 44.3425 106.828 43.842C106.828 43.4112 106.911 43.0565 107.076 42.7781C107.242 42.4997 107.466 42.2793 107.748 42.1169C108.029 41.9545 108.344 41.8318 108.692 41.749C109.04 41.6661 109.395 41.6032 109.756 41.5601C110.214 41.507 110.585 41.464 110.87 41.4308C111.155 41.3943 111.362 41.3363 111.491 41.2568C111.62 41.1773 111.685 41.048 111.685 40.869V40.8342C111.685 40.4 111.562 40.0636 111.317 39.825C111.075 39.5863 110.714 39.467 110.233 39.467C109.733 39.467 109.339 39.5781 109.05 39.8001C108.765 40.0189 108.568 40.2625 108.459 40.5309L107.062 40.2128C107.227 39.7488 107.469 39.3742 107.787 39.0892C108.109 38.8008 108.478 38.592 108.896 38.4628C109.314 38.3302 109.753 38.2639 110.214 38.2639C110.518 38.2639 110.842 38.3004 111.183 38.3733C111.528 38.4429 111.849 38.5721 112.147 38.7611C112.449 38.95 112.696 39.2201 112.888 39.5714C113.08 39.9194 113.177 40.3719 113.177 40.9287V45.9997H111.725V44.9557H111.665C111.569 45.1479 111.425 45.3368 111.233 45.5224C111.04 45.708 110.794 45.8622 110.492 45.9848C110.19 46.1074 109.829 46.1687 109.408 46.1687ZM109.731 44.9756C110.142 44.9756 110.494 44.8943 110.785 44.7319C111.08 44.5695 111.304 44.3574 111.456 44.0956C111.612 43.8304 111.69 43.547 111.69 43.2454V42.2611C111.637 42.3141 111.534 42.3638 111.382 42.4102C111.233 42.4533 111.062 42.4914 110.87 42.5246C110.678 42.5544 110.49 42.5826 110.308 42.6091C110.126 42.6323 109.973 42.6522 109.851 42.6687C109.562 42.7052 109.299 42.7665 109.06 42.8527C108.825 42.9389 108.636 43.0631 108.493 43.2256C108.354 43.3846 108.285 43.5968 108.285 43.8619C108.285 44.2298 108.42 44.5082 108.692 44.6971C108.964 44.8827 109.31 44.9756 109.731 44.9756ZM116.643 35.8179V45.9997H115.157V35.8179H116.643ZM118.643 45.9997V38.3633H120.129V45.9997H118.643ZM119.394 37.1851C119.135 37.1851 118.913 37.0989 118.727 36.9265C118.545 36.7509 118.454 36.5421 118.454 36.3001C118.454 36.0549 118.545 35.8461 118.727 35.6737C118.913 35.498 119.135 35.4102 119.394 35.4102C119.652 35.4102 119.872 35.498 120.055 35.6737C120.24 35.8461 120.333 36.0549 120.333 36.3001C120.333 36.5421 120.24 36.7509 120.055 36.9265C119.872 37.0989 119.652 37.1851 119.394 37.1851Z" fill="#344054"/>
<path d="M135.5 38L129.5 44M129.5 38L135.5 44" stroke="#98A2B3" stroke-width="1.5" stroke-linecap="round" stroke-linejoin="round"/>
<path d="M156.5 29.5H211.5C214.538 29.5 217 31.9624 217 35V47C217 50.0376 214.538 52.5 211.5 52.5H156.5C153.462 52.5 151 50.0376 151 47V35C151 31.9624 153.462 29.5 156.5 29.5Z" fill="white"/>
<path d="M156.5 29.5H211.5C214.538 29.5 217 31.9624 217 35V47C217 50.0376 214.538 52.5 211.5 52.5H156.5C153.462 52.5 151 50.0376 151 47V35C151 31.9624 153.462 29.5 156.5 29.5Z" stroke="#D0D5DD"/>
<path d="M160.871 45.9997V35.8179H162.407V40.2426H167.483V35.8179H169.024V45.9997H167.483V41.5601H162.407V45.9997H160.871ZM171.142 45.9997V38.3633H172.628V45.9997H171.142ZM171.893 37.1851C171.634 37.1851 171.412 37.0989 171.226 36.9265C171.044 36.7509 170.953 36.5421 170.953 36.3001C170.953 36.0549 171.044 35.8461 171.226 35.6737C171.412 35.498 171.634 35.4102 171.893 35.4102C172.151 35.4102 172.371 35.498 172.554 35.6737C172.739 35.8461 172.832 36.0549 172.832 36.3001C172.832 36.5421 172.739 36.7509 172.554 36.9265C172.371 37.0989 172.151 37.1851 171.893 37.1851ZM176.115 41.4656V45.9997H174.628V38.3633H176.055V39.6062H176.149C176.325 39.2019 176.6 38.8771 176.975 38.6318C177.353 38.3865 177.828 38.2639 178.402 38.2639C178.922 38.2639 179.378 38.3733 179.769 38.592C180.16 38.8075 180.463 39.129 180.679 39.5565C180.894 39.9841 181.002 40.5127 181.002 41.1425V45.9997H179.515V41.3214C179.515 40.7679 179.371 40.3354 179.083 40.0238C178.794 39.709 178.398 39.5515 177.895 39.5515C177.55 39.5515 177.243 39.6261 176.975 39.7753C176.71 39.9244 176.499 40.1432 176.343 40.4315C176.191 40.7166 176.115 41.0613 176.115 41.4656ZM185.854 46.1488C185.238 46.1488 184.687 45.9914 184.203 45.6765C183.723 45.3584 183.345 44.9059 183.07 44.3193C182.798 43.7293 182.662 43.0217 182.662 42.1964C182.662 41.3711 182.8 40.6652 183.075 40.0785C183.353 39.4919 183.734 39.0428 184.218 38.7312C184.702 38.4197 185.251 38.2639 185.864 38.2639C186.338 38.2639 186.719 38.3435 187.007 38.5025C187.299 38.6583 187.524 38.8406 187.684 39.0494C187.846 39.2582 187.972 39.4422 188.061 39.6013H188.151V35.8179H189.637V45.9997H188.186V44.8115H188.061C187.972 44.9739 187.843 45.1595 187.674 45.3683C187.508 45.5771 187.279 45.7594 186.988 45.9152C186.696 46.071 186.318 46.1488 185.854 46.1488ZM186.182 44.8811C186.61 44.8811 186.971 44.7684 187.266 44.543C187.564 44.3143 187.79 43.9978 187.942 43.5935C188.098 43.1891 188.176 42.7184 188.176 42.1815C188.176 41.6512 188.1 41.1872 187.947 40.7895C187.795 40.3917 187.571 40.0818 187.276 39.8598C186.981 39.6377 186.616 39.5267 186.182 39.5267C185.735 39.5267 185.362 39.6427 185.064 39.8747C184.765 40.1067 184.54 40.4232 184.387 40.8243C184.238 41.2253 184.164 41.6777 184.164 42.1815C184.164 42.6919 184.24 43.151 184.392 43.5586C184.545 43.9663 184.77 44.2895 185.069 44.5281C185.37 44.7634 185.741 44.8811 186.182 44.8811ZM191.759 45.9997V38.3633H193.246V45.9997H191.759ZM192.51 37.1851C192.251 37.1851 192.029 37.0989 191.844 36.9265C191.661 36.7509 191.57 36.5421 191.57 36.3001C191.57 36.0549 191.661 35.8461 191.844 35.6737C192.029 35.498 192.251 35.4102 192.51 35.4102C192.768 35.4102 192.989 35.498 193.171 35.6737C193.357 35.8461 193.449 36.0549 193.449 36.3001C193.449 36.5421 193.357 36.7509 193.171 36.9265C192.989 37.0989 192.768 37.1851 192.51 37.1851Z" fill="#344054"/>
<path d="M208.5 38L202.5 44M202.5 38L208.5 44" stroke="#98A2B3" stroke-width="1.5" stroke-linecap="round" stroke-linejoin="round"/>
</g>
<g filter="url(#filter3_dd_372_2849)">
<mask id="mask1_372_2849" style="mask-type:luminance" maskUnits="userSpaceOnUse" x="27" y="67" width="306" height="320">
<path d="M27.5 75C27.5 70.5817 31.0817 67 35.5 67H324.5C328.918 67 332.5 70.5817 332.5 75V379C332.5 383.418 328.918 387 324.5 387H35.5C31.0817 387 27.5 383.418 27.5 379V75Z" fill="white"/>
</mask>
<g mask="url(#mask1_372_2849)">
<path d="M27.5 75C27.5 70.5817 31.0817 67 35.5 67H324.5C328.918 67 332.5 70.5817 332.5 75V379C332.5 383.418 328.918 387 324.5 387H35.5C31.0817 387 27.5 383.418 27.5 379V75Z" fill="white"/>
<path d="M33.5 78C33.5 74.6863 36.1863 72 39.5 72H320.5C323.814 72 326.5 74.6863 326.5 78V110C326.5 113.314 323.814 116 320.5 116H39.5C36.1863 116 33.5 113.314 33.5 110V78Z" fill="#F9FAFB"/>
<path d="M52.1694 88.3634V99.9998H50.5557L44.6409 91.4657H44.533V99.9998H42.7773V88.3634H44.4023L50.3228 96.9089H50.4307V88.3634H52.1694ZM58.3554 100.176C57.4956 100.176 56.7551 99.9922 56.1338 99.6248C55.5164 99.2536 55.0391 98.7328 54.702 98.0623C54.3687 97.3881 54.202 96.5983 54.202 95.693C54.202 94.799 54.3687 94.0112 54.702 93.3293C55.0391 92.6475 55.5088 92.1153 56.1111 91.7328C56.7172 91.3502 57.4255 91.1589 58.2361 91.1589C58.7285 91.1589 59.2058 91.2403 59.6679 91.4032C60.1301 91.5661 60.5448 91.8218 60.9123 92.1703C61.2797 92.5187 61.5694 92.9714 61.7816 93.5282C61.9937 94.0812 62.0998 94.7536 62.0998 95.5453V96.1475H55.1623V94.8748H60.435C60.435 94.4278 60.3441 94.032 60.1623 93.6873C59.9804 93.3388 59.7248 93.0642 59.3952 92.8634C59.0694 92.6627 58.6869 92.5623 58.2475 92.5623C57.7702 92.5623 57.3535 92.6797 56.9975 92.9146C56.6452 93.1456 56.3725 93.4487 56.1793 93.8237C55.9899 94.1949 55.8952 94.5983 55.8952 95.0339V96.0282C55.8952 96.6115 55.9975 97.1078 56.202 97.5168C56.4104 97.9259 56.7001 98.2384 57.0713 98.4543C57.4426 98.6665 57.8763 98.7725 58.3725 98.7725C58.6944 98.7725 58.988 98.7271 59.2532 98.6362C59.5183 98.5415 59.7475 98.4013 59.9407 98.2157C60.1338 98.0301 60.2816 97.8009 60.3838 97.5282L61.9918 97.818C61.863 98.2915 61.6319 98.7062 61.2986 99.0623C60.9691 99.4146 60.5543 99.6892 60.0543 99.8862C59.5581 100.079 58.9918 100.176 58.3554 100.176ZM63.9847 103.273V91.2725H65.6438V92.6873H65.7858C65.8843 92.5055 66.0264 92.2953 66.212 92.0566C66.3976 91.818 66.6552 91.6096 66.9847 91.4316C67.3142 91.2498 67.7498 91.1589 68.2915 91.1589C68.9961 91.1589 69.6248 91.3369 70.1779 91.693C70.7309 92.049 71.1646 92.5623 71.479 93.2328C71.7972 93.9032 71.9563 94.71 71.9563 95.6532C71.9563 96.5964 71.7991 97.4051 71.4847 98.0793C71.1703 98.7498 70.7385 99.2668 70.1892 99.6305C69.64 99.9903 69.0131 100.17 68.3086 100.17C67.7783 100.17 67.3445 100.081 67.0074 99.9032C66.6741 99.7252 66.4127 99.5168 66.2233 99.2782C66.0339 99.0396 65.8881 98.8275 65.7858 98.6418H65.6836V103.273H63.9847ZM65.6495 95.6362C65.6495 96.2498 65.7385 96.7877 65.9165 97.2498C66.0945 97.7119 66.3521 98.0737 66.6892 98.335C67.0264 98.5926 67.4392 98.7214 67.9279 98.7214C68.4355 98.7214 68.8597 98.5869 69.2006 98.318C69.5415 98.0453 69.7991 97.6759 69.9733 97.21C70.1514 96.7441 70.2404 96.2195 70.2404 95.6362C70.2404 95.0604 70.1533 94.5434 69.979 94.085C69.8086 93.6267 69.551 93.265 69.2063 92.9998C68.8654 92.7346 68.4392 92.6021 67.9279 92.6021C67.4355 92.6021 67.0188 92.729 66.6779 92.9828C66.3408 93.2365 66.0851 93.5907 65.9108 94.0453C65.7366 94.4998 65.6495 95.0301 65.6495 95.6362ZM76.3995 100.193C75.8464 100.193 75.3464 100.091 74.8995 99.8862C74.4525 99.6778 74.0983 99.3767 73.837 98.9828C73.5794 98.5888 73.4506 98.1059 73.4506 97.5339C73.4506 97.0415 73.5453 96.6362 73.7347 96.318C73.9241 95.9998 74.1798 95.7479 74.5017 95.5623C74.8237 95.3767 75.1836 95.2365 75.5813 95.1418C75.979 95.0471 76.3843 94.9752 76.7972 94.9259C77.3199 94.8653 77.7442 94.8161 78.0699 94.7782C78.3957 94.7365 78.6324 94.6703 78.7801 94.5793C78.9279 94.4884 79.0017 94.3407 79.0017 94.1362V94.0964C79.0017 93.6002 78.8616 93.2157 78.5813 92.943C78.3048 92.6703 77.8919 92.5339 77.3427 92.5339C76.7707 92.5339 76.3199 92.6608 75.9904 92.9146C75.6646 93.1646 75.4392 93.443 75.3142 93.7498L73.7177 93.3862C73.907 92.8559 74.1836 92.4278 74.5472 92.1021C74.9146 91.7725 75.337 91.5339 75.8142 91.3862C76.2915 91.2346 76.7934 91.1589 77.3199 91.1589C77.6684 91.1589 78.0377 91.2006 78.4279 91.2839C78.8218 91.3634 79.1892 91.5112 79.5301 91.7271C79.8748 91.943 80.157 92.2517 80.3767 92.6532C80.5964 93.0509 80.7063 93.568 80.7063 94.2043V99.9998H79.0472V98.8066H78.979C78.8692 99.0263 78.7044 99.2422 78.4847 99.4543C78.265 99.6665 77.9828 99.8426 77.6381 99.9828C77.2934 100.123 76.8805 100.193 76.3995 100.193ZM76.7688 98.8293C77.2385 98.8293 77.64 98.7365 77.9733 98.5509C78.3105 98.3653 78.5661 98.1229 78.7404 97.8237C78.9184 97.5206 79.0074 97.1968 79.0074 96.8521V95.7271C78.9468 95.7877 78.8294 95.8445 78.6551 95.8975C78.4847 95.9468 78.2896 95.9903 78.0699 96.0282C77.8502 96.0623 77.6362 96.0945 77.4279 96.1248C77.2195 96.1513 77.0453 96.174 76.9051 96.193C76.5756 96.2346 76.2745 96.3047 76.0017 96.4032C75.7328 96.5017 75.5169 96.6437 75.354 96.8293C75.1949 97.0112 75.1154 97.2536 75.1154 97.5566C75.1154 97.9771 75.2707 98.2953 75.5813 98.5112C75.8919 98.7233 76.2877 98.8293 76.7688 98.8293ZM84.6679 88.3634V99.9998H82.9691V88.3634H84.6679ZM86.9534 99.9998V91.2725H88.6523V99.9998H86.9534ZM87.8114 89.9259C87.5159 89.9259 87.2622 89.8275 87.05 89.6305C86.8417 89.4297 86.7375 89.1911 86.7375 88.9146C86.7375 88.6343 86.8417 88.3956 87.05 88.1987C87.2622 87.9979 87.5159 87.8975 87.8114 87.8975C88.1069 87.8975 88.3587 87.9979 88.5671 88.1987C88.7792 88.3956 88.8853 88.6343 88.8853 88.9146C88.8853 89.1911 88.7792 89.4297 88.5671 89.6305C88.3587 89.8275 88.1069 89.9259 87.8114 89.9259Z" fill="#101828"/>
<path d="M313.165 89L303.999 98.1667L299.832 94" stroke="#7F56D9" stroke-width="1.66667" stroke-linecap="round" stroke-linejoin="round"/>
<path d="M33.5 124C33.5 120.686 36.1863 118 39.5 118H320.5C323.814 118 326.5 120.686 326.5 124V156C326.5 159.314 323.814 162 320.5 162H39.5C36.1863 162 33.5 159.314 33.5 156V124Z" fill="#F9FAFB"/>
<path d="M42.7773 146V134.364H44.533V139.42H50.3341V134.364H52.0955V146H50.3341V140.926H44.533V146H42.7773ZM54.5159 146V137.273H56.2148V146H54.5159ZM55.3739 135.926C55.0784 135.926 54.8247 135.828 54.6125 135.631C54.4042 135.43 54.3 135.191 54.3 134.915C54.3 134.634 54.4042 134.396 54.6125 134.199C54.8247 133.998 55.0784 133.898 55.3739 133.898C55.6694 133.898 55.9212 133.998 56.1296 134.199C56.3417 134.396 56.4478 134.634 56.4478 134.915C56.4478 135.191 56.3417 135.43 56.1296 135.631C55.9212 135.828 55.6694 135.926 55.3739 135.926ZM60.1992 140.818V146H58.5003V137.273H60.131V138.693H60.239C60.4397 138.231 60.7541 137.86 61.1821 137.58C61.614 137.299 62.1575 137.159 62.8128 137.159C63.4075 137.159 63.9284 137.284 64.3753 137.534C64.8223 137.78 65.1689 138.148 65.4151 138.636C65.6613 139.125 65.7844 139.729 65.7844 140.449V146H64.0855V140.653C64.0855 140.021 63.9208 139.527 63.5912 139.17C63.2617 138.811 62.809 138.631 62.2333 138.631C61.8393 138.631 61.489 138.716 61.1821 138.886C60.8791 139.057 60.6386 139.307 60.4605 139.636C60.2863 139.962 60.1992 140.356 60.1992 140.818ZM71.3299 146.17C70.6253 146.17 69.9965 145.991 69.4435 145.631C68.8943 145.267 68.4624 144.75 68.148 144.08C67.8374 143.405 67.6821 142.597 67.6821 141.653C67.6821 140.71 67.8393 139.903 68.1537 139.233C68.4719 138.562 68.9075 138.049 69.4605 137.693C70.0136 137.337 70.6405 137.159 71.3412 137.159C71.8829 137.159 72.3185 137.25 72.648 137.432C72.9814 137.61 73.239 137.818 73.4208 138.057C73.6064 138.295 73.7503 138.506 73.8526 138.688H73.9549V134.364H75.6537V146H73.9946V144.642H73.8526C73.7503 144.828 73.6026 145.04 73.4094 145.278C73.22 145.517 72.9587 145.725 72.6253 145.903C72.292 146.081 71.8602 146.17 71.3299 146.17ZM71.7049 144.722C72.1935 144.722 72.6064 144.593 72.9435 144.335C73.2844 144.074 73.542 143.712 73.7162 143.25C73.8943 142.788 73.9833 142.25 73.9833 141.636C73.9833 141.03 73.8962 140.5 73.7219 140.045C73.5477 139.591 73.292 139.237 72.9549 138.983C72.6177 138.729 72.2011 138.602 71.7049 138.602C71.1935 138.602 70.7674 138.735 70.4265 139C70.0855 139.265 69.828 139.627 69.6537 140.085C69.4833 140.544 69.398 141.061 69.398 141.636C69.398 142.22 69.4852 142.744 69.6594 143.21C69.8337 143.676 70.0912 144.045 70.4321 144.318C70.7768 144.587 71.2011 144.722 71.7049 144.722ZM78.0784 146V137.273H79.7773V146H78.0784ZM78.9364 135.926C78.6409 135.926 78.3872 135.828 78.175 135.631C77.9667 135.43 77.8625 135.191 77.8625 134.915C77.8625 134.634 77.9667 134.396 78.175 134.199C78.3872 133.998 78.6409 133.898 78.9364 133.898C79.2319 133.898 79.4837 133.998 79.6921 134.199C79.9042 134.396 80.0103 134.634 80.0103 134.915C80.0103 135.191 79.9042 135.43 79.6921 135.631C79.4837 135.828 79.2319 135.926 78.9364 135.926Z" fill="#101828"/>
<path d="M313.165 135L303.999 144.167L299.832 140" stroke="#7F56D9" stroke-width="1.66667" stroke-linecap="round" stroke-linejoin="round"/>
<path d="M50.6523 184.04C50.5425 183.695 50.3947 183.386 50.2091 183.114C50.0273 182.837 49.8095 182.602 49.5557 182.409C49.3019 182.212 49.0122 182.062 48.6864 181.96C48.3644 181.858 48.0103 181.807 47.6239 181.807C46.9686 181.807 46.3777 181.975 45.8512 182.312C45.3247 182.65 44.908 183.144 44.6012 183.795C44.2981 184.443 44.1466 185.237 44.1466 186.176C44.1466 187.119 44.3 187.917 44.6069 188.568C44.9137 189.22 45.3341 189.714 45.8682 190.051C46.4023 190.388 47.0103 190.557 47.6921 190.557C48.3247 190.557 48.8758 190.428 49.3455 190.17C49.819 189.913 50.1845 189.549 50.4421 189.08C50.7034 188.606 50.8341 188.049 50.8341 187.409L51.2887 187.494H47.9591V186.045H52.533V187.369C52.533 188.347 52.3247 189.195 51.908 189.915C51.4951 190.631 50.9231 191.184 50.1921 191.574C49.4648 191.964 48.6315 192.159 47.6921 192.159C46.6391 192.159 45.7148 191.917 44.9194 191.432C44.1277 190.947 43.5103 190.259 43.0671 189.369C42.6239 188.475 42.4023 187.415 42.4023 186.188C42.4023 185.259 42.5311 184.426 42.7887 183.688C43.0462 182.949 43.408 182.322 43.8739 181.807C44.3436 181.288 44.8947 180.892 45.5273 180.619C46.1637 180.343 46.8587 180.205 47.6125 180.205C48.2413 180.205 48.8266 180.297 49.3682 180.483C49.9137 180.669 50.3985 180.932 50.8228 181.273C51.2508 181.614 51.605 182.019 51.8853 182.489C52.1656 182.955 52.355 183.472 52.4534 184.04H50.6523ZM58.3867 192.176C57.5268 192.176 56.7863 191.992 56.1651 191.625C55.5477 191.254 55.0704 190.733 54.7333 190.062C54.3999 189.388 54.2333 188.598 54.2333 187.693C54.2333 186.799 54.3999 186.011 54.7333 185.33C55.0704 184.648 55.5401 184.116 56.1424 183.733C56.7484 183.35 57.4568 183.159 58.2674 183.159C58.7598 183.159 59.2371 183.241 59.6992 183.403C60.1613 183.566 60.5761 183.822 60.9435 184.17C61.3109 184.519 61.6007 184.972 61.8128 185.528C62.0249 186.081 62.131 186.754 62.131 187.545V188.148H55.1935V186.875H60.4662C60.4662 186.428 60.3753 186.032 60.1935 185.688C60.0117 185.339 59.756 185.064 59.4265 184.864C59.1007 184.663 58.7181 184.562 58.2787 184.562C57.8015 184.562 57.3848 184.68 57.0287 184.915C56.6765 185.146 56.4037 185.449 56.2105 185.824C56.0212 186.195 55.9265 186.598 55.9265 187.034V188.028C55.9265 188.612 56.0287 189.108 56.2333 189.517C56.4416 189.926 56.7314 190.239 57.1026 190.455C57.4738 190.667 57.9075 190.773 58.4037 190.773C58.7257 190.773 59.0193 190.727 59.2844 190.636C59.5496 190.542 59.7787 190.402 59.9719 190.216C60.1651 190.03 60.3128 189.801 60.4151 189.528L62.023 189.818C61.8943 190.292 61.6632 190.706 61.3299 191.062C61.0003 191.415 60.5855 191.689 60.0855 191.886C59.5893 192.08 59.023 192.176 58.3867 192.176ZM64.0159 192V183.273H65.658V184.659H65.7489C65.908 184.189 66.1883 183.82 66.5898 183.551C66.9951 183.278 67.4534 183.142 67.9648 183.142C68.0709 183.142 68.1959 183.146 68.3398 183.153C68.4875 183.161 68.6031 183.17 68.6864 183.182V184.807C68.6182 184.788 68.497 184.767 68.3228 184.744C68.1485 184.718 67.9743 184.705 67.8 184.705C67.3985 184.705 67.0406 184.79 66.7262 184.96C66.4156 185.127 66.1694 185.36 65.9875 185.659C65.8057 185.955 65.7148 186.292 65.7148 186.67V192H64.0159ZM70.1566 192V183.273H71.7873V184.693H71.8952C72.077 184.212 72.3744 183.837 72.7873 183.568C73.2001 183.295 73.6944 183.159 74.2702 183.159C74.8535 183.159 75.3422 183.295 75.7361 183.568C76.1338 183.841 76.4274 184.216 76.6168 184.693H76.7077C76.916 184.227 77.2475 183.856 77.702 183.58C78.1566 183.299 78.6982 183.159 79.327 183.159C80.1187 183.159 80.7645 183.407 81.2645 183.903C81.7683 184.4 82.0202 185.148 82.0202 186.148V192H80.3213V186.307C80.3213 185.716 80.1604 185.288 79.8384 185.023C79.5164 184.758 79.1319 184.625 78.685 184.625C78.1319 184.625 77.702 184.795 77.3952 185.136C77.0884 185.473 76.935 185.907 76.935 186.438V192H75.2418V186.199C75.2418 185.725 75.0941 185.345 74.7986 185.057C74.5032 184.769 74.1187 184.625 73.6452 184.625C73.3232 184.625 73.0259 184.71 72.7532 184.881C72.4842 185.047 72.2664 185.28 72.0998 185.58C71.9369 185.879 71.8554 186.225 71.8554 186.619V192H70.1566ZM86.837 192.193C86.2839 192.193 85.7839 192.091 85.337 191.886C84.89 191.678 84.5358 191.377 84.2745 190.983C84.0169 190.589 83.8881 190.106 83.8881 189.534C83.8881 189.042 83.9828 188.636 84.1722 188.318C84.3616 188 84.6173 187.748 84.9392 187.562C85.2612 187.377 85.6211 187.237 86.0188 187.142C86.4165 187.047 86.8218 186.975 87.2347 186.926C87.7574 186.866 88.1817 186.816 88.5074 186.778C88.8332 186.737 89.0699 186.67 89.2177 186.58C89.3654 186.489 89.4392 186.341 89.4392 186.136V186.097C89.4392 185.6 89.2991 185.216 89.0188 184.943C88.7423 184.67 88.3294 184.534 87.7801 184.534C87.2082 184.534 86.7574 184.661 86.4279 184.915C86.1021 185.165 85.8767 185.443 85.7517 185.75L84.1551 185.386C84.3445 184.856 84.6211 184.428 84.9847 184.102C85.3521 183.773 85.7745 183.534 86.2517 183.386C86.729 183.235 87.2309 183.159 87.7574 183.159C88.1059 183.159 88.4752 183.201 88.8654 183.284C89.2593 183.364 89.6267 183.511 89.9677 183.727C90.3123 183.943 90.5945 184.252 90.8142 184.653C91.0339 185.051 91.1438 185.568 91.1438 186.205V192H89.4847V190.807H89.4165C89.3067 191.027 89.1419 191.242 88.9222 191.455C88.7025 191.667 88.4203 191.843 88.0756 191.983C87.7309 192.123 87.318 192.193 86.837 192.193ZM87.2063 190.83C87.676 190.83 88.0775 190.737 88.4108 190.551C88.748 190.366 89.0036 190.123 89.1779 189.824C89.3559 189.521 89.4449 189.197 89.4449 188.852V187.727C89.3843 187.788 89.2669 187.845 89.0927 187.898C88.9222 187.947 88.7271 187.991 88.5074 188.028C88.2877 188.062 88.0737 188.095 87.8654 188.125C87.657 188.152 87.4828 188.174 87.3427 188.193C87.0131 188.235 86.712 188.305 86.4392 188.403C86.1703 188.502 85.9544 188.644 85.7915 188.83C85.6324 189.011 85.5529 189.254 85.5529 189.557C85.5529 189.977 85.7082 190.295 86.0188 190.511C86.3294 190.723 86.7252 190.83 87.2063 190.83ZM95.1054 186.818V192H93.4066V183.273H95.0373V184.693H95.1452C95.346 184.231 95.6604 183.86 96.0884 183.58C96.5202 183.299 97.0638 183.159 97.7191 183.159C98.3138 183.159 98.8346 183.284 99.2816 183.534C99.7285 183.78 100.075 184.148 100.321 184.636C100.568 185.125 100.691 185.729 100.691 186.449V192H98.9918V186.653C98.9918 186.021 98.827 185.527 98.4975 185.17C98.1679 184.811 97.7153 184.631 97.1395 184.631C96.7456 184.631 96.3952 184.716 96.0884 184.886C95.7854 185.057 95.5448 185.307 95.3668 185.636C95.1926 185.962 95.1054 186.356 95.1054 186.818Z" fill="#101828"/>
<path d="M42.2031 227.875V226.364H51.2088V227.875H47.5781V238H45.8281V227.875H42.2031ZM57.4034 234.381V229.273H59.108V238H57.4375V236.489H57.3466C57.1459 236.955 56.8239 237.343 56.3807 237.653C55.9413 237.96 55.394 238.114 54.7387 238.114C54.1781 238.114 53.6818 237.991 53.25 237.744C52.822 237.494 52.4849 237.125 52.2387 236.636C51.9962 236.148 51.875 235.544 51.875 234.824V229.273H53.5739V234.619C53.5739 235.214 53.7387 235.687 54.0682 236.04C54.3977 236.392 54.8258 236.568 55.3523 236.568C55.6705 236.568 55.9868 236.489 56.3012 236.33C56.6193 236.17 56.8826 235.93 57.0909 235.608C57.3031 235.286 57.4072 234.877 57.4034 234.381ZM61.3906 238V229.273H63.0327V230.659H63.1236C63.2827 230.189 63.563 229.82 63.9645 229.551C64.3698 229.278 64.8281 229.142 65.3395 229.142C65.4456 229.142 65.5706 229.146 65.7145 229.153C65.8622 229.161 65.9778 229.17 66.0611 229.182V230.807C65.9929 230.788 65.8717 230.767 65.6975 230.744C65.5232 230.718 65.349 230.705 65.1747 230.705C64.7732 230.705 64.4153 230.79 64.1009 230.96C63.7903 231.127 63.5441 231.36 63.3622 231.659C63.1804 231.955 63.0895 232.292 63.0895 232.67V238H61.3906ZM69.0938 235.04L69.0824 232.966H69.3779L72.8551 229.273H74.8892L70.9233 233.477H70.6563L69.0938 235.04ZM67.5313 238V226.364H69.2301V238H67.5313ZM73.0426 238L69.9176 233.852L71.0881 232.665L75.1279 238H73.0426ZM76.4375 238V229.273H78.1364V238H76.4375ZM77.2955 227.926C77 227.926 76.7462 227.828 76.5341 227.631C76.3258 227.43 76.2216 227.191 76.2216 226.915C76.2216 226.634 76.3258 226.396 76.5341 226.199C76.7462 225.998 77 225.898 77.2955 225.898C77.5909 225.898 77.8428 225.998 78.0512 226.199C78.2633 226.396 78.3693 226.634 78.3693 226.915C78.3693 227.191 78.2633 227.43 78.0512 227.631C77.8428 227.828 77.5909 227.926 77.2955 227.926ZM86.9617 231.403L85.4219 231.676C85.3575 231.479 85.2552 231.292 85.1151 231.114C84.9787 230.936 84.7931 230.79 84.5583 230.676C84.3234 230.562 84.0299 230.506 83.6776 230.506C83.1965 230.506 82.795 230.614 82.473 230.83C82.1511 231.042 81.9901 231.316 81.9901 231.653C81.9901 231.945 82.098 232.18 82.3139 232.358C82.5299 232.536 82.8783 232.682 83.3594 232.795L84.7458 233.114C85.5488 233.299 86.1473 233.585 86.5412 233.972C86.9352 234.358 87.1321 234.86 87.1321 235.477C87.1321 236 86.9806 236.466 86.6776 236.875C86.3783 237.28 85.9598 237.598 85.4219 237.83C84.8878 238.061 84.2685 238.176 83.5639 238.176C82.5867 238.176 81.7893 237.968 81.1719 237.551C80.5545 237.131 80.1757 236.534 80.0355 235.761L81.6776 235.511C81.7799 235.939 81.9901 236.263 82.3083 236.483C82.6264 236.699 83.0412 236.807 83.5526 236.807C84.1094 236.807 84.5545 236.691 84.8878 236.46C85.2211 236.225 85.3878 235.939 85.3878 235.602C85.3878 235.33 85.2855 235.1 85.081 234.915C84.8802 234.729 84.5715 234.589 84.1548 234.494L82.6776 234.17C81.8632 233.985 81.2609 233.689 80.8708 233.284C80.4844 232.879 80.2912 232.366 80.2912 231.744C80.2912 231.229 80.4352 230.778 80.723 230.392C81.0109 230.006 81.4086 229.705 81.9162 229.489C82.4238 229.269 83.0052 229.159 83.6605 229.159C84.6037 229.159 85.3461 229.364 85.8878 229.773C86.4295 230.178 86.7874 230.722 86.9617 231.403ZM90.6989 232.818V238H89V226.364H90.6762V230.693H90.7841C90.9887 230.223 91.3012 229.85 91.7216 229.574C92.1421 229.297 92.6913 229.159 93.3693 229.159C93.9678 229.159 94.4906 229.282 94.9375 229.528C95.3883 229.775 95.7368 230.142 95.983 230.631C96.233 231.116 96.358 231.722 96.358 232.449V238H94.6591V232.653C94.6591 232.013 94.4943 231.517 94.1648 231.165C93.8352 230.809 93.3769 230.631 92.7898 230.631C92.3883 230.631 92.0284 230.716 91.7102 230.886C91.3959 231.057 91.1477 231.307 90.9659 231.636C90.7879 231.962 90.6989 232.356 90.6989 232.818Z" fill="#101828"/>
<path d="M320.5 75C320.5 72.7909 322.291 71 324.5 71C326.709 71 328.5 72.7909 328.5 75V223C328.5 225.209 326.709 227 324.5 227C322.291 227 320.5 225.209 320.5 223V75Z" fill="#EAECF0"/>
</g>
<path d="M35.5 67.5H324.5C328.642 67.5 332 70.8579 332 75V379C332 383.142 328.642 386.5 324.5 386.5H35.5C31.3579 386.5 28 383.142 28 379V75C28 70.8579 31.3579 67.5 35.5 67.5Z" stroke="#EAECF0"/>
</g>
</g>
</g>
<defs>
<filter id="filter0_i_372_2849" x="4" y="5" width="344" height="226" filterUnits="userSpaceOnUse" color-interpolation-filters="sRGB">
<feFlood flood-opacity="0" result="BackgroundImageFix"/>
<feBlend mode="normal" in="SourceGraphic" in2="BackgroundImageFix" result="shape"/>
<feColorMatrix in="SourceAlpha" type="matrix" values="0 0 0 0 0 0 0 0 0 0 0 0 0 0 0 0 0 0 127 0" result="hardAlpha"/>
<feOffset/>
<feGaussianBlur stdDeviation="2"/>
<feComposite in2="hardAlpha" operator="arithmetic" k2="-1" k3="1"/>
<feColorMatrix type="matrix" values="0 0 0 0 1 0 0 0 0 1 0 0 0 0 1 0 0 0 1 0"/>
<feBlend mode="normal" in2="shape" result="effect1_innerShadow_372_2849"/>
</filter>
<filter id="filter1_d_372_2849" x="-38.5" y="20" width="44" height="44" filterUnits="userSpaceOnUse" color-interpolation-filters="sRGB">
<feFlood flood-opacity="0" result="BackgroundImageFix"/>
<feColorMatrix in="SourceAlpha" type="matrix" values="0 0 0 0 0 0 0 0 0 0 0 0 0 0 0 0 0 0 127 0" result="hardAlpha"/>
<feOffset dy="1"/>
<feGaussianBlur stdDeviation="1"/>
<feComposite in2="hardAlpha" operator="out"/>
<feColorMatrix type="matrix" values="0 0 0 0 0.0627451 0 0 0 0 0.0941176 0 0 0 0 0.156863 0 0 0 0.05 0"/>
<feBlend mode="normal" in2="BackgroundImageFix" result="effect1_dropShadow_372_2849"/>
<feBlend mode="normal" in="SourceGraphic" in2="effect1_dropShadow_372_2849" result="shape"/>
</filter>
<filter id="filter2_di_372_2849" x="25.5" y="18" width="308.5" height="48" filterUnits="userSpaceOnUse" color-interpolation-filters="sRGB">
<feFlood flood-opacity="0" result="BackgroundImageFix"/>
<feColorMatrix in="SourceAlpha" type="matrix" values="0 0 0 0 0 0 0 0 0 0 0 0 0 0 0 0 0 0 127 0" result="hardAlpha"/>
<feOffset dy="1"/>
<feGaussianBlur stdDeviation="1"/>
<feComposite in2="hardAlpha" operator="out"/>
<feColorMatrix type="matrix" values="0 0 0 0 0.0627451 0 0 0 0 0.0941176 0 0 0 0 0.156863 0 0 0 0.05 0"/>
<feBlend mode="normal" in2="BackgroundImageFix" result="effect1_dropShadow_372_2849"/>
<feBlend mode="normal" in="SourceGraphic" in2="effect1_dropShadow_372_2849" result="shape"/>
<feColorMatrix in="SourceAlpha" type="matrix" values="0 0 0 0 0 0 0 0 0 0 0 0 0 0 0 0 0 0 127 0" result="hardAlpha"/>
<feOffset/>
<feGaussianBlur stdDeviation="2"/>
<feComposite in2="hardAlpha" operator="arithmetic" k2="-1" k3="1"/>
<feColorMatrix type="matrix" values="0 0 0 0 0.619608 0 0 0 0 0.466667 0 0 0 0 0.929412 0 0 0 0.24 0"/>
<feBlend mode="normal" in2="shape" result="effect2_innerShadow_372_2849"/>
</filter>
<filter id="filter3_dd_372_2849" x="11.5" y="63" width="337" height="352" filterUnits="userSpaceOnUse" color-interpolation-filters="sRGB">
<feFlood flood-opacity="0" result="BackgroundImageFix"/>
<feColorMatrix in="SourceAlpha" type="matrix" values="0 0 0 0 0 0 0 0 0 0 0 0 0 0 0 0 0 0 127 0" result="hardAlpha"/>
<feOffset dy="4"/>
<feGaussianBlur stdDeviation="3"/>
<feComposite in2="hardAlpha" operator="out"/>
<feColorMatrix type="matrix" values="0 0 0 0 0.0627451 0 0 0 0 0.0941176 0 0 0 0 0.156863 0 0 0 0.03 0"/>
<feBlend mode="normal" in2="BackgroundImageFix" result="effect1_dropShadow_372_2849"/>
<feColorMatrix in="SourceAlpha" type="matrix" values="0 0 0 0 0 0 0 0 0 0 0 0 0 0 0 0 0 0 127 0" result="hardAlpha"/>
<feOffset dy="12"/>
<feGaussianBlur stdDeviation="8"/>
<feComposite in2="hardAlpha" operator="out"/>
<feColorMatrix type="matrix" values="0 0 0 0 0.0627451 0 0 0 0 0.0941176 0 0 0 0 0.156863 0 0 0 0.08 0"/>
<feBlend mode="normal" in2="effect1_dropShadow_372_2849" result="effect2_dropShadow_372_2849"/>
<feBlend mode="normal" in="SourceGraphic" in2="effect2_dropShadow_372_2849" result="shape"/>
</filter>
</defs>
</svg>
