<svg width="344" height="226" viewBox="0 0 344 226" fill="none" xmlns="http://www.w3.org/2000/svg">
<g clip-path="url(#clip0_333_15188)">
<rect x="0.5" y="0.5" width="343" height="177" rx="11.5" stroke="#E9EBF1"/>
<path d="M-377 -5.5H565C571.351 -5.5 576.5 -0.351273 576.5 6V66C576.5 72.3513 571.351 77.5 565 77.5H-377C-383.351 77.5 -388.5 72.3513 -388.5 66V6C-388.5 -0.351274 -383.351 -5.5 -377 -5.5Z" fill="#F9FAFB"/>
<path d="M-377 -5.5H565C571.351 -5.5 576.5 -0.351273 576.5 6V66C576.5 72.3513 571.351 77.5 565 77.5H-377C-383.351 77.5 -388.5 72.3513 -388.5 66V6C-388.5 -0.351274 -383.351 -5.5 -377 -5.5Z" stroke="#EAECF0"/>
<g filter="url(#filter0_d_333_15188)">
<path d="M-32.5 16.5H-8.5C-4.35786 16.5 -1 19.8579 -1 24V48C-1 52.1421 -4.35786 55.5 -8.5 55.5H-32.5C-36.6421 55.5 -40 52.1421 -40 48V24C-40 19.8579 -36.6421 16.5 -32.5 16.5Z" stroke="#EAECF0" shape-rendering="crispEdges"/>
</g>
<g filter="url(#filter1_dd_333_15188)">
<path d="M23.5 22C23.5 17.5817 27.0817 14 31.5 14H320C324.418 14 328 17.5817 328 22V50C328 54.4183 324.418 58 320 58H31.5C27.0817 58 23.5 54.4183 23.5 50V22Z" fill="white"/>
<path d="M31.5 14.5H320C324.142 14.5 327.5 17.8579 327.5 22V50C327.5 54.1421 324.142 57.5 320 57.5H31.5C27.3579 57.5 24 54.1421 24 50V22C24 17.8579 27.3579 14.5 31.5 14.5Z" stroke="#D6BBFB"/>
<path d="M55 43.5L52.0834 40.5833M54.1667 35.5833C54.1667 39.4954 50.9954 42.6667 47.0833 42.6667C43.1713 42.6667 40 39.4954 40 35.5833C40 31.6713 43.1713 28.5 47.0833 28.5C50.9954 28.5 54.1667 31.6713 54.1667 35.5833Z" stroke="#667085" stroke-width="1.66667" stroke-linecap="round" stroke-linejoin="round"/>
<path d="M71.5 24.5H134.5C137.538 24.5 140 26.9624 140 30V42C140 45.0376 137.538 47.5 134.5 47.5H71.5C68.4624 47.5 66 45.0376 66 42V30C66 26.9624 68.4624 24.5 71.5 24.5Z" fill="white"/>
<path d="M71.5 24.5H134.5C137.538 24.5 140 26.9624 140 30V42C140 45.0376 137.538 47.5 134.5 47.5H71.5C68.4624 47.5 66 45.0376 66 42V30C66 26.9624 68.4624 24.5 71.5 24.5Z" stroke="#D0D5DD"/>
<path d="M84.2068 30.8182V41H82.7948L77.6194 33.5327H77.5249V41H75.9887V30.8182H77.4106L82.591 38.2955H82.6855V30.8182H84.2068ZM89.6196 41.1541C88.8672 41.1541 88.2193 40.9934 87.6757 40.6719C87.1354 40.3471 86.7178 39.8913 86.4229 39.3047C86.1312 38.7147 85.9854 38.0237 85.9854 37.2315C85.9854 36.4493 86.1312 35.7599 86.4229 35.1634C86.7178 34.5668 87.1288 34.1011 87.6558 33.7663C88.1861 33.4316 88.8059 33.2642 89.5152 33.2642C89.9461 33.2642 90.3637 33.3355 90.768 33.478C91.1724 33.6205 91.5353 33.8442 91.8568 34.1491C92.1783 34.4541 92.4318 34.8501 92.6175 35.3374C92.8031 35.8213 92.8959 36.4096 92.8959 37.1023V37.6293H86.8256V36.5156H91.4392C91.4392 36.1245 91.3596 35.7782 91.2006 35.4766C91.0415 35.1716 90.8177 34.9313 90.5294 34.7557C90.2443 34.58 89.9096 34.4922 89.5251 34.4922C89.1075 34.4922 88.7429 34.5949 88.4314 34.8004C88.1231 35.0026 87.8845 35.2678 87.7155 35.5959C87.5497 35.9207 87.4669 36.2737 87.4669 36.6548V37.5249C87.4669 38.0353 87.5564 38.4695 87.7354 38.8274C87.9176 39.1854 88.1712 39.4588 88.496 39.6477C88.8208 39.8333 89.2003 39.9261 89.6345 39.9261C89.9162 39.9261 90.1731 39.8864 90.4051 39.8068C90.6371 39.724 90.8376 39.6013 91.0067 39.4389C91.1757 39.2765 91.305 39.076 91.3944 38.8374L92.8014 39.0909C92.6887 39.5052 92.4865 39.8681 92.1949 40.1797C91.9065 40.4879 91.5436 40.7282 91.1061 40.9006C90.6719 41.0696 90.1764 41.1541 89.6196 41.1541ZM94.5452 43.8636V33.3636H95.9969V34.6016H96.1212C96.2074 34.4425 96.3316 34.2585 96.4941 34.0497C96.6565 33.8409 96.8818 33.6586 97.1702 33.5028C97.4585 33.3438 97.8397 33.2642 98.3137 33.2642C98.9301 33.2642 99.4803 33.42 99.9642 33.7315C100.448 34.0431 100.828 34.4922 101.103 35.0788C101.381 35.6655 101.52 36.3714 101.52 37.1967C101.52 38.022 101.383 38.7296 101.108 39.3196C100.833 39.9062 100.455 40.3587 99.9742 40.6768C99.4936 40.9917 98.945 41.1491 98.3286 41.1491C97.8646 41.1491 97.4851 41.0713 97.1901 40.9155C96.8984 40.7597 96.6697 40.5774 96.504 40.3686C96.3383 40.1598 96.2107 39.9742 96.1212 39.8118H96.0317V43.8636H94.5452ZM96.0019 37.1818C96.0019 37.7187 96.0798 38.1894 96.2355 38.5938C96.3913 38.9981 96.6167 39.3146 96.9117 39.5433C97.2066 39.7687 97.5679 39.8814 97.9955 39.8814C98.4396 39.8814 98.8108 39.7637 99.1091 39.5284C99.4074 39.2898 99.6328 38.9666 99.7852 38.5589C99.941 38.1513 100.019 37.6922 100.019 37.1818C100.019 36.678 99.9427 36.2256 99.7902 35.8246C99.6411 35.4235 99.4157 35.107 99.1141 34.875C98.8158 34.643 98.4429 34.527 97.9955 34.527C97.5646 34.527 97.2 34.638 96.9017 34.8601C96.6067 35.0821 96.383 35.392 96.2306 35.7898C96.0781 36.1875 96.0019 36.6515 96.0019 37.1818ZM105.408 41.169C104.924 41.169 104.487 41.0795 104.096 40.9006C103.705 40.7183 103.395 40.4548 103.166 40.1101C102.941 39.7654 102.828 39.3428 102.828 38.8423C102.828 38.4115 102.911 38.0568 103.076 37.7784C103.242 37.5 103.466 37.2796 103.748 37.1172C104.029 36.9548 104.344 36.8321 104.692 36.7493C105.04 36.6664 105.395 36.6035 105.756 36.5604C106.214 36.5073 106.585 36.4643 106.87 36.4311C107.155 36.3946 107.362 36.3366 107.491 36.2571C107.62 36.1776 107.685 36.0483 107.685 35.8693V35.8345C107.685 35.4003 107.562 35.0639 107.317 34.8253C107.075 34.5866 106.714 34.4673 106.233 34.4673C105.733 34.4673 105.339 34.5784 105.05 34.8004C104.765 35.0192 104.568 35.2628 104.459 35.5312L103.062 35.2131C103.227 34.7491 103.469 34.3745 103.787 34.0895C104.109 33.8011 104.478 33.5923 104.896 33.4631C105.314 33.3305 105.753 33.2642 106.214 33.2642C106.518 33.2642 106.842 33.3007 107.183 33.3736C107.528 33.4432 107.849 33.5724 108.147 33.7614C108.449 33.9503 108.696 34.2204 108.888 34.5717C109.08 34.9197 109.177 35.3722 109.177 35.929V41H107.725V39.956H107.665C107.569 40.1482 107.425 40.3371 107.233 40.5227C107.04 40.7083 106.794 40.8625 106.492 40.9851C106.19 41.1077 105.829 41.169 105.408 41.169ZM105.731 39.9759C106.142 39.9759 106.494 39.8946 106.785 39.7322C107.08 39.5698 107.304 39.3577 107.456 39.0959C107.612 38.8307 107.69 38.5473 107.69 38.2457V37.2614C107.637 37.3144 107.534 37.3641 107.382 37.4105C107.233 37.4536 107.062 37.4917 106.87 37.5249C106.678 37.5547 106.49 37.5829 106.308 37.6094C106.126 37.6326 105.973 37.6525 105.851 37.669C105.562 37.7055 105.299 37.7668 105.06 37.853C104.825 37.9392 104.636 38.0634 104.493 38.2259C104.354 38.3849 104.285 38.5971 104.285 38.8622C104.285 39.2301 104.42 39.5085 104.692 39.6974C104.964 39.883 105.31 39.9759 105.731 39.9759ZM112.643 30.8182V41H111.157V30.8182H112.643ZM114.643 41V33.3636H116.129V41H114.643ZM115.394 32.1854C115.135 32.1854 114.913 32.0992 114.727 31.9268C114.545 31.7512 114.454 31.5424 114.454 31.3004C114.454 31.0552 114.545 30.8464 114.727 30.674C114.913 30.4983 115.135 30.4105 115.394 30.4105C115.652 30.4105 115.872 30.4983 116.055 30.674C116.24 30.8464 116.333 31.0552 116.333 31.3004C116.333 31.5424 116.24 31.7512 116.055 31.9268C115.872 32.0992 115.652 32.1854 115.394 32.1854Z" fill="#344054"/>
<path d="M131.5 33L125.5 39M125.5 33L131.5 39" stroke="#98A2B3" stroke-width="1.5" stroke-linecap="round" stroke-linejoin="round"/>
<path d="M152.5 24.5H207.5C210.538 24.5 213 26.9624 213 30V42C213 45.0376 210.538 47.5 207.5 47.5H152.5C149.462 47.5 147 45.0376 147 42V30C147 26.9624 149.462 24.5 152.5 24.5Z" fill="white"/>
<path d="M152.5 24.5H207.5C210.538 24.5 213 26.9624 213 30V42C213 45.0376 210.538 47.5 207.5 47.5H152.5C149.462 47.5 147 45.0376 147 42V30C147 26.9624 149.462 24.5 152.5 24.5Z" stroke="#D0D5DD"/>
<path d="M156.872 41V30.8182H158.408V35.2429H163.484V30.8182H165.025V41H163.484V36.5604H158.408V41H156.872ZM167.143 41V33.3636H168.629V41H167.143ZM167.894 32.1854C167.635 32.1854 167.413 32.0992 167.227 31.9268C167.045 31.7512 166.954 31.5424 166.954 31.3004C166.954 31.0552 167.045 30.8464 167.227 30.674C167.413 30.4983 167.635 30.4105 167.894 30.4105C168.152 30.4105 168.372 30.4983 168.555 30.674C168.74 30.8464 168.833 31.0552 168.833 31.3004C168.833 31.5424 168.74 31.7512 168.555 31.9268C168.372 32.0992 168.152 32.1854 167.894 32.1854ZM172.116 36.4659V41H170.629V33.3636H172.056V34.6065H172.15C172.326 34.2022 172.601 33.8774 172.976 33.6321C173.354 33.3868 173.829 33.2642 174.403 33.2642C174.923 33.2642 175.379 33.3736 175.77 33.5923C176.161 33.8078 176.464 34.1293 176.68 34.5568C176.895 34.9844 177.003 35.513 177.003 36.1428V41H175.516V36.3217C175.516 35.7682 175.372 35.3357 175.084 35.0241C174.795 34.7093 174.399 34.5518 173.896 34.5518C173.551 34.5518 173.244 34.6264 172.976 34.7756C172.711 34.9247 172.5 35.1435 172.344 35.4318C172.192 35.7169 172.116 36.0616 172.116 36.4659ZM181.855 41.1491C181.239 41.1491 180.688 40.9917 180.204 40.6768C179.724 40.3587 179.346 39.9062 179.071 39.3196C178.799 38.7296 178.663 38.022 178.663 37.1967C178.663 36.3714 178.801 35.6655 179.076 35.0788C179.354 34.4922 179.735 34.0431 180.219 33.7315C180.703 33.42 181.252 33.2642 181.865 33.2642C182.339 33.2642 182.72 33.3438 183.008 33.5028C183.3 33.6586 183.525 33.8409 183.685 34.0497C183.847 34.2585 183.973 34.4425 184.062 34.6016H184.152V30.8182H185.638V41H184.187V39.8118H184.062C183.973 39.9742 183.844 40.1598 183.675 40.3686C183.509 40.5774 183.28 40.7597 182.989 40.9155C182.697 41.0713 182.319 41.1491 181.855 41.1491ZM182.183 39.8814C182.611 39.8814 182.972 39.7687 183.267 39.5433C183.565 39.3146 183.791 38.9981 183.943 38.5938C184.099 38.1894 184.177 37.7187 184.177 37.1818C184.177 36.6515 184.101 36.1875 183.948 35.7898C183.796 35.392 183.572 35.0821 183.277 34.8601C182.982 34.638 182.617 34.527 182.183 34.527C181.736 34.527 181.363 34.643 181.065 34.875C180.766 35.107 180.541 35.4235 180.388 35.8246C180.239 36.2256 180.165 36.678 180.165 37.1818C180.165 37.6922 180.241 38.1513 180.393 38.5589C180.546 38.9666 180.771 39.2898 181.07 39.5284C181.371 39.7637 181.742 39.8814 182.183 39.8814ZM187.76 41V33.3636H189.247V41H187.76ZM188.511 32.1854C188.252 32.1854 188.03 32.0992 187.845 31.9268C187.662 31.7512 187.571 31.5424 187.571 31.3004C187.571 31.0552 187.662 30.8464 187.845 30.674C188.03 30.4983 188.252 30.4105 188.511 30.4105C188.769 30.4105 188.99 30.4983 189.172 30.674C189.358 30.8464 189.45 31.0552 189.45 31.3004C189.45 31.5424 189.358 31.7512 189.172 31.9268C188.99 32.0992 188.769 32.1854 188.511 32.1854Z" fill="#344054"/>
<path d="M204.5 33L198.5 39M198.5 33L204.5 39" stroke="#98A2B3" stroke-width="1.5" stroke-linecap="round" stroke-linejoin="round"/>
</g>
<g filter="url(#filter2_dd_333_15188)">
<g clip-path="url(#clip1_333_15188)">
<path d="M23.5 70C23.5 65.5817 27.0817 62 31.5 62H320.5C324.918 62 328.5 65.5817 328.5 70V374C328.5 378.418 324.918 382 320.5 382H31.5C27.0817 382 23.5 378.418 23.5 374V70Z" fill="white"/>
<path d="M29.5 73C29.5 69.6863 32.1863 67 35.5 67H316.5C319.814 67 322.5 69.6863 322.5 73V105C322.5 108.314 319.814 111 316.5 111H35.5C32.1863 111 29.5 108.314 29.5 105V73Z" fill="#F9FAFB"/>
<path d="M48.1705 83.3636V95H46.5568L40.642 86.4659H40.5341V95H38.7784V83.3636H40.4034L46.3239 91.9091H46.4318V83.3636H48.1705ZM54.3565 95.1761C53.4967 95.1761 52.7562 94.9924 52.1349 94.625C51.5175 94.2538 51.0402 93.733 50.7031 93.0625C50.3698 92.3883 50.2031 91.5985 50.2031 90.6932C50.2031 89.7992 50.3698 89.0114 50.7031 88.3295C51.0402 87.6477 51.5099 87.1155 52.1122 86.733C52.7183 86.3504 53.4266 86.1591 54.2372 86.1591C54.7296 86.1591 55.2069 86.2405 55.669 86.4034C56.1312 86.5663 56.5459 86.822 56.9134 87.1705C57.2808 87.5189 57.5705 87.9716 57.7827 88.5284C57.9948 89.0814 58.1009 89.7538 58.1009 90.5455V91.1477H51.1634V89.875H56.4361C56.4361 89.428 56.3452 89.0322 56.1634 88.6875C55.9815 88.339 55.7259 88.0644 55.3963 87.8636C55.0705 87.6629 54.688 87.5625 54.2486 87.5625C53.7713 87.5625 53.3546 87.6799 52.9986 87.9148C52.6463 88.1458 52.3736 88.4489 52.1804 88.8239C51.991 89.1951 51.8963 89.5985 51.8963 90.0341V91.0284C51.8963 91.6117 51.9986 92.108 52.2031 92.517C52.4115 92.9261 52.7012 93.2386 53.0724 93.4545C53.4437 93.6667 53.8774 93.7727 54.3736 93.7727C54.6955 93.7727 54.9891 93.7273 55.2543 93.6364C55.5194 93.5417 55.7486 93.4015 55.9418 93.2159C56.1349 93.0303 56.2827 92.8011 56.3849 92.5284L57.9929 92.8182C57.8641 93.2917 57.633 93.7064 57.2997 94.0625C56.9702 94.4148 56.5554 94.6894 56.0554 94.8864C55.5592 95.0795 54.9929 95.1761 54.3565 95.1761ZM59.9858 98.2727V86.2727H61.6449V87.6875H61.7869C61.8854 87.5057 62.0275 87.2955 62.2131 87.0568C62.3987 86.8182 62.6563 86.6098 62.9858 86.4318C63.3153 86.25 63.7509 86.1591 64.2926 86.1591C64.9972 86.1591 65.6259 86.3371 66.179 86.6932C66.732 87.0492 67.1657 87.5625 67.4801 88.233C67.7983 88.9034 67.9574 89.7102 67.9574 90.6534C67.9574 91.5966 67.8002 92.4053 67.4858 93.0795C67.1714 93.75 66.7396 94.267 66.1903 94.6307C65.6411 94.9905 65.0142 95.1705 64.3097 95.1705C63.7794 95.1705 63.3456 95.0814 63.0085 94.9034C62.6752 94.7254 62.4138 94.517 62.2244 94.2784C62.035 94.0398 61.8892 93.8277 61.7869 93.642H61.6847V98.2727H59.9858ZM61.6506 90.6364C61.6506 91.25 61.7396 91.7879 61.9176 92.25C62.0956 92.7121 62.3532 93.0739 62.6903 93.3352C63.0275 93.5928 63.4403 93.7216 63.929 93.7216C64.4366 93.7216 64.8608 93.5871 65.2017 93.3182C65.5426 93.0455 65.8002 92.6761 65.9744 92.2102C66.1525 91.7443 66.2415 91.2197 66.2415 90.6364C66.2415 90.0606 66.1544 89.5436 65.9801 89.0852C65.8097 88.6269 65.5521 88.2652 65.2074 88C64.8665 87.7348 64.4403 87.6023 63.929 87.6023C63.4366 87.6023 63.0199 87.7292 62.679 87.983C62.3419 88.2367 62.0862 88.5909 61.9119 89.0455C61.7377 89.5 61.6506 90.0303 61.6506 90.6364ZM72.4006 95.1932C71.8475 95.1932 71.3475 95.0909 70.9006 94.8864C70.4536 94.678 70.0994 94.3769 69.8381 93.983C69.5805 93.589 69.4517 93.1061 69.4517 92.5341C69.4517 92.0417 69.5464 91.6364 69.7358 91.3182C69.9252 91 70.1809 90.7481 70.5028 90.5625C70.8248 90.3769 71.1847 90.2367 71.5824 90.142C71.9801 90.0473 72.3854 89.9754 72.7983 89.9261C73.321 89.8655 73.7453 89.8163 74.071 89.7784C74.3968 89.7367 74.6335 89.6705 74.7812 89.5795C74.929 89.4886 75.0028 89.3409 75.0028 89.1364V89.0966C75.0028 88.6004 74.8627 88.2159 74.5824 87.9432C74.3059 87.6705 73.893 87.5341 73.3438 87.5341C72.7718 87.5341 72.321 87.661 71.9915 87.9148C71.6657 88.1648 71.4403 88.4432 71.3153 88.75L69.7188 88.3864C69.9081 87.8561 70.1847 87.428 70.5483 87.1023C70.9157 86.7727 71.3381 86.5341 71.8153 86.3864C72.2926 86.2348 72.7945 86.1591 73.321 86.1591C73.6695 86.1591 74.0388 86.2008 74.429 86.2841C74.8229 86.3636 75.1903 86.5114 75.5312 86.7273C75.8759 86.9432 76.1581 87.2519 76.3778 87.6534C76.5975 88.0511 76.7074 88.5682 76.7074 89.2045V95H75.0483V93.8068H74.9801C74.8703 94.0265 74.7055 94.2424 74.4858 94.4545C74.2661 94.6667 73.9839 94.8428 73.6392 94.983C73.2945 95.1231 72.8816 95.1932 72.4006 95.1932ZM72.7699 93.8295C73.2396 93.8295 73.6411 93.7367 73.9744 93.5511C74.3116 93.3655 74.5672 93.1231 74.7415 92.8239C74.9195 92.5208 75.0085 92.197 75.0085 91.8523V90.7273C74.9479 90.7879 74.8305 90.8447 74.6562 90.8977C74.4858 90.947 74.2907 90.9905 74.071 91.0284C73.8513 91.0625 73.6373 91.0947 73.429 91.125C73.2206 91.1515 73.0464 91.1742 72.9062 91.1932C72.5767 91.2348 72.2756 91.3049 72.0028 91.4034C71.7339 91.5019 71.518 91.6439 71.3551 91.8295C71.196 92.0114 71.1165 92.2538 71.1165 92.5568C71.1165 92.9773 71.2718 93.2955 71.5824 93.5114C71.893 93.7235 72.2888 93.8295 72.7699 93.8295ZM80.669 83.3636V95H78.9702V83.3636H80.669ZM82.9545 95V86.2727H84.6534V95H82.9545ZM83.8125 84.9261C83.517 84.9261 83.2633 84.8277 83.0511 84.6307C82.8428 84.4299 82.7386 84.1913 82.7386 83.9148C82.7386 83.6345 82.8428 83.3958 83.0511 83.1989C83.2633 82.9981 83.517 82.8977 83.8125 82.8977C84.108 82.8977 84.3598 82.9981 84.5682 83.1989C84.7803 83.3958 84.8864 83.6345 84.8864 83.9148C84.8864 84.1913 84.7803 84.4299 84.5682 84.6307C84.3598 84.8277 84.108 84.9261 83.8125 84.9261Z" fill="#101828"/>
<path d="M309.167 84L300.001 93.1667L295.834 89" stroke="#7F56D9" stroke-width="1.66667" stroke-linecap="round" stroke-linejoin="round"/>
<path d="M29.5 119C29.5 115.686 32.1863 113 35.5 113H316.5C319.814 113 322.5 115.686 322.5 119V151C322.5 154.314 319.814 157 316.5 157H35.5C32.1863 157 29.5 154.314 29.5 151V119Z" fill="#F9FAFB"/>
<path d="M38.7784 141V129.364H40.5341V134.42H46.3352V129.364H48.0966V141H46.3352V135.926H40.5341V141H38.7784ZM50.517 141V132.273H52.2159V141H50.517ZM51.375 130.926C51.0795 130.926 50.8258 130.828 50.6136 130.631C50.4053 130.43 50.3011 130.191 50.3011 129.915C50.3011 129.634 50.4053 129.396 50.6136 129.199C50.8258 128.998 51.0795 128.898 51.375 128.898C51.6705 128.898 51.9223 128.998 52.1307 129.199C52.3428 129.396 52.4489 129.634 52.4489 129.915C52.4489 130.191 52.3428 130.43 52.1307 130.631C51.9223 130.828 51.6705 130.926 51.375 130.926ZM56.2003 135.818V141H54.5014V132.273H56.1321V133.693H56.2401C56.4408 133.231 56.7552 132.86 57.1832 132.58C57.6151 132.299 58.1586 132.159 58.8139 132.159C59.4086 132.159 59.9295 132.284 60.3764 132.534C60.8234 132.78 61.17 133.148 61.4162 133.636C61.6624 134.125 61.7855 134.729 61.7855 135.449V141H60.0866V135.653C60.0866 135.021 59.9219 134.527 59.5923 134.17C59.2628 133.811 58.8101 133.631 58.2344 133.631C57.8404 133.631 57.4901 133.716 57.1832 133.886C56.8802 134.057 56.6397 134.307 56.4616 134.636C56.2874 134.962 56.2003 135.356 56.2003 135.818ZM67.331 141.17C66.6264 141.17 65.9976 140.991 65.4446 140.631C64.8954 140.267 64.4635 139.75 64.1491 139.08C63.8385 138.405 63.6832 137.597 63.6832 136.653C63.6832 135.71 63.8404 134.903 64.1548 134.233C64.473 133.562 64.9086 133.049 65.4616 132.693C66.0147 132.337 66.6416 132.159 67.3423 132.159C67.884 132.159 68.3196 132.25 68.6491 132.432C68.9825 132.61 69.2401 132.818 69.4219 133.057C69.6075 133.295 69.7514 133.506 69.8537 133.688H69.956V129.364H71.6548V141H69.9957V139.642H69.8537C69.7514 139.828 69.6037 140.04 69.4105 140.278C69.2211 140.517 68.9598 140.725 68.6264 140.903C68.2931 141.081 67.8613 141.17 67.331 141.17ZM67.706 139.722C68.1946 139.722 68.6075 139.593 68.9446 139.335C69.2855 139.074 69.5431 138.712 69.7173 138.25C69.8954 137.788 69.9844 137.25 69.9844 136.636C69.9844 136.03 69.8973 135.5 69.723 135.045C69.5488 134.591 69.2931 134.237 68.956 133.983C68.6188 133.729 68.2022 133.602 67.706 133.602C67.1946 133.602 66.7685 133.735 66.4276 134C66.0866 134.265 65.8291 134.627 65.6548 135.085C65.4844 135.544 65.3991 136.061 65.3991 136.636C65.3991 137.22 65.4863 137.744 65.6605 138.21C65.8348 138.676 66.0923 139.045 66.4332 139.318C66.7779 139.587 67.2022 139.722 67.706 139.722ZM74.0795 141V132.273H75.7784V141H74.0795ZM74.9375 130.926C74.642 130.926 74.3883 130.828 74.1761 130.631C73.9678 130.43 73.8636 130.191 73.8636 129.915C73.8636 129.634 73.9678 129.396 74.1761 129.199C74.3883 128.998 74.642 128.898 74.9375 128.898C75.233 128.898 75.4848 128.998 75.6932 129.199C75.9053 129.396 76.0114 129.634 76.0114 129.915C76.0114 130.191 75.9053 130.43 75.6932 130.631C75.4848 130.828 75.233 130.926 74.9375 130.926Z" fill="#101828"/>
<path d="M309.167 130L300.001 139.167L295.834 135" stroke="#7F56D9" stroke-width="1.66667" stroke-linecap="round" stroke-linejoin="round"/>
<path d="M46.6534 179.04C46.5436 178.695 46.3958 178.386 46.2102 178.114C46.0284 177.837 45.8106 177.602 45.5568 177.409C45.303 177.212 45.0133 177.062 44.6875 176.96C44.3655 176.858 44.0114 176.807 43.625 176.807C42.9697 176.807 42.3788 176.975 41.8523 177.312C41.3258 177.65 40.9091 178.144 40.6023 178.795C40.2992 179.443 40.1477 180.237 40.1477 181.176C40.1477 182.119 40.3011 182.917 40.608 183.568C40.9148 184.22 41.3352 184.714 41.8693 185.051C42.4034 185.388 43.0114 185.557 43.6932 185.557C44.3258 185.557 44.8769 185.428 45.3466 185.17C45.8201 184.913 46.1856 184.549 46.4432 184.08C46.7045 183.606 46.8352 183.049 46.8352 182.409L47.2898 182.494H43.9602V181.045H48.5341V182.369C48.5341 183.347 48.3258 184.195 47.9091 184.915C47.4962 185.631 46.9242 186.184 46.1932 186.574C45.4659 186.964 44.6326 187.159 43.6932 187.159C42.6402 187.159 41.7159 186.917 40.9205 186.432C40.1288 185.947 39.5114 185.259 39.0682 184.369C38.625 183.475 38.4034 182.415 38.4034 181.188C38.4034 180.259 38.5322 179.426 38.7898 178.688C39.0473 177.949 39.4091 177.322 39.875 176.807C40.3447 176.288 40.8958 175.892 41.5284 175.619C42.1648 175.343 42.8598 175.205 43.6136 175.205C44.2424 175.205 44.8277 175.297 45.3693 175.483C45.9148 175.669 46.3996 175.932 46.8239 176.273C47.2519 176.614 47.6061 177.019 47.8864 177.489C48.1667 177.955 48.3561 178.472 48.4545 179.04H46.6534ZM54.3878 187.176C53.5279 187.176 52.7874 186.992 52.1662 186.625C51.5488 186.254 51.0715 185.733 50.7344 185.062C50.401 184.388 50.2344 183.598 50.2344 182.693C50.2344 181.799 50.401 181.011 50.7344 180.33C51.0715 179.648 51.5412 179.116 52.1435 178.733C52.7495 178.35 53.4579 178.159 54.2685 178.159C54.7609 178.159 55.2382 178.241 55.7003 178.403C56.1624 178.566 56.5772 178.822 56.9446 179.17C57.312 179.519 57.6018 179.972 57.8139 180.528C58.026 181.081 58.1321 181.754 58.1321 182.545V183.148H51.1946V181.875H56.4673C56.4673 181.428 56.3764 181.032 56.1946 180.688C56.0128 180.339 55.7571 180.064 55.4276 179.864C55.1018 179.663 54.7192 179.562 54.2798 179.562C53.8026 179.562 53.3859 179.68 53.0298 179.915C52.6776 180.146 52.4048 180.449 52.2116 180.824C52.0223 181.195 51.9276 181.598 51.9276 182.034V183.028C51.9276 183.612 52.0298 184.108 52.2344 184.517C52.4427 184.926 52.7325 185.239 53.1037 185.455C53.4749 185.667 53.9086 185.773 54.4048 185.773C54.7268 185.773 55.0204 185.727 55.2855 185.636C55.5507 185.542 55.7798 185.402 55.973 185.216C56.1662 185.03 56.3139 184.801 56.4162 184.528L58.0241 184.818C57.8954 185.292 57.6643 185.706 57.331 186.062C57.0014 186.415 56.5866 186.689 56.0866 186.886C55.5904 187.08 55.0241 187.176 54.3878 187.176ZM60.017 187V178.273H61.6591V179.659H61.75C61.9091 179.189 62.1894 178.82 62.5909 178.551C62.9962 178.278 63.4545 178.142 63.9659 178.142C64.072 178.142 64.197 178.146 64.3409 178.153C64.4886 178.161 64.6042 178.17 64.6875 178.182V179.807C64.6193 179.788 64.4981 179.767 64.3239 179.744C64.1496 179.718 63.9754 179.705 63.8011 179.705C63.3996 179.705 63.0417 179.79 62.7273 179.96C62.4167 180.127 62.1705 180.36 61.9886 180.659C61.8068 180.955 61.7159 181.292 61.7159 181.67V187H60.017ZM66.1577 187V178.273H67.7884V179.693H67.8963C68.0781 179.212 68.3755 178.837 68.7884 178.568C69.2012 178.295 69.6955 178.159 70.2713 178.159C70.8546 178.159 71.3433 178.295 71.7372 178.568C72.1349 178.841 72.4285 179.216 72.6179 179.693H72.7088C72.9171 179.227 73.2486 178.856 73.7031 178.58C74.1577 178.299 74.6993 178.159 75.3281 178.159C76.1198 178.159 76.7656 178.407 77.2656 178.903C77.7694 179.4 78.0213 180.148 78.0213 181.148V187H76.3224V181.307C76.3224 180.716 76.1615 180.288 75.8395 180.023C75.5175 179.758 75.133 179.625 74.6861 179.625C74.133 179.625 73.7031 179.795 73.3963 180.136C73.0895 180.473 72.9361 180.907 72.9361 181.438V187H71.2429V181.199C71.2429 180.725 71.0952 180.345 70.7997 180.057C70.5043 179.769 70.1198 179.625 69.6463 179.625C69.3243 179.625 69.027 179.71 68.7543 179.881C68.4853 180.047 68.2675 180.28 68.1009 180.58C67.938 180.879 67.8565 181.225 67.8565 181.619V187H66.1577ZM82.8381 187.193C82.285 187.193 81.785 187.091 81.3381 186.886C80.8911 186.678 80.5369 186.377 80.2756 185.983C80.018 185.589 79.8892 185.106 79.8892 184.534C79.8892 184.042 79.9839 183.636 80.1733 183.318C80.3627 183 80.6184 182.748 80.9403 182.562C81.2623 182.377 81.6222 182.237 82.0199 182.142C82.4176 182.047 82.8229 181.975 83.2358 181.926C83.7585 181.866 84.1828 181.816 84.5085 181.778C84.8343 181.737 85.071 181.67 85.2188 181.58C85.3665 181.489 85.4403 181.341 85.4403 181.136V181.097C85.4403 180.6 85.3002 180.216 85.0199 179.943C84.7434 179.67 84.3305 179.534 83.7812 179.534C83.2093 179.534 82.7585 179.661 82.429 179.915C82.1032 180.165 81.8778 180.443 81.7528 180.75L80.1562 180.386C80.3456 179.856 80.6222 179.428 80.9858 179.102C81.3532 178.773 81.7756 178.534 82.2528 178.386C82.7301 178.235 83.232 178.159 83.7585 178.159C84.107 178.159 84.4763 178.201 84.8665 178.284C85.2604 178.364 85.6278 178.511 85.9688 178.727C86.3134 178.943 86.5956 179.252 86.8153 179.653C87.035 180.051 87.1449 180.568 87.1449 181.205V187H85.4858V185.807H85.4176C85.3078 186.027 85.143 186.242 84.9233 186.455C84.7036 186.667 84.4214 186.843 84.0767 186.983C83.732 187.123 83.3191 187.193 82.8381 187.193ZM83.2074 185.83C83.6771 185.83 84.0786 185.737 84.4119 185.551C84.7491 185.366 85.0047 185.123 85.179 184.824C85.357 184.521 85.446 184.197 85.446 183.852V182.727C85.3854 182.788 85.268 182.845 85.0938 182.898C84.9233 182.947 84.7282 182.991 84.5085 183.028C84.2888 183.062 84.0748 183.095 83.8665 183.125C83.6581 183.152 83.4839 183.174 83.3438 183.193C83.0142 183.235 82.7131 183.305 82.4403 183.403C82.1714 183.502 81.9555 183.644 81.7926 183.83C81.6335 184.011 81.554 184.254 81.554 184.557C81.554 184.977 81.7093 185.295 82.0199 185.511C82.3305 185.723 82.7263 185.83 83.2074 185.83ZM91.1065 181.818V187H89.4077V178.273H91.0384V179.693H91.1463C91.3471 179.231 91.6615 178.86 92.0895 178.58C92.5213 178.299 93.0649 178.159 93.7202 178.159C94.3149 178.159 94.8357 178.284 95.2827 178.534C95.7296 178.78 96.0762 179.148 96.3224 179.636C96.5687 180.125 96.6918 180.729 96.6918 181.449V187H94.9929V181.653C94.9929 181.021 94.8281 180.527 94.4986 180.17C94.169 179.811 93.7164 179.631 93.1406 179.631C92.7467 179.631 92.3963 179.716 92.0895 179.886C91.7865 180.057 91.5459 180.307 91.3679 180.636C91.1937 180.962 91.1065 181.356 91.1065 181.818Z" fill="#101828"/>
<path d="M38.2045 222.875V221.364H47.2102V222.875H43.5795V233H41.8295V222.875H38.2045ZM53.4048 229.381V224.273H55.1094V233H53.4389V231.489H53.348C53.1473 231.955 52.8253 232.343 52.3821 232.653C51.9427 232.96 51.3954 233.114 50.7401 233.114C50.1795 233.114 49.6832 232.991 49.2514 232.744C48.8234 232.494 48.4863 232.125 48.2401 231.636C47.9976 231.148 47.8764 230.544 47.8764 229.824V224.273H49.5753V229.619C49.5753 230.214 49.7401 230.687 50.0696 231.04C50.3991 231.392 50.8272 231.568 51.3537 231.568C51.6719 231.568 51.9882 231.489 52.3026 231.33C52.6207 231.17 52.884 230.93 53.0923 230.608C53.3045 230.286 53.4086 229.877 53.4048 229.381ZM57.392 233V224.273H59.0341V225.659H59.125C59.2841 225.189 59.5644 224.82 59.9659 224.551C60.3712 224.278 60.8295 224.142 61.3409 224.142C61.447 224.142 61.572 224.146 61.7159 224.153C61.8636 224.161 61.9792 224.17 62.0625 224.182V225.807C61.9943 225.788 61.8731 225.767 61.6989 225.744C61.5246 225.718 61.3504 225.705 61.1761 225.705C60.7746 225.705 60.4167 225.79 60.1023 225.96C59.7917 226.127 59.5455 226.36 59.3636 226.659C59.1818 226.955 59.0909 227.292 59.0909 227.67V233H57.392ZM65.0952 230.04L65.0838 227.966H65.3793L68.8565 224.273H70.8906L66.9247 228.477H66.6577L65.0952 230.04ZM63.5327 233V221.364H65.2315V233H63.5327ZM69.044 233L65.919 228.852L67.0895 227.665L71.1293 233H69.044ZM72.4389 233V224.273H74.1378V233H72.4389ZM73.2969 222.926C73.0014 222.926 72.7476 222.828 72.5355 222.631C72.3272 222.43 72.223 222.191 72.223 221.915C72.223 221.634 72.3272 221.396 72.5355 221.199C72.7476 220.998 73.0014 220.898 73.2969 220.898C73.5923 220.898 73.8442 220.998 74.0526 221.199C74.2647 221.396 74.3707 221.634 74.3707 221.915C74.3707 222.191 74.2647 222.43 74.0526 222.631C73.8442 222.828 73.5923 222.926 73.2969 222.926ZM82.9631 226.403L81.4233 226.676C81.3589 226.479 81.2566 226.292 81.1165 226.114C80.9801 225.936 80.7945 225.79 80.5597 225.676C80.3248 225.562 80.0313 225.506 79.679 225.506C79.1979 225.506 78.7964 225.614 78.4744 225.83C78.1525 226.042 77.9915 226.316 77.9915 226.653C77.9915 226.945 78.0994 227.18 78.3153 227.358C78.5313 227.536 78.8797 227.682 79.3608 227.795L80.7472 228.114C81.5502 228.299 82.1487 228.585 82.5426 228.972C82.9366 229.358 83.1335 229.86 83.1335 230.477C83.1335 231 82.982 231.466 82.679 231.875C82.3797 232.28 81.9612 232.598 81.4233 232.83C80.8892 233.061 80.2699 233.176 79.5653 233.176C78.5881 233.176 77.7907 232.968 77.1733 232.551C76.5559 232.131 76.1771 231.534 76.0369 230.761L77.679 230.511C77.7813 230.939 77.9915 231.263 78.3097 231.483C78.6278 231.699 79.0426 231.807 79.554 231.807C80.1108 231.807 80.5559 231.691 80.8892 231.46C81.2225 231.225 81.3892 230.939 81.3892 230.602C81.3892 230.33 81.2869 230.1 81.0824 229.915C80.8816 229.729 80.5729 229.589 80.1562 229.494L78.679 229.17C77.8646 228.985 77.2623 228.689 76.8722 228.284C76.4858 227.879 76.2926 227.366 76.2926 226.744C76.2926 226.229 76.4366 225.778 76.7244 225.392C77.0123 225.006 77.41 224.705 77.9176 224.489C78.4252 224.269 79.0066 224.159 79.6619 224.159C80.6051 224.159 81.3475 224.364 81.8892 224.773C82.4309 225.178 82.7888 225.722 82.9631 226.403ZM86.7003 227.818V233H85.0014V221.364H86.6776V225.693H86.7855C86.9901 225.223 87.3026 224.85 87.723 224.574C88.1435 224.297 88.6927 224.159 89.3707 224.159C89.9692 224.159 90.492 224.282 90.9389 224.528C91.3897 224.775 91.7382 225.142 91.9844 225.631C92.2344 226.116 92.3594 226.722 92.3594 227.449V233H90.6605V227.653C90.6605 227.013 90.4957 226.517 90.1662 226.165C89.8366 225.809 89.3783 225.631 88.7912 225.631C88.3897 225.631 88.0298 225.716 87.7116 225.886C87.3973 226.057 87.1491 226.307 86.9673 226.636C86.7893 226.962 86.7003 227.356 86.7003 227.818Z" fill="#101828"/>
<path d="M316.5 70C316.5 67.7909 318.291 66 320.5 66C322.709 66 324.5 67.7909 324.5 70V218C324.5 220.209 322.709 222 320.5 222C318.291 222 316.5 220.209 316.5 218V70Z" fill="#EAECF0"/>
</g>
<path d="M31.5 62.5H320.5C324.642 62.5 328 65.8579 328 70V374C328 378.142 324.642 381.5 320.5 381.5H31.5C27.3579 381.5 24 378.142 24 374V70C24 65.8579 27.3579 62.5 31.5 62.5Z" stroke="#EAECF0"/>
</g>
</g>
<defs>
<filter id="filter0_d_333_15188" x="-42.5" y="15" width="44" height="44" filterUnits="userSpaceOnUse" color-interpolation-filters="sRGB">
<feFlood flood-opacity="0" result="BackgroundImageFix"/>
<feColorMatrix in="SourceAlpha" type="matrix" values="0 0 0 0 0 0 0 0 0 0 0 0 0 0 0 0 0 0 127 0" result="hardAlpha"/>
<feOffset dy="1"/>
<feGaussianBlur stdDeviation="1"/>
<feComposite in2="hardAlpha" operator="out"/>
<feColorMatrix type="matrix" values="0 0 0 0 0.0627451 0 0 0 0 0.0941176 0 0 0 0 0.156863 0 0 0 0.05 0"/>
<feBlend mode="normal" in2="BackgroundImageFix" result="effect1_dropShadow_333_15188"/>
<feBlend mode="normal" in="SourceGraphic" in2="effect1_dropShadow_333_15188" result="shape"/>
</filter>
<filter id="filter1_dd_333_15188" x="19.5" y="10" width="312.5" height="52" filterUnits="userSpaceOnUse" color-interpolation-filters="sRGB">
<feFlood flood-opacity="0" result="BackgroundImageFix"/>
<feColorMatrix in="SourceAlpha" type="matrix" values="0 0 0 0 0 0 0 0 0 0 0 0 0 0 0 0 0 0 127 0" result="hardAlpha"/>
<feMorphology radius="4" operator="dilate" in="SourceAlpha" result="effect1_dropShadow_333_15188"/>
<feOffset/>
<feComposite in2="hardAlpha" operator="out"/>
<feColorMatrix type="matrix" values="0 0 0 0 0.619608 0 0 0 0 0.466667 0 0 0 0 0.929412 0 0 0 0.24 0"/>
<feBlend mode="normal" in2="BackgroundImageFix" result="effect1_dropShadow_333_15188"/>
<feColorMatrix in="SourceAlpha" type="matrix" values="0 0 0 0 0 0 0 0 0 0 0 0 0 0 0 0 0 0 127 0" result="hardAlpha"/>
<feOffset dy="1"/>
<feGaussianBlur stdDeviation="1"/>
<feComposite in2="hardAlpha" operator="out"/>
<feColorMatrix type="matrix" values="0 0 0 0 0.0627451 0 0 0 0 0.0941176 0 0 0 0 0.156863 0 0 0 0.05 0"/>
<feBlend mode="normal" in2="effect1_dropShadow_333_15188" result="effect2_dropShadow_333_15188"/>
<feBlend mode="normal" in="SourceGraphic" in2="effect2_dropShadow_333_15188" result="shape"/>
</filter>
<filter id="filter2_dd_333_15188" x="11.5" y="62" width="329" height="344" filterUnits="userSpaceOnUse" color-interpolation-filters="sRGB">
<feFlood flood-opacity="0" result="BackgroundImageFix"/>
<feColorMatrix in="SourceAlpha" type="matrix" values="0 0 0 0 0 0 0 0 0 0 0 0 0 0 0 0 0 0 127 0" result="hardAlpha"/>
<feMorphology radius="2" operator="erode" in="SourceAlpha" result="effect1_dropShadow_333_15188"/>
<feOffset dy="4"/>
<feGaussianBlur stdDeviation="3"/>
<feComposite in2="hardAlpha" operator="out"/>
<feColorMatrix type="matrix" values="0 0 0 0 0.0627451 0 0 0 0 0.0941176 0 0 0 0 0.156863 0 0 0 0.03 0"/>
<feBlend mode="normal" in2="BackgroundImageFix" result="effect1_dropShadow_333_15188"/>
<feColorMatrix in="SourceAlpha" type="matrix" values="0 0 0 0 0 0 0 0 0 0 0 0 0 0 0 0 0 0 127 0" result="hardAlpha"/>
<feMorphology radius="4" operator="erode" in="SourceAlpha" result="effect2_dropShadow_333_15188"/>
<feOffset dy="12"/>
<feGaussianBlur stdDeviation="8"/>
<feComposite in2="hardAlpha" operator="out"/>
<feColorMatrix type="matrix" values="0 0 0 0 0.0627451 0 0 0 0 0.0941176 0 0 0 0 0.156863 0 0 0 0.08 0"/>
<feBlend mode="normal" in2="effect1_dropShadow_333_15188" result="effect2_dropShadow_333_15188"/>
<feBlend mode="normal" in="SourceGraphic" in2="effect2_dropShadow_333_15188" result="shape"/>
</filter>
<clipPath id="clip0_333_15188">
<rect width="344" height="226" rx="12" fill="white"/>
</clipPath>
<clipPath id="clip1_333_15188">
<path d="M23.5 70C23.5 65.5817 27.0817 62 31.5 62H320.5C324.918 62 328.5 65.5817 328.5 70V374C328.5 378.418 324.918 382 320.5 382H31.5C27.0817 382 23.5 378.418 23.5 374V70Z" fill="white"/>
</clipPath>
</defs>
</svg>
